G04 #@! TF.GenerationSoftware,KiCad,Pcbnew,8.0.9-8.0.9-0~ubuntu24.04.1*
G04 #@! TF.CreationDate,2025-08-25T14:34:15+01:00*
G04 #@! TF.ProjectId,temper,74656d70-6572-42e6-9b69-6361645f7063,1.0*
G04 #@! TF.SameCoordinates,Original*
G04 #@! TF.FileFunction,Legend,Top*
G04 #@! TF.FilePolarity,Positive*
%FSLAX46Y46*%
G04 Gerber Fmt 4.6, Leading zero omitted, Abs format (unit mm)*
G04 Created by KiCad (PCBNEW 8.0.9-8.0.9-0~ubuntu24.04.1) date 2025-08-25 14:34:15*
%MOMM*%
%LPD*%
G01*
G04 APERTURE LIST*
G04 Aperture macros list*
%AMRoundRect*
0 Rectangle with rounded corners*
0 $1 Rounding radius*
0 $2 $3 $4 $5 $6 $7 $8 $9 X,Y pos of 4 corners*
0 Add a 4 corners polygon primitive as box body*
4,1,4,$2,$3,$4,$5,$6,$7,$8,$9,$2,$3,0*
0 Add four circle primitives for the rounded corners*
1,1,$1+$1,$2,$3*
1,1,$1+$1,$4,$5*
1,1,$1+$1,$6,$7*
1,1,$1+$1,$8,$9*
0 Add four rect primitives between the rounded corners*
20,1,$1+$1,$2,$3,$4,$5,0*
20,1,$1+$1,$4,$5,$6,$7,0*
20,1,$1+$1,$6,$7,$8,$9,0*
20,1,$1+$1,$8,$9,$2,$3,0*%
G04 Aperture macros list end*
%ADD10C,0.100000*%
%ADD11C,0.300000*%
%ADD12C,0.150000*%
%ADD13C,0.120000*%
%ADD14RoundRect,0.250000X-0.625000X0.375000X-0.625000X-0.375000X0.625000X-0.375000X0.625000X0.375000X0*%
%ADD15C,3.200000*%
%ADD16RoundRect,0.237500X0.237500X-0.250000X0.237500X0.250000X-0.237500X0.250000X-0.237500X-0.250000X0*%
%ADD17RoundRect,0.237500X0.250000X0.237500X-0.250000X0.237500X-0.250000X-0.237500X0.250000X-0.237500X0*%
%ADD18R,1.700000X1.700000*%
%ADD19O,1.700000X1.700000*%
%ADD20RoundRect,0.237500X-0.250000X-0.237500X0.250000X-0.237500X0.250000X0.237500X-0.250000X0.237500X0*%
%ADD21RoundRect,0.225000X-0.250000X0.225000X-0.250000X-0.225000X0.250000X-0.225000X0.250000X0.225000X0*%
%ADD22RoundRect,0.225000X0.225000X0.250000X-0.225000X0.250000X-0.225000X-0.250000X0.225000X-0.250000X0*%
%ADD23RoundRect,0.250000X0.625000X-0.375000X0.625000X0.375000X-0.625000X0.375000X-0.625000X-0.375000X0*%
%ADD24RoundRect,0.150000X-0.512500X-0.150000X0.512500X-0.150000X0.512500X0.150000X-0.512500X0.150000X0*%
%ADD25RoundRect,0.150000X-0.587500X-0.150000X0.587500X-0.150000X0.587500X0.150000X-0.587500X0.150000X0*%
%ADD26RoundRect,0.150000X0.587500X0.150000X-0.587500X0.150000X-0.587500X-0.150000X0.587500X-0.150000X0*%
%ADD27O,1.800000X1.800000*%
%ADD28O,1.500000X1.500000*%
%ADD29R,3.500000X1.700000*%
%ADD30R,1.700000X3.500000*%
%ADD31RoundRect,0.250000X0.750000X-0.600000X0.750000X0.600000X-0.750000X0.600000X-0.750000X-0.600000X0*%
%ADD32O,2.000000X1.700000*%
%ADD33R,1.800000X1.500000*%
%ADD34RoundRect,0.237500X-0.237500X0.250000X-0.237500X-0.250000X0.237500X-0.250000X0.237500X0.250000X0*%
%ADD35RoundRect,0.250000X-0.725000X0.600000X-0.725000X-0.600000X0.725000X-0.600000X0.725000X0.600000X0*%
%ADD36O,1.950000X1.700000*%
%ADD37RoundRect,0.200000X-0.200000X-0.275000X0.200000X-0.275000X0.200000X0.275000X-0.200000X0.275000X0*%
%ADD38R,1.500000X1.800000*%
%ADD39RoundRect,0.225000X-0.225000X-0.250000X0.225000X-0.250000X0.225000X0.250000X-0.225000X0.250000X0*%
%ADD40C,4.000000*%
G04 APERTURE END LIST*
D10*
X120375312Y-57027180D02*
X120327693Y-57074800D01*
X120327693Y-57074800D02*
X120184836Y-57122419D01*
X120184836Y-57122419D02*
X120089598Y-57122419D01*
X120089598Y-57122419D02*
X119946741Y-57074800D01*
X119946741Y-57074800D02*
X119851503Y-56979561D01*
X119851503Y-56979561D02*
X119803884Y-56884323D01*
X119803884Y-56884323D02*
X119756265Y-56693847D01*
X119756265Y-56693847D02*
X119756265Y-56550990D01*
X119756265Y-56550990D02*
X119803884Y-56360514D01*
X119803884Y-56360514D02*
X119851503Y-56265276D01*
X119851503Y-56265276D02*
X119946741Y-56170038D01*
X119946741Y-56170038D02*
X120089598Y-56122419D01*
X120089598Y-56122419D02*
X120184836Y-56122419D01*
X120184836Y-56122419D02*
X120327693Y-56170038D01*
X120327693Y-56170038D02*
X120375312Y-56217657D01*
X120803884Y-57122419D02*
X120803884Y-56122419D01*
X121232455Y-57122419D02*
X121232455Y-56598609D01*
X121232455Y-56598609D02*
X121184836Y-56503371D01*
X121184836Y-56503371D02*
X121089598Y-56455752D01*
X121089598Y-56455752D02*
X120946741Y-56455752D01*
X120946741Y-56455752D02*
X120851503Y-56503371D01*
X120851503Y-56503371D02*
X120803884Y-56550990D01*
X122137217Y-57122419D02*
X122137217Y-56598609D01*
X122137217Y-56598609D02*
X122089598Y-56503371D01*
X122089598Y-56503371D02*
X121994360Y-56455752D01*
X121994360Y-56455752D02*
X121803884Y-56455752D01*
X121803884Y-56455752D02*
X121708646Y-56503371D01*
X122137217Y-57074800D02*
X122041979Y-57122419D01*
X122041979Y-57122419D02*
X121803884Y-57122419D01*
X121803884Y-57122419D02*
X121708646Y-57074800D01*
X121708646Y-57074800D02*
X121661027Y-56979561D01*
X121661027Y-56979561D02*
X121661027Y-56884323D01*
X121661027Y-56884323D02*
X121708646Y-56789085D01*
X121708646Y-56789085D02*
X121803884Y-56741466D01*
X121803884Y-56741466D02*
X122041979Y-56741466D01*
X122041979Y-56741466D02*
X122137217Y-56693847D01*
X122613408Y-57122419D02*
X122613408Y-56455752D01*
X122613408Y-56646228D02*
X122661027Y-56550990D01*
X122661027Y-56550990D02*
X122708646Y-56503371D01*
X122708646Y-56503371D02*
X122803884Y-56455752D01*
X122803884Y-56455752D02*
X122899122Y-56455752D01*
X123661027Y-56455752D02*
X123661027Y-57265276D01*
X123661027Y-57265276D02*
X123613408Y-57360514D01*
X123613408Y-57360514D02*
X123565789Y-57408133D01*
X123565789Y-57408133D02*
X123470551Y-57455752D01*
X123470551Y-57455752D02*
X123327694Y-57455752D01*
X123327694Y-57455752D02*
X123232456Y-57408133D01*
X123661027Y-57074800D02*
X123565789Y-57122419D01*
X123565789Y-57122419D02*
X123375313Y-57122419D01*
X123375313Y-57122419D02*
X123280075Y-57074800D01*
X123280075Y-57074800D02*
X123232456Y-57027180D01*
X123232456Y-57027180D02*
X123184837Y-56931942D01*
X123184837Y-56931942D02*
X123184837Y-56646228D01*
X123184837Y-56646228D02*
X123232456Y-56550990D01*
X123232456Y-56550990D02*
X123280075Y-56503371D01*
X123280075Y-56503371D02*
X123375313Y-56455752D01*
X123375313Y-56455752D02*
X123565789Y-56455752D01*
X123565789Y-56455752D02*
X123661027Y-56503371D01*
X124518170Y-57074800D02*
X124422932Y-57122419D01*
X124422932Y-57122419D02*
X124232456Y-57122419D01*
X124232456Y-57122419D02*
X124137218Y-57074800D01*
X124137218Y-57074800D02*
X124089599Y-56979561D01*
X124089599Y-56979561D02*
X124089599Y-56598609D01*
X124089599Y-56598609D02*
X124137218Y-56503371D01*
X124137218Y-56503371D02*
X124232456Y-56455752D01*
X124232456Y-56455752D02*
X124422932Y-56455752D01*
X124422932Y-56455752D02*
X124518170Y-56503371D01*
X124518170Y-56503371D02*
X124565789Y-56598609D01*
X124565789Y-56598609D02*
X124565789Y-56693847D01*
X124565789Y-56693847D02*
X124089599Y-56789085D01*
D11*
X168840225Y-120885912D02*
X169125939Y-120885912D01*
X169125939Y-120885912D02*
X169268796Y-120957341D01*
X169268796Y-120957341D02*
X169411653Y-121100198D01*
X169411653Y-121100198D02*
X169483082Y-121385912D01*
X169483082Y-121385912D02*
X169483082Y-121885912D01*
X169483082Y-121885912D02*
X169411653Y-122171626D01*
X169411653Y-122171626D02*
X169268796Y-122314484D01*
X169268796Y-122314484D02*
X169125939Y-122385912D01*
X169125939Y-122385912D02*
X168840225Y-122385912D01*
X168840225Y-122385912D02*
X168697368Y-122314484D01*
X168697368Y-122314484D02*
X168554510Y-122171626D01*
X168554510Y-122171626D02*
X168483082Y-121885912D01*
X168483082Y-121885912D02*
X168483082Y-121385912D01*
X168483082Y-121385912D02*
X168554510Y-121100198D01*
X168554510Y-121100198D02*
X168697368Y-120957341D01*
X168697368Y-120957341D02*
X168840225Y-120885912D01*
X170125939Y-122385912D02*
X170125939Y-120885912D01*
X170125939Y-120885912D02*
X170983082Y-122385912D01*
X170983082Y-122385912D02*
X170983082Y-120885912D01*
X168840225Y-123300828D02*
X169125939Y-123300828D01*
X169125939Y-123300828D02*
X169268796Y-123372257D01*
X169268796Y-123372257D02*
X169411653Y-123515114D01*
X169411653Y-123515114D02*
X169483082Y-123800828D01*
X169483082Y-123800828D02*
X169483082Y-124300828D01*
X169483082Y-124300828D02*
X169411653Y-124586542D01*
X169411653Y-124586542D02*
X169268796Y-124729400D01*
X169268796Y-124729400D02*
X169125939Y-124800828D01*
X169125939Y-124800828D02*
X168840225Y-124800828D01*
X168840225Y-124800828D02*
X168697368Y-124729400D01*
X168697368Y-124729400D02*
X168554510Y-124586542D01*
X168554510Y-124586542D02*
X168483082Y-124300828D01*
X168483082Y-124300828D02*
X168483082Y-123800828D01*
X168483082Y-123800828D02*
X168554510Y-123515114D01*
X168554510Y-123515114D02*
X168697368Y-123372257D01*
X168697368Y-123372257D02*
X168840225Y-123300828D01*
X170625939Y-124015114D02*
X170125939Y-124015114D01*
X170125939Y-124800828D02*
X170125939Y-123300828D01*
X170125939Y-123300828D02*
X170840225Y-123300828D01*
X171911653Y-124015114D02*
X171411653Y-124015114D01*
X171411653Y-124800828D02*
X171411653Y-123300828D01*
X171411653Y-123300828D02*
X172125939Y-123300828D01*
X136054510Y-131600198D02*
X135554510Y-131600198D01*
X135554510Y-132385912D02*
X135554510Y-130885912D01*
X135554510Y-130885912D02*
X136268796Y-130885912D01*
X136768796Y-131957341D02*
X137483082Y-131957341D01*
X136625939Y-132385912D02*
X137125939Y-130885912D01*
X137125939Y-130885912D02*
X137625939Y-132385912D01*
X138983081Y-132243055D02*
X138911653Y-132314484D01*
X138911653Y-132314484D02*
X138697367Y-132385912D01*
X138697367Y-132385912D02*
X138554510Y-132385912D01*
X138554510Y-132385912D02*
X138340224Y-132314484D01*
X138340224Y-132314484D02*
X138197367Y-132171626D01*
X138197367Y-132171626D02*
X138125938Y-132028769D01*
X138125938Y-132028769D02*
X138054510Y-131743055D01*
X138054510Y-131743055D02*
X138054510Y-131528769D01*
X138054510Y-131528769D02*
X138125938Y-131243055D01*
X138125938Y-131243055D02*
X138197367Y-131100198D01*
X138197367Y-131100198D02*
X138340224Y-130957341D01*
X138340224Y-130957341D02*
X138554510Y-130885912D01*
X138554510Y-130885912D02*
X138697367Y-130885912D01*
X138697367Y-130885912D02*
X138911653Y-130957341D01*
X138911653Y-130957341D02*
X138983081Y-131028769D01*
X139411653Y-130885912D02*
X140268796Y-130885912D01*
X139840224Y-132385912D02*
X139840224Y-130885912D01*
X141054510Y-130885912D02*
X141340224Y-130885912D01*
X141340224Y-130885912D02*
X141483081Y-130957341D01*
X141483081Y-130957341D02*
X141625938Y-131100198D01*
X141625938Y-131100198D02*
X141697367Y-131385912D01*
X141697367Y-131385912D02*
X141697367Y-131885912D01*
X141697367Y-131885912D02*
X141625938Y-132171626D01*
X141625938Y-132171626D02*
X141483081Y-132314484D01*
X141483081Y-132314484D02*
X141340224Y-132385912D01*
X141340224Y-132385912D02*
X141054510Y-132385912D01*
X141054510Y-132385912D02*
X140911653Y-132314484D01*
X140911653Y-132314484D02*
X140768795Y-132171626D01*
X140768795Y-132171626D02*
X140697367Y-131885912D01*
X140697367Y-131885912D02*
X140697367Y-131385912D01*
X140697367Y-131385912D02*
X140768795Y-131100198D01*
X140768795Y-131100198D02*
X140911653Y-130957341D01*
X140911653Y-130957341D02*
X141054510Y-130885912D01*
X143197367Y-132385912D02*
X142697367Y-131671626D01*
X142340224Y-132385912D02*
X142340224Y-130885912D01*
X142340224Y-130885912D02*
X142911653Y-130885912D01*
X142911653Y-130885912D02*
X143054510Y-130957341D01*
X143054510Y-130957341D02*
X143125939Y-131028769D01*
X143125939Y-131028769D02*
X143197367Y-131171626D01*
X143197367Y-131171626D02*
X143197367Y-131385912D01*
X143197367Y-131385912D02*
X143125939Y-131528769D01*
X143125939Y-131528769D02*
X143054510Y-131600198D01*
X143054510Y-131600198D02*
X142911653Y-131671626D01*
X142911653Y-131671626D02*
X142340224Y-131671626D01*
X144125939Y-131671626D02*
X144125939Y-132385912D01*
X143625939Y-130885912D02*
X144125939Y-131671626D01*
X144125939Y-131671626D02*
X144625939Y-130885912D01*
X135554510Y-134800828D02*
X135554510Y-133300828D01*
X135554510Y-133300828D02*
X135911653Y-133300828D01*
X135911653Y-133300828D02*
X136125939Y-133372257D01*
X136125939Y-133372257D02*
X136268796Y-133515114D01*
X136268796Y-133515114D02*
X136340225Y-133657971D01*
X136340225Y-133657971D02*
X136411653Y-133943685D01*
X136411653Y-133943685D02*
X136411653Y-134157971D01*
X136411653Y-134157971D02*
X136340225Y-134443685D01*
X136340225Y-134443685D02*
X136268796Y-134586542D01*
X136268796Y-134586542D02*
X136125939Y-134729400D01*
X136125939Y-134729400D02*
X135911653Y-134800828D01*
X135911653Y-134800828D02*
X135554510Y-134800828D01*
X137054510Y-134015114D02*
X137554510Y-134015114D01*
X137768796Y-134800828D02*
X137054510Y-134800828D01*
X137054510Y-134800828D02*
X137054510Y-133300828D01*
X137054510Y-133300828D02*
X137768796Y-133300828D01*
X138911653Y-134015114D02*
X138411653Y-134015114D01*
X138411653Y-134800828D02*
X138411653Y-133300828D01*
X138411653Y-133300828D02*
X139125939Y-133300828D01*
X139625939Y-134372257D02*
X140340225Y-134372257D01*
X139483082Y-134800828D02*
X139983082Y-133300828D01*
X139983082Y-133300828D02*
X140483082Y-134800828D01*
X140983081Y-133300828D02*
X140983081Y-134515114D01*
X140983081Y-134515114D02*
X141054510Y-134657971D01*
X141054510Y-134657971D02*
X141125939Y-134729400D01*
X141125939Y-134729400D02*
X141268796Y-134800828D01*
X141268796Y-134800828D02*
X141554510Y-134800828D01*
X141554510Y-134800828D02*
X141697367Y-134729400D01*
X141697367Y-134729400D02*
X141768796Y-134657971D01*
X141768796Y-134657971D02*
X141840224Y-134515114D01*
X141840224Y-134515114D02*
X141840224Y-133300828D01*
X143268796Y-134800828D02*
X142554510Y-134800828D01*
X142554510Y-134800828D02*
X142554510Y-133300828D01*
X143554511Y-133300828D02*
X144411654Y-133300828D01*
X143983082Y-134800828D02*
X143983082Y-133300828D01*
X144840225Y-134729400D02*
X145054511Y-134800828D01*
X145054511Y-134800828D02*
X145411653Y-134800828D01*
X145411653Y-134800828D02*
X145554511Y-134729400D01*
X145554511Y-134729400D02*
X145625939Y-134657971D01*
X145625939Y-134657971D02*
X145697368Y-134515114D01*
X145697368Y-134515114D02*
X145697368Y-134372257D01*
X145697368Y-134372257D02*
X145625939Y-134229400D01*
X145625939Y-134229400D02*
X145554511Y-134157971D01*
X145554511Y-134157971D02*
X145411653Y-134086542D01*
X145411653Y-134086542D02*
X145125939Y-134015114D01*
X145125939Y-134015114D02*
X144983082Y-133943685D01*
X144983082Y-133943685D02*
X144911653Y-133872257D01*
X144911653Y-133872257D02*
X144840225Y-133729400D01*
X144840225Y-133729400D02*
X144840225Y-133586542D01*
X144840225Y-133586542D02*
X144911653Y-133443685D01*
X144911653Y-133443685D02*
X144983082Y-133372257D01*
X144983082Y-133372257D02*
X145125939Y-133300828D01*
X145125939Y-133300828D02*
X145483082Y-133300828D01*
X145483082Y-133300828D02*
X145697368Y-133372257D01*
X164340225Y-59470996D02*
X165197368Y-59470996D01*
X164768796Y-60970996D02*
X164768796Y-59470996D01*
X166268796Y-60899568D02*
X166125939Y-60970996D01*
X166125939Y-60970996D02*
X165840225Y-60970996D01*
X165840225Y-60970996D02*
X165697367Y-60899568D01*
X165697367Y-60899568D02*
X165625939Y-60756710D01*
X165625939Y-60756710D02*
X165625939Y-60185282D01*
X165625939Y-60185282D02*
X165697367Y-60042425D01*
X165697367Y-60042425D02*
X165840225Y-59970996D01*
X165840225Y-59970996D02*
X166125939Y-59970996D01*
X166125939Y-59970996D02*
X166268796Y-60042425D01*
X166268796Y-60042425D02*
X166340225Y-60185282D01*
X166340225Y-60185282D02*
X166340225Y-60328139D01*
X166340225Y-60328139D02*
X165625939Y-60470996D01*
X166983081Y-60970996D02*
X166983081Y-59970996D01*
X166983081Y-60113853D02*
X167054510Y-60042425D01*
X167054510Y-60042425D02*
X167197367Y-59970996D01*
X167197367Y-59970996D02*
X167411653Y-59970996D01*
X167411653Y-59970996D02*
X167554510Y-60042425D01*
X167554510Y-60042425D02*
X167625939Y-60185282D01*
X167625939Y-60185282D02*
X167625939Y-60970996D01*
X167625939Y-60185282D02*
X167697367Y-60042425D01*
X167697367Y-60042425D02*
X167840224Y-59970996D01*
X167840224Y-59970996D02*
X168054510Y-59970996D01*
X168054510Y-59970996D02*
X168197367Y-60042425D01*
X168197367Y-60042425D02*
X168268796Y-60185282D01*
X168268796Y-60185282D02*
X168268796Y-60970996D01*
X168983081Y-59970996D02*
X168983081Y-61470996D01*
X168983081Y-60042425D02*
X169125939Y-59970996D01*
X169125939Y-59970996D02*
X169411653Y-59970996D01*
X169411653Y-59970996D02*
X169554510Y-60042425D01*
X169554510Y-60042425D02*
X169625939Y-60113853D01*
X169625939Y-60113853D02*
X169697367Y-60256710D01*
X169697367Y-60256710D02*
X169697367Y-60685282D01*
X169697367Y-60685282D02*
X169625939Y-60828139D01*
X169625939Y-60828139D02*
X169554510Y-60899568D01*
X169554510Y-60899568D02*
X169411653Y-60970996D01*
X169411653Y-60970996D02*
X169125939Y-60970996D01*
X169125939Y-60970996D02*
X168983081Y-60899568D01*
X170911653Y-60899568D02*
X170768796Y-60970996D01*
X170768796Y-60970996D02*
X170483082Y-60970996D01*
X170483082Y-60970996D02*
X170340224Y-60899568D01*
X170340224Y-60899568D02*
X170268796Y-60756710D01*
X170268796Y-60756710D02*
X170268796Y-60185282D01*
X170268796Y-60185282D02*
X170340224Y-60042425D01*
X170340224Y-60042425D02*
X170483082Y-59970996D01*
X170483082Y-59970996D02*
X170768796Y-59970996D01*
X170768796Y-59970996D02*
X170911653Y-60042425D01*
X170911653Y-60042425D02*
X170983082Y-60185282D01*
X170983082Y-60185282D02*
X170983082Y-60328139D01*
X170983082Y-60328139D02*
X170268796Y-60470996D01*
X171625938Y-60970996D02*
X171625938Y-59970996D01*
X171625938Y-60256710D02*
X171697367Y-60113853D01*
X171697367Y-60113853D02*
X171768796Y-60042425D01*
X171768796Y-60042425D02*
X171911653Y-59970996D01*
X171911653Y-59970996D02*
X172054510Y-59970996D01*
X164340225Y-61885912D02*
X164840225Y-63385912D01*
X164840225Y-63385912D02*
X165340225Y-61885912D01*
X166625939Y-63385912D02*
X165768796Y-63385912D01*
X166197367Y-63385912D02*
X166197367Y-61885912D01*
X166197367Y-61885912D02*
X166054510Y-62100198D01*
X166054510Y-62100198D02*
X165911653Y-62243055D01*
X165911653Y-62243055D02*
X165768796Y-62314484D01*
X167268795Y-63243055D02*
X167340224Y-63314484D01*
X167340224Y-63314484D02*
X167268795Y-63385912D01*
X167268795Y-63385912D02*
X167197367Y-63314484D01*
X167197367Y-63314484D02*
X167268795Y-63243055D01*
X167268795Y-63243055D02*
X167268795Y-63385912D01*
X168268796Y-61885912D02*
X168411653Y-61885912D01*
X168411653Y-61885912D02*
X168554510Y-61957341D01*
X168554510Y-61957341D02*
X168625939Y-62028769D01*
X168625939Y-62028769D02*
X168697367Y-62171626D01*
X168697367Y-62171626D02*
X168768796Y-62457341D01*
X168768796Y-62457341D02*
X168768796Y-62814484D01*
X168768796Y-62814484D02*
X168697367Y-63100198D01*
X168697367Y-63100198D02*
X168625939Y-63243055D01*
X168625939Y-63243055D02*
X168554510Y-63314484D01*
X168554510Y-63314484D02*
X168411653Y-63385912D01*
X168411653Y-63385912D02*
X168268796Y-63385912D01*
X168268796Y-63385912D02*
X168125939Y-63314484D01*
X168125939Y-63314484D02*
X168054510Y-63243055D01*
X168054510Y-63243055D02*
X167983081Y-63100198D01*
X167983081Y-63100198D02*
X167911653Y-62814484D01*
X167911653Y-62814484D02*
X167911653Y-62457341D01*
X167911653Y-62457341D02*
X167983081Y-62171626D01*
X167983081Y-62171626D02*
X168054510Y-62028769D01*
X168054510Y-62028769D02*
X168125939Y-61957341D01*
X168125939Y-61957341D02*
X168268796Y-61885912D01*
X164483082Y-65372257D02*
X165197368Y-65372257D01*
X164340225Y-65800828D02*
X164840225Y-64300828D01*
X164840225Y-64300828D02*
X165340225Y-65800828D01*
X165768796Y-65729400D02*
X165983082Y-65800828D01*
X165983082Y-65800828D02*
X166340224Y-65800828D01*
X166340224Y-65800828D02*
X166483082Y-65729400D01*
X166483082Y-65729400D02*
X166554510Y-65657971D01*
X166554510Y-65657971D02*
X166625939Y-65515114D01*
X166625939Y-65515114D02*
X166625939Y-65372257D01*
X166625939Y-65372257D02*
X166554510Y-65229400D01*
X166554510Y-65229400D02*
X166483082Y-65157971D01*
X166483082Y-65157971D02*
X166340224Y-65086542D01*
X166340224Y-65086542D02*
X166054510Y-65015114D01*
X166054510Y-65015114D02*
X165911653Y-64943685D01*
X165911653Y-64943685D02*
X165840224Y-64872257D01*
X165840224Y-64872257D02*
X165768796Y-64729400D01*
X165768796Y-64729400D02*
X165768796Y-64586542D01*
X165768796Y-64586542D02*
X165840224Y-64443685D01*
X165840224Y-64443685D02*
X165911653Y-64372257D01*
X165911653Y-64372257D02*
X166054510Y-64300828D01*
X166054510Y-64300828D02*
X166411653Y-64300828D01*
X166411653Y-64300828D02*
X166625939Y-64372257D01*
X167554510Y-65086542D02*
X167554510Y-65800828D01*
X167054510Y-64300828D02*
X167554510Y-65086542D01*
X167554510Y-65086542D02*
X168054510Y-64300828D01*
X168840224Y-64300828D02*
X168983081Y-64300828D01*
X168983081Y-64300828D02*
X169125938Y-64372257D01*
X169125938Y-64372257D02*
X169197367Y-64443685D01*
X169197367Y-64443685D02*
X169268795Y-64586542D01*
X169268795Y-64586542D02*
X169340224Y-64872257D01*
X169340224Y-64872257D02*
X169340224Y-65229400D01*
X169340224Y-65229400D02*
X169268795Y-65515114D01*
X169268795Y-65515114D02*
X169197367Y-65657971D01*
X169197367Y-65657971D02*
X169125938Y-65729400D01*
X169125938Y-65729400D02*
X168983081Y-65800828D01*
X168983081Y-65800828D02*
X168840224Y-65800828D01*
X168840224Y-65800828D02*
X168697367Y-65729400D01*
X168697367Y-65729400D02*
X168625938Y-65657971D01*
X168625938Y-65657971D02*
X168554509Y-65515114D01*
X168554509Y-65515114D02*
X168483081Y-65229400D01*
X168483081Y-65229400D02*
X168483081Y-64872257D01*
X168483081Y-64872257D02*
X168554509Y-64586542D01*
X168554509Y-64586542D02*
X168625938Y-64443685D01*
X168625938Y-64443685D02*
X168697367Y-64372257D01*
X168697367Y-64372257D02*
X168840224Y-64300828D01*
X170625938Y-64800828D02*
X170625938Y-65800828D01*
X170268795Y-64229400D02*
X169911652Y-65300828D01*
X169911652Y-65300828D02*
X170840223Y-65300828D01*
X171697366Y-64300828D02*
X171840223Y-64300828D01*
X171840223Y-64300828D02*
X171983080Y-64372257D01*
X171983080Y-64372257D02*
X172054509Y-64443685D01*
X172054509Y-64443685D02*
X172125937Y-64586542D01*
X172125937Y-64586542D02*
X172197366Y-64872257D01*
X172197366Y-64872257D02*
X172197366Y-65229400D01*
X172197366Y-65229400D02*
X172125937Y-65515114D01*
X172125937Y-65515114D02*
X172054509Y-65657971D01*
X172054509Y-65657971D02*
X171983080Y-65729400D01*
X171983080Y-65729400D02*
X171840223Y-65800828D01*
X171840223Y-65800828D02*
X171697366Y-65800828D01*
X171697366Y-65800828D02*
X171554509Y-65729400D01*
X171554509Y-65729400D02*
X171483080Y-65657971D01*
X171483080Y-65657971D02*
X171411651Y-65515114D01*
X171411651Y-65515114D02*
X171340223Y-65229400D01*
X171340223Y-65229400D02*
X171340223Y-64872257D01*
X171340223Y-64872257D02*
X171411651Y-64586542D01*
X171411651Y-64586542D02*
X171483080Y-64443685D01*
X171483080Y-64443685D02*
X171554509Y-64372257D01*
X171554509Y-64372257D02*
X171697366Y-64300828D01*
X173125937Y-64300828D02*
X173268794Y-64300828D01*
X173268794Y-64300828D02*
X173411651Y-64372257D01*
X173411651Y-64372257D02*
X173483080Y-64443685D01*
X173483080Y-64443685D02*
X173554508Y-64586542D01*
X173554508Y-64586542D02*
X173625937Y-64872257D01*
X173625937Y-64872257D02*
X173625937Y-65229400D01*
X173625937Y-65229400D02*
X173554508Y-65515114D01*
X173554508Y-65515114D02*
X173483080Y-65657971D01*
X173483080Y-65657971D02*
X173411651Y-65729400D01*
X173411651Y-65729400D02*
X173268794Y-65800828D01*
X173268794Y-65800828D02*
X173125937Y-65800828D01*
X173125937Y-65800828D02*
X172983080Y-65729400D01*
X172983080Y-65729400D02*
X172911651Y-65657971D01*
X172911651Y-65657971D02*
X172840222Y-65515114D01*
X172840222Y-65515114D02*
X172768794Y-65229400D01*
X172768794Y-65229400D02*
X172768794Y-64872257D01*
X172768794Y-64872257D02*
X172840222Y-64586542D01*
X172840222Y-64586542D02*
X172911651Y-64443685D01*
X172911651Y-64443685D02*
X172983080Y-64372257D01*
X172983080Y-64372257D02*
X173125937Y-64300828D01*
X174054508Y-64300828D02*
X174554508Y-65800828D01*
X174554508Y-65800828D02*
X175054508Y-64300828D01*
X176340222Y-65800828D02*
X175483079Y-65800828D01*
X175911650Y-65800828D02*
X175911650Y-64300828D01*
X175911650Y-64300828D02*
X175768793Y-64515114D01*
X175768793Y-64515114D02*
X175625936Y-64657971D01*
X175625936Y-64657971D02*
X175483079Y-64729400D01*
X176983078Y-65657971D02*
X177054507Y-65729400D01*
X177054507Y-65729400D02*
X176983078Y-65800828D01*
X176983078Y-65800828D02*
X176911650Y-65729400D01*
X176911650Y-65729400D02*
X176983078Y-65657971D01*
X176983078Y-65657971D02*
X176983078Y-65800828D01*
X177983079Y-64300828D02*
X178125936Y-64300828D01*
X178125936Y-64300828D02*
X178268793Y-64372257D01*
X178268793Y-64372257D02*
X178340222Y-64443685D01*
X178340222Y-64443685D02*
X178411650Y-64586542D01*
X178411650Y-64586542D02*
X178483079Y-64872257D01*
X178483079Y-64872257D02*
X178483079Y-65229400D01*
X178483079Y-65229400D02*
X178411650Y-65515114D01*
X178411650Y-65515114D02*
X178340222Y-65657971D01*
X178340222Y-65657971D02*
X178268793Y-65729400D01*
X178268793Y-65729400D02*
X178125936Y-65800828D01*
X178125936Y-65800828D02*
X177983079Y-65800828D01*
X177983079Y-65800828D02*
X177840222Y-65729400D01*
X177840222Y-65729400D02*
X177768793Y-65657971D01*
X177768793Y-65657971D02*
X177697364Y-65515114D01*
X177697364Y-65515114D02*
X177625936Y-65229400D01*
X177625936Y-65229400D02*
X177625936Y-64872257D01*
X177625936Y-64872257D02*
X177697364Y-64586542D01*
X177697364Y-64586542D02*
X177768793Y-64443685D01*
X177768793Y-64443685D02*
X177840222Y-64372257D01*
X177840222Y-64372257D02*
X177983079Y-64300828D01*
X155911653Y-135050828D02*
X155411653Y-134336542D01*
X155054510Y-135050828D02*
X155054510Y-133550828D01*
X155054510Y-133550828D02*
X155625939Y-133550828D01*
X155625939Y-133550828D02*
X155768796Y-133622257D01*
X155768796Y-133622257D02*
X155840225Y-133693685D01*
X155840225Y-133693685D02*
X155911653Y-133836542D01*
X155911653Y-133836542D02*
X155911653Y-134050828D01*
X155911653Y-134050828D02*
X155840225Y-134193685D01*
X155840225Y-134193685D02*
X155768796Y-134265114D01*
X155768796Y-134265114D02*
X155625939Y-134336542D01*
X155625939Y-134336542D02*
X155054510Y-134336542D01*
X156554510Y-134265114D02*
X157054510Y-134265114D01*
X157268796Y-135050828D02*
X156554510Y-135050828D01*
X156554510Y-135050828D02*
X156554510Y-133550828D01*
X156554510Y-133550828D02*
X157268796Y-133550828D01*
X157840225Y-134979400D02*
X158054511Y-135050828D01*
X158054511Y-135050828D02*
X158411653Y-135050828D01*
X158411653Y-135050828D02*
X158554511Y-134979400D01*
X158554511Y-134979400D02*
X158625939Y-134907971D01*
X158625939Y-134907971D02*
X158697368Y-134765114D01*
X158697368Y-134765114D02*
X158697368Y-134622257D01*
X158697368Y-134622257D02*
X158625939Y-134479400D01*
X158625939Y-134479400D02*
X158554511Y-134407971D01*
X158554511Y-134407971D02*
X158411653Y-134336542D01*
X158411653Y-134336542D02*
X158125939Y-134265114D01*
X158125939Y-134265114D02*
X157983082Y-134193685D01*
X157983082Y-134193685D02*
X157911653Y-134122257D01*
X157911653Y-134122257D02*
X157840225Y-133979400D01*
X157840225Y-133979400D02*
X157840225Y-133836542D01*
X157840225Y-133836542D02*
X157911653Y-133693685D01*
X157911653Y-133693685D02*
X157983082Y-133622257D01*
X157983082Y-133622257D02*
X158125939Y-133550828D01*
X158125939Y-133550828D02*
X158483082Y-133550828D01*
X158483082Y-133550828D02*
X158697368Y-133622257D01*
X159340224Y-134265114D02*
X159840224Y-134265114D01*
X160054510Y-135050828D02*
X159340224Y-135050828D01*
X159340224Y-135050828D02*
X159340224Y-133550828D01*
X159340224Y-133550828D02*
X160054510Y-133550828D01*
X160483082Y-133550828D02*
X161340225Y-133550828D01*
X160911653Y-135050828D02*
X160911653Y-133550828D01*
D12*
X128954819Y-130575594D02*
X127954819Y-130575594D01*
X127954819Y-130575594D02*
X127954819Y-130337499D01*
X127954819Y-130337499D02*
X128002438Y-130194642D01*
X128002438Y-130194642D02*
X128097676Y-130099404D01*
X128097676Y-130099404D02*
X128192914Y-130051785D01*
X128192914Y-130051785D02*
X128383390Y-130004166D01*
X128383390Y-130004166D02*
X128526247Y-130004166D01*
X128526247Y-130004166D02*
X128716723Y-130051785D01*
X128716723Y-130051785D02*
X128811961Y-130099404D01*
X128811961Y-130099404D02*
X128907200Y-130194642D01*
X128907200Y-130194642D02*
X128954819Y-130337499D01*
X128954819Y-130337499D02*
X128954819Y-130575594D01*
X128288152Y-129147023D02*
X128954819Y-129147023D01*
X127907200Y-129385118D02*
X128621485Y-129623213D01*
X128621485Y-129623213D02*
X128621485Y-129004166D01*
X165774819Y-126829166D02*
X165298628Y-127162499D01*
X165774819Y-127400594D02*
X164774819Y-127400594D01*
X164774819Y-127400594D02*
X164774819Y-127019642D01*
X164774819Y-127019642D02*
X164822438Y-126924404D01*
X164822438Y-126924404D02*
X164870057Y-126876785D01*
X164870057Y-126876785D02*
X164965295Y-126829166D01*
X164965295Y-126829166D02*
X165108152Y-126829166D01*
X165108152Y-126829166D02*
X165203390Y-126876785D01*
X165203390Y-126876785D02*
X165251009Y-126924404D01*
X165251009Y-126924404D02*
X165298628Y-127019642D01*
X165298628Y-127019642D02*
X165298628Y-127400594D01*
X164870057Y-126448213D02*
X164822438Y-126400594D01*
X164822438Y-126400594D02*
X164774819Y-126305356D01*
X164774819Y-126305356D02*
X164774819Y-126067261D01*
X164774819Y-126067261D02*
X164822438Y-125972023D01*
X164822438Y-125972023D02*
X164870057Y-125924404D01*
X164870057Y-125924404D02*
X164965295Y-125876785D01*
X164965295Y-125876785D02*
X165060533Y-125876785D01*
X165060533Y-125876785D02*
X165203390Y-125924404D01*
X165203390Y-125924404D02*
X165774819Y-126495832D01*
X165774819Y-126495832D02*
X165774819Y-125876785D01*
X171008333Y-103454819D02*
X170675000Y-102978628D01*
X170436905Y-103454819D02*
X170436905Y-102454819D01*
X170436905Y-102454819D02*
X170817857Y-102454819D01*
X170817857Y-102454819D02*
X170913095Y-102502438D01*
X170913095Y-102502438D02*
X170960714Y-102550057D01*
X170960714Y-102550057D02*
X171008333Y-102645295D01*
X171008333Y-102645295D02*
X171008333Y-102788152D01*
X171008333Y-102788152D02*
X170960714Y-102883390D01*
X170960714Y-102883390D02*
X170913095Y-102931009D01*
X170913095Y-102931009D02*
X170817857Y-102978628D01*
X170817857Y-102978628D02*
X170436905Y-102978628D01*
X171865476Y-102788152D02*
X171865476Y-103454819D01*
X171627381Y-102407200D02*
X171389286Y-103121485D01*
X171389286Y-103121485D02*
X172008333Y-103121485D01*
X175954819Y-110083333D02*
X176669104Y-110083333D01*
X176669104Y-110083333D02*
X176811961Y-110130952D01*
X176811961Y-110130952D02*
X176907200Y-110226190D01*
X176907200Y-110226190D02*
X176954819Y-110369047D01*
X176954819Y-110369047D02*
X176954819Y-110464285D01*
X176383390Y-109464285D02*
X176335771Y-109559523D01*
X176335771Y-109559523D02*
X176288152Y-109607142D01*
X176288152Y-109607142D02*
X176192914Y-109654761D01*
X176192914Y-109654761D02*
X176145295Y-109654761D01*
X176145295Y-109654761D02*
X176050057Y-109607142D01*
X176050057Y-109607142D02*
X176002438Y-109559523D01*
X176002438Y-109559523D02*
X175954819Y-109464285D01*
X175954819Y-109464285D02*
X175954819Y-109273809D01*
X175954819Y-109273809D02*
X176002438Y-109178571D01*
X176002438Y-109178571D02*
X176050057Y-109130952D01*
X176050057Y-109130952D02*
X176145295Y-109083333D01*
X176145295Y-109083333D02*
X176192914Y-109083333D01*
X176192914Y-109083333D02*
X176288152Y-109130952D01*
X176288152Y-109130952D02*
X176335771Y-109178571D01*
X176335771Y-109178571D02*
X176383390Y-109273809D01*
X176383390Y-109273809D02*
X176383390Y-109464285D01*
X176383390Y-109464285D02*
X176431009Y-109559523D01*
X176431009Y-109559523D02*
X176478628Y-109607142D01*
X176478628Y-109607142D02*
X176573866Y-109654761D01*
X176573866Y-109654761D02*
X176764342Y-109654761D01*
X176764342Y-109654761D02*
X176859580Y-109607142D01*
X176859580Y-109607142D02*
X176907200Y-109559523D01*
X176907200Y-109559523D02*
X176954819Y-109464285D01*
X176954819Y-109464285D02*
X176954819Y-109273809D01*
X176954819Y-109273809D02*
X176907200Y-109178571D01*
X176907200Y-109178571D02*
X176859580Y-109130952D01*
X176859580Y-109130952D02*
X176764342Y-109083333D01*
X176764342Y-109083333D02*
X176573866Y-109083333D01*
X176573866Y-109083333D02*
X176478628Y-109130952D01*
X176478628Y-109130952D02*
X176431009Y-109178571D01*
X176431009Y-109178571D02*
X176383390Y-109273809D01*
X170920833Y-101954819D02*
X170587500Y-101478628D01*
X170349405Y-101954819D02*
X170349405Y-100954819D01*
X170349405Y-100954819D02*
X170730357Y-100954819D01*
X170730357Y-100954819D02*
X170825595Y-101002438D01*
X170825595Y-101002438D02*
X170873214Y-101050057D01*
X170873214Y-101050057D02*
X170920833Y-101145295D01*
X170920833Y-101145295D02*
X170920833Y-101288152D01*
X170920833Y-101288152D02*
X170873214Y-101383390D01*
X170873214Y-101383390D02*
X170825595Y-101431009D01*
X170825595Y-101431009D02*
X170730357Y-101478628D01*
X170730357Y-101478628D02*
X170349405Y-101478628D01*
X171825595Y-100954819D02*
X171349405Y-100954819D01*
X171349405Y-100954819D02*
X171301786Y-101431009D01*
X171301786Y-101431009D02*
X171349405Y-101383390D01*
X171349405Y-101383390D02*
X171444643Y-101335771D01*
X171444643Y-101335771D02*
X171682738Y-101335771D01*
X171682738Y-101335771D02*
X171777976Y-101383390D01*
X171777976Y-101383390D02*
X171825595Y-101431009D01*
X171825595Y-101431009D02*
X171873214Y-101526247D01*
X171873214Y-101526247D02*
X171873214Y-101764342D01*
X171873214Y-101764342D02*
X171825595Y-101859580D01*
X171825595Y-101859580D02*
X171777976Y-101907200D01*
X171777976Y-101907200D02*
X171682738Y-101954819D01*
X171682738Y-101954819D02*
X171444643Y-101954819D01*
X171444643Y-101954819D02*
X171349405Y-101907200D01*
X171349405Y-101907200D02*
X171301786Y-101859580D01*
X145289580Y-127891666D02*
X145337200Y-127939285D01*
X145337200Y-127939285D02*
X145384819Y-128082142D01*
X145384819Y-128082142D02*
X145384819Y-128177380D01*
X145384819Y-128177380D02*
X145337200Y-128320237D01*
X145337200Y-128320237D02*
X145241961Y-128415475D01*
X145241961Y-128415475D02*
X145146723Y-128463094D01*
X145146723Y-128463094D02*
X144956247Y-128510713D01*
X144956247Y-128510713D02*
X144813390Y-128510713D01*
X144813390Y-128510713D02*
X144622914Y-128463094D01*
X144622914Y-128463094D02*
X144527676Y-128415475D01*
X144527676Y-128415475D02*
X144432438Y-128320237D01*
X144432438Y-128320237D02*
X144384819Y-128177380D01*
X144384819Y-128177380D02*
X144384819Y-128082142D01*
X144384819Y-128082142D02*
X144432438Y-127939285D01*
X144432438Y-127939285D02*
X144480057Y-127891666D01*
X145384819Y-126939285D02*
X145384819Y-127510713D01*
X145384819Y-127224999D02*
X144384819Y-127224999D01*
X144384819Y-127224999D02*
X144527676Y-127320237D01*
X144527676Y-127320237D02*
X144622914Y-127415475D01*
X144622914Y-127415475D02*
X144670533Y-127510713D01*
X167058333Y-101789580D02*
X167010714Y-101837200D01*
X167010714Y-101837200D02*
X166867857Y-101884819D01*
X166867857Y-101884819D02*
X166772619Y-101884819D01*
X166772619Y-101884819D02*
X166629762Y-101837200D01*
X166629762Y-101837200D02*
X166534524Y-101741961D01*
X166534524Y-101741961D02*
X166486905Y-101646723D01*
X166486905Y-101646723D02*
X166439286Y-101456247D01*
X166439286Y-101456247D02*
X166439286Y-101313390D01*
X166439286Y-101313390D02*
X166486905Y-101122914D01*
X166486905Y-101122914D02*
X166534524Y-101027676D01*
X166534524Y-101027676D02*
X166629762Y-100932438D01*
X166629762Y-100932438D02*
X166772619Y-100884819D01*
X166772619Y-100884819D02*
X166867857Y-100884819D01*
X166867857Y-100884819D02*
X167010714Y-100932438D01*
X167010714Y-100932438D02*
X167058333Y-100980057D01*
X167439286Y-100980057D02*
X167486905Y-100932438D01*
X167486905Y-100932438D02*
X167582143Y-100884819D01*
X167582143Y-100884819D02*
X167820238Y-100884819D01*
X167820238Y-100884819D02*
X167915476Y-100932438D01*
X167915476Y-100932438D02*
X167963095Y-100980057D01*
X167963095Y-100980057D02*
X168010714Y-101075295D01*
X168010714Y-101075295D02*
X168010714Y-101170533D01*
X168010714Y-101170533D02*
X167963095Y-101313390D01*
X167963095Y-101313390D02*
X167391667Y-101884819D01*
X167391667Y-101884819D02*
X168010714Y-101884819D01*
X171083333Y-108384819D02*
X170750000Y-107908628D01*
X170511905Y-108384819D02*
X170511905Y-107384819D01*
X170511905Y-107384819D02*
X170892857Y-107384819D01*
X170892857Y-107384819D02*
X170988095Y-107432438D01*
X170988095Y-107432438D02*
X171035714Y-107480057D01*
X171035714Y-107480057D02*
X171083333Y-107575295D01*
X171083333Y-107575295D02*
X171083333Y-107718152D01*
X171083333Y-107718152D02*
X171035714Y-107813390D01*
X171035714Y-107813390D02*
X170988095Y-107861009D01*
X170988095Y-107861009D02*
X170892857Y-107908628D01*
X170892857Y-107908628D02*
X170511905Y-107908628D01*
X171416667Y-107384819D02*
X172083333Y-107384819D01*
X172083333Y-107384819D02*
X171654762Y-108384819D01*
X174269642Y-108384819D02*
X173936309Y-107908628D01*
X173698214Y-108384819D02*
X173698214Y-107384819D01*
X173698214Y-107384819D02*
X174079166Y-107384819D01*
X174079166Y-107384819D02*
X174174404Y-107432438D01*
X174174404Y-107432438D02*
X174222023Y-107480057D01*
X174222023Y-107480057D02*
X174269642Y-107575295D01*
X174269642Y-107575295D02*
X174269642Y-107718152D01*
X174269642Y-107718152D02*
X174222023Y-107813390D01*
X174222023Y-107813390D02*
X174174404Y-107861009D01*
X174174404Y-107861009D02*
X174079166Y-107908628D01*
X174079166Y-107908628D02*
X173698214Y-107908628D01*
X175222023Y-108384819D02*
X174650595Y-108384819D01*
X174936309Y-108384819D02*
X174936309Y-107384819D01*
X174936309Y-107384819D02*
X174841071Y-107527676D01*
X174841071Y-107527676D02*
X174745833Y-107622914D01*
X174745833Y-107622914D02*
X174650595Y-107670533D01*
X176174404Y-108384819D02*
X175602976Y-108384819D01*
X175888690Y-108384819D02*
X175888690Y-107384819D01*
X175888690Y-107384819D02*
X175793452Y-107527676D01*
X175793452Y-107527676D02*
X175698214Y-107622914D01*
X175698214Y-107622914D02*
X175602976Y-107670533D01*
X135454819Y-130575594D02*
X134454819Y-130575594D01*
X134454819Y-130575594D02*
X134454819Y-130337499D01*
X134454819Y-130337499D02*
X134502438Y-130194642D01*
X134502438Y-130194642D02*
X134597676Y-130099404D01*
X134597676Y-130099404D02*
X134692914Y-130051785D01*
X134692914Y-130051785D02*
X134883390Y-130004166D01*
X134883390Y-130004166D02*
X135026247Y-130004166D01*
X135026247Y-130004166D02*
X135216723Y-130051785D01*
X135216723Y-130051785D02*
X135311961Y-130099404D01*
X135311961Y-130099404D02*
X135407200Y-130194642D01*
X135407200Y-130194642D02*
X135454819Y-130337499D01*
X135454819Y-130337499D02*
X135454819Y-130575594D01*
X134454819Y-129670832D02*
X134454819Y-129051785D01*
X134454819Y-129051785D02*
X134835771Y-129385118D01*
X134835771Y-129385118D02*
X134835771Y-129242261D01*
X134835771Y-129242261D02*
X134883390Y-129147023D01*
X134883390Y-129147023D02*
X134931009Y-129099404D01*
X134931009Y-129099404D02*
X135026247Y-129051785D01*
X135026247Y-129051785D02*
X135264342Y-129051785D01*
X135264342Y-129051785D02*
X135359580Y-129099404D01*
X135359580Y-129099404D02*
X135407200Y-129147023D01*
X135407200Y-129147023D02*
X135454819Y-129242261D01*
X135454819Y-129242261D02*
X135454819Y-129527975D01*
X135454819Y-129527975D02*
X135407200Y-129623213D01*
X135407200Y-129623213D02*
X135359580Y-129670832D01*
X137690476Y-62554819D02*
X137690476Y-61554819D01*
X137690476Y-61554819D02*
X138023809Y-62269104D01*
X138023809Y-62269104D02*
X138357142Y-61554819D01*
X138357142Y-61554819D02*
X138357142Y-62554819D01*
X138785714Y-61650057D02*
X138833333Y-61602438D01*
X138833333Y-61602438D02*
X138928571Y-61554819D01*
X138928571Y-61554819D02*
X139166666Y-61554819D01*
X139166666Y-61554819D02*
X139261904Y-61602438D01*
X139261904Y-61602438D02*
X139309523Y-61650057D01*
X139309523Y-61650057D02*
X139357142Y-61745295D01*
X139357142Y-61745295D02*
X139357142Y-61840533D01*
X139357142Y-61840533D02*
X139309523Y-61983390D01*
X139309523Y-61983390D02*
X138738095Y-62554819D01*
X138738095Y-62554819D02*
X139357142Y-62554819D01*
X148170833Y-131454819D02*
X147837500Y-130978628D01*
X147599405Y-131454819D02*
X147599405Y-130454819D01*
X147599405Y-130454819D02*
X147980357Y-130454819D01*
X147980357Y-130454819D02*
X148075595Y-130502438D01*
X148075595Y-130502438D02*
X148123214Y-130550057D01*
X148123214Y-130550057D02*
X148170833Y-130645295D01*
X148170833Y-130645295D02*
X148170833Y-130788152D01*
X148170833Y-130788152D02*
X148123214Y-130883390D01*
X148123214Y-130883390D02*
X148075595Y-130931009D01*
X148075595Y-130931009D02*
X147980357Y-130978628D01*
X147980357Y-130978628D02*
X147599405Y-130978628D01*
X148647024Y-131454819D02*
X148837500Y-131454819D01*
X148837500Y-131454819D02*
X148932738Y-131407200D01*
X148932738Y-131407200D02*
X148980357Y-131359580D01*
X148980357Y-131359580D02*
X149075595Y-131216723D01*
X149075595Y-131216723D02*
X149123214Y-131026247D01*
X149123214Y-131026247D02*
X149123214Y-130645295D01*
X149123214Y-130645295D02*
X149075595Y-130550057D01*
X149075595Y-130550057D02*
X149027976Y-130502438D01*
X149027976Y-130502438D02*
X148932738Y-130454819D01*
X148932738Y-130454819D02*
X148742262Y-130454819D01*
X148742262Y-130454819D02*
X148647024Y-130502438D01*
X148647024Y-130502438D02*
X148599405Y-130550057D01*
X148599405Y-130550057D02*
X148551786Y-130645295D01*
X148551786Y-130645295D02*
X148551786Y-130883390D01*
X148551786Y-130883390D02*
X148599405Y-130978628D01*
X148599405Y-130978628D02*
X148647024Y-131026247D01*
X148647024Y-131026247D02*
X148742262Y-131073866D01*
X148742262Y-131073866D02*
X148932738Y-131073866D01*
X148932738Y-131073866D02*
X149027976Y-131026247D01*
X149027976Y-131026247D02*
X149075595Y-130978628D01*
X149075595Y-130978628D02*
X149123214Y-130883390D01*
X147300595Y-125054819D02*
X147300595Y-125864342D01*
X147300595Y-125864342D02*
X147348214Y-125959580D01*
X147348214Y-125959580D02*
X147395833Y-126007200D01*
X147395833Y-126007200D02*
X147491071Y-126054819D01*
X147491071Y-126054819D02*
X147681547Y-126054819D01*
X147681547Y-126054819D02*
X147776785Y-126007200D01*
X147776785Y-126007200D02*
X147824404Y-125959580D01*
X147824404Y-125959580D02*
X147872023Y-125864342D01*
X147872023Y-125864342D02*
X147872023Y-125054819D01*
X148300595Y-125150057D02*
X148348214Y-125102438D01*
X148348214Y-125102438D02*
X148443452Y-125054819D01*
X148443452Y-125054819D02*
X148681547Y-125054819D01*
X148681547Y-125054819D02*
X148776785Y-125102438D01*
X148776785Y-125102438D02*
X148824404Y-125150057D01*
X148824404Y-125150057D02*
X148872023Y-125245295D01*
X148872023Y-125245295D02*
X148872023Y-125340533D01*
X148872023Y-125340533D02*
X148824404Y-125483390D01*
X148824404Y-125483390D02*
X148252976Y-126054819D01*
X148252976Y-126054819D02*
X148872023Y-126054819D01*
X166944642Y-116884819D02*
X166611309Y-116408628D01*
X166373214Y-116884819D02*
X166373214Y-115884819D01*
X166373214Y-115884819D02*
X166754166Y-115884819D01*
X166754166Y-115884819D02*
X166849404Y-115932438D01*
X166849404Y-115932438D02*
X166897023Y-115980057D01*
X166897023Y-115980057D02*
X166944642Y-116075295D01*
X166944642Y-116075295D02*
X166944642Y-116218152D01*
X166944642Y-116218152D02*
X166897023Y-116313390D01*
X166897023Y-116313390D02*
X166849404Y-116361009D01*
X166849404Y-116361009D02*
X166754166Y-116408628D01*
X166754166Y-116408628D02*
X166373214Y-116408628D01*
X167897023Y-116884819D02*
X167325595Y-116884819D01*
X167611309Y-116884819D02*
X167611309Y-115884819D01*
X167611309Y-115884819D02*
X167516071Y-116027676D01*
X167516071Y-116027676D02*
X167420833Y-116122914D01*
X167420833Y-116122914D02*
X167325595Y-116170533D01*
X168277976Y-115980057D02*
X168325595Y-115932438D01*
X168325595Y-115932438D02*
X168420833Y-115884819D01*
X168420833Y-115884819D02*
X168658928Y-115884819D01*
X168658928Y-115884819D02*
X168754166Y-115932438D01*
X168754166Y-115932438D02*
X168801785Y-115980057D01*
X168801785Y-115980057D02*
X168849404Y-116075295D01*
X168849404Y-116075295D02*
X168849404Y-116170533D01*
X168849404Y-116170533D02*
X168801785Y-116313390D01*
X168801785Y-116313390D02*
X168230357Y-116884819D01*
X168230357Y-116884819D02*
X168849404Y-116884819D01*
X171863095Y-92004819D02*
X171863095Y-92814342D01*
X171863095Y-92814342D02*
X171910714Y-92909580D01*
X171910714Y-92909580D02*
X171958333Y-92957200D01*
X171958333Y-92957200D02*
X172053571Y-93004819D01*
X172053571Y-93004819D02*
X172244047Y-93004819D01*
X172244047Y-93004819D02*
X172339285Y-92957200D01*
X172339285Y-92957200D02*
X172386904Y-92909580D01*
X172386904Y-92909580D02*
X172434523Y-92814342D01*
X172434523Y-92814342D02*
X172434523Y-92004819D01*
X173339285Y-92338152D02*
X173339285Y-93004819D01*
X173101190Y-91957200D02*
X172863095Y-92671485D01*
X172863095Y-92671485D02*
X173482142Y-92671485D01*
X145348095Y-97584819D02*
X145348095Y-98394342D01*
X145348095Y-98394342D02*
X145395714Y-98489580D01*
X145395714Y-98489580D02*
X145443333Y-98537200D01*
X145443333Y-98537200D02*
X145538571Y-98584819D01*
X145538571Y-98584819D02*
X145729047Y-98584819D01*
X145729047Y-98584819D02*
X145824285Y-98537200D01*
X145824285Y-98537200D02*
X145871904Y-98489580D01*
X145871904Y-98489580D02*
X145919523Y-98394342D01*
X145919523Y-98394342D02*
X145919523Y-97584819D01*
X146300476Y-97584819D02*
X146919523Y-97584819D01*
X146919523Y-97584819D02*
X146586190Y-97965771D01*
X146586190Y-97965771D02*
X146729047Y-97965771D01*
X146729047Y-97965771D02*
X146824285Y-98013390D01*
X146824285Y-98013390D02*
X146871904Y-98061009D01*
X146871904Y-98061009D02*
X146919523Y-98156247D01*
X146919523Y-98156247D02*
X146919523Y-98394342D01*
X146919523Y-98394342D02*
X146871904Y-98489580D01*
X146871904Y-98489580D02*
X146824285Y-98537200D01*
X146824285Y-98537200D02*
X146729047Y-98584819D01*
X146729047Y-98584819D02*
X146443333Y-98584819D01*
X146443333Y-98584819D02*
X146348095Y-98537200D01*
X146348095Y-98537200D02*
X146300476Y-98489580D01*
X158207998Y-102330868D02*
X158127185Y-102357805D01*
X158127185Y-102357805D02*
X158046373Y-102438618D01*
X158046373Y-102438618D02*
X157992498Y-102546367D01*
X157992498Y-102546367D02*
X157992498Y-102654117D01*
X157992498Y-102654117D02*
X158019436Y-102734929D01*
X158019436Y-102734929D02*
X158100248Y-102869616D01*
X158100248Y-102869616D02*
X158181060Y-102950428D01*
X158181060Y-102950428D02*
X158315747Y-103031241D01*
X158315747Y-103031241D02*
X158396560Y-103058178D01*
X158396560Y-103058178D02*
X158504309Y-103058178D01*
X158504309Y-103058178D02*
X158612059Y-103004303D01*
X158612059Y-103004303D02*
X158665934Y-102950428D01*
X158665934Y-102950428D02*
X158719808Y-102842679D01*
X158719808Y-102842679D02*
X158719808Y-102788804D01*
X158719808Y-102788804D02*
X158531247Y-102600242D01*
X158531247Y-102600242D02*
X158423497Y-102707992D01*
X159016120Y-102600242D02*
X158450434Y-102034557D01*
X158450434Y-102034557D02*
X158665934Y-101819057D01*
X158665934Y-101819057D02*
X158746746Y-101792120D01*
X158746746Y-101792120D02*
X158800621Y-101792120D01*
X158800621Y-101792120D02*
X158881433Y-101819057D01*
X158881433Y-101819057D02*
X158962245Y-101899870D01*
X158962245Y-101899870D02*
X158989182Y-101980682D01*
X158989182Y-101980682D02*
X158989182Y-102034557D01*
X158989182Y-102034557D02*
X158962245Y-102115369D01*
X158962245Y-102115369D02*
X158746746Y-102330868D01*
X159043057Y-101549683D02*
X159043057Y-101495809D01*
X159043057Y-101495809D02*
X159069995Y-101414996D01*
X159069995Y-101414996D02*
X159204682Y-101280309D01*
X159204682Y-101280309D02*
X159285494Y-101253372D01*
X159285494Y-101253372D02*
X159339369Y-101253372D01*
X159339369Y-101253372D02*
X159420181Y-101280309D01*
X159420181Y-101280309D02*
X159474056Y-101334184D01*
X159474056Y-101334184D02*
X159527930Y-101441934D01*
X159527930Y-101441934D02*
X159527930Y-102088431D01*
X159527930Y-102088431D02*
X159878117Y-101738245D01*
X159581805Y-101010935D02*
X159581805Y-100957060D01*
X159581805Y-100957060D02*
X159608743Y-100876248D01*
X159608743Y-100876248D02*
X159743430Y-100741561D01*
X159743430Y-100741561D02*
X159824242Y-100714624D01*
X159824242Y-100714624D02*
X159878117Y-100714624D01*
X159878117Y-100714624D02*
X159958929Y-100741561D01*
X159958929Y-100741561D02*
X160012804Y-100795436D01*
X160012804Y-100795436D02*
X160066679Y-100903186D01*
X160066679Y-100903186D02*
X160066679Y-101549683D01*
X160066679Y-101549683D02*
X160416865Y-101199497D01*
X132053998Y-120110868D02*
X131973185Y-120137805D01*
X131973185Y-120137805D02*
X131892373Y-120218618D01*
X131892373Y-120218618D02*
X131838498Y-120326367D01*
X131838498Y-120326367D02*
X131838498Y-120434117D01*
X131838498Y-120434117D02*
X131865436Y-120514929D01*
X131865436Y-120514929D02*
X131946248Y-120649616D01*
X131946248Y-120649616D02*
X132027060Y-120730428D01*
X132027060Y-120730428D02*
X132161747Y-120811241D01*
X132161747Y-120811241D02*
X132242560Y-120838178D01*
X132242560Y-120838178D02*
X132350309Y-120838178D01*
X132350309Y-120838178D02*
X132458059Y-120784303D01*
X132458059Y-120784303D02*
X132511934Y-120730428D01*
X132511934Y-120730428D02*
X132565808Y-120622679D01*
X132565808Y-120622679D02*
X132565808Y-120568804D01*
X132565808Y-120568804D02*
X132377247Y-120380242D01*
X132377247Y-120380242D02*
X132269497Y-120487992D01*
X132862120Y-120380242D02*
X132296434Y-119814557D01*
X132296434Y-119814557D02*
X132511934Y-119599057D01*
X132511934Y-119599057D02*
X132592746Y-119572120D01*
X132592746Y-119572120D02*
X132646621Y-119572120D01*
X132646621Y-119572120D02*
X132727433Y-119599057D01*
X132727433Y-119599057D02*
X132808245Y-119679870D01*
X132808245Y-119679870D02*
X132835182Y-119760682D01*
X132835182Y-119760682D02*
X132835182Y-119814557D01*
X132835182Y-119814557D02*
X132808245Y-119895369D01*
X132808245Y-119895369D02*
X132592746Y-120110868D01*
X133724117Y-119518245D02*
X133400868Y-119841494D01*
X133562492Y-119679870D02*
X132996807Y-119114184D01*
X132996807Y-119114184D02*
X133023744Y-119248871D01*
X133023744Y-119248871D02*
X133023744Y-119356621D01*
X133023744Y-119356621D02*
X132996807Y-119437433D01*
X133831866Y-118656248D02*
X134208990Y-119033372D01*
X133481680Y-118575436D02*
X133751054Y-119114184D01*
X133751054Y-119114184D02*
X134101240Y-118763998D01*
X158196435Y-104628431D02*
X158115623Y-104655368D01*
X158115623Y-104655368D02*
X158034811Y-104736180D01*
X158034811Y-104736180D02*
X157980936Y-104843930D01*
X157980936Y-104843930D02*
X157980936Y-104951680D01*
X157980936Y-104951680D02*
X158007873Y-105032492D01*
X158007873Y-105032492D02*
X158088685Y-105167179D01*
X158088685Y-105167179D02*
X158169498Y-105247991D01*
X158169498Y-105247991D02*
X158304185Y-105328803D01*
X158304185Y-105328803D02*
X158384997Y-105355741D01*
X158384997Y-105355741D02*
X158492746Y-105355741D01*
X158492746Y-105355741D02*
X158600496Y-105301866D01*
X158600496Y-105301866D02*
X158654371Y-105247991D01*
X158654371Y-105247991D02*
X158708246Y-105140241D01*
X158708246Y-105140241D02*
X158708246Y-105086367D01*
X158708246Y-105086367D02*
X158519684Y-104897805D01*
X158519684Y-104897805D02*
X158411934Y-105005554D01*
X159004557Y-104897805D02*
X158438872Y-104332119D01*
X158438872Y-104332119D02*
X159327806Y-104574556D01*
X159327806Y-104574556D02*
X158762120Y-104008871D01*
X159597180Y-104305182D02*
X159031494Y-103739497D01*
X159031494Y-103739497D02*
X159166181Y-103604810D01*
X159166181Y-103604810D02*
X159273931Y-103550935D01*
X159273931Y-103550935D02*
X159381680Y-103550935D01*
X159381680Y-103550935D02*
X159462493Y-103577872D01*
X159462493Y-103577872D02*
X159597180Y-103658685D01*
X159597180Y-103658685D02*
X159677992Y-103739497D01*
X159677992Y-103739497D02*
X159758804Y-103874184D01*
X159758804Y-103874184D02*
X159785741Y-103954996D01*
X159785741Y-103954996D02*
X159785741Y-104062746D01*
X159785741Y-104062746D02*
X159731867Y-104170495D01*
X159731867Y-104170495D02*
X159597180Y-104305182D01*
X150014761Y-124654200D02*
X150129047Y-124692295D01*
X150129047Y-124692295D02*
X150319523Y-124692295D01*
X150319523Y-124692295D02*
X150395714Y-124654200D01*
X150395714Y-124654200D02*
X150433809Y-124616104D01*
X150433809Y-124616104D02*
X150471904Y-124539914D01*
X150471904Y-124539914D02*
X150471904Y-124463723D01*
X150471904Y-124463723D02*
X150433809Y-124387533D01*
X150433809Y-124387533D02*
X150395714Y-124349438D01*
X150395714Y-124349438D02*
X150319523Y-124311342D01*
X150319523Y-124311342D02*
X150167142Y-124273247D01*
X150167142Y-124273247D02*
X150090952Y-124235152D01*
X150090952Y-124235152D02*
X150052857Y-124197057D01*
X150052857Y-124197057D02*
X150014761Y-124120866D01*
X150014761Y-124120866D02*
X150014761Y-124044676D01*
X150014761Y-124044676D02*
X150052857Y-123968485D01*
X150052857Y-123968485D02*
X150090952Y-123930390D01*
X150090952Y-123930390D02*
X150167142Y-123892295D01*
X150167142Y-123892295D02*
X150357619Y-123892295D01*
X150357619Y-123892295D02*
X150471904Y-123930390D01*
X150738571Y-123892295D02*
X150929047Y-124692295D01*
X150929047Y-124692295D02*
X151081428Y-124120866D01*
X151081428Y-124120866D02*
X151233809Y-124692295D01*
X151233809Y-124692295D02*
X151424286Y-123892295D01*
X151729048Y-124692295D02*
X151729048Y-123892295D01*
X151729048Y-123892295D02*
X151919524Y-123892295D01*
X151919524Y-123892295D02*
X152033810Y-123930390D01*
X152033810Y-123930390D02*
X152110000Y-124006580D01*
X152110000Y-124006580D02*
X152148095Y-124082771D01*
X152148095Y-124082771D02*
X152186191Y-124235152D01*
X152186191Y-124235152D02*
X152186191Y-124349438D01*
X152186191Y-124349438D02*
X152148095Y-124501819D01*
X152148095Y-124501819D02*
X152110000Y-124578009D01*
X152110000Y-124578009D02*
X152033810Y-124654200D01*
X152033810Y-124654200D02*
X151919524Y-124692295D01*
X151919524Y-124692295D02*
X151729048Y-124692295D01*
X152529048Y-124692295D02*
X152529048Y-123892295D01*
X153062381Y-123892295D02*
X153214762Y-123892295D01*
X153214762Y-123892295D02*
X153290952Y-123930390D01*
X153290952Y-123930390D02*
X153367143Y-124006580D01*
X153367143Y-124006580D02*
X153405238Y-124158961D01*
X153405238Y-124158961D02*
X153405238Y-124425628D01*
X153405238Y-124425628D02*
X153367143Y-124578009D01*
X153367143Y-124578009D02*
X153290952Y-124654200D01*
X153290952Y-124654200D02*
X153214762Y-124692295D01*
X153214762Y-124692295D02*
X153062381Y-124692295D01*
X153062381Y-124692295D02*
X152986190Y-124654200D01*
X152986190Y-124654200D02*
X152910000Y-124578009D01*
X152910000Y-124578009D02*
X152871904Y-124425628D01*
X152871904Y-124425628D02*
X152871904Y-124158961D01*
X152871904Y-124158961D02*
X152910000Y-124006580D01*
X152910000Y-124006580D02*
X152986190Y-123930390D01*
X152986190Y-123930390D02*
X153062381Y-123892295D01*
X132099998Y-115030868D02*
X132019185Y-115057805D01*
X132019185Y-115057805D02*
X131938373Y-115138618D01*
X131938373Y-115138618D02*
X131884498Y-115246367D01*
X131884498Y-115246367D02*
X131884498Y-115354117D01*
X131884498Y-115354117D02*
X131911436Y-115434929D01*
X131911436Y-115434929D02*
X131992248Y-115569616D01*
X131992248Y-115569616D02*
X132073060Y-115650428D01*
X132073060Y-115650428D02*
X132207747Y-115731241D01*
X132207747Y-115731241D02*
X132288560Y-115758178D01*
X132288560Y-115758178D02*
X132396309Y-115758178D01*
X132396309Y-115758178D02*
X132504059Y-115704303D01*
X132504059Y-115704303D02*
X132557934Y-115650428D01*
X132557934Y-115650428D02*
X132611808Y-115542679D01*
X132611808Y-115542679D02*
X132611808Y-115488804D01*
X132611808Y-115488804D02*
X132423247Y-115300242D01*
X132423247Y-115300242D02*
X132315497Y-115407992D01*
X132908120Y-115300242D02*
X132342434Y-114734557D01*
X132342434Y-114734557D02*
X132557934Y-114519057D01*
X132557934Y-114519057D02*
X132638746Y-114492120D01*
X132638746Y-114492120D02*
X132692621Y-114492120D01*
X132692621Y-114492120D02*
X132773433Y-114519057D01*
X132773433Y-114519057D02*
X132854245Y-114599870D01*
X132854245Y-114599870D02*
X132881182Y-114680682D01*
X132881182Y-114680682D02*
X132881182Y-114734557D01*
X132881182Y-114734557D02*
X132854245Y-114815369D01*
X132854245Y-114815369D02*
X132638746Y-115030868D01*
X133770117Y-114438245D02*
X133446868Y-114761494D01*
X133608492Y-114599870D02*
X133042807Y-114034184D01*
X133042807Y-114034184D02*
X133069744Y-114168871D01*
X133069744Y-114168871D02*
X133069744Y-114276621D01*
X133069744Y-114276621D02*
X133042807Y-114357433D01*
X133392993Y-113683998D02*
X133743179Y-113333812D01*
X133743179Y-113333812D02*
X133770117Y-113737873D01*
X133770117Y-113737873D02*
X133850929Y-113657060D01*
X133850929Y-113657060D02*
X133931741Y-113630123D01*
X133931741Y-113630123D02*
X133985616Y-113630123D01*
X133985616Y-113630123D02*
X134066428Y-113657060D01*
X134066428Y-113657060D02*
X134201115Y-113791747D01*
X134201115Y-113791747D02*
X134228053Y-113872560D01*
X134228053Y-113872560D02*
X134228053Y-113926434D01*
X134228053Y-113926434D02*
X134201115Y-114007247D01*
X134201115Y-114007247D02*
X134039491Y-114168871D01*
X134039491Y-114168871D02*
X133958679Y-114195808D01*
X133958679Y-114195808D02*
X133904804Y-114195808D01*
X132623372Y-86821494D02*
X132542560Y-86848431D01*
X132542560Y-86848431D02*
X132461748Y-86929243D01*
X132461748Y-86929243D02*
X132407873Y-87036993D01*
X132407873Y-87036993D02*
X132407873Y-87144742D01*
X132407873Y-87144742D02*
X132434810Y-87225555D01*
X132434810Y-87225555D02*
X132515623Y-87360242D01*
X132515623Y-87360242D02*
X132596435Y-87441054D01*
X132596435Y-87441054D02*
X132731122Y-87521866D01*
X132731122Y-87521866D02*
X132811934Y-87548803D01*
X132811934Y-87548803D02*
X132919684Y-87548803D01*
X132919684Y-87548803D02*
X133027433Y-87494929D01*
X133027433Y-87494929D02*
X133081308Y-87441054D01*
X133081308Y-87441054D02*
X133135183Y-87333304D01*
X133135183Y-87333304D02*
X133135183Y-87279429D01*
X133135183Y-87279429D02*
X132946621Y-87090868D01*
X132946621Y-87090868D02*
X132838871Y-87198617D01*
X133431494Y-87090868D02*
X132865809Y-86525182D01*
X132865809Y-86525182D02*
X133081308Y-86309683D01*
X133081308Y-86309683D02*
X133162120Y-86282746D01*
X133162120Y-86282746D02*
X133215995Y-86282746D01*
X133215995Y-86282746D02*
X133296807Y-86309683D01*
X133296807Y-86309683D02*
X133377619Y-86390495D01*
X133377619Y-86390495D02*
X133404557Y-86471307D01*
X133404557Y-86471307D02*
X133404557Y-86525182D01*
X133404557Y-86525182D02*
X133377619Y-86605994D01*
X133377619Y-86605994D02*
X133162120Y-86821494D01*
X133862493Y-85905622D02*
X134239616Y-86282746D01*
X133512306Y-85824810D02*
X133781680Y-86363558D01*
X133781680Y-86363558D02*
X134131867Y-86013372D01*
X132596435Y-117328431D02*
X132515623Y-117355368D01*
X132515623Y-117355368D02*
X132434811Y-117436180D01*
X132434811Y-117436180D02*
X132380936Y-117543930D01*
X132380936Y-117543930D02*
X132380936Y-117651680D01*
X132380936Y-117651680D02*
X132407873Y-117732492D01*
X132407873Y-117732492D02*
X132488685Y-117867179D01*
X132488685Y-117867179D02*
X132569498Y-117947991D01*
X132569498Y-117947991D02*
X132704185Y-118028803D01*
X132704185Y-118028803D02*
X132784997Y-118055741D01*
X132784997Y-118055741D02*
X132892746Y-118055741D01*
X132892746Y-118055741D02*
X133000496Y-118001866D01*
X133000496Y-118001866D02*
X133054371Y-117947991D01*
X133054371Y-117947991D02*
X133108246Y-117840241D01*
X133108246Y-117840241D02*
X133108246Y-117786367D01*
X133108246Y-117786367D02*
X132919684Y-117597805D01*
X132919684Y-117597805D02*
X132811934Y-117705554D01*
X133404557Y-117597805D02*
X132838872Y-117032119D01*
X132838872Y-117032119D02*
X133727806Y-117274556D01*
X133727806Y-117274556D02*
X133162120Y-116708871D01*
X133997180Y-117005182D02*
X133431494Y-116439497D01*
X133431494Y-116439497D02*
X133566181Y-116304810D01*
X133566181Y-116304810D02*
X133673931Y-116250935D01*
X133673931Y-116250935D02*
X133781680Y-116250935D01*
X133781680Y-116250935D02*
X133862493Y-116277872D01*
X133862493Y-116277872D02*
X133997180Y-116358685D01*
X133997180Y-116358685D02*
X134077992Y-116439497D01*
X134077992Y-116439497D02*
X134158804Y-116574184D01*
X134158804Y-116574184D02*
X134185741Y-116654996D01*
X134185741Y-116654996D02*
X134185741Y-116762746D01*
X134185741Y-116762746D02*
X134131867Y-116870495D01*
X134131867Y-116870495D02*
X133997180Y-117005182D01*
X132723372Y-96951494D02*
X132642560Y-96978431D01*
X132642560Y-96978431D02*
X132561748Y-97059243D01*
X132561748Y-97059243D02*
X132507873Y-97166993D01*
X132507873Y-97166993D02*
X132507873Y-97274742D01*
X132507873Y-97274742D02*
X132534810Y-97355555D01*
X132534810Y-97355555D02*
X132615623Y-97490242D01*
X132615623Y-97490242D02*
X132696435Y-97571054D01*
X132696435Y-97571054D02*
X132831122Y-97651866D01*
X132831122Y-97651866D02*
X132911934Y-97678803D01*
X132911934Y-97678803D02*
X133019684Y-97678803D01*
X133019684Y-97678803D02*
X133127433Y-97624929D01*
X133127433Y-97624929D02*
X133181308Y-97571054D01*
X133181308Y-97571054D02*
X133235183Y-97463304D01*
X133235183Y-97463304D02*
X133235183Y-97409429D01*
X133235183Y-97409429D02*
X133046621Y-97220868D01*
X133046621Y-97220868D02*
X132938871Y-97328617D01*
X133531494Y-97220868D02*
X132965809Y-96655182D01*
X132965809Y-96655182D02*
X133181308Y-96439683D01*
X133181308Y-96439683D02*
X133262120Y-96412746D01*
X133262120Y-96412746D02*
X133315995Y-96412746D01*
X133315995Y-96412746D02*
X133396807Y-96439683D01*
X133396807Y-96439683D02*
X133477619Y-96520495D01*
X133477619Y-96520495D02*
X133504557Y-96601307D01*
X133504557Y-96601307D02*
X133504557Y-96655182D01*
X133504557Y-96655182D02*
X133477619Y-96735994D01*
X133477619Y-96735994D02*
X133262120Y-96951494D01*
X133477619Y-96143372D02*
X133854743Y-95766248D01*
X133854743Y-95766248D02*
X134177992Y-96574370D01*
X158261873Y-92871240D02*
X158531247Y-92601866D01*
X158369623Y-93086739D02*
X157992499Y-92332492D01*
X157992499Y-92332492D02*
X158746746Y-92709615D01*
X158692871Y-91685994D02*
X158612059Y-91712932D01*
X158612059Y-91712932D02*
X158531247Y-91793744D01*
X158531247Y-91793744D02*
X158477372Y-91901494D01*
X158477372Y-91901494D02*
X158477372Y-92009243D01*
X158477372Y-92009243D02*
X158504310Y-92090055D01*
X158504310Y-92090055D02*
X158585122Y-92224742D01*
X158585122Y-92224742D02*
X158665934Y-92305555D01*
X158665934Y-92305555D02*
X158800621Y-92386367D01*
X158800621Y-92386367D02*
X158881433Y-92413304D01*
X158881433Y-92413304D02*
X158989183Y-92413304D01*
X158989183Y-92413304D02*
X159096932Y-92359429D01*
X159096932Y-92359429D02*
X159150807Y-92305555D01*
X159150807Y-92305555D02*
X159204682Y-92197805D01*
X159204682Y-92197805D02*
X159204682Y-92143930D01*
X159204682Y-92143930D02*
X159016120Y-91955368D01*
X159016120Y-91955368D02*
X158908371Y-92063118D01*
X159500993Y-91955368D02*
X158935308Y-91389683D01*
X158935308Y-91389683D02*
X159824242Y-91632120D01*
X159824242Y-91632120D02*
X159258557Y-91066434D01*
X160093616Y-91362746D02*
X159527931Y-90797060D01*
X159527931Y-90797060D02*
X159662618Y-90662373D01*
X159662618Y-90662373D02*
X159770367Y-90608498D01*
X159770367Y-90608498D02*
X159878117Y-90608498D01*
X159878117Y-90608498D02*
X159958929Y-90635436D01*
X159958929Y-90635436D02*
X160093616Y-90716248D01*
X160093616Y-90716248D02*
X160174428Y-90797060D01*
X160174428Y-90797060D02*
X160255241Y-90931747D01*
X160255241Y-90931747D02*
X160282178Y-91012560D01*
X160282178Y-91012560D02*
X160282178Y-91120309D01*
X160282178Y-91120309D02*
X160228303Y-91228059D01*
X160228303Y-91228059D02*
X160093616Y-91362746D01*
X158207998Y-120110868D02*
X158127185Y-120137805D01*
X158127185Y-120137805D02*
X158046373Y-120218618D01*
X158046373Y-120218618D02*
X157992498Y-120326367D01*
X157992498Y-120326367D02*
X157992498Y-120434117D01*
X157992498Y-120434117D02*
X158019436Y-120514929D01*
X158019436Y-120514929D02*
X158100248Y-120649616D01*
X158100248Y-120649616D02*
X158181060Y-120730428D01*
X158181060Y-120730428D02*
X158315747Y-120811241D01*
X158315747Y-120811241D02*
X158396560Y-120838178D01*
X158396560Y-120838178D02*
X158504309Y-120838178D01*
X158504309Y-120838178D02*
X158612059Y-120784303D01*
X158612059Y-120784303D02*
X158665934Y-120730428D01*
X158665934Y-120730428D02*
X158719808Y-120622679D01*
X158719808Y-120622679D02*
X158719808Y-120568804D01*
X158719808Y-120568804D02*
X158531247Y-120380242D01*
X158531247Y-120380242D02*
X158423497Y-120487992D01*
X159016120Y-120380242D02*
X158450434Y-119814557D01*
X158450434Y-119814557D02*
X158665934Y-119599057D01*
X158665934Y-119599057D02*
X158746746Y-119572120D01*
X158746746Y-119572120D02*
X158800621Y-119572120D01*
X158800621Y-119572120D02*
X158881433Y-119599057D01*
X158881433Y-119599057D02*
X158962245Y-119679870D01*
X158962245Y-119679870D02*
X158989182Y-119760682D01*
X158989182Y-119760682D02*
X158989182Y-119814557D01*
X158989182Y-119814557D02*
X158962245Y-119895369D01*
X158962245Y-119895369D02*
X158746746Y-120110868D01*
X159878117Y-119518245D02*
X159554868Y-119841494D01*
X159716492Y-119679870D02*
X159150807Y-119114184D01*
X159150807Y-119114184D02*
X159177744Y-119248871D01*
X159177744Y-119248871D02*
X159177744Y-119356621D01*
X159177744Y-119356621D02*
X159150807Y-119437433D01*
X159500993Y-118763998D02*
X159878117Y-118386874D01*
X159878117Y-118386874D02*
X160201366Y-119194996D01*
X158207998Y-109950868D02*
X158127185Y-109977805D01*
X158127185Y-109977805D02*
X158046373Y-110058618D01*
X158046373Y-110058618D02*
X157992498Y-110166367D01*
X157992498Y-110166367D02*
X157992498Y-110274117D01*
X157992498Y-110274117D02*
X158019436Y-110354929D01*
X158019436Y-110354929D02*
X158100248Y-110489616D01*
X158100248Y-110489616D02*
X158181060Y-110570428D01*
X158181060Y-110570428D02*
X158315747Y-110651241D01*
X158315747Y-110651241D02*
X158396560Y-110678178D01*
X158396560Y-110678178D02*
X158504309Y-110678178D01*
X158504309Y-110678178D02*
X158612059Y-110624303D01*
X158612059Y-110624303D02*
X158665934Y-110570428D01*
X158665934Y-110570428D02*
X158719808Y-110462679D01*
X158719808Y-110462679D02*
X158719808Y-110408804D01*
X158719808Y-110408804D02*
X158531247Y-110220242D01*
X158531247Y-110220242D02*
X158423497Y-110327992D01*
X159016120Y-110220242D02*
X158450434Y-109654557D01*
X158450434Y-109654557D02*
X158665934Y-109439057D01*
X158665934Y-109439057D02*
X158746746Y-109412120D01*
X158746746Y-109412120D02*
X158800621Y-109412120D01*
X158800621Y-109412120D02*
X158881433Y-109439057D01*
X158881433Y-109439057D02*
X158962245Y-109519870D01*
X158962245Y-109519870D02*
X158989182Y-109600682D01*
X158989182Y-109600682D02*
X158989182Y-109654557D01*
X158989182Y-109654557D02*
X158962245Y-109735369D01*
X158962245Y-109735369D02*
X158746746Y-109950868D01*
X159043057Y-109169683D02*
X159043057Y-109115809D01*
X159043057Y-109115809D02*
X159069995Y-109034996D01*
X159069995Y-109034996D02*
X159204682Y-108900309D01*
X159204682Y-108900309D02*
X159285494Y-108873372D01*
X159285494Y-108873372D02*
X159339369Y-108873372D01*
X159339369Y-108873372D02*
X159420181Y-108900309D01*
X159420181Y-108900309D02*
X159474056Y-108954184D01*
X159474056Y-108954184D02*
X159527930Y-109061934D01*
X159527930Y-109061934D02*
X159527930Y-109708431D01*
X159527930Y-109708431D02*
X159878117Y-109358245D01*
X159662618Y-108442373D02*
X159716492Y-108388499D01*
X159716492Y-108388499D02*
X159797305Y-108361561D01*
X159797305Y-108361561D02*
X159851179Y-108361561D01*
X159851179Y-108361561D02*
X159931992Y-108388499D01*
X159931992Y-108388499D02*
X160066679Y-108469311D01*
X160066679Y-108469311D02*
X160201366Y-108603998D01*
X160201366Y-108603998D02*
X160282178Y-108738685D01*
X160282178Y-108738685D02*
X160309115Y-108819497D01*
X160309115Y-108819497D02*
X160309115Y-108873372D01*
X160309115Y-108873372D02*
X160282178Y-108954184D01*
X160282178Y-108954184D02*
X160228303Y-109008059D01*
X160228303Y-109008059D02*
X160147491Y-109034996D01*
X160147491Y-109034996D02*
X160093616Y-109034996D01*
X160093616Y-109034996D02*
X160012804Y-109008059D01*
X160012804Y-109008059D02*
X159878117Y-108927247D01*
X159878117Y-108927247D02*
X159743430Y-108792560D01*
X159743430Y-108792560D02*
X159662618Y-108657873D01*
X159662618Y-108657873D02*
X159635680Y-108577060D01*
X159635680Y-108577060D02*
X159635680Y-108523186D01*
X159635680Y-108523186D02*
X159662618Y-108442373D01*
X132623372Y-99521494D02*
X132542560Y-99548431D01*
X132542560Y-99548431D02*
X132461748Y-99629243D01*
X132461748Y-99629243D02*
X132407873Y-99736993D01*
X132407873Y-99736993D02*
X132407873Y-99844742D01*
X132407873Y-99844742D02*
X132434810Y-99925555D01*
X132434810Y-99925555D02*
X132515623Y-100060242D01*
X132515623Y-100060242D02*
X132596435Y-100141054D01*
X132596435Y-100141054D02*
X132731122Y-100221866D01*
X132731122Y-100221866D02*
X132811934Y-100248803D01*
X132811934Y-100248803D02*
X132919684Y-100248803D01*
X132919684Y-100248803D02*
X133027433Y-100194929D01*
X133027433Y-100194929D02*
X133081308Y-100141054D01*
X133081308Y-100141054D02*
X133135183Y-100033304D01*
X133135183Y-100033304D02*
X133135183Y-99979429D01*
X133135183Y-99979429D02*
X132946621Y-99790868D01*
X132946621Y-99790868D02*
X132838871Y-99898617D01*
X133431494Y-99790868D02*
X132865809Y-99225182D01*
X132865809Y-99225182D02*
X133081308Y-99009683D01*
X133081308Y-99009683D02*
X133162120Y-98982746D01*
X133162120Y-98982746D02*
X133215995Y-98982746D01*
X133215995Y-98982746D02*
X133296807Y-99009683D01*
X133296807Y-99009683D02*
X133377619Y-99090495D01*
X133377619Y-99090495D02*
X133404557Y-99171307D01*
X133404557Y-99171307D02*
X133404557Y-99225182D01*
X133404557Y-99225182D02*
X133377619Y-99305994D01*
X133377619Y-99305994D02*
X133162120Y-99521494D01*
X133754743Y-98821121D02*
X133673931Y-98848059D01*
X133673931Y-98848059D02*
X133620056Y-98848059D01*
X133620056Y-98848059D02*
X133539244Y-98821121D01*
X133539244Y-98821121D02*
X133512306Y-98794184D01*
X133512306Y-98794184D02*
X133485369Y-98713372D01*
X133485369Y-98713372D02*
X133485369Y-98659497D01*
X133485369Y-98659497D02*
X133512306Y-98578685D01*
X133512306Y-98578685D02*
X133620056Y-98470935D01*
X133620056Y-98470935D02*
X133700868Y-98443998D01*
X133700868Y-98443998D02*
X133754743Y-98443998D01*
X133754743Y-98443998D02*
X133835555Y-98470935D01*
X133835555Y-98470935D02*
X133862493Y-98497872D01*
X133862493Y-98497872D02*
X133889430Y-98578685D01*
X133889430Y-98578685D02*
X133889430Y-98632559D01*
X133889430Y-98632559D02*
X133862493Y-98713372D01*
X133862493Y-98713372D02*
X133754743Y-98821121D01*
X133754743Y-98821121D02*
X133727806Y-98901933D01*
X133727806Y-98901933D02*
X133727806Y-98955808D01*
X133727806Y-98955808D02*
X133754743Y-99036620D01*
X133754743Y-99036620D02*
X133862493Y-99144370D01*
X133862493Y-99144370D02*
X133943305Y-99171307D01*
X133943305Y-99171307D02*
X133997180Y-99171307D01*
X133997180Y-99171307D02*
X134077992Y-99144370D01*
X134077992Y-99144370D02*
X134185741Y-99036620D01*
X134185741Y-99036620D02*
X134212679Y-98955808D01*
X134212679Y-98955808D02*
X134212679Y-98901933D01*
X134212679Y-98901933D02*
X134185741Y-98821121D01*
X134185741Y-98821121D02*
X134077992Y-98713372D01*
X134077992Y-98713372D02*
X133997180Y-98686434D01*
X133997180Y-98686434D02*
X133943305Y-98686434D01*
X133943305Y-98686434D02*
X133862493Y-98713372D01*
X132523372Y-76651494D02*
X132442560Y-76678431D01*
X132442560Y-76678431D02*
X132361748Y-76759243D01*
X132361748Y-76759243D02*
X132307873Y-76866993D01*
X132307873Y-76866993D02*
X132307873Y-76974742D01*
X132307873Y-76974742D02*
X132334810Y-77055555D01*
X132334810Y-77055555D02*
X132415623Y-77190242D01*
X132415623Y-77190242D02*
X132496435Y-77271054D01*
X132496435Y-77271054D02*
X132631122Y-77351866D01*
X132631122Y-77351866D02*
X132711934Y-77378803D01*
X132711934Y-77378803D02*
X132819684Y-77378803D01*
X132819684Y-77378803D02*
X132927433Y-77324929D01*
X132927433Y-77324929D02*
X132981308Y-77271054D01*
X132981308Y-77271054D02*
X133035183Y-77163304D01*
X133035183Y-77163304D02*
X133035183Y-77109429D01*
X133035183Y-77109429D02*
X132846621Y-76920868D01*
X132846621Y-76920868D02*
X132738871Y-77028617D01*
X133331494Y-76920868D02*
X132765809Y-76355182D01*
X132765809Y-76355182D02*
X132981308Y-76139683D01*
X132981308Y-76139683D02*
X133062120Y-76112746D01*
X133062120Y-76112746D02*
X133115995Y-76112746D01*
X133115995Y-76112746D02*
X133196807Y-76139683D01*
X133196807Y-76139683D02*
X133277619Y-76220495D01*
X133277619Y-76220495D02*
X133304557Y-76301307D01*
X133304557Y-76301307D02*
X133304557Y-76355182D01*
X133304557Y-76355182D02*
X133277619Y-76435994D01*
X133277619Y-76435994D02*
X133062120Y-76651494D01*
X134193491Y-76058871D02*
X133870242Y-76382120D01*
X134031867Y-76220495D02*
X133466181Y-75654810D01*
X133466181Y-75654810D02*
X133493119Y-75789497D01*
X133493119Y-75789497D02*
X133493119Y-75897246D01*
X133493119Y-75897246D02*
X133466181Y-75978059D01*
X158207998Y-89376868D02*
X158127185Y-89403805D01*
X158127185Y-89403805D02*
X158046373Y-89484618D01*
X158046373Y-89484618D02*
X157992498Y-89592367D01*
X157992498Y-89592367D02*
X157992498Y-89700117D01*
X157992498Y-89700117D02*
X158019436Y-89780929D01*
X158019436Y-89780929D02*
X158100248Y-89915616D01*
X158100248Y-89915616D02*
X158181060Y-89996428D01*
X158181060Y-89996428D02*
X158315747Y-90077241D01*
X158315747Y-90077241D02*
X158396560Y-90104178D01*
X158396560Y-90104178D02*
X158504309Y-90104178D01*
X158504309Y-90104178D02*
X158612059Y-90050303D01*
X158612059Y-90050303D02*
X158665934Y-89996428D01*
X158665934Y-89996428D02*
X158719808Y-89888679D01*
X158719808Y-89888679D02*
X158719808Y-89834804D01*
X158719808Y-89834804D02*
X158531247Y-89646242D01*
X158531247Y-89646242D02*
X158423497Y-89753992D01*
X159016120Y-89646242D02*
X158450434Y-89080557D01*
X158450434Y-89080557D02*
X158665934Y-88865057D01*
X158665934Y-88865057D02*
X158746746Y-88838120D01*
X158746746Y-88838120D02*
X158800621Y-88838120D01*
X158800621Y-88838120D02*
X158881433Y-88865057D01*
X158881433Y-88865057D02*
X158962245Y-88945870D01*
X158962245Y-88945870D02*
X158989182Y-89026682D01*
X158989182Y-89026682D02*
X158989182Y-89080557D01*
X158989182Y-89080557D02*
X158962245Y-89161369D01*
X158962245Y-89161369D02*
X158746746Y-89376868D01*
X159043057Y-88595683D02*
X159043057Y-88541809D01*
X159043057Y-88541809D02*
X159069995Y-88460996D01*
X159069995Y-88460996D02*
X159204682Y-88326309D01*
X159204682Y-88326309D02*
X159285494Y-88299372D01*
X159285494Y-88299372D02*
X159339369Y-88299372D01*
X159339369Y-88299372D02*
X159420181Y-88326309D01*
X159420181Y-88326309D02*
X159474056Y-88380184D01*
X159474056Y-88380184D02*
X159527930Y-88487934D01*
X159527930Y-88487934D02*
X159527930Y-89134431D01*
X159527930Y-89134431D02*
X159878117Y-88784245D01*
X159878117Y-88137747D02*
X159797305Y-88164685D01*
X159797305Y-88164685D02*
X159743430Y-88164685D01*
X159743430Y-88164685D02*
X159662618Y-88137747D01*
X159662618Y-88137747D02*
X159635680Y-88110810D01*
X159635680Y-88110810D02*
X159608743Y-88029998D01*
X159608743Y-88029998D02*
X159608743Y-87976123D01*
X159608743Y-87976123D02*
X159635680Y-87895311D01*
X159635680Y-87895311D02*
X159743430Y-87787561D01*
X159743430Y-87787561D02*
X159824242Y-87760624D01*
X159824242Y-87760624D02*
X159878117Y-87760624D01*
X159878117Y-87760624D02*
X159958929Y-87787561D01*
X159958929Y-87787561D02*
X159985866Y-87814499D01*
X159985866Y-87814499D02*
X160012804Y-87895311D01*
X160012804Y-87895311D02*
X160012804Y-87949186D01*
X160012804Y-87949186D02*
X159985866Y-88029998D01*
X159985866Y-88029998D02*
X159878117Y-88137747D01*
X159878117Y-88137747D02*
X159851179Y-88218560D01*
X159851179Y-88218560D02*
X159851179Y-88272434D01*
X159851179Y-88272434D02*
X159878117Y-88353247D01*
X159878117Y-88353247D02*
X159985866Y-88460996D01*
X159985866Y-88460996D02*
X160066679Y-88487934D01*
X160066679Y-88487934D02*
X160120553Y-88487934D01*
X160120553Y-88487934D02*
X160201366Y-88460996D01*
X160201366Y-88460996D02*
X160309115Y-88353247D01*
X160309115Y-88353247D02*
X160336053Y-88272434D01*
X160336053Y-88272434D02*
X160336053Y-88218560D01*
X160336053Y-88218560D02*
X160309115Y-88137747D01*
X160309115Y-88137747D02*
X160201366Y-88029998D01*
X160201366Y-88029998D02*
X160120553Y-88003060D01*
X160120553Y-88003060D02*
X160066679Y-88003060D01*
X160066679Y-88003060D02*
X159985866Y-88029998D01*
X158155064Y-87534049D02*
X158424438Y-87264675D01*
X158262813Y-87749549D02*
X157885690Y-86995301D01*
X157885690Y-86995301D02*
X158639937Y-87372425D01*
X158828499Y-87183863D02*
X158262813Y-86618178D01*
X158262813Y-86618178D02*
X158397500Y-86483491D01*
X158397500Y-86483491D02*
X158505250Y-86429616D01*
X158505250Y-86429616D02*
X158612999Y-86429616D01*
X158612999Y-86429616D02*
X158693812Y-86456553D01*
X158693812Y-86456553D02*
X158828499Y-86537366D01*
X158828499Y-86537366D02*
X158909311Y-86618178D01*
X158909311Y-86618178D02*
X158990123Y-86752865D01*
X158990123Y-86752865D02*
X159017060Y-86833677D01*
X159017060Y-86833677D02*
X159017060Y-86941427D01*
X159017060Y-86941427D02*
X158963186Y-87049176D01*
X158963186Y-87049176D02*
X158828499Y-87183863D01*
X159663558Y-86241054D02*
X159663558Y-86294929D01*
X159663558Y-86294929D02*
X159609683Y-86402679D01*
X159609683Y-86402679D02*
X159555808Y-86456553D01*
X159555808Y-86456553D02*
X159448059Y-86510428D01*
X159448059Y-86510428D02*
X159340309Y-86510428D01*
X159340309Y-86510428D02*
X159259497Y-86483491D01*
X159259497Y-86483491D02*
X159124810Y-86402679D01*
X159124810Y-86402679D02*
X159043998Y-86321866D01*
X159043998Y-86321866D02*
X158963186Y-86187179D01*
X158963186Y-86187179D02*
X158936248Y-86106367D01*
X158936248Y-86106367D02*
X158936248Y-85998618D01*
X158936248Y-85998618D02*
X158990123Y-85890868D01*
X158990123Y-85890868D02*
X159043998Y-85836993D01*
X159043998Y-85836993D02*
X159151747Y-85783118D01*
X159151747Y-85783118D02*
X159205622Y-85783118D01*
X159879057Y-86241054D02*
X160310056Y-85810056D01*
X159744370Y-85136621D02*
X160498618Y-85513744D01*
X160498618Y-85513744D02*
X160121494Y-84759497D01*
X161198990Y-84813372D02*
X160741054Y-84732560D01*
X160875741Y-85136621D02*
X160310056Y-84570935D01*
X160310056Y-84570935D02*
X160525555Y-84355436D01*
X160525555Y-84355436D02*
X160606367Y-84328499D01*
X160606367Y-84328499D02*
X160660242Y-84328499D01*
X160660242Y-84328499D02*
X160741054Y-84355436D01*
X160741054Y-84355436D02*
X160821866Y-84436248D01*
X160821866Y-84436248D02*
X160848804Y-84517061D01*
X160848804Y-84517061D02*
X160848804Y-84570935D01*
X160848804Y-84570935D02*
X160821866Y-84651748D01*
X160821866Y-84651748D02*
X160606367Y-84867247D01*
X161145115Y-84274624D02*
X161333677Y-84086062D01*
X161710800Y-84301561D02*
X161441426Y-84570935D01*
X161441426Y-84570935D02*
X160875741Y-84005250D01*
X160875741Y-84005250D02*
X161145115Y-83735876D01*
X161845488Y-83574251D02*
X161656926Y-83762813D01*
X161953237Y-84059125D02*
X161387552Y-83493439D01*
X161387552Y-83493439D02*
X161656926Y-83224065D01*
X132623372Y-74121494D02*
X132542560Y-74148431D01*
X132542560Y-74148431D02*
X132461748Y-74229243D01*
X132461748Y-74229243D02*
X132407873Y-74336993D01*
X132407873Y-74336993D02*
X132407873Y-74444742D01*
X132407873Y-74444742D02*
X132434810Y-74525555D01*
X132434810Y-74525555D02*
X132515623Y-74660242D01*
X132515623Y-74660242D02*
X132596435Y-74741054D01*
X132596435Y-74741054D02*
X132731122Y-74821866D01*
X132731122Y-74821866D02*
X132811934Y-74848803D01*
X132811934Y-74848803D02*
X132919684Y-74848803D01*
X132919684Y-74848803D02*
X133027433Y-74794929D01*
X133027433Y-74794929D02*
X133081308Y-74741054D01*
X133081308Y-74741054D02*
X133135183Y-74633304D01*
X133135183Y-74633304D02*
X133135183Y-74579429D01*
X133135183Y-74579429D02*
X132946621Y-74390868D01*
X132946621Y-74390868D02*
X132838871Y-74498617D01*
X133431494Y-74390868D02*
X132865809Y-73825182D01*
X132865809Y-73825182D02*
X133081308Y-73609683D01*
X133081308Y-73609683D02*
X133162120Y-73582746D01*
X133162120Y-73582746D02*
X133215995Y-73582746D01*
X133215995Y-73582746D02*
X133296807Y-73609683D01*
X133296807Y-73609683D02*
X133377619Y-73690495D01*
X133377619Y-73690495D02*
X133404557Y-73771307D01*
X133404557Y-73771307D02*
X133404557Y-73825182D01*
X133404557Y-73825182D02*
X133377619Y-73905994D01*
X133377619Y-73905994D02*
X133162120Y-74121494D01*
X133539244Y-73151747D02*
X133593119Y-73097872D01*
X133593119Y-73097872D02*
X133673931Y-73070935D01*
X133673931Y-73070935D02*
X133727806Y-73070935D01*
X133727806Y-73070935D02*
X133808618Y-73097872D01*
X133808618Y-73097872D02*
X133943305Y-73178685D01*
X133943305Y-73178685D02*
X134077992Y-73313372D01*
X134077992Y-73313372D02*
X134158804Y-73448059D01*
X134158804Y-73448059D02*
X134185741Y-73528871D01*
X134185741Y-73528871D02*
X134185741Y-73582746D01*
X134185741Y-73582746D02*
X134158804Y-73663558D01*
X134158804Y-73663558D02*
X134104929Y-73717433D01*
X134104929Y-73717433D02*
X134024117Y-73744370D01*
X134024117Y-73744370D02*
X133970242Y-73744370D01*
X133970242Y-73744370D02*
X133889430Y-73717433D01*
X133889430Y-73717433D02*
X133754743Y-73636620D01*
X133754743Y-73636620D02*
X133620056Y-73501933D01*
X133620056Y-73501933D02*
X133539244Y-73367246D01*
X133539244Y-73367246D02*
X133512306Y-73286434D01*
X133512306Y-73286434D02*
X133512306Y-73232559D01*
X133512306Y-73232559D02*
X133539244Y-73151747D01*
X132623372Y-102061494D02*
X132542560Y-102088431D01*
X132542560Y-102088431D02*
X132461748Y-102169243D01*
X132461748Y-102169243D02*
X132407873Y-102276993D01*
X132407873Y-102276993D02*
X132407873Y-102384742D01*
X132407873Y-102384742D02*
X132434810Y-102465555D01*
X132434810Y-102465555D02*
X132515623Y-102600242D01*
X132515623Y-102600242D02*
X132596435Y-102681054D01*
X132596435Y-102681054D02*
X132731122Y-102761866D01*
X132731122Y-102761866D02*
X132811934Y-102788803D01*
X132811934Y-102788803D02*
X132919684Y-102788803D01*
X132919684Y-102788803D02*
X133027433Y-102734929D01*
X133027433Y-102734929D02*
X133081308Y-102681054D01*
X133081308Y-102681054D02*
X133135183Y-102573304D01*
X133135183Y-102573304D02*
X133135183Y-102519429D01*
X133135183Y-102519429D02*
X132946621Y-102330868D01*
X132946621Y-102330868D02*
X132838871Y-102438617D01*
X133431494Y-102330868D02*
X132865809Y-101765182D01*
X132865809Y-101765182D02*
X133081308Y-101549683D01*
X133081308Y-101549683D02*
X133162120Y-101522746D01*
X133162120Y-101522746D02*
X133215995Y-101522746D01*
X133215995Y-101522746D02*
X133296807Y-101549683D01*
X133296807Y-101549683D02*
X133377619Y-101630495D01*
X133377619Y-101630495D02*
X133404557Y-101711307D01*
X133404557Y-101711307D02*
X133404557Y-101765182D01*
X133404557Y-101765182D02*
X133377619Y-101845994D01*
X133377619Y-101845994D02*
X133162120Y-102061494D01*
X134024117Y-101738245D02*
X134131867Y-101630495D01*
X134131867Y-101630495D02*
X134158804Y-101549683D01*
X134158804Y-101549683D02*
X134158804Y-101495808D01*
X134158804Y-101495808D02*
X134131867Y-101361121D01*
X134131867Y-101361121D02*
X134051054Y-101226434D01*
X134051054Y-101226434D02*
X133835555Y-101010935D01*
X133835555Y-101010935D02*
X133754743Y-100983998D01*
X133754743Y-100983998D02*
X133700868Y-100983998D01*
X133700868Y-100983998D02*
X133620056Y-101010935D01*
X133620056Y-101010935D02*
X133512306Y-101118685D01*
X133512306Y-101118685D02*
X133485369Y-101199497D01*
X133485369Y-101199497D02*
X133485369Y-101253372D01*
X133485369Y-101253372D02*
X133512306Y-101334184D01*
X133512306Y-101334184D02*
X133646993Y-101468871D01*
X133646993Y-101468871D02*
X133727806Y-101495808D01*
X133727806Y-101495808D02*
X133781680Y-101495808D01*
X133781680Y-101495808D02*
X133862493Y-101468871D01*
X133862493Y-101468871D02*
X133970242Y-101361121D01*
X133970242Y-101361121D02*
X133997180Y-101280309D01*
X133997180Y-101280309D02*
X133997180Y-101226434D01*
X133997180Y-101226434D02*
X133970242Y-101145622D01*
X158000123Y-84620868D02*
X158350309Y-84270682D01*
X158350309Y-84270682D02*
X158377247Y-84674743D01*
X158377247Y-84674743D02*
X158458059Y-84593931D01*
X158458059Y-84593931D02*
X158538871Y-84566993D01*
X158538871Y-84566993D02*
X158592746Y-84566993D01*
X158592746Y-84566993D02*
X158673558Y-84593931D01*
X158673558Y-84593931D02*
X158808245Y-84728618D01*
X158808245Y-84728618D02*
X158835182Y-84809430D01*
X158835182Y-84809430D02*
X158835182Y-84863305D01*
X158835182Y-84863305D02*
X158808245Y-84944117D01*
X158808245Y-84944117D02*
X158646621Y-85105741D01*
X158646621Y-85105741D02*
X158565808Y-85132679D01*
X158565808Y-85132679D02*
X158511934Y-85132679D01*
X158511934Y-84109057D02*
X159266181Y-84486181D01*
X159266181Y-84486181D02*
X158889057Y-83731934D01*
X159023744Y-83597247D02*
X159373930Y-83247061D01*
X159373930Y-83247061D02*
X159400868Y-83651122D01*
X159400868Y-83651122D02*
X159481680Y-83570309D01*
X159481680Y-83570309D02*
X159562492Y-83543372D01*
X159562492Y-83543372D02*
X159616367Y-83543372D01*
X159616367Y-83543372D02*
X159697179Y-83570309D01*
X159697179Y-83570309D02*
X159831866Y-83704996D01*
X159831866Y-83704996D02*
X159858804Y-83785809D01*
X159858804Y-83785809D02*
X159858804Y-83839683D01*
X159858804Y-83839683D02*
X159831866Y-83920496D01*
X159831866Y-83920496D02*
X159670242Y-84082120D01*
X159670242Y-84082120D02*
X159589430Y-84109057D01*
X159589430Y-84109057D02*
X159535555Y-84109057D01*
X132596435Y-104628431D02*
X132515623Y-104655368D01*
X132515623Y-104655368D02*
X132434811Y-104736180D01*
X132434811Y-104736180D02*
X132380936Y-104843930D01*
X132380936Y-104843930D02*
X132380936Y-104951680D01*
X132380936Y-104951680D02*
X132407873Y-105032492D01*
X132407873Y-105032492D02*
X132488685Y-105167179D01*
X132488685Y-105167179D02*
X132569498Y-105247991D01*
X132569498Y-105247991D02*
X132704185Y-105328803D01*
X132704185Y-105328803D02*
X132784997Y-105355741D01*
X132784997Y-105355741D02*
X132892746Y-105355741D01*
X132892746Y-105355741D02*
X133000496Y-105301866D01*
X133000496Y-105301866D02*
X133054371Y-105247991D01*
X133054371Y-105247991D02*
X133108246Y-105140241D01*
X133108246Y-105140241D02*
X133108246Y-105086367D01*
X133108246Y-105086367D02*
X132919684Y-104897805D01*
X132919684Y-104897805D02*
X132811934Y-105005554D01*
X133404557Y-104897805D02*
X132838872Y-104332119D01*
X132838872Y-104332119D02*
X133727806Y-104574556D01*
X133727806Y-104574556D02*
X133162120Y-104008871D01*
X133997180Y-104305182D02*
X133431494Y-103739497D01*
X133431494Y-103739497D02*
X133566181Y-103604810D01*
X133566181Y-103604810D02*
X133673931Y-103550935D01*
X133673931Y-103550935D02*
X133781680Y-103550935D01*
X133781680Y-103550935D02*
X133862493Y-103577872D01*
X133862493Y-103577872D02*
X133997180Y-103658685D01*
X133997180Y-103658685D02*
X134077992Y-103739497D01*
X134077992Y-103739497D02*
X134158804Y-103874184D01*
X134158804Y-103874184D02*
X134185741Y-103954996D01*
X134185741Y-103954996D02*
X134185741Y-104062746D01*
X134185741Y-104062746D02*
X134131867Y-104170495D01*
X134131867Y-104170495D02*
X133997180Y-104305182D01*
X158063406Y-74657585D02*
X158817653Y-75034709D01*
X158817653Y-75034709D02*
X158440529Y-74280462D01*
X159087027Y-74172712D02*
X159194776Y-74118838D01*
X159194776Y-74118838D02*
X159248651Y-74118838D01*
X159248651Y-74118838D02*
X159329463Y-74145775D01*
X159329463Y-74145775D02*
X159410276Y-74226587D01*
X159410276Y-74226587D02*
X159437213Y-74307399D01*
X159437213Y-74307399D02*
X159437213Y-74361274D01*
X159437213Y-74361274D02*
X159410276Y-74442086D01*
X159410276Y-74442086D02*
X159194776Y-74657586D01*
X159194776Y-74657586D02*
X158629091Y-74091900D01*
X158629091Y-74091900D02*
X158817653Y-73903338D01*
X158817653Y-73903338D02*
X158898465Y-73876401D01*
X158898465Y-73876401D02*
X158952340Y-73876401D01*
X158952340Y-73876401D02*
X159033152Y-73903338D01*
X159033152Y-73903338D02*
X159087027Y-73957213D01*
X159087027Y-73957213D02*
X159113964Y-74038025D01*
X159113964Y-74038025D02*
X159113964Y-74091900D01*
X159113964Y-74091900D02*
X159087027Y-74172712D01*
X159087027Y-74172712D02*
X158898465Y-74361274D01*
X159194776Y-73526215D02*
X159652712Y-73984151D01*
X159652712Y-73984151D02*
X159733524Y-74011088D01*
X159733524Y-74011088D02*
X159787399Y-74011088D01*
X159787399Y-74011088D02*
X159868211Y-73984151D01*
X159868211Y-73984151D02*
X159975961Y-73876401D01*
X159975961Y-73876401D02*
X160002898Y-73795589D01*
X160002898Y-73795589D02*
X160002898Y-73741714D01*
X160002898Y-73741714D02*
X159975961Y-73660902D01*
X159975961Y-73660902D02*
X159518025Y-73202966D01*
X160299210Y-73499277D02*
X160406959Y-73445403D01*
X160406959Y-73445403D02*
X160541646Y-73310716D01*
X160541646Y-73310716D02*
X160568584Y-73229903D01*
X160568584Y-73229903D02*
X160568584Y-73176029D01*
X160568584Y-73176029D02*
X160541646Y-73095216D01*
X160541646Y-73095216D02*
X160487771Y-73041342D01*
X160487771Y-73041342D02*
X160406959Y-73014404D01*
X160406959Y-73014404D02*
X160353084Y-73014404D01*
X160353084Y-73014404D02*
X160272272Y-73041342D01*
X160272272Y-73041342D02*
X160137585Y-73122154D01*
X160137585Y-73122154D02*
X160056773Y-73149091D01*
X160056773Y-73149091D02*
X160002898Y-73149091D01*
X160002898Y-73149091D02*
X159922086Y-73122154D01*
X159922086Y-73122154D02*
X159868211Y-73068279D01*
X159868211Y-73068279D02*
X159841274Y-72987467D01*
X159841274Y-72987467D02*
X159841274Y-72933592D01*
X159841274Y-72933592D02*
X159868211Y-72852780D01*
X159868211Y-72852780D02*
X160002898Y-72718093D01*
X160002898Y-72718093D02*
X160110648Y-72664218D01*
X158030749Y-77200242D02*
X158784996Y-77577366D01*
X158784996Y-77577366D02*
X158407873Y-76823118D01*
X159108245Y-77200242D02*
X159215995Y-77146367D01*
X159215995Y-77146367D02*
X159350682Y-77011680D01*
X159350682Y-77011680D02*
X159377619Y-76930868D01*
X159377619Y-76930868D02*
X159377619Y-76876993D01*
X159377619Y-76876993D02*
X159350682Y-76796181D01*
X159350682Y-76796181D02*
X159296807Y-76742306D01*
X159296807Y-76742306D02*
X159215995Y-76715369D01*
X159215995Y-76715369D02*
X159162120Y-76715369D01*
X159162120Y-76715369D02*
X159081308Y-76742306D01*
X159081308Y-76742306D02*
X158946621Y-76823118D01*
X158946621Y-76823118D02*
X158865808Y-76850056D01*
X158865808Y-76850056D02*
X158811934Y-76850056D01*
X158811934Y-76850056D02*
X158731121Y-76823118D01*
X158731121Y-76823118D02*
X158677247Y-76769244D01*
X158677247Y-76769244D02*
X158650309Y-76688431D01*
X158650309Y-76688431D02*
X158650309Y-76634557D01*
X158650309Y-76634557D02*
X158677247Y-76553744D01*
X158677247Y-76553744D02*
X158811934Y-76419057D01*
X158811934Y-76419057D02*
X158919683Y-76365183D01*
X159539244Y-76284370D02*
X159808618Y-76553744D01*
X159054370Y-76176621D02*
X159539244Y-76284370D01*
X159539244Y-76284370D02*
X159431494Y-75799497D01*
X160131866Y-76176621D02*
X160239616Y-76122746D01*
X160239616Y-76122746D02*
X160374303Y-75988059D01*
X160374303Y-75988059D02*
X160401240Y-75907247D01*
X160401240Y-75907247D02*
X160401240Y-75853372D01*
X160401240Y-75853372D02*
X160374303Y-75772560D01*
X160374303Y-75772560D02*
X160320428Y-75718685D01*
X160320428Y-75718685D02*
X160239616Y-75691748D01*
X160239616Y-75691748D02*
X160185741Y-75691748D01*
X160185741Y-75691748D02*
X160104929Y-75718685D01*
X160104929Y-75718685D02*
X159970242Y-75799497D01*
X159970242Y-75799497D02*
X159889430Y-75826435D01*
X159889430Y-75826435D02*
X159835555Y-75826435D01*
X159835555Y-75826435D02*
X159754743Y-75799497D01*
X159754743Y-75799497D02*
X159700868Y-75745622D01*
X159700868Y-75745622D02*
X159673930Y-75664810D01*
X159673930Y-75664810D02*
X159673930Y-75610935D01*
X159673930Y-75610935D02*
X159700868Y-75530123D01*
X159700868Y-75530123D02*
X159835555Y-75395436D01*
X159835555Y-75395436D02*
X159943304Y-75341561D01*
X158032407Y-82088584D02*
X158382593Y-81738398D01*
X158382593Y-81738398D02*
X158409531Y-82142459D01*
X158409531Y-82142459D02*
X158490343Y-82061646D01*
X158490343Y-82061646D02*
X158571155Y-82034709D01*
X158571155Y-82034709D02*
X158625030Y-82034709D01*
X158625030Y-82034709D02*
X158705842Y-82061646D01*
X158705842Y-82061646D02*
X158840529Y-82196333D01*
X158840529Y-82196333D02*
X158867467Y-82277146D01*
X158867467Y-82277146D02*
X158867467Y-82331020D01*
X158867467Y-82331020D02*
X158840529Y-82411833D01*
X158840529Y-82411833D02*
X158678905Y-82573457D01*
X158678905Y-82573457D02*
X158598093Y-82600394D01*
X158598093Y-82600394D02*
X158544218Y-82600394D01*
X158544218Y-81576773D02*
X159298465Y-81953897D01*
X159298465Y-81953897D02*
X158921342Y-81199649D01*
X159056028Y-81064963D02*
X159406215Y-80714776D01*
X159406215Y-80714776D02*
X159433152Y-81118837D01*
X159433152Y-81118837D02*
X159513964Y-81038025D01*
X159513964Y-81038025D02*
X159594776Y-81011088D01*
X159594776Y-81011088D02*
X159648651Y-81011088D01*
X159648651Y-81011088D02*
X159729464Y-81038025D01*
X159729464Y-81038025D02*
X159864151Y-81172712D01*
X159864151Y-81172712D02*
X159891088Y-81253524D01*
X159891088Y-81253524D02*
X159891088Y-81307399D01*
X159891088Y-81307399D02*
X159864151Y-81388211D01*
X159864151Y-81388211D02*
X159702526Y-81549836D01*
X159702526Y-81549836D02*
X159621714Y-81576773D01*
X159621714Y-81576773D02*
X159567839Y-81576773D01*
X160133525Y-81226587D02*
X160564523Y-80795588D01*
X160349024Y-80310715D02*
X160537586Y-80122153D01*
X160914709Y-80337652D02*
X160645335Y-80607026D01*
X160645335Y-80607026D02*
X160079650Y-80041341D01*
X160079650Y-80041341D02*
X160349024Y-79771967D01*
X161157146Y-80095215D02*
X160591461Y-79529530D01*
X160591461Y-79529530D02*
X161480395Y-79771967D01*
X161480395Y-79771967D02*
X160914710Y-79206281D01*
X131953998Y-112490868D02*
X131873185Y-112517805D01*
X131873185Y-112517805D02*
X131792373Y-112598618D01*
X131792373Y-112598618D02*
X131738498Y-112706367D01*
X131738498Y-112706367D02*
X131738498Y-112814117D01*
X131738498Y-112814117D02*
X131765436Y-112894929D01*
X131765436Y-112894929D02*
X131846248Y-113029616D01*
X131846248Y-113029616D02*
X131927060Y-113110428D01*
X131927060Y-113110428D02*
X132061747Y-113191241D01*
X132061747Y-113191241D02*
X132142560Y-113218178D01*
X132142560Y-113218178D02*
X132250309Y-113218178D01*
X132250309Y-113218178D02*
X132358059Y-113164303D01*
X132358059Y-113164303D02*
X132411934Y-113110428D01*
X132411934Y-113110428D02*
X132465808Y-113002679D01*
X132465808Y-113002679D02*
X132465808Y-112948804D01*
X132465808Y-112948804D02*
X132277247Y-112760242D01*
X132277247Y-112760242D02*
X132169497Y-112867992D01*
X132762120Y-112760242D02*
X132196434Y-112194557D01*
X132196434Y-112194557D02*
X132411934Y-111979057D01*
X132411934Y-111979057D02*
X132492746Y-111952120D01*
X132492746Y-111952120D02*
X132546621Y-111952120D01*
X132546621Y-111952120D02*
X132627433Y-111979057D01*
X132627433Y-111979057D02*
X132708245Y-112059870D01*
X132708245Y-112059870D02*
X132735182Y-112140682D01*
X132735182Y-112140682D02*
X132735182Y-112194557D01*
X132735182Y-112194557D02*
X132708245Y-112275369D01*
X132708245Y-112275369D02*
X132492746Y-112490868D01*
X133624117Y-111898245D02*
X133300868Y-112221494D01*
X133462492Y-112059870D02*
X132896807Y-111494184D01*
X132896807Y-111494184D02*
X132923744Y-111628871D01*
X132923744Y-111628871D02*
X132923744Y-111736621D01*
X132923744Y-111736621D02*
X132896807Y-111817433D01*
X133327805Y-111170935D02*
X133327805Y-111117060D01*
X133327805Y-111117060D02*
X133354743Y-111036248D01*
X133354743Y-111036248D02*
X133489430Y-110901561D01*
X133489430Y-110901561D02*
X133570242Y-110874624D01*
X133570242Y-110874624D02*
X133624117Y-110874624D01*
X133624117Y-110874624D02*
X133704929Y-110901561D01*
X133704929Y-110901561D02*
X133758804Y-110955436D01*
X133758804Y-110955436D02*
X133812679Y-111063186D01*
X133812679Y-111063186D02*
X133812679Y-111709683D01*
X133812679Y-111709683D02*
X134162865Y-111359497D01*
X158196435Y-79228431D02*
X158115623Y-79255368D01*
X158115623Y-79255368D02*
X158034811Y-79336180D01*
X158034811Y-79336180D02*
X157980936Y-79443930D01*
X157980936Y-79443930D02*
X157980936Y-79551680D01*
X157980936Y-79551680D02*
X158007873Y-79632492D01*
X158007873Y-79632492D02*
X158088685Y-79767179D01*
X158088685Y-79767179D02*
X158169498Y-79847991D01*
X158169498Y-79847991D02*
X158304185Y-79928803D01*
X158304185Y-79928803D02*
X158384997Y-79955741D01*
X158384997Y-79955741D02*
X158492746Y-79955741D01*
X158492746Y-79955741D02*
X158600496Y-79901866D01*
X158600496Y-79901866D02*
X158654371Y-79847991D01*
X158654371Y-79847991D02*
X158708246Y-79740241D01*
X158708246Y-79740241D02*
X158708246Y-79686367D01*
X158708246Y-79686367D02*
X158519684Y-79497805D01*
X158519684Y-79497805D02*
X158411934Y-79605554D01*
X159004557Y-79497805D02*
X158438872Y-78932119D01*
X158438872Y-78932119D02*
X159327806Y-79174556D01*
X159327806Y-79174556D02*
X158762120Y-78608871D01*
X159597180Y-78905182D02*
X159031494Y-78339497D01*
X159031494Y-78339497D02*
X159166181Y-78204810D01*
X159166181Y-78204810D02*
X159273931Y-78150935D01*
X159273931Y-78150935D02*
X159381680Y-78150935D01*
X159381680Y-78150935D02*
X159462493Y-78177872D01*
X159462493Y-78177872D02*
X159597180Y-78258685D01*
X159597180Y-78258685D02*
X159677992Y-78339497D01*
X159677992Y-78339497D02*
X159758804Y-78474184D01*
X159758804Y-78474184D02*
X159785741Y-78554996D01*
X159785741Y-78554996D02*
X159785741Y-78662746D01*
X159785741Y-78662746D02*
X159731867Y-78770495D01*
X159731867Y-78770495D02*
X159597180Y-78905182D01*
X132523372Y-81741494D02*
X132442560Y-81768431D01*
X132442560Y-81768431D02*
X132361748Y-81849243D01*
X132361748Y-81849243D02*
X132307873Y-81956993D01*
X132307873Y-81956993D02*
X132307873Y-82064742D01*
X132307873Y-82064742D02*
X132334810Y-82145555D01*
X132334810Y-82145555D02*
X132415623Y-82280242D01*
X132415623Y-82280242D02*
X132496435Y-82361054D01*
X132496435Y-82361054D02*
X132631122Y-82441866D01*
X132631122Y-82441866D02*
X132711934Y-82468803D01*
X132711934Y-82468803D02*
X132819684Y-82468803D01*
X132819684Y-82468803D02*
X132927433Y-82414929D01*
X132927433Y-82414929D02*
X132981308Y-82361054D01*
X132981308Y-82361054D02*
X133035183Y-82253304D01*
X133035183Y-82253304D02*
X133035183Y-82199429D01*
X133035183Y-82199429D02*
X132846621Y-82010868D01*
X132846621Y-82010868D02*
X132738871Y-82118617D01*
X133331494Y-82010868D02*
X132765809Y-81445182D01*
X132765809Y-81445182D02*
X132981308Y-81229683D01*
X132981308Y-81229683D02*
X133062120Y-81202746D01*
X133062120Y-81202746D02*
X133115995Y-81202746D01*
X133115995Y-81202746D02*
X133196807Y-81229683D01*
X133196807Y-81229683D02*
X133277619Y-81310495D01*
X133277619Y-81310495D02*
X133304557Y-81391307D01*
X133304557Y-81391307D02*
X133304557Y-81445182D01*
X133304557Y-81445182D02*
X133277619Y-81525994D01*
X133277619Y-81525994D02*
X133062120Y-81741494D01*
X133358432Y-80960309D02*
X133358432Y-80906434D01*
X133358432Y-80906434D02*
X133385369Y-80825622D01*
X133385369Y-80825622D02*
X133520056Y-80690935D01*
X133520056Y-80690935D02*
X133600868Y-80663998D01*
X133600868Y-80663998D02*
X133654743Y-80663998D01*
X133654743Y-80663998D02*
X133735555Y-80690935D01*
X133735555Y-80690935D02*
X133789430Y-80744810D01*
X133789430Y-80744810D02*
X133843305Y-80852559D01*
X133843305Y-80852559D02*
X133843305Y-81499057D01*
X133843305Y-81499057D02*
X134193491Y-81148871D01*
X131953998Y-109950868D02*
X131873185Y-109977805D01*
X131873185Y-109977805D02*
X131792373Y-110058618D01*
X131792373Y-110058618D02*
X131738498Y-110166367D01*
X131738498Y-110166367D02*
X131738498Y-110274117D01*
X131738498Y-110274117D02*
X131765436Y-110354929D01*
X131765436Y-110354929D02*
X131846248Y-110489616D01*
X131846248Y-110489616D02*
X131927060Y-110570428D01*
X131927060Y-110570428D02*
X132061747Y-110651241D01*
X132061747Y-110651241D02*
X132142560Y-110678178D01*
X132142560Y-110678178D02*
X132250309Y-110678178D01*
X132250309Y-110678178D02*
X132358059Y-110624303D01*
X132358059Y-110624303D02*
X132411934Y-110570428D01*
X132411934Y-110570428D02*
X132465808Y-110462679D01*
X132465808Y-110462679D02*
X132465808Y-110408804D01*
X132465808Y-110408804D02*
X132277247Y-110220242D01*
X132277247Y-110220242D02*
X132169497Y-110327992D01*
X132762120Y-110220242D02*
X132196434Y-109654557D01*
X132196434Y-109654557D02*
X132411934Y-109439057D01*
X132411934Y-109439057D02*
X132492746Y-109412120D01*
X132492746Y-109412120D02*
X132546621Y-109412120D01*
X132546621Y-109412120D02*
X132627433Y-109439057D01*
X132627433Y-109439057D02*
X132708245Y-109519870D01*
X132708245Y-109519870D02*
X132735182Y-109600682D01*
X132735182Y-109600682D02*
X132735182Y-109654557D01*
X132735182Y-109654557D02*
X132708245Y-109735369D01*
X132708245Y-109735369D02*
X132492746Y-109950868D01*
X133624117Y-109358245D02*
X133300868Y-109681494D01*
X133462492Y-109519870D02*
X132896807Y-108954184D01*
X132896807Y-108954184D02*
X132923744Y-109088871D01*
X132923744Y-109088871D02*
X132923744Y-109196621D01*
X132923744Y-109196621D02*
X132896807Y-109277433D01*
X134162865Y-108819497D02*
X133839616Y-109142746D01*
X134001240Y-108981121D02*
X133435555Y-108415436D01*
X133435555Y-108415436D02*
X133462492Y-108550123D01*
X133462492Y-108550123D02*
X133462492Y-108657873D01*
X133462492Y-108657873D02*
X133435555Y-108738685D01*
X158207998Y-112490868D02*
X158127185Y-112517805D01*
X158127185Y-112517805D02*
X158046373Y-112598618D01*
X158046373Y-112598618D02*
X157992498Y-112706367D01*
X157992498Y-112706367D02*
X157992498Y-112814117D01*
X157992498Y-112814117D02*
X158019436Y-112894929D01*
X158019436Y-112894929D02*
X158100248Y-113029616D01*
X158100248Y-113029616D02*
X158181060Y-113110428D01*
X158181060Y-113110428D02*
X158315747Y-113191241D01*
X158315747Y-113191241D02*
X158396560Y-113218178D01*
X158396560Y-113218178D02*
X158504309Y-113218178D01*
X158504309Y-113218178D02*
X158612059Y-113164303D01*
X158612059Y-113164303D02*
X158665934Y-113110428D01*
X158665934Y-113110428D02*
X158719808Y-113002679D01*
X158719808Y-113002679D02*
X158719808Y-112948804D01*
X158719808Y-112948804D02*
X158531247Y-112760242D01*
X158531247Y-112760242D02*
X158423497Y-112867992D01*
X159016120Y-112760242D02*
X158450434Y-112194557D01*
X158450434Y-112194557D02*
X158665934Y-111979057D01*
X158665934Y-111979057D02*
X158746746Y-111952120D01*
X158746746Y-111952120D02*
X158800621Y-111952120D01*
X158800621Y-111952120D02*
X158881433Y-111979057D01*
X158881433Y-111979057D02*
X158962245Y-112059870D01*
X158962245Y-112059870D02*
X158989182Y-112140682D01*
X158989182Y-112140682D02*
X158989182Y-112194557D01*
X158989182Y-112194557D02*
X158962245Y-112275369D01*
X158962245Y-112275369D02*
X158746746Y-112490868D01*
X159878117Y-111898245D02*
X159554868Y-112221494D01*
X159716492Y-112059870D02*
X159150807Y-111494184D01*
X159150807Y-111494184D02*
X159177744Y-111628871D01*
X159177744Y-111628871D02*
X159177744Y-111736621D01*
X159177744Y-111736621D02*
X159150807Y-111817433D01*
X160147491Y-111628871D02*
X160255240Y-111521121D01*
X160255240Y-111521121D02*
X160282178Y-111440309D01*
X160282178Y-111440309D02*
X160282178Y-111386434D01*
X160282178Y-111386434D02*
X160255240Y-111251747D01*
X160255240Y-111251747D02*
X160174428Y-111117060D01*
X160174428Y-111117060D02*
X159958929Y-110901561D01*
X159958929Y-110901561D02*
X159878117Y-110874624D01*
X159878117Y-110874624D02*
X159824242Y-110874624D01*
X159824242Y-110874624D02*
X159743430Y-110901561D01*
X159743430Y-110901561D02*
X159635680Y-111009311D01*
X159635680Y-111009311D02*
X159608743Y-111090123D01*
X159608743Y-111090123D02*
X159608743Y-111143998D01*
X159608743Y-111143998D02*
X159635680Y-111224810D01*
X159635680Y-111224810D02*
X159770367Y-111359497D01*
X159770367Y-111359497D02*
X159851179Y-111386434D01*
X159851179Y-111386434D02*
X159905054Y-111386434D01*
X159905054Y-111386434D02*
X159985866Y-111359497D01*
X159985866Y-111359497D02*
X160093616Y-111251747D01*
X160093616Y-111251747D02*
X160120553Y-111170935D01*
X160120553Y-111170935D02*
X160120553Y-111117060D01*
X160120553Y-111117060D02*
X160093616Y-111036248D01*
X158948651Y-100073710D02*
X158490716Y-99992898D01*
X158625403Y-100396959D02*
X158059717Y-99831274D01*
X158059717Y-99831274D02*
X158275216Y-99615775D01*
X158275216Y-99615775D02*
X158356029Y-99588837D01*
X158356029Y-99588837D02*
X158409903Y-99588837D01*
X158409903Y-99588837D02*
X158490716Y-99615775D01*
X158490716Y-99615775D02*
X158571528Y-99696587D01*
X158571528Y-99696587D02*
X158598465Y-99777399D01*
X158598465Y-99777399D02*
X158598465Y-99831274D01*
X158598465Y-99831274D02*
X158571528Y-99912086D01*
X158571528Y-99912086D02*
X158356029Y-100127585D01*
X158625403Y-99265588D02*
X159083338Y-99723524D01*
X159083338Y-99723524D02*
X159164151Y-99750462D01*
X159164151Y-99750462D02*
X159218025Y-99750462D01*
X159218025Y-99750462D02*
X159298838Y-99723524D01*
X159298838Y-99723524D02*
X159406587Y-99615775D01*
X159406587Y-99615775D02*
X159433525Y-99534962D01*
X159433525Y-99534962D02*
X159433525Y-99481088D01*
X159433525Y-99481088D02*
X159406587Y-99400275D01*
X159406587Y-99400275D02*
X158948651Y-98942340D01*
X159783711Y-99238651D02*
X159218025Y-98672966D01*
X159218025Y-98672966D02*
X160106959Y-98915402D01*
X160106959Y-98915402D02*
X159541274Y-98349717D01*
X132596435Y-79228431D02*
X132515623Y-79255368D01*
X132515623Y-79255368D02*
X132434811Y-79336180D01*
X132434811Y-79336180D02*
X132380936Y-79443930D01*
X132380936Y-79443930D02*
X132380936Y-79551680D01*
X132380936Y-79551680D02*
X132407873Y-79632492D01*
X132407873Y-79632492D02*
X132488685Y-79767179D01*
X132488685Y-79767179D02*
X132569498Y-79847991D01*
X132569498Y-79847991D02*
X132704185Y-79928803D01*
X132704185Y-79928803D02*
X132784997Y-79955741D01*
X132784997Y-79955741D02*
X132892746Y-79955741D01*
X132892746Y-79955741D02*
X133000496Y-79901866D01*
X133000496Y-79901866D02*
X133054371Y-79847991D01*
X133054371Y-79847991D02*
X133108246Y-79740241D01*
X133108246Y-79740241D02*
X133108246Y-79686367D01*
X133108246Y-79686367D02*
X132919684Y-79497805D01*
X132919684Y-79497805D02*
X132811934Y-79605554D01*
X133404557Y-79497805D02*
X132838872Y-78932119D01*
X132838872Y-78932119D02*
X133727806Y-79174556D01*
X133727806Y-79174556D02*
X133162120Y-78608871D01*
X133997180Y-78905182D02*
X133431494Y-78339497D01*
X133431494Y-78339497D02*
X133566181Y-78204810D01*
X133566181Y-78204810D02*
X133673931Y-78150935D01*
X133673931Y-78150935D02*
X133781680Y-78150935D01*
X133781680Y-78150935D02*
X133862493Y-78177872D01*
X133862493Y-78177872D02*
X133997180Y-78258685D01*
X133997180Y-78258685D02*
X134077992Y-78339497D01*
X134077992Y-78339497D02*
X134158804Y-78474184D01*
X134158804Y-78474184D02*
X134185741Y-78554996D01*
X134185741Y-78554996D02*
X134185741Y-78662746D01*
X134185741Y-78662746D02*
X134131867Y-78770495D01*
X134131867Y-78770495D02*
X133997180Y-78905182D01*
X158207998Y-97250868D02*
X158127185Y-97277805D01*
X158127185Y-97277805D02*
X158046373Y-97358618D01*
X158046373Y-97358618D02*
X157992498Y-97466367D01*
X157992498Y-97466367D02*
X157992498Y-97574117D01*
X157992498Y-97574117D02*
X158019436Y-97654929D01*
X158019436Y-97654929D02*
X158100248Y-97789616D01*
X158100248Y-97789616D02*
X158181060Y-97870428D01*
X158181060Y-97870428D02*
X158315747Y-97951241D01*
X158315747Y-97951241D02*
X158396560Y-97978178D01*
X158396560Y-97978178D02*
X158504309Y-97978178D01*
X158504309Y-97978178D02*
X158612059Y-97924303D01*
X158612059Y-97924303D02*
X158665934Y-97870428D01*
X158665934Y-97870428D02*
X158719808Y-97762679D01*
X158719808Y-97762679D02*
X158719808Y-97708804D01*
X158719808Y-97708804D02*
X158531247Y-97520242D01*
X158531247Y-97520242D02*
X158423497Y-97627992D01*
X159016120Y-97520242D02*
X158450434Y-96954557D01*
X158450434Y-96954557D02*
X158665934Y-96739057D01*
X158665934Y-96739057D02*
X158746746Y-96712120D01*
X158746746Y-96712120D02*
X158800621Y-96712120D01*
X158800621Y-96712120D02*
X158881433Y-96739057D01*
X158881433Y-96739057D02*
X158962245Y-96819870D01*
X158962245Y-96819870D02*
X158989182Y-96900682D01*
X158989182Y-96900682D02*
X158989182Y-96954557D01*
X158989182Y-96954557D02*
X158962245Y-97035369D01*
X158962245Y-97035369D02*
X158746746Y-97250868D01*
X159043057Y-96469683D02*
X159043057Y-96415809D01*
X159043057Y-96415809D02*
X159069995Y-96334996D01*
X159069995Y-96334996D02*
X159204682Y-96200309D01*
X159204682Y-96200309D02*
X159285494Y-96173372D01*
X159285494Y-96173372D02*
X159339369Y-96173372D01*
X159339369Y-96173372D02*
X159420181Y-96200309D01*
X159420181Y-96200309D02*
X159474056Y-96254184D01*
X159474056Y-96254184D02*
X159527930Y-96361934D01*
X159527930Y-96361934D02*
X159527930Y-97008431D01*
X159527930Y-97008431D02*
X159878117Y-96658245D01*
X159797305Y-95607686D02*
X159689555Y-95715436D01*
X159689555Y-95715436D02*
X159662618Y-95796248D01*
X159662618Y-95796248D02*
X159662618Y-95850123D01*
X159662618Y-95850123D02*
X159689555Y-95984810D01*
X159689555Y-95984810D02*
X159770367Y-96119497D01*
X159770367Y-96119497D02*
X159985866Y-96334996D01*
X159985866Y-96334996D02*
X160066679Y-96361934D01*
X160066679Y-96361934D02*
X160120553Y-96361934D01*
X160120553Y-96361934D02*
X160201366Y-96334996D01*
X160201366Y-96334996D02*
X160309115Y-96227247D01*
X160309115Y-96227247D02*
X160336053Y-96146434D01*
X160336053Y-96146434D02*
X160336053Y-96092560D01*
X160336053Y-96092560D02*
X160309115Y-96011747D01*
X160309115Y-96011747D02*
X160174428Y-95877060D01*
X160174428Y-95877060D02*
X160093616Y-95850123D01*
X160093616Y-95850123D02*
X160039741Y-95850123D01*
X160039741Y-95850123D02*
X159958929Y-95877060D01*
X159958929Y-95877060D02*
X159851179Y-95984810D01*
X159851179Y-95984810D02*
X159824242Y-96065622D01*
X159824242Y-96065622D02*
X159824242Y-96119497D01*
X159824242Y-96119497D02*
X159851179Y-96200309D01*
X158196435Y-117328431D02*
X158115623Y-117355368D01*
X158115623Y-117355368D02*
X158034811Y-117436180D01*
X158034811Y-117436180D02*
X157980936Y-117543930D01*
X157980936Y-117543930D02*
X157980936Y-117651680D01*
X157980936Y-117651680D02*
X158007873Y-117732492D01*
X158007873Y-117732492D02*
X158088685Y-117867179D01*
X158088685Y-117867179D02*
X158169498Y-117947991D01*
X158169498Y-117947991D02*
X158304185Y-118028803D01*
X158304185Y-118028803D02*
X158384997Y-118055741D01*
X158384997Y-118055741D02*
X158492746Y-118055741D01*
X158492746Y-118055741D02*
X158600496Y-118001866D01*
X158600496Y-118001866D02*
X158654371Y-117947991D01*
X158654371Y-117947991D02*
X158708246Y-117840241D01*
X158708246Y-117840241D02*
X158708246Y-117786367D01*
X158708246Y-117786367D02*
X158519684Y-117597805D01*
X158519684Y-117597805D02*
X158411934Y-117705554D01*
X159004557Y-117597805D02*
X158438872Y-117032119D01*
X158438872Y-117032119D02*
X159327806Y-117274556D01*
X159327806Y-117274556D02*
X158762120Y-116708871D01*
X159597180Y-117005182D02*
X159031494Y-116439497D01*
X159031494Y-116439497D02*
X159166181Y-116304810D01*
X159166181Y-116304810D02*
X159273931Y-116250935D01*
X159273931Y-116250935D02*
X159381680Y-116250935D01*
X159381680Y-116250935D02*
X159462493Y-116277872D01*
X159462493Y-116277872D02*
X159597180Y-116358685D01*
X159597180Y-116358685D02*
X159677992Y-116439497D01*
X159677992Y-116439497D02*
X159758804Y-116574184D01*
X159758804Y-116574184D02*
X159785741Y-116654996D01*
X159785741Y-116654996D02*
X159785741Y-116762746D01*
X159785741Y-116762746D02*
X159731867Y-116870495D01*
X159731867Y-116870495D02*
X159597180Y-117005182D01*
X132099998Y-107410868D02*
X132019185Y-107437805D01*
X132019185Y-107437805D02*
X131938373Y-107518618D01*
X131938373Y-107518618D02*
X131884498Y-107626367D01*
X131884498Y-107626367D02*
X131884498Y-107734117D01*
X131884498Y-107734117D02*
X131911436Y-107814929D01*
X131911436Y-107814929D02*
X131992248Y-107949616D01*
X131992248Y-107949616D02*
X132073060Y-108030428D01*
X132073060Y-108030428D02*
X132207747Y-108111241D01*
X132207747Y-108111241D02*
X132288560Y-108138178D01*
X132288560Y-108138178D02*
X132396309Y-108138178D01*
X132396309Y-108138178D02*
X132504059Y-108084303D01*
X132504059Y-108084303D02*
X132557934Y-108030428D01*
X132557934Y-108030428D02*
X132611808Y-107922679D01*
X132611808Y-107922679D02*
X132611808Y-107868804D01*
X132611808Y-107868804D02*
X132423247Y-107680242D01*
X132423247Y-107680242D02*
X132315497Y-107787992D01*
X132908120Y-107680242D02*
X132342434Y-107114557D01*
X132342434Y-107114557D02*
X132557934Y-106899057D01*
X132557934Y-106899057D02*
X132638746Y-106872120D01*
X132638746Y-106872120D02*
X132692621Y-106872120D01*
X132692621Y-106872120D02*
X132773433Y-106899057D01*
X132773433Y-106899057D02*
X132854245Y-106979870D01*
X132854245Y-106979870D02*
X132881182Y-107060682D01*
X132881182Y-107060682D02*
X132881182Y-107114557D01*
X132881182Y-107114557D02*
X132854245Y-107195369D01*
X132854245Y-107195369D02*
X132638746Y-107410868D01*
X133770117Y-106818245D02*
X133446868Y-107141494D01*
X133608492Y-106979870D02*
X133042807Y-106414184D01*
X133042807Y-106414184D02*
X133069744Y-106548871D01*
X133069744Y-106548871D02*
X133069744Y-106656621D01*
X133069744Y-106656621D02*
X133042807Y-106737433D01*
X133554618Y-105902373D02*
X133608492Y-105848499D01*
X133608492Y-105848499D02*
X133689305Y-105821561D01*
X133689305Y-105821561D02*
X133743179Y-105821561D01*
X133743179Y-105821561D02*
X133823992Y-105848499D01*
X133823992Y-105848499D02*
X133958679Y-105929311D01*
X133958679Y-105929311D02*
X134093366Y-106063998D01*
X134093366Y-106063998D02*
X134174178Y-106198685D01*
X134174178Y-106198685D02*
X134201115Y-106279497D01*
X134201115Y-106279497D02*
X134201115Y-106333372D01*
X134201115Y-106333372D02*
X134174178Y-106414184D01*
X134174178Y-106414184D02*
X134120303Y-106468059D01*
X134120303Y-106468059D02*
X134039491Y-106494996D01*
X134039491Y-106494996D02*
X133985616Y-106494996D01*
X133985616Y-106494996D02*
X133904804Y-106468059D01*
X133904804Y-106468059D02*
X133770117Y-106387247D01*
X133770117Y-106387247D02*
X133635430Y-106252560D01*
X133635430Y-106252560D02*
X133554618Y-106117873D01*
X133554618Y-106117873D02*
X133527680Y-106037060D01*
X133527680Y-106037060D02*
X133527680Y-105983186D01*
X133527680Y-105983186D02*
X133554618Y-105902373D01*
X132596435Y-91928431D02*
X132515623Y-91955368D01*
X132515623Y-91955368D02*
X132434811Y-92036180D01*
X132434811Y-92036180D02*
X132380936Y-92143930D01*
X132380936Y-92143930D02*
X132380936Y-92251680D01*
X132380936Y-92251680D02*
X132407873Y-92332492D01*
X132407873Y-92332492D02*
X132488685Y-92467179D01*
X132488685Y-92467179D02*
X132569498Y-92547991D01*
X132569498Y-92547991D02*
X132704185Y-92628803D01*
X132704185Y-92628803D02*
X132784997Y-92655741D01*
X132784997Y-92655741D02*
X132892746Y-92655741D01*
X132892746Y-92655741D02*
X133000496Y-92601866D01*
X133000496Y-92601866D02*
X133054371Y-92547991D01*
X133054371Y-92547991D02*
X133108246Y-92440241D01*
X133108246Y-92440241D02*
X133108246Y-92386367D01*
X133108246Y-92386367D02*
X132919684Y-92197805D01*
X132919684Y-92197805D02*
X132811934Y-92305554D01*
X133404557Y-92197805D02*
X132838872Y-91632119D01*
X132838872Y-91632119D02*
X133727806Y-91874556D01*
X133727806Y-91874556D02*
X133162120Y-91308871D01*
X133997180Y-91605182D02*
X133431494Y-91039497D01*
X133431494Y-91039497D02*
X133566181Y-90904810D01*
X133566181Y-90904810D02*
X133673931Y-90850935D01*
X133673931Y-90850935D02*
X133781680Y-90850935D01*
X133781680Y-90850935D02*
X133862493Y-90877872D01*
X133862493Y-90877872D02*
X133997180Y-90958685D01*
X133997180Y-90958685D02*
X134077992Y-91039497D01*
X134077992Y-91039497D02*
X134158804Y-91174184D01*
X134158804Y-91174184D02*
X134185741Y-91254996D01*
X134185741Y-91254996D02*
X134185741Y-91362746D01*
X134185741Y-91362746D02*
X134131867Y-91470495D01*
X134131867Y-91470495D02*
X133997180Y-91605182D01*
X132623372Y-84281494D02*
X132542560Y-84308431D01*
X132542560Y-84308431D02*
X132461748Y-84389243D01*
X132461748Y-84389243D02*
X132407873Y-84496993D01*
X132407873Y-84496993D02*
X132407873Y-84604742D01*
X132407873Y-84604742D02*
X132434810Y-84685555D01*
X132434810Y-84685555D02*
X132515623Y-84820242D01*
X132515623Y-84820242D02*
X132596435Y-84901054D01*
X132596435Y-84901054D02*
X132731122Y-84981866D01*
X132731122Y-84981866D02*
X132811934Y-85008803D01*
X132811934Y-85008803D02*
X132919684Y-85008803D01*
X132919684Y-85008803D02*
X133027433Y-84954929D01*
X133027433Y-84954929D02*
X133081308Y-84901054D01*
X133081308Y-84901054D02*
X133135183Y-84793304D01*
X133135183Y-84793304D02*
X133135183Y-84739429D01*
X133135183Y-84739429D02*
X132946621Y-84550868D01*
X132946621Y-84550868D02*
X132838871Y-84658617D01*
X133431494Y-84550868D02*
X132865809Y-83985182D01*
X132865809Y-83985182D02*
X133081308Y-83769683D01*
X133081308Y-83769683D02*
X133162120Y-83742746D01*
X133162120Y-83742746D02*
X133215995Y-83742746D01*
X133215995Y-83742746D02*
X133296807Y-83769683D01*
X133296807Y-83769683D02*
X133377619Y-83850495D01*
X133377619Y-83850495D02*
X133404557Y-83931307D01*
X133404557Y-83931307D02*
X133404557Y-83985182D01*
X133404557Y-83985182D02*
X133377619Y-84065994D01*
X133377619Y-84065994D02*
X133162120Y-84281494D01*
X133377619Y-83473372D02*
X133727806Y-83123185D01*
X133727806Y-83123185D02*
X133754743Y-83527246D01*
X133754743Y-83527246D02*
X133835555Y-83446434D01*
X133835555Y-83446434D02*
X133916367Y-83419497D01*
X133916367Y-83419497D02*
X133970242Y-83419497D01*
X133970242Y-83419497D02*
X134051054Y-83446434D01*
X134051054Y-83446434D02*
X134185741Y-83581121D01*
X134185741Y-83581121D02*
X134212679Y-83661933D01*
X134212679Y-83661933D02*
X134212679Y-83715808D01*
X134212679Y-83715808D02*
X134185741Y-83796620D01*
X134185741Y-83796620D02*
X134024117Y-83958245D01*
X134024117Y-83958245D02*
X133943305Y-83985182D01*
X133943305Y-83985182D02*
X133889430Y-83985182D01*
X158207998Y-115030868D02*
X158127185Y-115057805D01*
X158127185Y-115057805D02*
X158046373Y-115138618D01*
X158046373Y-115138618D02*
X157992498Y-115246367D01*
X157992498Y-115246367D02*
X157992498Y-115354117D01*
X157992498Y-115354117D02*
X158019436Y-115434929D01*
X158019436Y-115434929D02*
X158100248Y-115569616D01*
X158100248Y-115569616D02*
X158181060Y-115650428D01*
X158181060Y-115650428D02*
X158315747Y-115731241D01*
X158315747Y-115731241D02*
X158396560Y-115758178D01*
X158396560Y-115758178D02*
X158504309Y-115758178D01*
X158504309Y-115758178D02*
X158612059Y-115704303D01*
X158612059Y-115704303D02*
X158665934Y-115650428D01*
X158665934Y-115650428D02*
X158719808Y-115542679D01*
X158719808Y-115542679D02*
X158719808Y-115488804D01*
X158719808Y-115488804D02*
X158531247Y-115300242D01*
X158531247Y-115300242D02*
X158423497Y-115407992D01*
X159016120Y-115300242D02*
X158450434Y-114734557D01*
X158450434Y-114734557D02*
X158665934Y-114519057D01*
X158665934Y-114519057D02*
X158746746Y-114492120D01*
X158746746Y-114492120D02*
X158800621Y-114492120D01*
X158800621Y-114492120D02*
X158881433Y-114519057D01*
X158881433Y-114519057D02*
X158962245Y-114599870D01*
X158962245Y-114599870D02*
X158989182Y-114680682D01*
X158989182Y-114680682D02*
X158989182Y-114734557D01*
X158989182Y-114734557D02*
X158962245Y-114815369D01*
X158962245Y-114815369D02*
X158746746Y-115030868D01*
X159878117Y-114438245D02*
X159554868Y-114761494D01*
X159716492Y-114599870D02*
X159150807Y-114034184D01*
X159150807Y-114034184D02*
X159177744Y-114168871D01*
X159177744Y-114168871D02*
X159177744Y-114276621D01*
X159177744Y-114276621D02*
X159150807Y-114357433D01*
X159878117Y-113791747D02*
X159797305Y-113818685D01*
X159797305Y-113818685D02*
X159743430Y-113818685D01*
X159743430Y-113818685D02*
X159662618Y-113791747D01*
X159662618Y-113791747D02*
X159635680Y-113764810D01*
X159635680Y-113764810D02*
X159608743Y-113683998D01*
X159608743Y-113683998D02*
X159608743Y-113630123D01*
X159608743Y-113630123D02*
X159635680Y-113549311D01*
X159635680Y-113549311D02*
X159743430Y-113441561D01*
X159743430Y-113441561D02*
X159824242Y-113414624D01*
X159824242Y-113414624D02*
X159878117Y-113414624D01*
X159878117Y-113414624D02*
X159958929Y-113441561D01*
X159958929Y-113441561D02*
X159985866Y-113468499D01*
X159985866Y-113468499D02*
X160012804Y-113549311D01*
X160012804Y-113549311D02*
X160012804Y-113603186D01*
X160012804Y-113603186D02*
X159985866Y-113683998D01*
X159985866Y-113683998D02*
X159878117Y-113791747D01*
X159878117Y-113791747D02*
X159851179Y-113872560D01*
X159851179Y-113872560D02*
X159851179Y-113926434D01*
X159851179Y-113926434D02*
X159878117Y-114007247D01*
X159878117Y-114007247D02*
X159985866Y-114114996D01*
X159985866Y-114114996D02*
X160066679Y-114141934D01*
X160066679Y-114141934D02*
X160120553Y-114141934D01*
X160120553Y-114141934D02*
X160201366Y-114114996D01*
X160201366Y-114114996D02*
X160309115Y-114007247D01*
X160309115Y-114007247D02*
X160336053Y-113926434D01*
X160336053Y-113926434D02*
X160336053Y-113872560D01*
X160336053Y-113872560D02*
X160309115Y-113791747D01*
X160309115Y-113791747D02*
X160201366Y-113683998D01*
X160201366Y-113683998D02*
X160120553Y-113657060D01*
X160120553Y-113657060D02*
X160066679Y-113657060D01*
X160066679Y-113657060D02*
X159985866Y-113683998D01*
X158207998Y-94720868D02*
X158127185Y-94747805D01*
X158127185Y-94747805D02*
X158046373Y-94828618D01*
X158046373Y-94828618D02*
X157992498Y-94936367D01*
X157992498Y-94936367D02*
X157992498Y-95044117D01*
X157992498Y-95044117D02*
X158019436Y-95124929D01*
X158019436Y-95124929D02*
X158100248Y-95259616D01*
X158100248Y-95259616D02*
X158181060Y-95340428D01*
X158181060Y-95340428D02*
X158315747Y-95421241D01*
X158315747Y-95421241D02*
X158396560Y-95448178D01*
X158396560Y-95448178D02*
X158504309Y-95448178D01*
X158504309Y-95448178D02*
X158612059Y-95394303D01*
X158612059Y-95394303D02*
X158665934Y-95340428D01*
X158665934Y-95340428D02*
X158719808Y-95232679D01*
X158719808Y-95232679D02*
X158719808Y-95178804D01*
X158719808Y-95178804D02*
X158531247Y-94990242D01*
X158531247Y-94990242D02*
X158423497Y-95097992D01*
X159016120Y-94990242D02*
X158450434Y-94424557D01*
X158450434Y-94424557D02*
X158665934Y-94209057D01*
X158665934Y-94209057D02*
X158746746Y-94182120D01*
X158746746Y-94182120D02*
X158800621Y-94182120D01*
X158800621Y-94182120D02*
X158881433Y-94209057D01*
X158881433Y-94209057D02*
X158962245Y-94289870D01*
X158962245Y-94289870D02*
X158989182Y-94370682D01*
X158989182Y-94370682D02*
X158989182Y-94424557D01*
X158989182Y-94424557D02*
X158962245Y-94505369D01*
X158962245Y-94505369D02*
X158746746Y-94720868D01*
X159043057Y-93939683D02*
X159043057Y-93885809D01*
X159043057Y-93885809D02*
X159069995Y-93804996D01*
X159069995Y-93804996D02*
X159204682Y-93670309D01*
X159204682Y-93670309D02*
X159285494Y-93643372D01*
X159285494Y-93643372D02*
X159339369Y-93643372D01*
X159339369Y-93643372D02*
X159420181Y-93670309D01*
X159420181Y-93670309D02*
X159474056Y-93724184D01*
X159474056Y-93724184D02*
X159527930Y-93831934D01*
X159527930Y-93831934D02*
X159527930Y-94478431D01*
X159527930Y-94478431D02*
X159878117Y-94128245D01*
X159500993Y-93373998D02*
X159878117Y-92996874D01*
X159878117Y-92996874D02*
X160201366Y-93804996D01*
X158207998Y-107420868D02*
X158127185Y-107447805D01*
X158127185Y-107447805D02*
X158046373Y-107528618D01*
X158046373Y-107528618D02*
X157992498Y-107636367D01*
X157992498Y-107636367D02*
X157992498Y-107744117D01*
X157992498Y-107744117D02*
X158019436Y-107824929D01*
X158019436Y-107824929D02*
X158100248Y-107959616D01*
X158100248Y-107959616D02*
X158181060Y-108040428D01*
X158181060Y-108040428D02*
X158315747Y-108121241D01*
X158315747Y-108121241D02*
X158396560Y-108148178D01*
X158396560Y-108148178D02*
X158504309Y-108148178D01*
X158504309Y-108148178D02*
X158612059Y-108094303D01*
X158612059Y-108094303D02*
X158665934Y-108040428D01*
X158665934Y-108040428D02*
X158719808Y-107932679D01*
X158719808Y-107932679D02*
X158719808Y-107878804D01*
X158719808Y-107878804D02*
X158531247Y-107690242D01*
X158531247Y-107690242D02*
X158423497Y-107797992D01*
X159016120Y-107690242D02*
X158450434Y-107124557D01*
X158450434Y-107124557D02*
X158665934Y-106909057D01*
X158665934Y-106909057D02*
X158746746Y-106882120D01*
X158746746Y-106882120D02*
X158800621Y-106882120D01*
X158800621Y-106882120D02*
X158881433Y-106909057D01*
X158881433Y-106909057D02*
X158962245Y-106989870D01*
X158962245Y-106989870D02*
X158989182Y-107070682D01*
X158989182Y-107070682D02*
X158989182Y-107124557D01*
X158989182Y-107124557D02*
X158962245Y-107205369D01*
X158962245Y-107205369D02*
X158746746Y-107420868D01*
X159043057Y-106639683D02*
X159043057Y-106585809D01*
X159043057Y-106585809D02*
X159069995Y-106504996D01*
X159069995Y-106504996D02*
X159204682Y-106370309D01*
X159204682Y-106370309D02*
X159285494Y-106343372D01*
X159285494Y-106343372D02*
X159339369Y-106343372D01*
X159339369Y-106343372D02*
X159420181Y-106370309D01*
X159420181Y-106370309D02*
X159474056Y-106424184D01*
X159474056Y-106424184D02*
X159527930Y-106531934D01*
X159527930Y-106531934D02*
X159527930Y-107178431D01*
X159527930Y-107178431D02*
X159878117Y-106828245D01*
X160416865Y-106289497D02*
X160093616Y-106612746D01*
X160255240Y-106451121D02*
X159689555Y-105885436D01*
X159689555Y-105885436D02*
X159716492Y-106020123D01*
X159716492Y-106020123D02*
X159716492Y-106127873D01*
X159716492Y-106127873D02*
X159689555Y-106208685D01*
X158207998Y-122650868D02*
X158127185Y-122677805D01*
X158127185Y-122677805D02*
X158046373Y-122758618D01*
X158046373Y-122758618D02*
X157992498Y-122866367D01*
X157992498Y-122866367D02*
X157992498Y-122974117D01*
X157992498Y-122974117D02*
X158019436Y-123054929D01*
X158019436Y-123054929D02*
X158100248Y-123189616D01*
X158100248Y-123189616D02*
X158181060Y-123270428D01*
X158181060Y-123270428D02*
X158315747Y-123351241D01*
X158315747Y-123351241D02*
X158396560Y-123378178D01*
X158396560Y-123378178D02*
X158504309Y-123378178D01*
X158504309Y-123378178D02*
X158612059Y-123324303D01*
X158612059Y-123324303D02*
X158665934Y-123270428D01*
X158665934Y-123270428D02*
X158719808Y-123162679D01*
X158719808Y-123162679D02*
X158719808Y-123108804D01*
X158719808Y-123108804D02*
X158531247Y-122920242D01*
X158531247Y-122920242D02*
X158423497Y-123027992D01*
X159016120Y-122920242D02*
X158450434Y-122354557D01*
X158450434Y-122354557D02*
X158665934Y-122139057D01*
X158665934Y-122139057D02*
X158746746Y-122112120D01*
X158746746Y-122112120D02*
X158800621Y-122112120D01*
X158800621Y-122112120D02*
X158881433Y-122139057D01*
X158881433Y-122139057D02*
X158962245Y-122219870D01*
X158962245Y-122219870D02*
X158989182Y-122300682D01*
X158989182Y-122300682D02*
X158989182Y-122354557D01*
X158989182Y-122354557D02*
X158962245Y-122435369D01*
X158962245Y-122435369D02*
X158746746Y-122650868D01*
X159878117Y-122058245D02*
X159554868Y-122381494D01*
X159716492Y-122219870D02*
X159150807Y-121654184D01*
X159150807Y-121654184D02*
X159177744Y-121788871D01*
X159177744Y-121788871D02*
X159177744Y-121896621D01*
X159177744Y-121896621D02*
X159150807Y-121977433D01*
X159797305Y-121007686D02*
X159689555Y-121115436D01*
X159689555Y-121115436D02*
X159662618Y-121196248D01*
X159662618Y-121196248D02*
X159662618Y-121250123D01*
X159662618Y-121250123D02*
X159689555Y-121384810D01*
X159689555Y-121384810D02*
X159770367Y-121519497D01*
X159770367Y-121519497D02*
X159985866Y-121734996D01*
X159985866Y-121734996D02*
X160066679Y-121761934D01*
X160066679Y-121761934D02*
X160120553Y-121761934D01*
X160120553Y-121761934D02*
X160201366Y-121734996D01*
X160201366Y-121734996D02*
X160309115Y-121627247D01*
X160309115Y-121627247D02*
X160336053Y-121546434D01*
X160336053Y-121546434D02*
X160336053Y-121492560D01*
X160336053Y-121492560D02*
X160309115Y-121411747D01*
X160309115Y-121411747D02*
X160174428Y-121277060D01*
X160174428Y-121277060D02*
X160093616Y-121250123D01*
X160093616Y-121250123D02*
X160039741Y-121250123D01*
X160039741Y-121250123D02*
X159958929Y-121277060D01*
X159958929Y-121277060D02*
X159851179Y-121384810D01*
X159851179Y-121384810D02*
X159824242Y-121465622D01*
X159824242Y-121465622D02*
X159824242Y-121519497D01*
X159824242Y-121519497D02*
X159851179Y-121600309D01*
X132099998Y-122650868D02*
X132019185Y-122677805D01*
X132019185Y-122677805D02*
X131938373Y-122758618D01*
X131938373Y-122758618D02*
X131884498Y-122866367D01*
X131884498Y-122866367D02*
X131884498Y-122974117D01*
X131884498Y-122974117D02*
X131911436Y-123054929D01*
X131911436Y-123054929D02*
X131992248Y-123189616D01*
X131992248Y-123189616D02*
X132073060Y-123270428D01*
X132073060Y-123270428D02*
X132207747Y-123351241D01*
X132207747Y-123351241D02*
X132288560Y-123378178D01*
X132288560Y-123378178D02*
X132396309Y-123378178D01*
X132396309Y-123378178D02*
X132504059Y-123324303D01*
X132504059Y-123324303D02*
X132557934Y-123270428D01*
X132557934Y-123270428D02*
X132611808Y-123162679D01*
X132611808Y-123162679D02*
X132611808Y-123108804D01*
X132611808Y-123108804D02*
X132423247Y-122920242D01*
X132423247Y-122920242D02*
X132315497Y-123027992D01*
X132908120Y-122920242D02*
X132342434Y-122354557D01*
X132342434Y-122354557D02*
X132557934Y-122139057D01*
X132557934Y-122139057D02*
X132638746Y-122112120D01*
X132638746Y-122112120D02*
X132692621Y-122112120D01*
X132692621Y-122112120D02*
X132773433Y-122139057D01*
X132773433Y-122139057D02*
X132854245Y-122219870D01*
X132854245Y-122219870D02*
X132881182Y-122300682D01*
X132881182Y-122300682D02*
X132881182Y-122354557D01*
X132881182Y-122354557D02*
X132854245Y-122435369D01*
X132854245Y-122435369D02*
X132638746Y-122650868D01*
X133770117Y-122058245D02*
X133446868Y-122381494D01*
X133608492Y-122219870D02*
X133042807Y-121654184D01*
X133042807Y-121654184D02*
X133069744Y-121788871D01*
X133069744Y-121788871D02*
X133069744Y-121896621D01*
X133069744Y-121896621D02*
X133042807Y-121977433D01*
X133716242Y-120980749D02*
X133446868Y-121250123D01*
X133446868Y-121250123D02*
X133689305Y-121546434D01*
X133689305Y-121546434D02*
X133689305Y-121492560D01*
X133689305Y-121492560D02*
X133716242Y-121411747D01*
X133716242Y-121411747D02*
X133850929Y-121277060D01*
X133850929Y-121277060D02*
X133931741Y-121250123D01*
X133931741Y-121250123D02*
X133985616Y-121250123D01*
X133985616Y-121250123D02*
X134066428Y-121277060D01*
X134066428Y-121277060D02*
X134201115Y-121411747D01*
X134201115Y-121411747D02*
X134228053Y-121492560D01*
X134228053Y-121492560D02*
X134228053Y-121546434D01*
X134228053Y-121546434D02*
X134201115Y-121627247D01*
X134201115Y-121627247D02*
X134066428Y-121761934D01*
X134066428Y-121761934D02*
X133985616Y-121788871D01*
X133985616Y-121788871D02*
X133931741Y-121788871D01*
X132623372Y-89361494D02*
X132542560Y-89388431D01*
X132542560Y-89388431D02*
X132461748Y-89469243D01*
X132461748Y-89469243D02*
X132407873Y-89576993D01*
X132407873Y-89576993D02*
X132407873Y-89684742D01*
X132407873Y-89684742D02*
X132434810Y-89765555D01*
X132434810Y-89765555D02*
X132515623Y-89900242D01*
X132515623Y-89900242D02*
X132596435Y-89981054D01*
X132596435Y-89981054D02*
X132731122Y-90061866D01*
X132731122Y-90061866D02*
X132811934Y-90088803D01*
X132811934Y-90088803D02*
X132919684Y-90088803D01*
X132919684Y-90088803D02*
X133027433Y-90034929D01*
X133027433Y-90034929D02*
X133081308Y-89981054D01*
X133081308Y-89981054D02*
X133135183Y-89873304D01*
X133135183Y-89873304D02*
X133135183Y-89819429D01*
X133135183Y-89819429D02*
X132946621Y-89630868D01*
X132946621Y-89630868D02*
X132838871Y-89738617D01*
X133431494Y-89630868D02*
X132865809Y-89065182D01*
X132865809Y-89065182D02*
X133081308Y-88849683D01*
X133081308Y-88849683D02*
X133162120Y-88822746D01*
X133162120Y-88822746D02*
X133215995Y-88822746D01*
X133215995Y-88822746D02*
X133296807Y-88849683D01*
X133296807Y-88849683D02*
X133377619Y-88930495D01*
X133377619Y-88930495D02*
X133404557Y-89011307D01*
X133404557Y-89011307D02*
X133404557Y-89065182D01*
X133404557Y-89065182D02*
X133377619Y-89145994D01*
X133377619Y-89145994D02*
X133162120Y-89361494D01*
X133700868Y-88230123D02*
X133431494Y-88499497D01*
X133431494Y-88499497D02*
X133673931Y-88795808D01*
X133673931Y-88795808D02*
X133673931Y-88741933D01*
X133673931Y-88741933D02*
X133700868Y-88661121D01*
X133700868Y-88661121D02*
X133835555Y-88526434D01*
X133835555Y-88526434D02*
X133916367Y-88499497D01*
X133916367Y-88499497D02*
X133970242Y-88499497D01*
X133970242Y-88499497D02*
X134051054Y-88526434D01*
X134051054Y-88526434D02*
X134185741Y-88661121D01*
X134185741Y-88661121D02*
X134212679Y-88741933D01*
X134212679Y-88741933D02*
X134212679Y-88795808D01*
X134212679Y-88795808D02*
X134185741Y-88876620D01*
X134185741Y-88876620D02*
X134051054Y-89011307D01*
X134051054Y-89011307D02*
X133970242Y-89038245D01*
X133970242Y-89038245D02*
X133916367Y-89038245D01*
X132623372Y-94441494D02*
X132542560Y-94468431D01*
X132542560Y-94468431D02*
X132461748Y-94549243D01*
X132461748Y-94549243D02*
X132407873Y-94656993D01*
X132407873Y-94656993D02*
X132407873Y-94764742D01*
X132407873Y-94764742D02*
X132434810Y-94845555D01*
X132434810Y-94845555D02*
X132515623Y-94980242D01*
X132515623Y-94980242D02*
X132596435Y-95061054D01*
X132596435Y-95061054D02*
X132731122Y-95141866D01*
X132731122Y-95141866D02*
X132811934Y-95168803D01*
X132811934Y-95168803D02*
X132919684Y-95168803D01*
X132919684Y-95168803D02*
X133027433Y-95114929D01*
X133027433Y-95114929D02*
X133081308Y-95061054D01*
X133081308Y-95061054D02*
X133135183Y-94953304D01*
X133135183Y-94953304D02*
X133135183Y-94899429D01*
X133135183Y-94899429D02*
X132946621Y-94710868D01*
X132946621Y-94710868D02*
X132838871Y-94818617D01*
X133431494Y-94710868D02*
X132865809Y-94145182D01*
X132865809Y-94145182D02*
X133081308Y-93929683D01*
X133081308Y-93929683D02*
X133162120Y-93902746D01*
X133162120Y-93902746D02*
X133215995Y-93902746D01*
X133215995Y-93902746D02*
X133296807Y-93929683D01*
X133296807Y-93929683D02*
X133377619Y-94010495D01*
X133377619Y-94010495D02*
X133404557Y-94091307D01*
X133404557Y-94091307D02*
X133404557Y-94145182D01*
X133404557Y-94145182D02*
X133377619Y-94225994D01*
X133377619Y-94225994D02*
X133162120Y-94441494D01*
X133673931Y-93337060D02*
X133566181Y-93444810D01*
X133566181Y-93444810D02*
X133539244Y-93525622D01*
X133539244Y-93525622D02*
X133539244Y-93579497D01*
X133539244Y-93579497D02*
X133566181Y-93714184D01*
X133566181Y-93714184D02*
X133646993Y-93848871D01*
X133646993Y-93848871D02*
X133862493Y-94064370D01*
X133862493Y-94064370D02*
X133943305Y-94091307D01*
X133943305Y-94091307D02*
X133997180Y-94091307D01*
X133997180Y-94091307D02*
X134077992Y-94064370D01*
X134077992Y-94064370D02*
X134185741Y-93956620D01*
X134185741Y-93956620D02*
X134212679Y-93875808D01*
X134212679Y-93875808D02*
X134212679Y-93821933D01*
X134212679Y-93821933D02*
X134185741Y-93741121D01*
X134185741Y-93741121D02*
X134051054Y-93606434D01*
X134051054Y-93606434D02*
X133970242Y-93579497D01*
X133970242Y-93579497D02*
X133916367Y-93579497D01*
X133916367Y-93579497D02*
X133835555Y-93606434D01*
X133835555Y-93606434D02*
X133727806Y-93714184D01*
X133727806Y-93714184D02*
X133700868Y-93794996D01*
X133700868Y-93794996D02*
X133700868Y-93848871D01*
X133700868Y-93848871D02*
X133727806Y-93929683D01*
X138600475Y-124654200D02*
X138714761Y-124692295D01*
X138714761Y-124692295D02*
X138905237Y-124692295D01*
X138905237Y-124692295D02*
X138981428Y-124654200D01*
X138981428Y-124654200D02*
X139019523Y-124616104D01*
X139019523Y-124616104D02*
X139057618Y-124539914D01*
X139057618Y-124539914D02*
X139057618Y-124463723D01*
X139057618Y-124463723D02*
X139019523Y-124387533D01*
X139019523Y-124387533D02*
X138981428Y-124349438D01*
X138981428Y-124349438D02*
X138905237Y-124311342D01*
X138905237Y-124311342D02*
X138752856Y-124273247D01*
X138752856Y-124273247D02*
X138676666Y-124235152D01*
X138676666Y-124235152D02*
X138638571Y-124197057D01*
X138638571Y-124197057D02*
X138600475Y-124120866D01*
X138600475Y-124120866D02*
X138600475Y-124044676D01*
X138600475Y-124044676D02*
X138638571Y-123968485D01*
X138638571Y-123968485D02*
X138676666Y-123930390D01*
X138676666Y-123930390D02*
X138752856Y-123892295D01*
X138752856Y-123892295D02*
X138943333Y-123892295D01*
X138943333Y-123892295D02*
X139057618Y-123930390D01*
X139324285Y-123892295D02*
X139514761Y-124692295D01*
X139514761Y-124692295D02*
X139667142Y-124120866D01*
X139667142Y-124120866D02*
X139819523Y-124692295D01*
X139819523Y-124692295D02*
X140010000Y-123892295D01*
X140771905Y-124616104D02*
X140733809Y-124654200D01*
X140733809Y-124654200D02*
X140619524Y-124692295D01*
X140619524Y-124692295D02*
X140543333Y-124692295D01*
X140543333Y-124692295D02*
X140429047Y-124654200D01*
X140429047Y-124654200D02*
X140352857Y-124578009D01*
X140352857Y-124578009D02*
X140314762Y-124501819D01*
X140314762Y-124501819D02*
X140276666Y-124349438D01*
X140276666Y-124349438D02*
X140276666Y-124235152D01*
X140276666Y-124235152D02*
X140314762Y-124082771D01*
X140314762Y-124082771D02*
X140352857Y-124006580D01*
X140352857Y-124006580D02*
X140429047Y-123930390D01*
X140429047Y-123930390D02*
X140543333Y-123892295D01*
X140543333Y-123892295D02*
X140619524Y-123892295D01*
X140619524Y-123892295D02*
X140733809Y-123930390D01*
X140733809Y-123930390D02*
X140771905Y-123968485D01*
X141495714Y-124692295D02*
X141114762Y-124692295D01*
X141114762Y-124692295D02*
X141114762Y-123892295D01*
X141762381Y-124692295D02*
X141762381Y-123892295D01*
X142219524Y-124692295D02*
X141876666Y-124235152D01*
X142219524Y-123892295D02*
X141762381Y-124349438D01*
X167767261Y-110150057D02*
X167672023Y-110102438D01*
X167672023Y-110102438D02*
X167576785Y-110007200D01*
X167576785Y-110007200D02*
X167433928Y-109864342D01*
X167433928Y-109864342D02*
X167338690Y-109816723D01*
X167338690Y-109816723D02*
X167243452Y-109816723D01*
X167291071Y-110054819D02*
X167195833Y-110007200D01*
X167195833Y-110007200D02*
X167100595Y-109911961D01*
X167100595Y-109911961D02*
X167052976Y-109721485D01*
X167052976Y-109721485D02*
X167052976Y-109388152D01*
X167052976Y-109388152D02*
X167100595Y-109197676D01*
X167100595Y-109197676D02*
X167195833Y-109102438D01*
X167195833Y-109102438D02*
X167291071Y-109054819D01*
X167291071Y-109054819D02*
X167481547Y-109054819D01*
X167481547Y-109054819D02*
X167576785Y-109102438D01*
X167576785Y-109102438D02*
X167672023Y-109197676D01*
X167672023Y-109197676D02*
X167719642Y-109388152D01*
X167719642Y-109388152D02*
X167719642Y-109721485D01*
X167719642Y-109721485D02*
X167672023Y-109911961D01*
X167672023Y-109911961D02*
X167576785Y-110007200D01*
X167576785Y-110007200D02*
X167481547Y-110054819D01*
X167481547Y-110054819D02*
X167291071Y-110054819D01*
X168672023Y-110054819D02*
X168100595Y-110054819D01*
X168386309Y-110054819D02*
X168386309Y-109054819D01*
X168386309Y-109054819D02*
X168291071Y-109197676D01*
X168291071Y-109197676D02*
X168195833Y-109292914D01*
X168195833Y-109292914D02*
X168100595Y-109340533D01*
X124954819Y-59833333D02*
X125669104Y-59833333D01*
X125669104Y-59833333D02*
X125811961Y-59880952D01*
X125811961Y-59880952D02*
X125907200Y-59976190D01*
X125907200Y-59976190D02*
X125954819Y-60119047D01*
X125954819Y-60119047D02*
X125954819Y-60214285D01*
X124954819Y-58880952D02*
X124954819Y-59357142D01*
X124954819Y-59357142D02*
X125431009Y-59404761D01*
X125431009Y-59404761D02*
X125383390Y-59357142D01*
X125383390Y-59357142D02*
X125335771Y-59261904D01*
X125335771Y-59261904D02*
X125335771Y-59023809D01*
X125335771Y-59023809D02*
X125383390Y-58928571D01*
X125383390Y-58928571D02*
X125431009Y-58880952D01*
X125431009Y-58880952D02*
X125526247Y-58833333D01*
X125526247Y-58833333D02*
X125764342Y-58833333D01*
X125764342Y-58833333D02*
X125859580Y-58880952D01*
X125859580Y-58880952D02*
X125907200Y-58928571D01*
X125907200Y-58928571D02*
X125954819Y-59023809D01*
X125954819Y-59023809D02*
X125954819Y-59261904D01*
X125954819Y-59261904D02*
X125907200Y-59357142D01*
X125907200Y-59357142D02*
X125859580Y-59404761D01*
X138066667Y-140607200D02*
X138209524Y-140654819D01*
X138209524Y-140654819D02*
X138447619Y-140654819D01*
X138447619Y-140654819D02*
X138542857Y-140607200D01*
X138542857Y-140607200D02*
X138590476Y-140559580D01*
X138590476Y-140559580D02*
X138638095Y-140464342D01*
X138638095Y-140464342D02*
X138638095Y-140369104D01*
X138638095Y-140369104D02*
X138590476Y-140273866D01*
X138590476Y-140273866D02*
X138542857Y-140226247D01*
X138542857Y-140226247D02*
X138447619Y-140178628D01*
X138447619Y-140178628D02*
X138257143Y-140131009D01*
X138257143Y-140131009D02*
X138161905Y-140083390D01*
X138161905Y-140083390D02*
X138114286Y-140035771D01*
X138114286Y-140035771D02*
X138066667Y-139940533D01*
X138066667Y-139940533D02*
X138066667Y-139845295D01*
X138066667Y-139845295D02*
X138114286Y-139750057D01*
X138114286Y-139750057D02*
X138161905Y-139702438D01*
X138161905Y-139702438D02*
X138257143Y-139654819D01*
X138257143Y-139654819D02*
X138495238Y-139654819D01*
X138495238Y-139654819D02*
X138638095Y-139702438D01*
X138971429Y-139654819D02*
X139209524Y-140654819D01*
X139209524Y-140654819D02*
X139400000Y-139940533D01*
X139400000Y-139940533D02*
X139590476Y-140654819D01*
X139590476Y-140654819D02*
X139828572Y-139654819D01*
X140733333Y-140654819D02*
X140161905Y-140654819D01*
X140447619Y-140654819D02*
X140447619Y-139654819D01*
X140447619Y-139654819D02*
X140352381Y-139797676D01*
X140352381Y-139797676D02*
X140257143Y-139892914D01*
X140257143Y-139892914D02*
X140161905Y-139940533D01*
X151634819Y-131738094D02*
X150634819Y-131738094D01*
X150634819Y-131738094D02*
X150634819Y-131499999D01*
X150634819Y-131499999D02*
X150682438Y-131357142D01*
X150682438Y-131357142D02*
X150777676Y-131261904D01*
X150777676Y-131261904D02*
X150872914Y-131214285D01*
X150872914Y-131214285D02*
X151063390Y-131166666D01*
X151063390Y-131166666D02*
X151206247Y-131166666D01*
X151206247Y-131166666D02*
X151396723Y-131214285D01*
X151396723Y-131214285D02*
X151491961Y-131261904D01*
X151491961Y-131261904D02*
X151587200Y-131357142D01*
X151587200Y-131357142D02*
X151634819Y-131499999D01*
X151634819Y-131499999D02*
X151634819Y-131738094D01*
X150730057Y-130785713D02*
X150682438Y-130738094D01*
X150682438Y-130738094D02*
X150634819Y-130642856D01*
X150634819Y-130642856D02*
X150634819Y-130404761D01*
X150634819Y-130404761D02*
X150682438Y-130309523D01*
X150682438Y-130309523D02*
X150730057Y-130261904D01*
X150730057Y-130261904D02*
X150825295Y-130214285D01*
X150825295Y-130214285D02*
X150920533Y-130214285D01*
X150920533Y-130214285D02*
X151063390Y-130261904D01*
X151063390Y-130261904D02*
X151634819Y-130833332D01*
X151634819Y-130833332D02*
X151634819Y-130214285D01*
X172884819Y-112642857D02*
X172408628Y-112976190D01*
X172884819Y-113214285D02*
X171884819Y-113214285D01*
X171884819Y-113214285D02*
X171884819Y-112833333D01*
X171884819Y-112833333D02*
X171932438Y-112738095D01*
X171932438Y-112738095D02*
X171980057Y-112690476D01*
X171980057Y-112690476D02*
X172075295Y-112642857D01*
X172075295Y-112642857D02*
X172218152Y-112642857D01*
X172218152Y-112642857D02*
X172313390Y-112690476D01*
X172313390Y-112690476D02*
X172361009Y-112738095D01*
X172361009Y-112738095D02*
X172408628Y-112833333D01*
X172408628Y-112833333D02*
X172408628Y-113214285D01*
X172884819Y-111690476D02*
X172884819Y-112261904D01*
X172884819Y-111976190D02*
X171884819Y-111976190D01*
X171884819Y-111976190D02*
X172027676Y-112071428D01*
X172027676Y-112071428D02*
X172122914Y-112166666D01*
X172122914Y-112166666D02*
X172170533Y-112261904D01*
X171884819Y-110785714D02*
X171884819Y-111261904D01*
X171884819Y-111261904D02*
X172361009Y-111309523D01*
X172361009Y-111309523D02*
X172313390Y-111261904D01*
X172313390Y-111261904D02*
X172265771Y-111166666D01*
X172265771Y-111166666D02*
X172265771Y-110928571D01*
X172265771Y-110928571D02*
X172313390Y-110833333D01*
X172313390Y-110833333D02*
X172361009Y-110785714D01*
X172361009Y-110785714D02*
X172456247Y-110738095D01*
X172456247Y-110738095D02*
X172694342Y-110738095D01*
X172694342Y-110738095D02*
X172789580Y-110785714D01*
X172789580Y-110785714D02*
X172837200Y-110833333D01*
X172837200Y-110833333D02*
X172884819Y-110928571D01*
X172884819Y-110928571D02*
X172884819Y-111166666D01*
X172884819Y-111166666D02*
X172837200Y-111261904D01*
X172837200Y-111261904D02*
X172789580Y-111309523D01*
X124754819Y-98833333D02*
X125469104Y-98833333D01*
X125469104Y-98833333D02*
X125611961Y-98880952D01*
X125611961Y-98880952D02*
X125707200Y-98976190D01*
X125707200Y-98976190D02*
X125754819Y-99119047D01*
X125754819Y-99119047D02*
X125754819Y-99214285D01*
X124754819Y-98452380D02*
X124754819Y-97833333D01*
X124754819Y-97833333D02*
X125135771Y-98166666D01*
X125135771Y-98166666D02*
X125135771Y-98023809D01*
X125135771Y-98023809D02*
X125183390Y-97928571D01*
X125183390Y-97928571D02*
X125231009Y-97880952D01*
X125231009Y-97880952D02*
X125326247Y-97833333D01*
X125326247Y-97833333D02*
X125564342Y-97833333D01*
X125564342Y-97833333D02*
X125659580Y-97880952D01*
X125659580Y-97880952D02*
X125707200Y-97928571D01*
X125707200Y-97928571D02*
X125754819Y-98023809D01*
X125754819Y-98023809D02*
X125754819Y-98309523D01*
X125754819Y-98309523D02*
X125707200Y-98404761D01*
X125707200Y-98404761D02*
X125659580Y-98452380D01*
X124754819Y-111333333D02*
X125469104Y-111333333D01*
X125469104Y-111333333D02*
X125611961Y-111380952D01*
X125611961Y-111380952D02*
X125707200Y-111476190D01*
X125707200Y-111476190D02*
X125754819Y-111619047D01*
X125754819Y-111619047D02*
X125754819Y-111714285D01*
X125088152Y-110428571D02*
X125754819Y-110428571D01*
X124707200Y-110666666D02*
X125421485Y-110904761D01*
X125421485Y-110904761D02*
X125421485Y-110285714D01*
X129524819Y-127142857D02*
X129048628Y-127476190D01*
X129524819Y-127714285D02*
X128524819Y-127714285D01*
X128524819Y-127714285D02*
X128524819Y-127333333D01*
X128524819Y-127333333D02*
X128572438Y-127238095D01*
X128572438Y-127238095D02*
X128620057Y-127190476D01*
X128620057Y-127190476D02*
X128715295Y-127142857D01*
X128715295Y-127142857D02*
X128858152Y-127142857D01*
X128858152Y-127142857D02*
X128953390Y-127190476D01*
X128953390Y-127190476D02*
X129001009Y-127238095D01*
X129001009Y-127238095D02*
X129048628Y-127333333D01*
X129048628Y-127333333D02*
X129048628Y-127714285D01*
X129524819Y-126190476D02*
X129524819Y-126761904D01*
X129524819Y-126476190D02*
X128524819Y-126476190D01*
X128524819Y-126476190D02*
X128667676Y-126571428D01*
X128667676Y-126571428D02*
X128762914Y-126666666D01*
X128762914Y-126666666D02*
X128810533Y-126761904D01*
X128858152Y-125333333D02*
X129524819Y-125333333D01*
X128477200Y-125571428D02*
X129191485Y-125809523D01*
X129191485Y-125809523D02*
X129191485Y-125190476D01*
X175884819Y-103754166D02*
X175408628Y-104087499D01*
X175884819Y-104325594D02*
X174884819Y-104325594D01*
X174884819Y-104325594D02*
X174884819Y-103944642D01*
X174884819Y-103944642D02*
X174932438Y-103849404D01*
X174932438Y-103849404D02*
X174980057Y-103801785D01*
X174980057Y-103801785D02*
X175075295Y-103754166D01*
X175075295Y-103754166D02*
X175218152Y-103754166D01*
X175218152Y-103754166D02*
X175313390Y-103801785D01*
X175313390Y-103801785D02*
X175361009Y-103849404D01*
X175361009Y-103849404D02*
X175408628Y-103944642D01*
X175408628Y-103944642D02*
X175408628Y-104325594D01*
X174884819Y-103420832D02*
X174884819Y-102801785D01*
X174884819Y-102801785D02*
X175265771Y-103135118D01*
X175265771Y-103135118D02*
X175265771Y-102992261D01*
X175265771Y-102992261D02*
X175313390Y-102897023D01*
X175313390Y-102897023D02*
X175361009Y-102849404D01*
X175361009Y-102849404D02*
X175456247Y-102801785D01*
X175456247Y-102801785D02*
X175694342Y-102801785D01*
X175694342Y-102801785D02*
X175789580Y-102849404D01*
X175789580Y-102849404D02*
X175837200Y-102897023D01*
X175837200Y-102897023D02*
X175884819Y-102992261D01*
X175884819Y-102992261D02*
X175884819Y-103277975D01*
X175884819Y-103277975D02*
X175837200Y-103373213D01*
X175837200Y-103373213D02*
X175789580Y-103420832D01*
X139682142Y-58524819D02*
X139348809Y-58048628D01*
X139110714Y-58524819D02*
X139110714Y-57524819D01*
X139110714Y-57524819D02*
X139491666Y-57524819D01*
X139491666Y-57524819D02*
X139586904Y-57572438D01*
X139586904Y-57572438D02*
X139634523Y-57620057D01*
X139634523Y-57620057D02*
X139682142Y-57715295D01*
X139682142Y-57715295D02*
X139682142Y-57858152D01*
X139682142Y-57858152D02*
X139634523Y-57953390D01*
X139634523Y-57953390D02*
X139586904Y-58001009D01*
X139586904Y-58001009D02*
X139491666Y-58048628D01*
X139491666Y-58048628D02*
X139110714Y-58048628D01*
X140634523Y-58524819D02*
X140063095Y-58524819D01*
X140348809Y-58524819D02*
X140348809Y-57524819D01*
X140348809Y-57524819D02*
X140253571Y-57667676D01*
X140253571Y-57667676D02*
X140158333Y-57762914D01*
X140158333Y-57762914D02*
X140063095Y-57810533D01*
X140967857Y-57524819D02*
X141634523Y-57524819D01*
X141634523Y-57524819D02*
X141205952Y-58524819D01*
X167508333Y-108454819D02*
X167175000Y-107978628D01*
X166936905Y-108454819D02*
X166936905Y-107454819D01*
X166936905Y-107454819D02*
X167317857Y-107454819D01*
X167317857Y-107454819D02*
X167413095Y-107502438D01*
X167413095Y-107502438D02*
X167460714Y-107550057D01*
X167460714Y-107550057D02*
X167508333Y-107645295D01*
X167508333Y-107645295D02*
X167508333Y-107788152D01*
X167508333Y-107788152D02*
X167460714Y-107883390D01*
X167460714Y-107883390D02*
X167413095Y-107931009D01*
X167413095Y-107931009D02*
X167317857Y-107978628D01*
X167317857Y-107978628D02*
X166936905Y-107978628D01*
X168079762Y-107883390D02*
X167984524Y-107835771D01*
X167984524Y-107835771D02*
X167936905Y-107788152D01*
X167936905Y-107788152D02*
X167889286Y-107692914D01*
X167889286Y-107692914D02*
X167889286Y-107645295D01*
X167889286Y-107645295D02*
X167936905Y-107550057D01*
X167936905Y-107550057D02*
X167984524Y-107502438D01*
X167984524Y-107502438D02*
X168079762Y-107454819D01*
X168079762Y-107454819D02*
X168270238Y-107454819D01*
X168270238Y-107454819D02*
X168365476Y-107502438D01*
X168365476Y-107502438D02*
X168413095Y-107550057D01*
X168413095Y-107550057D02*
X168460714Y-107645295D01*
X168460714Y-107645295D02*
X168460714Y-107692914D01*
X168460714Y-107692914D02*
X168413095Y-107788152D01*
X168413095Y-107788152D02*
X168365476Y-107835771D01*
X168365476Y-107835771D02*
X168270238Y-107883390D01*
X168270238Y-107883390D02*
X168079762Y-107883390D01*
X168079762Y-107883390D02*
X167984524Y-107931009D01*
X167984524Y-107931009D02*
X167936905Y-107978628D01*
X167936905Y-107978628D02*
X167889286Y-108073866D01*
X167889286Y-108073866D02*
X167889286Y-108264342D01*
X167889286Y-108264342D02*
X167936905Y-108359580D01*
X167936905Y-108359580D02*
X167984524Y-108407200D01*
X167984524Y-108407200D02*
X168079762Y-108454819D01*
X168079762Y-108454819D02*
X168270238Y-108454819D01*
X168270238Y-108454819D02*
X168365476Y-108407200D01*
X168365476Y-108407200D02*
X168413095Y-108359580D01*
X168413095Y-108359580D02*
X168460714Y-108264342D01*
X168460714Y-108264342D02*
X168460714Y-108073866D01*
X168460714Y-108073866D02*
X168413095Y-107978628D01*
X168413095Y-107978628D02*
X168365476Y-107931009D01*
X168365476Y-107931009D02*
X168270238Y-107883390D01*
X165454819Y-131738094D02*
X164454819Y-131738094D01*
X164454819Y-131738094D02*
X164454819Y-131499999D01*
X164454819Y-131499999D02*
X164502438Y-131357142D01*
X164502438Y-131357142D02*
X164597676Y-131261904D01*
X164597676Y-131261904D02*
X164692914Y-131214285D01*
X164692914Y-131214285D02*
X164883390Y-131166666D01*
X164883390Y-131166666D02*
X165026247Y-131166666D01*
X165026247Y-131166666D02*
X165216723Y-131214285D01*
X165216723Y-131214285D02*
X165311961Y-131261904D01*
X165311961Y-131261904D02*
X165407200Y-131357142D01*
X165407200Y-131357142D02*
X165454819Y-131499999D01*
X165454819Y-131499999D02*
X165454819Y-131738094D01*
X165454819Y-130214285D02*
X165454819Y-130785713D01*
X165454819Y-130499999D02*
X164454819Y-130499999D01*
X164454819Y-130499999D02*
X164597676Y-130595237D01*
X164597676Y-130595237D02*
X164692914Y-130690475D01*
X164692914Y-130690475D02*
X164740533Y-130785713D01*
X175954819Y-99166666D02*
X175478628Y-99499999D01*
X175954819Y-99738094D02*
X174954819Y-99738094D01*
X174954819Y-99738094D02*
X174954819Y-99357142D01*
X174954819Y-99357142D02*
X175002438Y-99261904D01*
X175002438Y-99261904D02*
X175050057Y-99214285D01*
X175050057Y-99214285D02*
X175145295Y-99166666D01*
X175145295Y-99166666D02*
X175288152Y-99166666D01*
X175288152Y-99166666D02*
X175383390Y-99214285D01*
X175383390Y-99214285D02*
X175431009Y-99261904D01*
X175431009Y-99261904D02*
X175478628Y-99357142D01*
X175478628Y-99357142D02*
X175478628Y-99738094D01*
X174954819Y-98309523D02*
X174954819Y-98499999D01*
X174954819Y-98499999D02*
X175002438Y-98595237D01*
X175002438Y-98595237D02*
X175050057Y-98642856D01*
X175050057Y-98642856D02*
X175192914Y-98738094D01*
X175192914Y-98738094D02*
X175383390Y-98785713D01*
X175383390Y-98785713D02*
X175764342Y-98785713D01*
X175764342Y-98785713D02*
X175859580Y-98738094D01*
X175859580Y-98738094D02*
X175907200Y-98690475D01*
X175907200Y-98690475D02*
X175954819Y-98595237D01*
X175954819Y-98595237D02*
X175954819Y-98404761D01*
X175954819Y-98404761D02*
X175907200Y-98309523D01*
X175907200Y-98309523D02*
X175859580Y-98261904D01*
X175859580Y-98261904D02*
X175764342Y-98214285D01*
X175764342Y-98214285D02*
X175526247Y-98214285D01*
X175526247Y-98214285D02*
X175431009Y-98261904D01*
X175431009Y-98261904D02*
X175383390Y-98309523D01*
X175383390Y-98309523D02*
X175335771Y-98404761D01*
X175335771Y-98404761D02*
X175335771Y-98595237D01*
X175335771Y-98595237D02*
X175383390Y-98690475D01*
X175383390Y-98690475D02*
X175431009Y-98738094D01*
X175431009Y-98738094D02*
X175526247Y-98785713D01*
X177607200Y-123933332D02*
X177654819Y-123790475D01*
X177654819Y-123790475D02*
X177654819Y-123552380D01*
X177654819Y-123552380D02*
X177607200Y-123457142D01*
X177607200Y-123457142D02*
X177559580Y-123409523D01*
X177559580Y-123409523D02*
X177464342Y-123361904D01*
X177464342Y-123361904D02*
X177369104Y-123361904D01*
X177369104Y-123361904D02*
X177273866Y-123409523D01*
X177273866Y-123409523D02*
X177226247Y-123457142D01*
X177226247Y-123457142D02*
X177178628Y-123552380D01*
X177178628Y-123552380D02*
X177131009Y-123742856D01*
X177131009Y-123742856D02*
X177083390Y-123838094D01*
X177083390Y-123838094D02*
X177035771Y-123885713D01*
X177035771Y-123885713D02*
X176940533Y-123933332D01*
X176940533Y-123933332D02*
X176845295Y-123933332D01*
X176845295Y-123933332D02*
X176750057Y-123885713D01*
X176750057Y-123885713D02*
X176702438Y-123838094D01*
X176702438Y-123838094D02*
X176654819Y-123742856D01*
X176654819Y-123742856D02*
X176654819Y-123504761D01*
X176654819Y-123504761D02*
X176702438Y-123361904D01*
X176654819Y-123028570D02*
X177654819Y-122790475D01*
X177654819Y-122790475D02*
X176940533Y-122599999D01*
X176940533Y-122599999D02*
X177654819Y-122409523D01*
X177654819Y-122409523D02*
X176654819Y-122171428D01*
X176654819Y-121885713D02*
X176654819Y-121266666D01*
X176654819Y-121266666D02*
X177035771Y-121599999D01*
X177035771Y-121599999D02*
X177035771Y-121457142D01*
X177035771Y-121457142D02*
X177083390Y-121361904D01*
X177083390Y-121361904D02*
X177131009Y-121314285D01*
X177131009Y-121314285D02*
X177226247Y-121266666D01*
X177226247Y-121266666D02*
X177464342Y-121266666D01*
X177464342Y-121266666D02*
X177559580Y-121314285D01*
X177559580Y-121314285D02*
X177607200Y-121361904D01*
X177607200Y-121361904D02*
X177654819Y-121457142D01*
X177654819Y-121457142D02*
X177654819Y-121742856D01*
X177654819Y-121742856D02*
X177607200Y-121838094D01*
X177607200Y-121838094D02*
X177559580Y-121885713D01*
X124754819Y-86333333D02*
X125469104Y-86333333D01*
X125469104Y-86333333D02*
X125611961Y-86380952D01*
X125611961Y-86380952D02*
X125707200Y-86476190D01*
X125707200Y-86476190D02*
X125754819Y-86619047D01*
X125754819Y-86619047D02*
X125754819Y-86714285D01*
X124850057Y-85904761D02*
X124802438Y-85857142D01*
X124802438Y-85857142D02*
X124754819Y-85761904D01*
X124754819Y-85761904D02*
X124754819Y-85523809D01*
X124754819Y-85523809D02*
X124802438Y-85428571D01*
X124802438Y-85428571D02*
X124850057Y-85380952D01*
X124850057Y-85380952D02*
X124945295Y-85333333D01*
X124945295Y-85333333D02*
X125040533Y-85333333D01*
X125040533Y-85333333D02*
X125183390Y-85380952D01*
X125183390Y-85380952D02*
X125754819Y-85952380D01*
X125754819Y-85952380D02*
X125754819Y-85333333D01*
X172269642Y-87954819D02*
X171936309Y-87478628D01*
X171698214Y-87954819D02*
X171698214Y-86954819D01*
X171698214Y-86954819D02*
X172079166Y-86954819D01*
X172079166Y-86954819D02*
X172174404Y-87002438D01*
X172174404Y-87002438D02*
X172222023Y-87050057D01*
X172222023Y-87050057D02*
X172269642Y-87145295D01*
X172269642Y-87145295D02*
X172269642Y-87288152D01*
X172269642Y-87288152D02*
X172222023Y-87383390D01*
X172222023Y-87383390D02*
X172174404Y-87431009D01*
X172174404Y-87431009D02*
X172079166Y-87478628D01*
X172079166Y-87478628D02*
X171698214Y-87478628D01*
X173222023Y-87954819D02*
X172650595Y-87954819D01*
X172936309Y-87954819D02*
X172936309Y-86954819D01*
X172936309Y-86954819D02*
X172841071Y-87097676D01*
X172841071Y-87097676D02*
X172745833Y-87192914D01*
X172745833Y-87192914D02*
X172650595Y-87240533D01*
X173841071Y-86954819D02*
X173936309Y-86954819D01*
X173936309Y-86954819D02*
X174031547Y-87002438D01*
X174031547Y-87002438D02*
X174079166Y-87050057D01*
X174079166Y-87050057D02*
X174126785Y-87145295D01*
X174126785Y-87145295D02*
X174174404Y-87335771D01*
X174174404Y-87335771D02*
X174174404Y-87573866D01*
X174174404Y-87573866D02*
X174126785Y-87764342D01*
X174126785Y-87764342D02*
X174079166Y-87859580D01*
X174079166Y-87859580D02*
X174031547Y-87907200D01*
X174031547Y-87907200D02*
X173936309Y-87954819D01*
X173936309Y-87954819D02*
X173841071Y-87954819D01*
X173841071Y-87954819D02*
X173745833Y-87907200D01*
X173745833Y-87907200D02*
X173698214Y-87859580D01*
X173698214Y-87859580D02*
X173650595Y-87764342D01*
X173650595Y-87764342D02*
X173602976Y-87573866D01*
X173602976Y-87573866D02*
X173602976Y-87335771D01*
X173602976Y-87335771D02*
X173650595Y-87145295D01*
X173650595Y-87145295D02*
X173698214Y-87050057D01*
X173698214Y-87050057D02*
X173745833Y-87002438D01*
X173745833Y-87002438D02*
X173841071Y-86954819D01*
X135384819Y-127230357D02*
X134908628Y-127563690D01*
X135384819Y-127801785D02*
X134384819Y-127801785D01*
X134384819Y-127801785D02*
X134384819Y-127420833D01*
X134384819Y-127420833D02*
X134432438Y-127325595D01*
X134432438Y-127325595D02*
X134480057Y-127277976D01*
X134480057Y-127277976D02*
X134575295Y-127230357D01*
X134575295Y-127230357D02*
X134718152Y-127230357D01*
X134718152Y-127230357D02*
X134813390Y-127277976D01*
X134813390Y-127277976D02*
X134861009Y-127325595D01*
X134861009Y-127325595D02*
X134908628Y-127420833D01*
X134908628Y-127420833D02*
X134908628Y-127801785D01*
X135384819Y-126277976D02*
X135384819Y-126849404D01*
X135384819Y-126563690D02*
X134384819Y-126563690D01*
X134384819Y-126563690D02*
X134527676Y-126658928D01*
X134527676Y-126658928D02*
X134622914Y-126754166D01*
X134622914Y-126754166D02*
X134670533Y-126849404D01*
X134384819Y-125944642D02*
X134384819Y-125325595D01*
X134384819Y-125325595D02*
X134765771Y-125658928D01*
X134765771Y-125658928D02*
X134765771Y-125516071D01*
X134765771Y-125516071D02*
X134813390Y-125420833D01*
X134813390Y-125420833D02*
X134861009Y-125373214D01*
X134861009Y-125373214D02*
X134956247Y-125325595D01*
X134956247Y-125325595D02*
X135194342Y-125325595D01*
X135194342Y-125325595D02*
X135289580Y-125373214D01*
X135289580Y-125373214D02*
X135337200Y-125420833D01*
X135337200Y-125420833D02*
X135384819Y-125516071D01*
X135384819Y-125516071D02*
X135384819Y-125801785D01*
X135384819Y-125801785D02*
X135337200Y-125897023D01*
X135337200Y-125897023D02*
X135289580Y-125944642D01*
X167058333Y-103429580D02*
X167010714Y-103477200D01*
X167010714Y-103477200D02*
X166867857Y-103524819D01*
X166867857Y-103524819D02*
X166772619Y-103524819D01*
X166772619Y-103524819D02*
X166629762Y-103477200D01*
X166629762Y-103477200D02*
X166534524Y-103381961D01*
X166534524Y-103381961D02*
X166486905Y-103286723D01*
X166486905Y-103286723D02*
X166439286Y-103096247D01*
X166439286Y-103096247D02*
X166439286Y-102953390D01*
X166439286Y-102953390D02*
X166486905Y-102762914D01*
X166486905Y-102762914D02*
X166534524Y-102667676D01*
X166534524Y-102667676D02*
X166629762Y-102572438D01*
X166629762Y-102572438D02*
X166772619Y-102524819D01*
X166772619Y-102524819D02*
X166867857Y-102524819D01*
X166867857Y-102524819D02*
X167010714Y-102572438D01*
X167010714Y-102572438D02*
X167058333Y-102620057D01*
X167391667Y-102524819D02*
X168010714Y-102524819D01*
X168010714Y-102524819D02*
X167677381Y-102905771D01*
X167677381Y-102905771D02*
X167820238Y-102905771D01*
X167820238Y-102905771D02*
X167915476Y-102953390D01*
X167915476Y-102953390D02*
X167963095Y-103001009D01*
X167963095Y-103001009D02*
X168010714Y-103096247D01*
X168010714Y-103096247D02*
X168010714Y-103334342D01*
X168010714Y-103334342D02*
X167963095Y-103429580D01*
X167963095Y-103429580D02*
X167915476Y-103477200D01*
X167915476Y-103477200D02*
X167820238Y-103524819D01*
X167820238Y-103524819D02*
X167534524Y-103524819D01*
X167534524Y-103524819D02*
X167439286Y-103477200D01*
X167439286Y-103477200D02*
X167391667Y-103429580D01*
X121738095Y-117004819D02*
X121738095Y-117814342D01*
X121738095Y-117814342D02*
X121785714Y-117909580D01*
X121785714Y-117909580D02*
X121833333Y-117957200D01*
X121833333Y-117957200D02*
X121928571Y-118004819D01*
X121928571Y-118004819D02*
X122119047Y-118004819D01*
X122119047Y-118004819D02*
X122214285Y-117957200D01*
X122214285Y-117957200D02*
X122261904Y-117909580D01*
X122261904Y-117909580D02*
X122309523Y-117814342D01*
X122309523Y-117814342D02*
X122309523Y-117004819D01*
X123309523Y-118004819D02*
X122738095Y-118004819D01*
X123023809Y-118004819D02*
X123023809Y-117004819D01*
X123023809Y-117004819D02*
X122928571Y-117147676D01*
X122928571Y-117147676D02*
X122833333Y-117242914D01*
X122833333Y-117242914D02*
X122738095Y-117290533D01*
X157066667Y-140607200D02*
X157209524Y-140654819D01*
X157209524Y-140654819D02*
X157447619Y-140654819D01*
X157447619Y-140654819D02*
X157542857Y-140607200D01*
X157542857Y-140607200D02*
X157590476Y-140559580D01*
X157590476Y-140559580D02*
X157638095Y-140464342D01*
X157638095Y-140464342D02*
X157638095Y-140369104D01*
X157638095Y-140369104D02*
X157590476Y-140273866D01*
X157590476Y-140273866D02*
X157542857Y-140226247D01*
X157542857Y-140226247D02*
X157447619Y-140178628D01*
X157447619Y-140178628D02*
X157257143Y-140131009D01*
X157257143Y-140131009D02*
X157161905Y-140083390D01*
X157161905Y-140083390D02*
X157114286Y-140035771D01*
X157114286Y-140035771D02*
X157066667Y-139940533D01*
X157066667Y-139940533D02*
X157066667Y-139845295D01*
X157066667Y-139845295D02*
X157114286Y-139750057D01*
X157114286Y-139750057D02*
X157161905Y-139702438D01*
X157161905Y-139702438D02*
X157257143Y-139654819D01*
X157257143Y-139654819D02*
X157495238Y-139654819D01*
X157495238Y-139654819D02*
X157638095Y-139702438D01*
X157971429Y-139654819D02*
X158209524Y-140654819D01*
X158209524Y-140654819D02*
X158400000Y-139940533D01*
X158400000Y-139940533D02*
X158590476Y-140654819D01*
X158590476Y-140654819D02*
X158828572Y-139654819D01*
X159161905Y-139750057D02*
X159209524Y-139702438D01*
X159209524Y-139702438D02*
X159304762Y-139654819D01*
X159304762Y-139654819D02*
X159542857Y-139654819D01*
X159542857Y-139654819D02*
X159638095Y-139702438D01*
X159638095Y-139702438D02*
X159685714Y-139750057D01*
X159685714Y-139750057D02*
X159733333Y-139845295D01*
X159733333Y-139845295D02*
X159733333Y-139940533D01*
X159733333Y-139940533D02*
X159685714Y-140083390D01*
X159685714Y-140083390D02*
X159114286Y-140654819D01*
X159114286Y-140654819D02*
X159733333Y-140654819D01*
X128745833Y-69384819D02*
X128412500Y-68908628D01*
X128174405Y-69384819D02*
X128174405Y-68384819D01*
X128174405Y-68384819D02*
X128555357Y-68384819D01*
X128555357Y-68384819D02*
X128650595Y-68432438D01*
X128650595Y-68432438D02*
X128698214Y-68480057D01*
X128698214Y-68480057D02*
X128745833Y-68575295D01*
X128745833Y-68575295D02*
X128745833Y-68718152D01*
X128745833Y-68718152D02*
X128698214Y-68813390D01*
X128698214Y-68813390D02*
X128650595Y-68861009D01*
X128650595Y-68861009D02*
X128555357Y-68908628D01*
X128555357Y-68908628D02*
X128174405Y-68908628D01*
X129698214Y-69384819D02*
X129126786Y-69384819D01*
X129412500Y-69384819D02*
X129412500Y-68384819D01*
X129412500Y-68384819D02*
X129317262Y-68527676D01*
X129317262Y-68527676D02*
X129222024Y-68622914D01*
X129222024Y-68622914D02*
X129126786Y-68670533D01*
X133269642Y-62524819D02*
X132936309Y-62048628D01*
X132698214Y-62524819D02*
X132698214Y-61524819D01*
X132698214Y-61524819D02*
X133079166Y-61524819D01*
X133079166Y-61524819D02*
X133174404Y-61572438D01*
X133174404Y-61572438D02*
X133222023Y-61620057D01*
X133222023Y-61620057D02*
X133269642Y-61715295D01*
X133269642Y-61715295D02*
X133269642Y-61858152D01*
X133269642Y-61858152D02*
X133222023Y-61953390D01*
X133222023Y-61953390D02*
X133174404Y-62001009D01*
X133174404Y-62001009D02*
X133079166Y-62048628D01*
X133079166Y-62048628D02*
X132698214Y-62048628D01*
X134222023Y-62524819D02*
X133650595Y-62524819D01*
X133936309Y-62524819D02*
X133936309Y-61524819D01*
X133936309Y-61524819D02*
X133841071Y-61667676D01*
X133841071Y-61667676D02*
X133745833Y-61762914D01*
X133745833Y-61762914D02*
X133650595Y-61810533D01*
X135079166Y-61524819D02*
X134888690Y-61524819D01*
X134888690Y-61524819D02*
X134793452Y-61572438D01*
X134793452Y-61572438D02*
X134745833Y-61620057D01*
X134745833Y-61620057D02*
X134650595Y-61762914D01*
X134650595Y-61762914D02*
X134602976Y-61953390D01*
X134602976Y-61953390D02*
X134602976Y-62334342D01*
X134602976Y-62334342D02*
X134650595Y-62429580D01*
X134650595Y-62429580D02*
X134698214Y-62477200D01*
X134698214Y-62477200D02*
X134793452Y-62524819D01*
X134793452Y-62524819D02*
X134983928Y-62524819D01*
X134983928Y-62524819D02*
X135079166Y-62477200D01*
X135079166Y-62477200D02*
X135126785Y-62429580D01*
X135126785Y-62429580D02*
X135174404Y-62334342D01*
X135174404Y-62334342D02*
X135174404Y-62096247D01*
X135174404Y-62096247D02*
X135126785Y-62001009D01*
X135126785Y-62001009D02*
X135079166Y-61953390D01*
X135079166Y-61953390D02*
X134983928Y-61905771D01*
X134983928Y-61905771D02*
X134793452Y-61905771D01*
X134793452Y-61905771D02*
X134698214Y-61953390D01*
X134698214Y-61953390D02*
X134650595Y-62001009D01*
X134650595Y-62001009D02*
X134602976Y-62096247D01*
X166690476Y-71124819D02*
X166690476Y-71839104D01*
X166690476Y-71839104D02*
X166642857Y-71981961D01*
X166642857Y-71981961D02*
X166547619Y-72077200D01*
X166547619Y-72077200D02*
X166404762Y-72124819D01*
X166404762Y-72124819D02*
X166309524Y-72124819D01*
X167690476Y-72124819D02*
X167119048Y-72124819D01*
X167404762Y-72124819D02*
X167404762Y-71124819D01*
X167404762Y-71124819D02*
X167309524Y-71267676D01*
X167309524Y-71267676D02*
X167214286Y-71362914D01*
X167214286Y-71362914D02*
X167119048Y-71410533D01*
X168642857Y-72124819D02*
X168071429Y-72124819D01*
X168357143Y-72124819D02*
X168357143Y-71124819D01*
X168357143Y-71124819D02*
X168261905Y-71267676D01*
X168261905Y-71267676D02*
X168166667Y-71362914D01*
X168166667Y-71362914D02*
X168071429Y-71410533D01*
X129841666Y-71214819D02*
X129841666Y-71929104D01*
X129841666Y-71929104D02*
X129794047Y-72071961D01*
X129794047Y-72071961D02*
X129698809Y-72167200D01*
X129698809Y-72167200D02*
X129555952Y-72214819D01*
X129555952Y-72214819D02*
X129460714Y-72214819D01*
X130746428Y-71214819D02*
X130555952Y-71214819D01*
X130555952Y-71214819D02*
X130460714Y-71262438D01*
X130460714Y-71262438D02*
X130413095Y-71310057D01*
X130413095Y-71310057D02*
X130317857Y-71452914D01*
X130317857Y-71452914D02*
X130270238Y-71643390D01*
X130270238Y-71643390D02*
X130270238Y-72024342D01*
X130270238Y-72024342D02*
X130317857Y-72119580D01*
X130317857Y-72119580D02*
X130365476Y-72167200D01*
X130365476Y-72167200D02*
X130460714Y-72214819D01*
X130460714Y-72214819D02*
X130651190Y-72214819D01*
X130651190Y-72214819D02*
X130746428Y-72167200D01*
X130746428Y-72167200D02*
X130794047Y-72119580D01*
X130794047Y-72119580D02*
X130841666Y-72024342D01*
X130841666Y-72024342D02*
X130841666Y-71786247D01*
X130841666Y-71786247D02*
X130794047Y-71691009D01*
X130794047Y-71691009D02*
X130746428Y-71643390D01*
X130746428Y-71643390D02*
X130651190Y-71595771D01*
X130651190Y-71595771D02*
X130460714Y-71595771D01*
X130460714Y-71595771D02*
X130365476Y-71643390D01*
X130365476Y-71643390D02*
X130317857Y-71691009D01*
X130317857Y-71691009D02*
X130270238Y-71786247D01*
X124754819Y-73833333D02*
X125469104Y-73833333D01*
X125469104Y-73833333D02*
X125611961Y-73880952D01*
X125611961Y-73880952D02*
X125707200Y-73976190D01*
X125707200Y-73976190D02*
X125754819Y-74119047D01*
X125754819Y-74119047D02*
X125754819Y-74214285D01*
X125754819Y-72833333D02*
X125754819Y-73404761D01*
X125754819Y-73119047D02*
X124754819Y-73119047D01*
X124754819Y-73119047D02*
X124897676Y-73214285D01*
X124897676Y-73214285D02*
X124992914Y-73309523D01*
X124992914Y-73309523D02*
X125040533Y-73404761D01*
X173833333Y-109859580D02*
X173785714Y-109907200D01*
X173785714Y-109907200D02*
X173642857Y-109954819D01*
X173642857Y-109954819D02*
X173547619Y-109954819D01*
X173547619Y-109954819D02*
X173404762Y-109907200D01*
X173404762Y-109907200D02*
X173309524Y-109811961D01*
X173309524Y-109811961D02*
X173261905Y-109716723D01*
X173261905Y-109716723D02*
X173214286Y-109526247D01*
X173214286Y-109526247D02*
X173214286Y-109383390D01*
X173214286Y-109383390D02*
X173261905Y-109192914D01*
X173261905Y-109192914D02*
X173309524Y-109097676D01*
X173309524Y-109097676D02*
X173404762Y-109002438D01*
X173404762Y-109002438D02*
X173547619Y-108954819D01*
X173547619Y-108954819D02*
X173642857Y-108954819D01*
X173642857Y-108954819D02*
X173785714Y-109002438D01*
X173785714Y-109002438D02*
X173833333Y-109050057D01*
X174690476Y-109288152D02*
X174690476Y-109954819D01*
X174452381Y-108907200D02*
X174214286Y-109621485D01*
X174214286Y-109621485D02*
X174833333Y-109621485D01*
X142964819Y-59809523D02*
X143679104Y-59809523D01*
X143679104Y-59809523D02*
X143821961Y-59857142D01*
X143821961Y-59857142D02*
X143917200Y-59952380D01*
X143917200Y-59952380D02*
X143964819Y-60095237D01*
X143964819Y-60095237D02*
X143964819Y-60190475D01*
X143964819Y-58809523D02*
X143964819Y-59380951D01*
X143964819Y-59095237D02*
X142964819Y-59095237D01*
X142964819Y-59095237D02*
X143107676Y-59190475D01*
X143107676Y-59190475D02*
X143202914Y-59285713D01*
X143202914Y-59285713D02*
X143250533Y-59380951D01*
X143060057Y-58428570D02*
X143012438Y-58380951D01*
X143012438Y-58380951D02*
X142964819Y-58285713D01*
X142964819Y-58285713D02*
X142964819Y-58047618D01*
X142964819Y-58047618D02*
X143012438Y-57952380D01*
X143012438Y-57952380D02*
X143060057Y-57904761D01*
X143060057Y-57904761D02*
X143155295Y-57857142D01*
X143155295Y-57857142D02*
X143250533Y-57857142D01*
X143250533Y-57857142D02*
X143393390Y-57904761D01*
X143393390Y-57904761D02*
X143964819Y-58476189D01*
X143964819Y-58476189D02*
X143964819Y-57857142D01*
X162666666Y-71214819D02*
X162666666Y-71929104D01*
X162666666Y-71929104D02*
X162619047Y-72071961D01*
X162619047Y-72071961D02*
X162523809Y-72167200D01*
X162523809Y-72167200D02*
X162380952Y-72214819D01*
X162380952Y-72214819D02*
X162285714Y-72214819D01*
X163047619Y-71214819D02*
X163714285Y-71214819D01*
X163714285Y-71214819D02*
X163285714Y-72214819D01*
X175954819Y-91333333D02*
X176669104Y-91333333D01*
X176669104Y-91333333D02*
X176811961Y-91380952D01*
X176811961Y-91380952D02*
X176907200Y-91476190D01*
X176907200Y-91476190D02*
X176954819Y-91619047D01*
X176954819Y-91619047D02*
X176954819Y-91714285D01*
X176954819Y-90809523D02*
X176954819Y-90619047D01*
X176954819Y-90619047D02*
X176907200Y-90523809D01*
X176907200Y-90523809D02*
X176859580Y-90476190D01*
X176859580Y-90476190D02*
X176716723Y-90380952D01*
X176716723Y-90380952D02*
X176526247Y-90333333D01*
X176526247Y-90333333D02*
X176145295Y-90333333D01*
X176145295Y-90333333D02*
X176050057Y-90380952D01*
X176050057Y-90380952D02*
X176002438Y-90428571D01*
X176002438Y-90428571D02*
X175954819Y-90523809D01*
X175954819Y-90523809D02*
X175954819Y-90714285D01*
X175954819Y-90714285D02*
X176002438Y-90809523D01*
X176002438Y-90809523D02*
X176050057Y-90857142D01*
X176050057Y-90857142D02*
X176145295Y-90904761D01*
X176145295Y-90904761D02*
X176383390Y-90904761D01*
X176383390Y-90904761D02*
X176478628Y-90857142D01*
X176478628Y-90857142D02*
X176526247Y-90809523D01*
X176526247Y-90809523D02*
X176573866Y-90714285D01*
X176573866Y-90714285D02*
X176573866Y-90523809D01*
X176573866Y-90523809D02*
X176526247Y-90428571D01*
X176526247Y-90428571D02*
X176478628Y-90380952D01*
X176478628Y-90380952D02*
X176383390Y-90333333D01*
X128327976Y-62504819D02*
X128327976Y-61504819D01*
X128327976Y-61504819D02*
X128661309Y-62219104D01*
X128661309Y-62219104D02*
X128994642Y-61504819D01*
X128994642Y-61504819D02*
X128994642Y-62504819D01*
X129994642Y-62504819D02*
X129423214Y-62504819D01*
X129708928Y-62504819D02*
X129708928Y-61504819D01*
X129708928Y-61504819D02*
X129613690Y-61647676D01*
X129613690Y-61647676D02*
X129518452Y-61742914D01*
X129518452Y-61742914D02*
X129423214Y-61790533D01*
X175954819Y-72809523D02*
X176669104Y-72809523D01*
X176669104Y-72809523D02*
X176811961Y-72857142D01*
X176811961Y-72857142D02*
X176907200Y-72952380D01*
X176907200Y-72952380D02*
X176954819Y-73095237D01*
X176954819Y-73095237D02*
X176954819Y-73190475D01*
X176954819Y-71809523D02*
X176954819Y-72380951D01*
X176954819Y-72095237D02*
X175954819Y-72095237D01*
X175954819Y-72095237D02*
X176097676Y-72190475D01*
X176097676Y-72190475D02*
X176192914Y-72285713D01*
X176192914Y-72285713D02*
X176240533Y-72380951D01*
X175954819Y-71190475D02*
X175954819Y-71095237D01*
X175954819Y-71095237D02*
X176002438Y-70999999D01*
X176002438Y-70999999D02*
X176050057Y-70952380D01*
X176050057Y-70952380D02*
X176145295Y-70904761D01*
X176145295Y-70904761D02*
X176335771Y-70857142D01*
X176335771Y-70857142D02*
X176573866Y-70857142D01*
X176573866Y-70857142D02*
X176764342Y-70904761D01*
X176764342Y-70904761D02*
X176859580Y-70952380D01*
X176859580Y-70952380D02*
X176907200Y-70999999D01*
X176907200Y-70999999D02*
X176954819Y-71095237D01*
X176954819Y-71095237D02*
X176954819Y-71190475D01*
X176954819Y-71190475D02*
X176907200Y-71285713D01*
X176907200Y-71285713D02*
X176859580Y-71333332D01*
X176859580Y-71333332D02*
X176764342Y-71380951D01*
X176764342Y-71380951D02*
X176573866Y-71428570D01*
X176573866Y-71428570D02*
X176335771Y-71428570D01*
X176335771Y-71428570D02*
X176145295Y-71380951D01*
X176145295Y-71380951D02*
X176050057Y-71333332D01*
X176050057Y-71333332D02*
X176002438Y-71285713D01*
X176002438Y-71285713D02*
X175954819Y-71190475D01*
D13*
X129365000Y-128715000D02*
X129365000Y-132600000D01*
X131635000Y-128715000D02*
X129365000Y-128715000D01*
X131635000Y-132600000D02*
X131635000Y-128715000D01*
X166227500Y-126917224D02*
X166227500Y-126407776D01*
X167272500Y-126917224D02*
X167272500Y-126407776D01*
X171342224Y-103977500D02*
X170832776Y-103977500D01*
X171342224Y-105022500D02*
X170832776Y-105022500D01*
X177670000Y-112995000D02*
X177670000Y-102775000D01*
X180330000Y-102775000D02*
X177670000Y-102775000D01*
X180330000Y-112995000D02*
X177670000Y-112995000D01*
X180330000Y-112995000D02*
X180330000Y-102775000D01*
X180330000Y-114265000D02*
X180330000Y-115595000D01*
X180330000Y-115595000D02*
X179000000Y-115595000D01*
X170832776Y-99477500D02*
X171342224Y-99477500D01*
X170832776Y-100522500D02*
X171342224Y-100522500D01*
X142990000Y-127584420D02*
X142990000Y-127865580D01*
X144010000Y-127584420D02*
X144010000Y-127865580D01*
X167365580Y-99490000D02*
X167084420Y-99490000D01*
X167365580Y-100510000D02*
X167084420Y-100510000D01*
X171504724Y-105977500D02*
X170995276Y-105977500D01*
X171504724Y-107022500D02*
X170995276Y-107022500D01*
X175167224Y-105977500D02*
X174657776Y-105977500D01*
X175167224Y-107022500D02*
X174657776Y-107022500D01*
X131865000Y-129400000D02*
X131865000Y-133285000D01*
X131865000Y-133285000D02*
X134135000Y-133285000D01*
X134135000Y-133285000D02*
X134135000Y-129400000D01*
X138500000Y-62940000D02*
X137700000Y-62940000D01*
X138500000Y-62940000D02*
X139300000Y-62940000D01*
X138500000Y-66060000D02*
X137700000Y-66060000D01*
X138500000Y-66060000D02*
X139300000Y-66060000D01*
X137200000Y-62990000D02*
X136960000Y-62660000D01*
X137440000Y-62660000D01*
X137200000Y-62990000D01*
G36*
X137200000Y-62990000D02*
G01*
X136960000Y-62660000D01*
X137440000Y-62660000D01*
X137200000Y-62990000D01*
G37*
X148754724Y-131977500D02*
X148245276Y-131977500D01*
X148754724Y-133022500D02*
X148245276Y-133022500D01*
X148062500Y-126440000D02*
X147412500Y-126440000D01*
X148062500Y-126440000D02*
X148712500Y-126440000D01*
X148062500Y-129560000D02*
X147412500Y-129560000D01*
X148062500Y-129560000D02*
X148712500Y-129560000D01*
X146900000Y-126490000D02*
X146660000Y-126160000D01*
X147140000Y-126160000D01*
X146900000Y-126490000D01*
G36*
X146900000Y-126490000D02*
G01*
X146660000Y-126160000D01*
X147140000Y-126160000D01*
X146900000Y-126490000D01*
G37*
X167842224Y-114477500D02*
X167332776Y-114477500D01*
X167842224Y-115522500D02*
X167332776Y-115522500D01*
X172562500Y-93490000D02*
X171912500Y-93490000D01*
X172562500Y-93490000D02*
X173212500Y-93490000D01*
X172562500Y-96610000D02*
X171912500Y-96610000D01*
X172562500Y-96610000D02*
X173212500Y-96610000D01*
X173965000Y-96890000D02*
X173485000Y-96890000D01*
X173725000Y-96560000D01*
X173965000Y-96890000D01*
G36*
X173965000Y-96890000D02*
G01*
X173485000Y-96890000D01*
X173725000Y-96560000D01*
X173965000Y-96890000D01*
G37*
X135610000Y-72630000D02*
X135610000Y-72930000D01*
X135610000Y-72630000D02*
X156610000Y-72630000D01*
X135610000Y-75030000D02*
X135610000Y-75430000D01*
X135610000Y-75297000D02*
X138617000Y-75297000D01*
X135610000Y-77630000D02*
X135610000Y-78030000D01*
X135610000Y-80130000D02*
X135610000Y-80530000D01*
X135610000Y-82730000D02*
X135610000Y-83130000D01*
X135610000Y-85230000D02*
X135610000Y-85630000D01*
X135610000Y-87730000D02*
X135610000Y-88130000D01*
X135610000Y-90330000D02*
X135610000Y-90730000D01*
X135610000Y-92830000D02*
X135610000Y-93230000D01*
X135610000Y-95430000D02*
X135610000Y-95830000D01*
X135610000Y-97930000D02*
X135610000Y-98330000D01*
X135610000Y-100430000D02*
X135610000Y-100830000D01*
X135610000Y-103030000D02*
X135610000Y-103430000D01*
X135610000Y-105530000D02*
X135610000Y-105930000D01*
X135610000Y-108130000D02*
X135610000Y-108530000D01*
X135610000Y-110630000D02*
X135610000Y-111030000D01*
X135610000Y-113230000D02*
X135610000Y-113630000D01*
X135610000Y-115730000D02*
X135610000Y-116130000D01*
X135610000Y-118230000D02*
X135610000Y-118630000D01*
X135610000Y-120830000D02*
X135610000Y-121230000D01*
X138617000Y-75297000D02*
X138617000Y-72630000D01*
X142410000Y-123630000D02*
X135610000Y-123630000D01*
X144610000Y-123630000D02*
X145010000Y-123630000D01*
X147210000Y-123630000D02*
X147610000Y-123630000D01*
X156610000Y-72630000D02*
X156610000Y-72930000D01*
X156610000Y-75030000D02*
X156610000Y-75430000D01*
X156610000Y-77630000D02*
X156610000Y-78030000D01*
X156610000Y-80130000D02*
X156610000Y-80530000D01*
X156610000Y-82730000D02*
X156610000Y-83130000D01*
X156610000Y-85230000D02*
X156610000Y-85630000D01*
X156610000Y-87730000D02*
X156610000Y-88130000D01*
X156610000Y-90330000D02*
X156610000Y-90730000D01*
X156610000Y-92830000D02*
X156610000Y-93230000D01*
X156610000Y-95430000D02*
X156610000Y-95830000D01*
X156610000Y-97930000D02*
X156610000Y-98330000D01*
X156610000Y-100430000D02*
X156610000Y-100830000D01*
X156610000Y-103030000D02*
X156610000Y-103430000D01*
X156610000Y-105530000D02*
X156610000Y-105930000D01*
X156610000Y-108130000D02*
X156610000Y-108530000D01*
X156610000Y-110630000D02*
X156610000Y-111030000D01*
X156610000Y-113230000D02*
X156610000Y-113630000D01*
X156610000Y-115730000D02*
X156610000Y-116130000D01*
X156610000Y-118230000D02*
X156610000Y-118630000D01*
X156610000Y-120830000D02*
X156610000Y-121230000D01*
X156610000Y-123630000D02*
X149810000Y-123630000D01*
X167862500Y-110440000D02*
X167062500Y-110440000D01*
X167862500Y-110440000D02*
X168662500Y-110440000D01*
X167862500Y-113560000D02*
X167062500Y-113560000D01*
X167862500Y-113560000D02*
X168662500Y-113560000D01*
X166562500Y-110490000D02*
X166322500Y-110160000D01*
X166802500Y-110160000D01*
X166562500Y-110490000D01*
G36*
X166562500Y-110490000D02*
G01*
X166322500Y-110160000D01*
X166802500Y-110160000D01*
X166562500Y-110490000D01*
G37*
X120240000Y-58140000D02*
X120240000Y-65860000D01*
X120240000Y-65860000D02*
X124260000Y-65860000D01*
X120740000Y-58640000D02*
X121950000Y-58640000D01*
X120740000Y-65360000D02*
X120740000Y-58640000D01*
X121950000Y-58640000D02*
X121950000Y-58140000D01*
X121950000Y-65360000D02*
X120740000Y-65360000D01*
X121950000Y-65860000D02*
X121950000Y-65360000D01*
X122060000Y-66160000D02*
X124560000Y-66160000D01*
X122760000Y-58140000D02*
X122760000Y-59140000D01*
X122760000Y-59140000D02*
X124260000Y-59140000D01*
X122760000Y-64860000D02*
X124260000Y-64860000D01*
X122760000Y-65860000D02*
X122760000Y-64860000D01*
X124260000Y-58140000D02*
X120240000Y-58140000D01*
X124260000Y-65860000D02*
X124260000Y-58140000D01*
X124560000Y-66160000D02*
X124560000Y-63660000D01*
X135900000Y-135600000D02*
X135900000Y-136600000D01*
X135900000Y-135600000D02*
X142100000Y-135600000D01*
X135900000Y-138400000D02*
X135900000Y-139400000D01*
X135900000Y-139400000D02*
X142100000Y-139400000D01*
X142100000Y-135600000D02*
X142100000Y-136600000D01*
X142100000Y-139400000D02*
X142100000Y-138400000D01*
X151865000Y-129400000D02*
X151865000Y-133285000D01*
X151865000Y-133285000D02*
X154135000Y-133285000D01*
X154135000Y-133285000D02*
X154135000Y-129400000D01*
X170477500Y-111745276D02*
X170477500Y-112254724D01*
X171522500Y-111745276D02*
X171522500Y-112254724D01*
X119890000Y-93090000D02*
X119890000Y-95590000D01*
X120190000Y-93390000D02*
X120190000Y-103610000D01*
X120190000Y-103610000D02*
X124210000Y-103610000D01*
X121690000Y-93390000D02*
X121690000Y-94390000D01*
X121690000Y-94390000D02*
X120190000Y-94390000D01*
X121690000Y-102610000D02*
X120190000Y-102610000D01*
X121690000Y-103610000D02*
X121690000Y-102610000D01*
X122390000Y-93090000D02*
X119890000Y-93090000D01*
X122500000Y-93390000D02*
X122500000Y-93890000D01*
X122500000Y-93890000D02*
X123710000Y-93890000D01*
X122500000Y-103110000D02*
X122500000Y-103610000D01*
X123710000Y-93890000D02*
X123710000Y-103110000D01*
X123710000Y-103110000D02*
X122500000Y-103110000D01*
X124210000Y-93390000D02*
X120190000Y-93390000D01*
X124210000Y-103610000D02*
X124210000Y-93390000D01*
X119890000Y-105590000D02*
X119890000Y-108090000D01*
X120190000Y-105890000D02*
X120190000Y-116110000D01*
X120190000Y-116110000D02*
X124210000Y-116110000D01*
X121690000Y-105890000D02*
X121690000Y-106890000D01*
X121690000Y-106890000D02*
X120190000Y-106890000D01*
X121690000Y-115110000D02*
X120190000Y-115110000D01*
X121690000Y-116110000D02*
X121690000Y-115110000D01*
X122390000Y-105590000D02*
X119890000Y-105590000D01*
X122500000Y-105890000D02*
X122500000Y-106390000D01*
X122500000Y-106390000D02*
X123710000Y-106390000D01*
X122500000Y-115610000D02*
X122500000Y-116110000D01*
X123710000Y-106390000D02*
X123710000Y-115610000D01*
X123710000Y-115610000D02*
X122500000Y-115610000D01*
X124210000Y-105890000D02*
X120190000Y-105890000D01*
X124210000Y-116110000D02*
X124210000Y-105890000D01*
X129977500Y-126754724D02*
X129977500Y-126245276D01*
X131022500Y-126754724D02*
X131022500Y-126245276D01*
X173477500Y-103332776D02*
X173477500Y-103842224D01*
X174522500Y-103332776D02*
X174522500Y-103842224D01*
X140087742Y-58977500D02*
X140562258Y-58977500D01*
X140087742Y-60022500D02*
X140562258Y-60022500D01*
X167842224Y-105977500D02*
X167332776Y-105977500D01*
X167842224Y-107022500D02*
X167332776Y-107022500D01*
X165865000Y-128715000D02*
X165865000Y-132600000D01*
X168135000Y-128715000D02*
X165865000Y-128715000D01*
X168135000Y-132600000D02*
X168135000Y-128715000D01*
X173477500Y-99254724D02*
X173477500Y-98745276D01*
X174522500Y-99254724D02*
X174522500Y-98745276D01*
X172600000Y-119900000D02*
X173600000Y-119900000D01*
X172600000Y-126100000D02*
X172600000Y-119900000D01*
X172600000Y-126100000D02*
X173600000Y-126100000D01*
X175400000Y-126100000D02*
X176400000Y-126100000D01*
X176400000Y-119900000D02*
X175400000Y-119900000D01*
X176400000Y-126100000D02*
X176400000Y-119900000D01*
X119890000Y-80590000D02*
X119890000Y-83090000D01*
X120190000Y-80890000D02*
X120190000Y-91110000D01*
X120190000Y-91110000D02*
X124210000Y-91110000D01*
X121690000Y-80890000D02*
X121690000Y-81890000D01*
X121690000Y-81890000D02*
X120190000Y-81890000D01*
X121690000Y-90110000D02*
X120190000Y-90110000D01*
X121690000Y-91110000D02*
X121690000Y-90110000D01*
X122390000Y-80590000D02*
X119890000Y-80590000D01*
X122500000Y-80890000D02*
X122500000Y-81390000D01*
X122500000Y-81390000D02*
X123710000Y-81390000D01*
X122500000Y-90610000D02*
X122500000Y-91110000D01*
X123710000Y-81390000D02*
X123710000Y-90610000D01*
X123710000Y-90610000D02*
X122500000Y-90610000D01*
X124210000Y-80890000D02*
X120190000Y-80890000D01*
X124210000Y-91110000D02*
X124210000Y-80890000D01*
X172657776Y-85477500D02*
X173167224Y-85477500D01*
X172657776Y-86522500D02*
X173167224Y-86522500D01*
X132977500Y-126332776D02*
X132977500Y-126842224D01*
X134022500Y-126332776D02*
X134022500Y-126842224D01*
X167084420Y-103990000D02*
X167365580Y-103990000D01*
X167084420Y-105010000D02*
X167365580Y-105010000D01*
X121170000Y-118550000D02*
X122500000Y-118550000D01*
X121170000Y-119880000D02*
X121170000Y-118550000D01*
X121170000Y-121150000D02*
X121170000Y-131370000D01*
X121170000Y-121150000D02*
X123830000Y-121150000D01*
X121170000Y-131370000D02*
X123830000Y-131370000D01*
X123830000Y-121150000D02*
X123830000Y-131370000D01*
X154900000Y-135600000D02*
X154900000Y-136600000D01*
X154900000Y-135600000D02*
X161100000Y-135600000D01*
X154900000Y-138400000D02*
X154900000Y-139400000D01*
X154900000Y-139400000D02*
X161100000Y-139400000D01*
X161100000Y-135600000D02*
X161100000Y-136600000D01*
X161100000Y-139400000D02*
X161100000Y-138400000D01*
X129167224Y-66977500D02*
X128657776Y-66977500D01*
X129167224Y-68022500D02*
X128657776Y-68022500D01*
X133657776Y-62977500D02*
X134167224Y-62977500D01*
X133657776Y-64022500D02*
X134167224Y-64022500D01*
X166170000Y-72670000D02*
X167500000Y-72670000D01*
X166170000Y-74000000D02*
X166170000Y-72670000D01*
X166170000Y-75270000D02*
X166170000Y-98190000D01*
X166170000Y-75270000D02*
X168830000Y-75270000D01*
X166170000Y-98190000D02*
X168830000Y-98190000D01*
X168830000Y-75270000D02*
X168830000Y-98190000D01*
X128845000Y-72760000D02*
X130175000Y-72760000D01*
X128845000Y-74090000D02*
X128845000Y-72760000D01*
X128845000Y-75360000D02*
X128845000Y-123680000D01*
X128845000Y-75360000D02*
X131505000Y-75360000D01*
X128845000Y-123680000D02*
X131505000Y-123680000D01*
X131505000Y-75360000D02*
X131505000Y-123680000D01*
X119890000Y-68090000D02*
X119890000Y-70590000D01*
X120190000Y-68390000D02*
X120190000Y-78610000D01*
X120190000Y-78610000D02*
X124210000Y-78610000D01*
X121690000Y-68390000D02*
X121690000Y-69390000D01*
X121690000Y-69390000D02*
X120190000Y-69390000D01*
X121690000Y-77610000D02*
X120190000Y-77610000D01*
X121690000Y-78610000D02*
X121690000Y-77610000D01*
X122390000Y-68090000D02*
X119890000Y-68090000D01*
X122500000Y-68390000D02*
X122500000Y-68890000D01*
X122500000Y-68890000D02*
X123710000Y-68890000D01*
X122500000Y-78110000D02*
X122500000Y-78610000D01*
X123710000Y-68890000D02*
X123710000Y-78110000D01*
X123710000Y-78110000D02*
X122500000Y-78110000D01*
X124210000Y-68390000D02*
X120190000Y-68390000D01*
X124210000Y-78610000D02*
X124210000Y-68390000D01*
X171365580Y-108990000D02*
X171084420Y-108990000D01*
X171365580Y-110010000D02*
X171084420Y-110010000D01*
X144510000Y-60330000D02*
X144510000Y-59000000D01*
X145840000Y-60330000D02*
X144510000Y-60330000D01*
X147110000Y-57670000D02*
X162410000Y-57670000D01*
X147110000Y-60330000D02*
X147110000Y-57670000D01*
X147110000Y-60330000D02*
X162410000Y-60330000D01*
X162410000Y-60330000D02*
X162410000Y-57670000D01*
X161670000Y-72760000D02*
X163000000Y-72760000D01*
X161670000Y-74090000D02*
X161670000Y-72760000D01*
X161670000Y-75360000D02*
X161670000Y-123680000D01*
X161670000Y-75360000D02*
X164330000Y-75360000D01*
X161670000Y-123680000D02*
X164330000Y-123680000D01*
X164330000Y-75360000D02*
X164330000Y-123680000D01*
X177670000Y-95850000D02*
X177670000Y-85630000D01*
X180330000Y-85630000D02*
X177670000Y-85630000D01*
X180330000Y-95850000D02*
X177670000Y-95850000D01*
X180330000Y-95850000D02*
X180330000Y-85630000D01*
X180330000Y-97120000D02*
X180330000Y-98450000D01*
X180330000Y-98450000D02*
X179000000Y-98450000D01*
X129137500Y-62890000D02*
X128337500Y-62890000D01*
X129137500Y-62890000D02*
X129937500Y-62890000D01*
X129137500Y-66010000D02*
X128337500Y-66010000D01*
X129137500Y-66010000D02*
X129937500Y-66010000D01*
X127837500Y-62940000D02*
X127597500Y-62610000D01*
X128077500Y-62610000D01*
X127837500Y-62940000D01*
G36*
X127837500Y-62940000D02*
G01*
X127597500Y-62610000D01*
X128077500Y-62610000D01*
X127837500Y-62940000D01*
G37*
X177670000Y-78705000D02*
X177670000Y-68485000D01*
X180330000Y-68485000D02*
X177670000Y-68485000D01*
X180330000Y-78705000D02*
X177670000Y-78705000D01*
X180330000Y-78705000D02*
X180330000Y-68485000D01*
X180330000Y-79975000D02*
X180330000Y-81305000D01*
X180330000Y-81305000D02*
X179000000Y-81305000D01*
%LPC*%
D14*
X130500000Y-129600000D03*
X130500000Y-132400000D03*
D15*
X173000000Y-138000000D03*
D16*
X166750000Y-127575000D03*
X166750000Y-125750000D03*
D17*
X172000000Y-104500000D03*
X170175000Y-104500000D03*
D18*
X179000000Y-114265000D03*
D19*
X179000000Y-111725000D03*
X179000000Y-109185000D03*
X179000000Y-106645000D03*
X179000000Y-104105000D03*
D20*
X170175000Y-100000000D03*
X172000000Y-100000000D03*
D21*
X143500000Y-126950000D03*
X143500000Y-128500000D03*
D22*
X168000000Y-100000000D03*
X166450000Y-100000000D03*
D17*
X172162500Y-106500000D03*
X170337500Y-106500000D03*
X175825000Y-106500000D03*
X174000000Y-106500000D03*
D23*
X133000000Y-132400000D03*
X133000000Y-129600000D03*
D24*
X137362500Y-63550000D03*
X137362500Y-65450000D03*
X139637500Y-64500000D03*
D15*
X128000000Y-55000000D03*
D17*
X149412500Y-132500000D03*
X147587500Y-132500000D03*
D25*
X147125000Y-127050000D03*
X147125000Y-128950000D03*
X149000000Y-128000000D03*
D17*
X168500000Y-115000000D03*
X166675000Y-115000000D03*
D26*
X173500000Y-96000000D03*
X173500000Y-94100000D03*
X171625000Y-95050000D03*
D27*
X143385000Y-74130000D03*
D28*
X143685000Y-77160000D03*
X148535000Y-77160000D03*
D27*
X148835000Y-74130000D03*
D19*
X137220000Y-74000000D03*
D29*
X136320000Y-74000000D03*
D19*
X137220000Y-76540000D03*
D29*
X136320000Y-76540000D03*
D18*
X137220000Y-79080000D03*
D29*
X136320000Y-79080000D03*
D19*
X137220000Y-81620000D03*
D29*
X136320000Y-81620000D03*
D19*
X137220000Y-84160000D03*
D29*
X136320000Y-84160000D03*
D19*
X137220000Y-86700000D03*
D29*
X136320000Y-86700000D03*
D19*
X137220000Y-89240000D03*
D29*
X136320000Y-89240000D03*
D18*
X137220000Y-91780000D03*
D29*
X136320000Y-91780000D03*
D19*
X137220000Y-94320000D03*
D29*
X136320000Y-94320000D03*
D19*
X137220000Y-96860000D03*
D29*
X136320000Y-96860000D03*
D19*
X137220000Y-99400000D03*
D29*
X136320000Y-99400000D03*
D19*
X137220000Y-101940000D03*
D29*
X136320000Y-101940000D03*
D18*
X137220000Y-104480000D03*
D29*
X136320000Y-104480000D03*
D19*
X137220000Y-107020000D03*
D29*
X136320000Y-107020000D03*
D19*
X137220000Y-109560000D03*
D29*
X136320000Y-109560000D03*
D19*
X137220000Y-112100000D03*
D29*
X136320000Y-112100000D03*
D19*
X137220000Y-114640000D03*
D29*
X136320000Y-114640000D03*
D18*
X137220000Y-117180000D03*
D29*
X136320000Y-117180000D03*
D19*
X137220000Y-119720000D03*
D29*
X136320000Y-119720000D03*
D19*
X137220000Y-122260000D03*
D29*
X136320000Y-122260000D03*
D19*
X155000000Y-122260000D03*
D29*
X155900000Y-122260000D03*
D19*
X155000000Y-119720000D03*
D29*
X155900000Y-119720000D03*
D18*
X155000000Y-117180000D03*
D29*
X155900000Y-117180000D03*
D19*
X155000000Y-114640000D03*
D29*
X155900000Y-114640000D03*
D19*
X155000000Y-112100000D03*
D29*
X155900000Y-112100000D03*
D19*
X155000000Y-109560000D03*
D29*
X155900000Y-109560000D03*
D19*
X155000000Y-107020000D03*
D29*
X155900000Y-107020000D03*
D18*
X155000000Y-104480000D03*
D29*
X155900000Y-104480000D03*
D19*
X155000000Y-101940000D03*
D29*
X155900000Y-101940000D03*
D19*
X155000000Y-99400000D03*
D29*
X155900000Y-99400000D03*
D19*
X155000000Y-96860000D03*
D29*
X155900000Y-96860000D03*
D19*
X155000000Y-94320000D03*
D29*
X155900000Y-94320000D03*
D18*
X155000000Y-91780000D03*
D29*
X155900000Y-91780000D03*
D19*
X155000000Y-89240000D03*
D29*
X155900000Y-89240000D03*
D19*
X155000000Y-86700000D03*
D29*
X155900000Y-86700000D03*
D19*
X155000000Y-84160000D03*
D29*
X155900000Y-84160000D03*
D19*
X155000000Y-81620000D03*
D29*
X155900000Y-81620000D03*
D18*
X155000000Y-79080000D03*
D29*
X155900000Y-79080000D03*
D19*
X155000000Y-76540000D03*
D29*
X155900000Y-76540000D03*
D19*
X155000000Y-74000000D03*
D29*
X155900000Y-74000000D03*
D19*
X143570000Y-122030000D03*
D30*
X143570000Y-122930000D03*
D18*
X146110000Y-122030000D03*
D30*
X146110000Y-122930000D03*
D19*
X148650000Y-122030000D03*
D30*
X148650000Y-122930000D03*
D24*
X166725000Y-111050000D03*
X166725000Y-112950000D03*
X169000000Y-112000000D03*
D31*
X121950000Y-63250000D03*
D32*
X121950000Y-60750000D03*
D33*
X135100000Y-137500000D03*
X143000000Y-137500000D03*
D23*
X153000000Y-132400000D03*
X153000000Y-129600000D03*
D34*
X171000000Y-111087500D03*
X171000000Y-112912500D03*
D35*
X122500000Y-96000000D03*
D36*
X122500000Y-98500000D03*
X122500000Y-101000000D03*
D35*
X122500000Y-108500000D03*
D36*
X122500000Y-111000000D03*
X122500000Y-113500000D03*
D16*
X130500000Y-127412500D03*
X130500000Y-125587500D03*
D34*
X174000000Y-102675000D03*
X174000000Y-104500000D03*
D37*
X139500000Y-59500000D03*
X141150000Y-59500000D03*
D17*
X168500000Y-106500000D03*
X166675000Y-106500000D03*
D14*
X167000000Y-129600000D03*
X167000000Y-132400000D03*
D16*
X174000000Y-99912500D03*
X174000000Y-98087500D03*
D38*
X174500000Y-126900000D03*
X174500000Y-119000000D03*
D35*
X122500000Y-83500000D03*
D36*
X122500000Y-86000000D03*
X122500000Y-88500000D03*
D20*
X172000000Y-86000000D03*
X173825000Y-86000000D03*
D34*
X133500000Y-125675000D03*
X133500000Y-127500000D03*
D39*
X166450000Y-104500000D03*
X168000000Y-104500000D03*
D18*
X122500000Y-119880000D03*
D19*
X122500000Y-122420000D03*
X122500000Y-124960000D03*
X122500000Y-127500000D03*
X122500000Y-130040000D03*
D33*
X154100000Y-137500000D03*
X162000000Y-137500000D03*
D17*
X129825000Y-67500000D03*
X128000000Y-67500000D03*
D40*
X147955000Y-64770000D03*
X147955000Y-137270000D03*
D20*
X133000000Y-63500000D03*
X134825000Y-63500000D03*
D18*
X167500000Y-74000000D03*
D19*
X167500000Y-76540000D03*
X167500000Y-79080000D03*
X167500000Y-81620000D03*
X167500000Y-84160000D03*
X167500000Y-86700000D03*
X167500000Y-89240000D03*
X167500000Y-91780000D03*
X167500000Y-94320000D03*
X167500000Y-96860000D03*
D18*
X130175000Y-74090000D03*
D19*
X130175000Y-76630000D03*
X130175000Y-79170000D03*
X130175000Y-81710000D03*
X130175000Y-84250000D03*
X130175000Y-86790000D03*
X130175000Y-89330000D03*
X130175000Y-91870000D03*
X130175000Y-94410000D03*
X130175000Y-96950000D03*
X130175000Y-99490000D03*
X130175000Y-102030000D03*
X130175000Y-104570000D03*
X130175000Y-107110000D03*
X130175000Y-109650000D03*
X130175000Y-112190000D03*
X130175000Y-114730000D03*
X130175000Y-117270000D03*
X130175000Y-119810000D03*
X130175000Y-122350000D03*
D35*
X122500000Y-71000000D03*
D36*
X122500000Y-73500000D03*
X122500000Y-76000000D03*
D15*
X173000000Y-55000000D03*
D22*
X172000000Y-109500000D03*
X170450000Y-109500000D03*
D18*
X145840000Y-59000000D03*
D19*
X148380000Y-59000000D03*
X150920000Y-59000000D03*
X153460000Y-59000000D03*
X156000000Y-59000000D03*
X158540000Y-59000000D03*
X161080000Y-59000000D03*
D18*
X163000000Y-74090000D03*
D19*
X163000000Y-76630000D03*
X163000000Y-79170000D03*
X163000000Y-81710000D03*
X163000000Y-84250000D03*
X163000000Y-86790000D03*
X163000000Y-89330000D03*
X163000000Y-91870000D03*
X163000000Y-94410000D03*
X163000000Y-96950000D03*
X163000000Y-99490000D03*
X163000000Y-102030000D03*
X163000000Y-104570000D03*
X163000000Y-107110000D03*
X163000000Y-109650000D03*
X163000000Y-112190000D03*
X163000000Y-114730000D03*
X163000000Y-117270000D03*
X163000000Y-119810000D03*
X163000000Y-122350000D03*
D18*
X179000000Y-97120000D03*
D19*
X179000000Y-94580000D03*
X179000000Y-92040000D03*
X179000000Y-89500000D03*
X179000000Y-86960000D03*
D15*
X128000000Y-138000000D03*
D24*
X128000000Y-63500000D03*
X128000000Y-65400000D03*
X130275000Y-64450000D03*
D18*
X179000000Y-79975000D03*
D19*
X179000000Y-77435000D03*
X179000000Y-74895000D03*
X179000000Y-72355000D03*
X179000000Y-69815000D03*
%LPD*%
M02*
