M48
; DRILL file {KiCad 8.0.9-8.0.9-0~ubuntu24.04.1} date 2025-08-25T14:34:20+0100
; FORMAT={-:-/ absolute / metric / decimal}
; #@! TF.CreationDate,2025-08-25T14:34:20+01:00
; #@! TF.GenerationSoftware,Kicad,Pcbnew,8.0.9-8.0.9-0~ubuntu24.04.1
; #@! TF.FileFunction,Plated,1,2,PTH
FMAT,2
METRIC
; #@! TA.AperFunction,Plated,PTH,ViaDrill
T1C0.300
; #@! TA.AperFunction,Plated,PTH,ComponentDrill
T2C0.950
; #@! TA.AperFunction,Plated,PTH,ComponentDrill
T3C1.000
; #@! TA.AperFunction,Plated,PTH,ComponentDrill
T4C1.020
; #@! TA.AperFunction,Plated,PTH,ComponentDrill
T5C2.000
%
G90
G05
T1
X125.0Y-124.5
X126.5Y-126.5
X126.5Y-128.0
X126.5Y-129.75
X126.5Y-131.25
X134.5Y-66.5
X136.0Y-65.5
X139.5Y-128.5
X140.5Y-56.5
X151.0Y-66.5
X151.5Y-88.0
X152.0Y-89.5
X152.25Y-127.5
X153.0Y-69.0
X164.25Y-93.25
X164.4Y-111.0
X164.5Y-132.5
X165.25Y-78.0
X165.75Y-103.5
X166.0Y-98.75
X166.75Y-110.25
X167.0Y-102.25
X169.0Y-103.25
X170.0Y-97.0
X170.0Y-101.75
X170.25Y-98.75
X170.5Y-77.75
X170.5Y-91.25
X171.0Y-86.0
X171.162Y-100.046
X172.25Y-102.5
X172.5Y-98.25
X173.0Y-105.5
X173.25Y-88.75
X173.5Y-91.25
X173.75Y-83.5
X173.75Y-84.76
X175.5Y-97.75
X175.75Y-101.5
X176.0Y-84.25
X176.25Y-83.25
X176.25Y-87.0
X176.25Y-93.75
X178.5Y-100.75
X178.75Y-83.25
X178.75Y-84.25
X179.0Y-99.25
T2
X122.5Y-71.0
X122.5Y-73.5
X122.5Y-76.0
X122.5Y-83.5
X122.5Y-86.0
X122.5Y-88.5
X122.5Y-96.0
X122.5Y-98.5
X122.5Y-101.0
X122.5Y-108.5
X122.5Y-111.0
X122.5Y-113.5
T3
X121.95Y-60.75
X121.95Y-63.25
X122.5Y-119.88
X122.5Y-122.42
X122.5Y-124.96
X122.5Y-127.5
X122.5Y-130.04
X130.175Y-74.09
X130.175Y-76.63
X130.175Y-79.17
X130.175Y-81.71
X130.175Y-84.25
X130.175Y-86.79
X130.175Y-89.33
X130.175Y-91.87
X130.175Y-94.41
X130.175Y-96.95
X130.175Y-99.49
X130.175Y-102.03
X130.175Y-104.57
X130.175Y-107.11
X130.175Y-109.65
X130.175Y-112.19
X130.175Y-114.73
X130.175Y-117.27
X130.175Y-119.81
X130.175Y-122.35
X145.84Y-59.0
X148.38Y-59.0
X150.92Y-59.0
X153.46Y-59.0
X156.0Y-59.0
X158.54Y-59.0
X161.08Y-59.0
X163.0Y-74.09
X163.0Y-76.63
X163.0Y-79.17
X163.0Y-81.71
X163.0Y-84.25
X163.0Y-86.79
X163.0Y-89.33
X163.0Y-91.87
X163.0Y-94.41
X163.0Y-96.95
X163.0Y-99.49
X163.0Y-102.03
X163.0Y-104.57
X163.0Y-107.11
X163.0Y-109.65
X163.0Y-112.19
X163.0Y-114.73
X163.0Y-117.27
X163.0Y-119.81
X163.0Y-122.35
X167.5Y-74.0
X167.5Y-76.54
X167.5Y-79.08
X167.5Y-81.62
X167.5Y-84.16
X167.5Y-86.7
X167.5Y-89.24
X167.5Y-91.78
X167.5Y-94.32
X167.5Y-96.86
X179.0Y-69.815
X179.0Y-72.355
X179.0Y-74.895
X179.0Y-77.435
X179.0Y-79.975
X179.0Y-86.96
X179.0Y-89.5
X179.0Y-92.04
X179.0Y-94.58
X179.0Y-97.12
X179.0Y-104.105
X179.0Y-106.645
X179.0Y-109.185
X179.0Y-111.725
X179.0Y-114.265
T4
X137.22Y-74.0
X137.22Y-76.54
X137.22Y-79.08
X137.22Y-81.62
X137.22Y-84.16
X137.22Y-86.7
X137.22Y-89.24
X137.22Y-91.78
X137.22Y-94.32
X137.22Y-96.86
X137.22Y-99.4
X137.22Y-101.94
X137.22Y-104.48
X137.22Y-107.02
X137.22Y-109.56
X137.22Y-112.1
X137.22Y-114.64
X137.22Y-117.18
X137.22Y-119.72
X137.22Y-122.26
X143.57Y-122.03
X146.11Y-122.03
X148.65Y-122.03
X155.0Y-74.0
X155.0Y-76.54
X155.0Y-79.08
X155.0Y-81.62
X155.0Y-84.16
X155.0Y-86.7
X155.0Y-89.24
X155.0Y-91.78
X155.0Y-94.32
X155.0Y-96.86
X155.0Y-99.4
X155.0Y-101.94
X155.0Y-104.48
X155.0Y-107.02
X155.0Y-109.56
X155.0Y-112.1
X155.0Y-114.64
X155.0Y-117.18
X155.0Y-119.72
X155.0Y-122.26
T5
X147.955Y-64.77
X147.955Y-137.27
M30
