G04 #@! TF.GenerationSoftware,KiCad,Pcbnew,8.0.9-8.0.9-0~ubuntu24.04.1*
G04 #@! TF.CreationDate,2025-08-25T14:34:16+01:00*
G04 #@! TF.ProjectId,temper,74656d70-6572-42e6-9b69-6361645f7063,1.0*
G04 #@! TF.SameCoordinates,Original*
G04 #@! TF.FileFunction,Soldermask,Bot*
G04 #@! TF.FilePolarity,Negative*
%FSLAX46Y46*%
G04 Gerber Fmt 4.6, Leading zero omitted, Abs format (unit mm)*
G04 Created by KiCad (PCBNEW 8.0.9-8.0.9-0~ubuntu24.04.1) date 2025-08-25 14:34:16*
%MOMM*%
%LPD*%
G01*
G04 APERTURE LIST*
G04 Aperture macros list*
%AMRoundRect*
0 Rectangle with rounded corners*
0 $1 Rounding radius*
0 $2 $3 $4 $5 $6 $7 $8 $9 X,Y pos of 4 corners*
0 Add a 4 corners polygon primitive as box body*
4,1,4,$2,$3,$4,$5,$6,$7,$8,$9,$2,$3,0*
0 Add four circle primitives for the rounded corners*
1,1,$1+$1,$2,$3*
1,1,$1+$1,$4,$5*
1,1,$1+$1,$6,$7*
1,1,$1+$1,$8,$9*
0 Add four rect primitives between the rounded corners*
20,1,$1+$1,$2,$3,$4,$5,0*
20,1,$1+$1,$4,$5,$6,$7,0*
20,1,$1+$1,$6,$7,$8,$9,0*
20,1,$1+$1,$8,$9,$2,$3,0*%
G04 Aperture macros list end*
%ADD10C,3.200000*%
%ADD11R,1.700000X1.700000*%
%ADD12O,1.700000X1.700000*%
%ADD13O,1.800000X1.800000*%
%ADD14O,1.500000X1.500000*%
%ADD15RoundRect,0.250000X0.750000X-0.600000X0.750000X0.600000X-0.750000X0.600000X-0.750000X-0.600000X0*%
%ADD16O,2.000000X1.700000*%
%ADD17RoundRect,0.250000X-0.725000X0.600000X-0.725000X-0.600000X0.725000X-0.600000X0.725000X0.600000X0*%
%ADD18O,1.950000X1.700000*%
%ADD19C,4.000000*%
G04 APERTURE END LIST*
D10*
X173000000Y-138000000D03*
D11*
X179000000Y-114265000D03*
D12*
X179000000Y-111725000D03*
X179000000Y-109185000D03*
X179000000Y-106645000D03*
X179000000Y-104105000D03*
D10*
X128000000Y-55000000D03*
D13*
X143385000Y-74130000D03*
D14*
X143685000Y-77160000D03*
X148535000Y-77160000D03*
D13*
X148835000Y-74130000D03*
D12*
X137220000Y-74000000D03*
X137220000Y-76540000D03*
D11*
X137220000Y-79080000D03*
D12*
X137220000Y-81620000D03*
X137220000Y-84160000D03*
X137220000Y-86700000D03*
X137220000Y-89240000D03*
D11*
X137220000Y-91780000D03*
D12*
X137220000Y-94320000D03*
X137220000Y-96860000D03*
X137220000Y-99400000D03*
X137220000Y-101940000D03*
D11*
X137220000Y-104480000D03*
D12*
X137220000Y-107020000D03*
X137220000Y-109560000D03*
X137220000Y-112100000D03*
X137220000Y-114640000D03*
D11*
X137220000Y-117180000D03*
D12*
X137220000Y-119720000D03*
X137220000Y-122260000D03*
X155000000Y-122260000D03*
X155000000Y-119720000D03*
D11*
X155000000Y-117180000D03*
D12*
X155000000Y-114640000D03*
X155000000Y-112100000D03*
X155000000Y-109560000D03*
X155000000Y-107020000D03*
D11*
X155000000Y-104480000D03*
D12*
X155000000Y-101940000D03*
X155000000Y-99400000D03*
X155000000Y-96860000D03*
X155000000Y-94320000D03*
D11*
X155000000Y-91780000D03*
D12*
X155000000Y-89240000D03*
X155000000Y-86700000D03*
X155000000Y-84160000D03*
X155000000Y-81620000D03*
D11*
X155000000Y-79080000D03*
D12*
X155000000Y-76540000D03*
X155000000Y-74000000D03*
X143570000Y-122030000D03*
D11*
X146110000Y-122030000D03*
D12*
X148650000Y-122030000D03*
D15*
X121950000Y-63250000D03*
D16*
X121950000Y-60750000D03*
D17*
X122500000Y-96000000D03*
D18*
X122500000Y-98500000D03*
X122500000Y-101000000D03*
D17*
X122500000Y-108500000D03*
D18*
X122500000Y-111000000D03*
X122500000Y-113500000D03*
D17*
X122500000Y-83500000D03*
D18*
X122500000Y-86000000D03*
X122500000Y-88500000D03*
D11*
X122500000Y-119880000D03*
D12*
X122500000Y-122420000D03*
X122500000Y-124960000D03*
X122500000Y-127500000D03*
X122500000Y-130040000D03*
D19*
X147955000Y-64770000D03*
X147955000Y-137270000D03*
D11*
X167500000Y-74000000D03*
D12*
X167500000Y-76540000D03*
X167500000Y-79080000D03*
X167500000Y-81620000D03*
X167500000Y-84160000D03*
X167500000Y-86700000D03*
X167500000Y-89240000D03*
X167500000Y-91780000D03*
X167500000Y-94320000D03*
X167500000Y-96860000D03*
D11*
X130175000Y-74090000D03*
D12*
X130175000Y-76630000D03*
X130175000Y-79170000D03*
X130175000Y-81710000D03*
X130175000Y-84250000D03*
X130175000Y-86790000D03*
X130175000Y-89330000D03*
X130175000Y-91870000D03*
X130175000Y-94410000D03*
X130175000Y-96950000D03*
X130175000Y-99490000D03*
X130175000Y-102030000D03*
X130175000Y-104570000D03*
X130175000Y-107110000D03*
X130175000Y-109650000D03*
X130175000Y-112190000D03*
X130175000Y-114730000D03*
X130175000Y-117270000D03*
X130175000Y-119810000D03*
X130175000Y-122350000D03*
D17*
X122500000Y-71000000D03*
D18*
X122500000Y-73500000D03*
X122500000Y-76000000D03*
D10*
X173000000Y-55000000D03*
D11*
X145840000Y-59000000D03*
D12*
X148380000Y-59000000D03*
X150920000Y-59000000D03*
X153460000Y-59000000D03*
X156000000Y-59000000D03*
X158540000Y-59000000D03*
X161080000Y-59000000D03*
D11*
X163000000Y-74090000D03*
D12*
X163000000Y-76630000D03*
X163000000Y-79170000D03*
X163000000Y-81710000D03*
X163000000Y-84250000D03*
X163000000Y-86790000D03*
X163000000Y-89330000D03*
X163000000Y-91870000D03*
X163000000Y-94410000D03*
X163000000Y-96950000D03*
X163000000Y-99490000D03*
X163000000Y-102030000D03*
X163000000Y-104570000D03*
X163000000Y-107110000D03*
X163000000Y-109650000D03*
X163000000Y-112190000D03*
X163000000Y-114730000D03*
X163000000Y-117270000D03*
X163000000Y-119810000D03*
X163000000Y-122350000D03*
D11*
X179000000Y-97120000D03*
D12*
X179000000Y-94580000D03*
X179000000Y-92040000D03*
X179000000Y-89500000D03*
X179000000Y-86960000D03*
D10*
X128000000Y-138000000D03*
D11*
X179000000Y-79975000D03*
D12*
X179000000Y-77435000D03*
X179000000Y-74895000D03*
X179000000Y-72355000D03*
X179000000Y-69815000D03*
M02*
