G04 #@! TF.GenerationSoftware,KiCad,Pcbnew,8.0.9-8.0.9-0~ubuntu24.04.1*
G04 #@! TF.CreationDate,2025-08-25T14:34:15+01:00*
G04 #@! TF.ProjectId,temper,74656d70-6572-42e6-9b69-6361645f7063,1.0*
G04 #@! TF.SameCoordinates,Original*
G04 #@! TF.FileFunction,Copper,L2,Bot*
G04 #@! TF.FilePolarity,Positive*
%FSLAX46Y46*%
G04 Gerber Fmt 4.6, Leading zero omitted, Abs format (unit mm)*
G04 Created by KiCad (PCBNEW 8.0.9-8.0.9-0~ubuntu24.04.1) date 2025-08-25 14:34:15*
%MOMM*%
%LPD*%
G01*
G04 APERTURE LIST*
G04 Aperture macros list*
%AMRoundRect*
0 Rectangle with rounded corners*
0 $1 Rounding radius*
0 $2 $3 $4 $5 $6 $7 $8 $9 X,Y pos of 4 corners*
0 Add a 4 corners polygon primitive as box body*
4,1,4,$2,$3,$4,$5,$6,$7,$8,$9,$2,$3,0*
0 Add four circle primitives for the rounded corners*
1,1,$1+$1,$2,$3*
1,1,$1+$1,$4,$5*
1,1,$1+$1,$6,$7*
1,1,$1+$1,$8,$9*
0 Add four rect primitives between the rounded corners*
20,1,$1+$1,$2,$3,$4,$5,0*
20,1,$1+$1,$4,$5,$6,$7,0*
20,1,$1+$1,$6,$7,$8,$9,0*
20,1,$1+$1,$8,$9,$2,$3,0*%
G04 Aperture macros list end*
G04 #@! TA.AperFunction,ComponentPad*
%ADD10R,1.700000X1.700000*%
G04 #@! TD*
G04 #@! TA.AperFunction,ComponentPad*
%ADD11O,1.700000X1.700000*%
G04 #@! TD*
G04 #@! TA.AperFunction,ComponentPad*
%ADD12RoundRect,0.250000X0.750000X-0.600000X0.750000X0.600000X-0.750000X0.600000X-0.750000X-0.600000X0*%
G04 #@! TD*
G04 #@! TA.AperFunction,ComponentPad*
%ADD13O,2.000000X1.700000*%
G04 #@! TD*
G04 #@! TA.AperFunction,ComponentPad*
%ADD14RoundRect,0.250000X-0.725000X0.600000X-0.725000X-0.600000X0.725000X-0.600000X0.725000X0.600000X0*%
G04 #@! TD*
G04 #@! TA.AperFunction,ComponentPad*
%ADD15O,1.950000X1.700000*%
G04 #@! TD*
G04 #@! TA.AperFunction,ComponentPad*
%ADD16C,4.000000*%
G04 #@! TD*
G04 #@! TA.AperFunction,ViaPad*
%ADD17C,0.600000*%
G04 #@! TD*
G04 #@! TA.AperFunction,Conductor*
%ADD18C,0.200000*%
G04 #@! TD*
G04 #@! TA.AperFunction,Conductor*
%ADD19C,1.000000*%
G04 #@! TD*
G04 #@! TA.AperFunction,Conductor*
%ADD20C,0.500000*%
G04 #@! TD*
G04 #@! TA.AperFunction,Conductor*
%ADD21C,0.250000*%
G04 #@! TD*
G04 APERTURE END LIST*
D10*
X179000000Y-114265000D03*
D11*
X179000000Y-111725000D03*
X179000000Y-109185000D03*
X179000000Y-106645000D03*
X179000000Y-104105000D03*
X137220000Y-74000000D03*
X137220000Y-76540000D03*
D10*
X137220000Y-79080000D03*
D11*
X137220000Y-81620000D03*
X137220000Y-84160000D03*
X137220000Y-86700000D03*
X137220000Y-89240000D03*
D10*
X137220000Y-91780000D03*
D11*
X137220000Y-94320000D03*
X137220000Y-96860000D03*
X137220000Y-99400000D03*
X137220000Y-101940000D03*
D10*
X137220000Y-104480000D03*
D11*
X137220000Y-107020000D03*
X137220000Y-109560000D03*
X137220000Y-112100000D03*
X137220000Y-114640000D03*
D10*
X137220000Y-117180000D03*
D11*
X137220000Y-119720000D03*
X137220000Y-122260000D03*
X155000000Y-122260000D03*
X155000000Y-119720000D03*
D10*
X155000000Y-117180000D03*
D11*
X155000000Y-114640000D03*
X155000000Y-112100000D03*
X155000000Y-109560000D03*
X155000000Y-107020000D03*
D10*
X155000000Y-104480000D03*
D11*
X155000000Y-101940000D03*
X155000000Y-99400000D03*
X155000000Y-96860000D03*
X155000000Y-94320000D03*
D10*
X155000000Y-91780000D03*
D11*
X155000000Y-89240000D03*
X155000000Y-86700000D03*
X155000000Y-84160000D03*
X155000000Y-81620000D03*
D10*
X155000000Y-79080000D03*
D11*
X155000000Y-76540000D03*
X155000000Y-74000000D03*
X143570000Y-122030000D03*
D10*
X146110000Y-122030000D03*
D11*
X148650000Y-122030000D03*
D12*
X121950000Y-63250000D03*
D13*
X121950000Y-60750000D03*
D14*
X122500000Y-96000000D03*
D15*
X122500000Y-98500000D03*
X122500000Y-101000000D03*
D14*
X122500000Y-108500000D03*
D15*
X122500000Y-111000000D03*
X122500000Y-113500000D03*
D14*
X122500000Y-83500000D03*
D15*
X122500000Y-86000000D03*
X122500000Y-88500000D03*
D10*
X122500000Y-119880000D03*
D11*
X122500000Y-122420000D03*
X122500000Y-124960000D03*
X122500000Y-127500000D03*
X122500000Y-130040000D03*
D16*
X147955000Y-64770000D03*
X147955000Y-137270000D03*
D10*
X167500000Y-74000000D03*
D11*
X167500000Y-76540000D03*
X167500000Y-79080000D03*
X167500000Y-81620000D03*
X167500000Y-84160000D03*
X167500000Y-86700000D03*
X167500000Y-89240000D03*
X167500000Y-91780000D03*
X167500000Y-94320000D03*
X167500000Y-96860000D03*
D10*
X130175000Y-74090000D03*
D11*
X130175000Y-76630000D03*
X130175000Y-79170000D03*
X130175000Y-81710000D03*
X130175000Y-84250000D03*
X130175000Y-86790000D03*
X130175000Y-89330000D03*
X130175000Y-91870000D03*
X130175000Y-94410000D03*
X130175000Y-96950000D03*
X130175000Y-99490000D03*
X130175000Y-102030000D03*
X130175000Y-104570000D03*
X130175000Y-107110000D03*
X130175000Y-109650000D03*
X130175000Y-112190000D03*
X130175000Y-114730000D03*
X130175000Y-117270000D03*
X130175000Y-119810000D03*
X130175000Y-122350000D03*
D14*
X122500000Y-71000000D03*
D15*
X122500000Y-73500000D03*
X122500000Y-76000000D03*
D10*
X145840000Y-59000000D03*
D11*
X148380000Y-59000000D03*
X150920000Y-59000000D03*
X153460000Y-59000000D03*
X156000000Y-59000000D03*
X158540000Y-59000000D03*
X161080000Y-59000000D03*
D10*
X163000000Y-74090000D03*
D11*
X163000000Y-76630000D03*
X163000000Y-79170000D03*
X163000000Y-81710000D03*
X163000000Y-84250000D03*
X163000000Y-86790000D03*
X163000000Y-89330000D03*
X163000000Y-91870000D03*
X163000000Y-94410000D03*
X163000000Y-96950000D03*
X163000000Y-99490000D03*
X163000000Y-102030000D03*
X163000000Y-104570000D03*
X163000000Y-107110000D03*
X163000000Y-109650000D03*
X163000000Y-112190000D03*
X163000000Y-114730000D03*
X163000000Y-117270000D03*
X163000000Y-119810000D03*
X163000000Y-122350000D03*
D10*
X179000000Y-97120000D03*
D11*
X179000000Y-94580000D03*
X179000000Y-92040000D03*
X179000000Y-89500000D03*
X179000000Y-86960000D03*
D10*
X179000000Y-79975000D03*
D11*
X179000000Y-77435000D03*
X179000000Y-74895000D03*
X179000000Y-72355000D03*
X179000000Y-69815000D03*
D17*
X170500000Y-77750000D03*
X170250000Y-98750000D03*
X172500000Y-98250000D03*
X126500000Y-126500000D03*
X126500000Y-131250000D03*
X170500000Y-91250000D03*
X170000000Y-101750000D03*
X173500000Y-91250000D03*
X175750000Y-101500000D03*
X179000000Y-99250000D03*
X169000000Y-103250000D03*
X176250000Y-93750000D03*
X126500000Y-129750000D03*
X173750000Y-84760000D03*
X126500000Y-128000000D03*
X167000000Y-102250000D03*
X173750000Y-83500000D03*
X170000000Y-97000000D03*
X173250000Y-88750000D03*
X140500000Y-56500000D03*
X166000000Y-98750000D03*
X171162500Y-100046435D03*
X165750000Y-103500000D03*
X164500000Y-132500000D03*
X152250000Y-127500000D03*
X151500000Y-88000000D03*
X125000000Y-124500000D03*
X134500000Y-66500000D03*
X139500000Y-128500000D03*
X152000000Y-89500000D03*
X171000000Y-86000000D03*
X151000000Y-66500000D03*
X153000000Y-69000000D03*
X165250000Y-78000000D03*
X166750000Y-110250000D03*
X164400000Y-111000000D03*
X164250000Y-93250000D03*
X176250000Y-87000000D03*
X178500000Y-100750000D03*
X175500000Y-97750000D03*
X178750000Y-84250000D03*
X176000000Y-84250000D03*
X178750000Y-83250000D03*
X176250000Y-83250000D03*
X136000000Y-65500000D03*
X172250000Y-102500000D03*
X173000000Y-105500000D03*
D18*
X171600000Y-78850000D02*
X171600000Y-97400000D01*
X170500000Y-77750000D02*
X171600000Y-78850000D01*
X171600000Y-97400000D02*
X170250000Y-98750000D01*
D19*
X147955000Y-64770000D02*
X156780000Y-64770000D01*
X165950000Y-73940000D02*
X165950000Y-76192081D01*
X166297919Y-76540000D02*
X167500000Y-76540000D01*
X165950000Y-76192081D02*
X166297919Y-76540000D01*
X156780000Y-64770000D02*
X165950000Y-73940000D01*
D18*
X173750000Y-83500000D02*
X173750000Y-84760000D01*
D20*
X162500000Y-55500000D02*
X141500000Y-55500000D01*
X167500000Y-79080000D02*
X169000000Y-77580000D01*
X169000000Y-62000000D02*
X162500000Y-55500000D01*
X169000000Y-62500000D02*
X169000000Y-62000000D01*
X141500000Y-55500000D02*
X140500000Y-56500000D01*
X169000000Y-77580000D02*
X169000000Y-62500000D01*
D18*
X166000000Y-97410000D02*
X166000000Y-98750000D01*
X163000000Y-94410000D02*
X166000000Y-97410000D01*
X171116065Y-100000000D02*
X171162500Y-100046435D01*
X165525000Y-99475000D02*
X165525000Y-103275000D01*
X163000000Y-96950000D02*
X165525000Y-99475000D01*
X165525000Y-99475000D02*
X166050000Y-100000000D01*
X165525000Y-103275000D02*
X165750000Y-103500000D01*
X166050000Y-100000000D02*
X171116065Y-100000000D01*
X163750000Y-132500000D02*
X164500000Y-132500000D01*
X142651471Y-132500000D02*
X137220000Y-127068529D01*
X145500000Y-132500000D02*
X163750000Y-132500000D01*
X137220000Y-127068529D02*
X137220000Y-122260000D01*
X145500000Y-132500000D02*
X142651471Y-132500000D01*
X155000000Y-109560000D02*
X152250000Y-112310000D01*
X152250000Y-112310000D02*
X152250000Y-127500000D01*
X166260000Y-88000000D02*
X167500000Y-89240000D01*
X151500000Y-88000000D02*
X166260000Y-88000000D01*
D20*
X125000000Y-124500000D02*
X125000000Y-116000000D01*
X125000000Y-116000000D02*
X122500000Y-113500000D01*
D18*
X123590000Y-74090000D02*
X130175000Y-74090000D01*
D21*
X130410000Y-74090000D02*
X130500000Y-74000000D01*
D18*
X123000000Y-73500000D02*
X123590000Y-74090000D01*
X122500000Y-73500000D02*
X123000000Y-73500000D01*
D21*
X130175000Y-74090000D02*
X130410000Y-74090000D01*
X129585000Y-73500000D02*
X130175000Y-74090000D01*
X127000000Y-76500000D02*
X128000000Y-76500000D01*
X126500000Y-77000000D02*
X127000000Y-76500000D01*
X126500000Y-82000000D02*
X126500000Y-77000000D01*
X122500000Y-86000000D02*
X126500000Y-82000000D01*
X137130000Y-76630000D02*
X137220000Y-76540000D01*
X128000000Y-76500000D02*
X128130000Y-76630000D01*
X128130000Y-76630000D02*
X130175000Y-76630000D01*
X126500000Y-94500000D02*
X126500000Y-83500000D01*
X137130000Y-81710000D02*
X137220000Y-81620000D01*
X126500000Y-83500000D02*
X128290000Y-81710000D01*
X122500000Y-98500000D02*
X126500000Y-94500000D01*
X128290000Y-81710000D02*
X130175000Y-81710000D01*
D18*
X127750000Y-84250000D02*
X130175000Y-84250000D01*
X130750000Y-84250000D02*
X130840000Y-84160000D01*
X127500000Y-84500000D02*
X127750000Y-84250000D01*
X130175000Y-84250000D02*
X130750000Y-84250000D01*
X122500000Y-111000000D02*
X127500000Y-106000000D01*
X127500000Y-106000000D02*
X127500000Y-84500000D01*
D21*
X138585000Y-90605000D02*
X137220000Y-89240000D01*
X166325000Y-90605000D02*
X138585000Y-90605000D01*
X167500000Y-91780000D02*
X166325000Y-90605000D01*
D18*
X135250000Y-84730000D02*
X137220000Y-86700000D01*
X134500000Y-66500000D02*
X135250000Y-67250000D01*
X135250000Y-67250000D02*
X135250000Y-84730000D01*
X139500000Y-128500000D02*
X139500000Y-122000000D01*
X139500000Y-122000000D02*
X137220000Y-119720000D01*
X154740000Y-89500000D02*
X155000000Y-89240000D01*
X152000000Y-89500000D02*
X154740000Y-89500000D01*
X163000000Y-81710000D02*
X164240000Y-80470000D01*
X169500000Y-84500000D02*
X171000000Y-86000000D01*
X169470000Y-80470000D02*
X169500000Y-80500000D01*
X169500000Y-80500000D02*
X169500000Y-84500000D01*
X164240000Y-80470000D02*
X169470000Y-80470000D01*
X169048654Y-119810000D02*
X163000000Y-119810000D01*
X178523654Y-110335000D02*
X169048654Y-119810000D01*
X180150000Y-109661346D02*
X179476346Y-110335000D01*
X179000000Y-106645000D02*
X180150000Y-107795000D01*
X179476346Y-110335000D02*
X178523654Y-110335000D01*
X180150000Y-107795000D02*
X180150000Y-109661346D01*
X153000000Y-69000000D02*
X153000000Y-68500000D01*
X153000000Y-68500000D02*
X151000000Y-66500000D01*
X177250000Y-104228654D02*
X180500000Y-100978654D01*
X180500000Y-100978654D02*
X180500000Y-89250000D01*
X180500000Y-89250000D02*
X179250000Y-89250000D01*
X163000000Y-107110000D02*
X175140000Y-107110000D01*
X177250000Y-105000000D02*
X177250000Y-104228654D01*
X175140000Y-107110000D02*
X177250000Y-105000000D01*
X179250000Y-89250000D02*
X179000000Y-89500000D01*
X167736346Y-87850000D02*
X167023654Y-87850000D01*
X168750000Y-92500000D02*
X168750000Y-88863654D01*
X162523654Y-85400000D02*
X161850000Y-84726346D01*
X161850000Y-84726346D02*
X161850000Y-78693654D01*
X164250000Y-93250000D02*
X164480000Y-93020000D01*
X164400000Y-111000000D02*
X166000000Y-111000000D01*
X161850000Y-78693654D02*
X162543654Y-78000000D01*
X164480000Y-93020000D02*
X168230000Y-93020000D01*
X167023654Y-87850000D02*
X164573654Y-85400000D01*
X166000000Y-111000000D02*
X166750000Y-110250000D01*
X162543654Y-78000000D02*
X165250000Y-78000000D01*
X168230000Y-93020000D02*
X168750000Y-92500000D01*
X168750000Y-88863654D02*
X167736346Y-87850000D01*
X164573654Y-85400000D02*
X162523654Y-85400000D01*
X169500000Y-116500000D02*
X164770000Y-116500000D01*
X176815000Y-109185000D02*
X169500000Y-116500000D01*
X179000000Y-109185000D02*
X176815000Y-109185000D01*
X164770000Y-116500000D02*
X163000000Y-114730000D01*
X175400000Y-78495000D02*
X179000000Y-74895000D01*
X179000000Y-92040000D02*
X175400000Y-88440000D01*
X175400000Y-88440000D02*
X175400000Y-78495000D01*
X180150000Y-85810000D02*
X179000000Y-86960000D01*
X179000000Y-104105000D02*
X180550000Y-105655000D01*
X179000000Y-69815000D02*
X179000000Y-70728654D01*
X179236346Y-113115000D02*
X176309340Y-113115000D01*
X179000000Y-70728654D02*
X180150000Y-71878654D01*
X176790000Y-86960000D02*
X179000000Y-86960000D01*
X167074340Y-122350000D02*
X163000000Y-122350000D01*
X176750000Y-87000000D02*
X176790000Y-86960000D01*
X176309340Y-113115000D02*
X167074340Y-122350000D01*
X176250000Y-87000000D02*
X176750000Y-87000000D01*
X178500000Y-100750000D02*
X175500000Y-97750000D01*
X180550000Y-111801346D02*
X179236346Y-113115000D01*
X180550000Y-105655000D02*
X180550000Y-111801346D01*
X180150000Y-71878654D02*
X180150000Y-85810000D01*
X176250000Y-84250000D02*
X176000000Y-84250000D01*
X178750000Y-84250000D02*
X176250000Y-84250000D01*
X178750000Y-83250000D02*
X176250000Y-83250000D01*
D20*
X137500000Y-65500000D02*
X136000000Y-65500000D01*
X148380000Y-59000000D02*
X145880000Y-61500000D01*
X137500000Y-61500000D02*
X137500000Y-65500000D01*
X145880000Y-61500000D02*
X137500000Y-61500000D01*
D18*
X173000000Y-103250000D02*
X173000000Y-105500000D01*
X172250000Y-102500000D02*
X173000000Y-103250000D01*
G04 #@! TA.AperFunction,Conductor*
G36*
X177777948Y-109805185D02*
G01*
X177823292Y-109857097D01*
X177825965Y-109862830D01*
X177825966Y-109862831D01*
X177898329Y-109966177D01*
X177920656Y-110032383D01*
X177903646Y-110100150D01*
X177884435Y-110124981D01*
X168836238Y-119173181D01*
X168774915Y-119206666D01*
X168748557Y-119209500D01*
X164289091Y-119209500D01*
X164222052Y-119189815D01*
X164176711Y-119137909D01*
X164174037Y-119132175D01*
X164174034Y-119132170D01*
X164174033Y-119132169D01*
X164038495Y-118938599D01*
X164038494Y-118938597D01*
X163871402Y-118771506D01*
X163871401Y-118771505D01*
X163685405Y-118641269D01*
X163641781Y-118586692D01*
X163634588Y-118517193D01*
X163666110Y-118454839D01*
X163685405Y-118438119D01*
X163871082Y-118308105D01*
X164038105Y-118141082D01*
X164173600Y-117947578D01*
X164273429Y-117733492D01*
X164273432Y-117733486D01*
X164330636Y-117520000D01*
X163433012Y-117520000D01*
X163465925Y-117462993D01*
X163500000Y-117335826D01*
X163500000Y-117204174D01*
X163465925Y-117077007D01*
X163433012Y-117020000D01*
X164349089Y-117020000D01*
X164363544Y-117009445D01*
X164433290Y-117005288D01*
X164467495Y-117018746D01*
X164488096Y-117030640D01*
X164488097Y-117030641D01*
X164526151Y-117052611D01*
X164538215Y-117059577D01*
X164690943Y-117100501D01*
X164690946Y-117100501D01*
X164856653Y-117100501D01*
X164856669Y-117100500D01*
X169413331Y-117100500D01*
X169413347Y-117100501D01*
X169420943Y-117100501D01*
X169579054Y-117100501D01*
X169579057Y-117100501D01*
X169731785Y-117059577D01*
X169781904Y-117030639D01*
X169868716Y-116980520D01*
X169980520Y-116868716D01*
X169980520Y-116868714D01*
X169990728Y-116858507D01*
X169990729Y-116858504D01*
X177027416Y-109821819D01*
X177088739Y-109788334D01*
X177115097Y-109785500D01*
X177710909Y-109785500D01*
X177777948Y-109805185D01*
G37*
G04 #@! TD.AperFunction*
G04 #@! TA.AperFunction,Conductor*
G36*
X168899990Y-84688429D02*
G01*
X168939511Y-84730206D01*
X168950040Y-84748441D01*
X168950042Y-84748446D01*
X169019475Y-84868709D01*
X169019481Y-84868717D01*
X169138349Y-84987585D01*
X169138355Y-84987590D01*
X170169298Y-86018533D01*
X170202783Y-86079856D01*
X170204837Y-86092330D01*
X170214630Y-86179249D01*
X170274210Y-86349521D01*
X170346514Y-86464592D01*
X170370184Y-86502262D01*
X170497738Y-86629816D01*
X170588080Y-86686582D01*
X170621880Y-86707820D01*
X170650478Y-86725789D01*
X170820745Y-86785368D01*
X170889384Y-86793101D01*
X170953796Y-86820166D01*
X170993352Y-86877760D01*
X170999500Y-86916321D01*
X170999500Y-97099902D01*
X170979815Y-97166941D01*
X170963181Y-97187583D01*
X170231465Y-97919298D01*
X170170142Y-97952783D01*
X170157668Y-97954837D01*
X170070750Y-97964630D01*
X169900478Y-98024210D01*
X169747737Y-98120184D01*
X169620184Y-98247737D01*
X169524211Y-98400476D01*
X169464631Y-98570745D01*
X169464630Y-98570750D01*
X169444435Y-98749996D01*
X169444435Y-98750003D01*
X169464630Y-98929249D01*
X169464631Y-98929254D01*
X169524211Y-99099524D01*
X169593332Y-99209527D01*
X169612333Y-99276764D01*
X169591966Y-99343599D01*
X169538698Y-99388814D01*
X169488339Y-99399500D01*
X166761661Y-99399500D01*
X166694622Y-99379815D01*
X166648867Y-99327011D01*
X166638923Y-99257853D01*
X166656668Y-99209527D01*
X166725788Y-99099524D01*
X166751395Y-99026344D01*
X166785368Y-98929255D01*
X166795162Y-98842333D01*
X166805565Y-98750003D01*
X166805565Y-98749996D01*
X166785369Y-98570750D01*
X166785368Y-98570745D01*
X166750115Y-98469999D01*
X166725789Y-98400478D01*
X166629816Y-98247738D01*
X166629814Y-98247736D01*
X166629813Y-98247734D01*
X166627550Y-98244896D01*
X166626659Y-98242715D01*
X166626111Y-98241842D01*
X166626264Y-98241745D01*
X166601144Y-98180209D01*
X166600500Y-98167587D01*
X166600500Y-98117021D01*
X166620185Y-98049982D01*
X166672989Y-98004227D01*
X166742147Y-97994283D01*
X166795621Y-98015445D01*
X166822170Y-98034035D01*
X167036337Y-98133903D01*
X167264592Y-98195063D01*
X167452918Y-98211539D01*
X167499999Y-98215659D01*
X167500000Y-98215659D01*
X167500001Y-98215659D01*
X167540839Y-98212086D01*
X167735408Y-98195063D01*
X167963663Y-98133903D01*
X168177830Y-98034035D01*
X168371401Y-97898495D01*
X168538495Y-97731401D01*
X168674035Y-97537830D01*
X168773903Y-97323663D01*
X168835063Y-97095408D01*
X168855659Y-96860000D01*
X168835063Y-96624592D01*
X168773903Y-96396337D01*
X168674035Y-96182171D01*
X168660351Y-96162627D01*
X168538494Y-95988597D01*
X168371402Y-95821506D01*
X168371396Y-95821501D01*
X168185842Y-95691575D01*
X168142217Y-95636998D01*
X168135023Y-95567500D01*
X168166546Y-95505145D01*
X168185842Y-95488425D01*
X168238716Y-95451402D01*
X168371401Y-95358495D01*
X168538495Y-95191401D01*
X168674035Y-94997830D01*
X168773903Y-94783663D01*
X168835063Y-94555408D01*
X168855659Y-94320000D01*
X168835063Y-94084592D01*
X168786184Y-93902171D01*
X168773905Y-93856344D01*
X168773904Y-93856343D01*
X168773903Y-93856337D01*
X168674035Y-93642171D01*
X168674034Y-93642169D01*
X168674033Y-93642167D01*
X168644359Y-93599789D01*
X168622031Y-93533583D01*
X168639041Y-93465816D01*
X168658252Y-93440984D01*
X168687661Y-93411575D01*
X168710520Y-93388716D01*
X168710520Y-93388714D01*
X168720724Y-93378511D01*
X168720728Y-93378506D01*
X169108506Y-92990728D01*
X169108511Y-92990724D01*
X169118714Y-92980520D01*
X169118716Y-92980520D01*
X169230520Y-92868716D01*
X169300366Y-92747738D01*
X169309577Y-92731785D01*
X169350500Y-92579057D01*
X169350500Y-92420943D01*
X169350500Y-88784597D01*
X169346450Y-88769480D01*
X169309577Y-88631869D01*
X169280639Y-88581749D01*
X169230520Y-88494938D01*
X169118716Y-88383134D01*
X169118715Y-88383133D01*
X169114385Y-88378803D01*
X169114374Y-88378793D01*
X168510419Y-87774838D01*
X168476934Y-87713515D01*
X168481918Y-87643823D01*
X168510416Y-87599478D01*
X168538495Y-87571401D01*
X168674035Y-87377830D01*
X168773903Y-87163663D01*
X168835063Y-86935408D01*
X168855659Y-86700000D01*
X168835063Y-86464592D01*
X168773903Y-86236337D01*
X168674035Y-86022171D01*
X168603549Y-85921505D01*
X168538494Y-85828597D01*
X168371402Y-85661506D01*
X168371396Y-85661501D01*
X168185842Y-85531575D01*
X168142217Y-85476998D01*
X168135023Y-85407500D01*
X168166546Y-85345145D01*
X168185842Y-85328425D01*
X168237599Y-85292184D01*
X168371401Y-85198495D01*
X168538495Y-85031401D01*
X168674035Y-84837830D01*
X168719745Y-84739804D01*
X168765916Y-84687366D01*
X168833109Y-84668214D01*
X168899990Y-84688429D01*
G37*
G04 #@! TD.AperFunction*
G04 #@! TA.AperFunction,Conductor*
G36*
X166155054Y-81090185D02*
G01*
X166200809Y-81142989D01*
X166210753Y-81212147D01*
X166207790Y-81226594D01*
X166169364Y-81369999D01*
X166169364Y-81370000D01*
X167066988Y-81370000D01*
X167034075Y-81427007D01*
X167000000Y-81554174D01*
X167000000Y-81685826D01*
X167034075Y-81812993D01*
X167066988Y-81870000D01*
X166169364Y-81870000D01*
X166226567Y-82083486D01*
X166226570Y-82083492D01*
X166326399Y-82297578D01*
X166461894Y-82491082D01*
X166628917Y-82658105D01*
X166814595Y-82788119D01*
X166858219Y-82842696D01*
X166865412Y-82912195D01*
X166833890Y-82974549D01*
X166814595Y-82991269D01*
X166628594Y-83121508D01*
X166461505Y-83288597D01*
X166325965Y-83482169D01*
X166325964Y-83482171D01*
X166226098Y-83696335D01*
X166226094Y-83696344D01*
X166164938Y-83924586D01*
X166164936Y-83924596D01*
X166144341Y-84159999D01*
X166144341Y-84160000D01*
X166164936Y-84395403D01*
X166164938Y-84395413D01*
X166226094Y-84623655D01*
X166226096Y-84623659D01*
X166226097Y-84623663D01*
X166312548Y-84809057D01*
X166325965Y-84837830D01*
X166325967Y-84837834D01*
X166400737Y-84944616D01*
X166461424Y-85031286D01*
X166461501Y-85031395D01*
X166461506Y-85031402D01*
X166628597Y-85198493D01*
X166628603Y-85198498D01*
X166814158Y-85328425D01*
X166857783Y-85383002D01*
X166864977Y-85452500D01*
X166833454Y-85514855D01*
X166814158Y-85531575D01*
X166628597Y-85661505D01*
X166461505Y-85828597D01*
X166325965Y-86022169D01*
X166325964Y-86022171D01*
X166311474Y-86053246D01*
X166265301Y-86105685D01*
X166198107Y-86124837D01*
X166131226Y-86104621D01*
X166111411Y-86088522D01*
X165061244Y-85038355D01*
X165061242Y-85038352D01*
X164942371Y-84919481D01*
X164942363Y-84919475D01*
X164854443Y-84868715D01*
X164854442Y-84868715D01*
X164833731Y-84856757D01*
X164805439Y-84840423D01*
X164652711Y-84799499D01*
X164494597Y-84799499D01*
X164487001Y-84799499D01*
X164486985Y-84799500D01*
X164412503Y-84799500D01*
X164345464Y-84779815D01*
X164299709Y-84727011D01*
X164289765Y-84657853D01*
X164292728Y-84643407D01*
X164315148Y-84559731D01*
X164335063Y-84485408D01*
X164355659Y-84250000D01*
X164335063Y-84014592D01*
X164277726Y-83800605D01*
X164273905Y-83786344D01*
X164273904Y-83786343D01*
X164273903Y-83786337D01*
X164174035Y-83572171D01*
X164174034Y-83572169D01*
X164038494Y-83378597D01*
X163871402Y-83211506D01*
X163871396Y-83211501D01*
X163685842Y-83081575D01*
X163642217Y-83026998D01*
X163635023Y-82957500D01*
X163666546Y-82895145D01*
X163685842Y-82878425D01*
X163736868Y-82842696D01*
X163871401Y-82748495D01*
X164038495Y-82581401D01*
X164174035Y-82387830D01*
X164273903Y-82173663D01*
X164335063Y-81945408D01*
X164355659Y-81710000D01*
X164335063Y-81474592D01*
X164300671Y-81346239D01*
X164302334Y-81276393D01*
X164332761Y-81226472D01*
X164452417Y-81106817D01*
X164513740Y-81073334D01*
X164540097Y-81070500D01*
X166088015Y-81070500D01*
X166155054Y-81090185D01*
G37*
G04 #@! TD.AperFunction*
G04 #@! TA.AperFunction,Conductor*
G36*
X177566583Y-77280165D02*
G01*
X177622516Y-77322037D01*
X177646933Y-77387501D01*
X177646777Y-77407154D01*
X177644341Y-77434997D01*
X177644341Y-77435000D01*
X177664936Y-77670403D01*
X177664938Y-77670413D01*
X177726094Y-77898655D01*
X177726096Y-77898659D01*
X177726097Y-77898663D01*
X177773353Y-78000003D01*
X177825965Y-78112830D01*
X177825967Y-78112834D01*
X177961501Y-78306395D01*
X177961506Y-78306402D01*
X178083818Y-78428714D01*
X178117303Y-78490037D01*
X178112319Y-78559729D01*
X178070447Y-78615662D01*
X178039471Y-78632577D01*
X177907912Y-78681646D01*
X177907906Y-78681649D01*
X177792812Y-78767809D01*
X177792809Y-78767812D01*
X177706649Y-78882906D01*
X177706645Y-78882913D01*
X177656403Y-79017620D01*
X177656401Y-79017627D01*
X177650000Y-79077155D01*
X177650000Y-79725000D01*
X178566988Y-79725000D01*
X178534075Y-79782007D01*
X178500000Y-79909174D01*
X178500000Y-80040826D01*
X178534075Y-80167993D01*
X178566988Y-80225000D01*
X177650000Y-80225000D01*
X177650000Y-80872844D01*
X177656401Y-80932372D01*
X177656403Y-80932379D01*
X177706645Y-81067086D01*
X177706649Y-81067093D01*
X177792809Y-81182187D01*
X177792812Y-81182190D01*
X177907906Y-81268350D01*
X177907913Y-81268354D01*
X178042620Y-81318596D01*
X178042627Y-81318598D01*
X178102155Y-81324999D01*
X178102172Y-81325000D01*
X178750000Y-81325000D01*
X178750000Y-80408012D01*
X178807007Y-80440925D01*
X178934174Y-80475000D01*
X179065826Y-80475000D01*
X179192993Y-80440925D01*
X179250000Y-80408012D01*
X179250000Y-81325000D01*
X179425500Y-81325000D01*
X179492539Y-81344685D01*
X179538294Y-81397489D01*
X179549500Y-81449000D01*
X179549500Y-82618060D01*
X179529815Y-82685099D01*
X179477011Y-82730854D01*
X179407853Y-82740798D01*
X179344297Y-82711773D01*
X179337819Y-82705741D01*
X179252262Y-82620184D01*
X179099523Y-82524211D01*
X178929254Y-82464631D01*
X178929249Y-82464630D01*
X178750004Y-82444435D01*
X178749996Y-82444435D01*
X178570750Y-82464630D01*
X178570745Y-82464631D01*
X178400476Y-82524211D01*
X178247736Y-82620185D01*
X178244903Y-82622445D01*
X178242724Y-82623334D01*
X178241842Y-82623889D01*
X178241744Y-82623734D01*
X178180217Y-82648855D01*
X178167588Y-82649500D01*
X176832412Y-82649500D01*
X176765373Y-82629815D01*
X176755097Y-82622445D01*
X176752263Y-82620185D01*
X176752262Y-82620184D01*
X176689702Y-82580875D01*
X176599523Y-82524211D01*
X176429254Y-82464631D01*
X176429249Y-82464630D01*
X176250004Y-82444435D01*
X176249996Y-82444435D01*
X176138383Y-82457010D01*
X176069561Y-82444955D01*
X176018182Y-82397606D01*
X176000500Y-82333790D01*
X176000500Y-78795096D01*
X176020185Y-78728057D01*
X176036814Y-78707420D01*
X177435568Y-77308665D01*
X177496891Y-77275181D01*
X177566583Y-77280165D01*
G37*
G04 #@! TD.AperFunction*
G04 #@! TA.AperFunction,Conductor*
G36*
X181442539Y-51520185D02*
G01*
X181488294Y-51572989D01*
X181499500Y-51624500D01*
X181499500Y-141375500D01*
X181479815Y-141442539D01*
X181427011Y-141488294D01*
X181375500Y-141499500D01*
X119624500Y-141499500D01*
X119557461Y-141479815D01*
X119511706Y-141427011D01*
X119500500Y-141375500D01*
X119500500Y-137878711D01*
X126149500Y-137878711D01*
X126149500Y-138121288D01*
X126181161Y-138361785D01*
X126243947Y-138596104D01*
X126304528Y-138742359D01*
X126336776Y-138820212D01*
X126458064Y-139030289D01*
X126458066Y-139030292D01*
X126458067Y-139030293D01*
X126605733Y-139222736D01*
X126605739Y-139222743D01*
X126777256Y-139394260D01*
X126777262Y-139394265D01*
X126969711Y-139541936D01*
X127179788Y-139663224D01*
X127403900Y-139756054D01*
X127638211Y-139818838D01*
X127818586Y-139842584D01*
X127878711Y-139850500D01*
X127878712Y-139850500D01*
X128121289Y-139850500D01*
X128169388Y-139844167D01*
X128361789Y-139818838D01*
X128596100Y-139756054D01*
X128820212Y-139663224D01*
X129030289Y-139541936D01*
X129222738Y-139394265D01*
X129394265Y-139222738D01*
X129541936Y-139030289D01*
X129663224Y-138820212D01*
X129756054Y-138596100D01*
X129818838Y-138361789D01*
X129850500Y-138121288D01*
X129850500Y-137878712D01*
X129818838Y-137638211D01*
X129756054Y-137403900D01*
X129700588Y-137269994D01*
X145450057Y-137269994D01*
X145450057Y-137270005D01*
X145469807Y-137583942D01*
X145469808Y-137583949D01*
X145528755Y-137892958D01*
X145625963Y-138192132D01*
X145625965Y-138192137D01*
X145759900Y-138476761D01*
X145759903Y-138476767D01*
X145928452Y-138742359D01*
X146019286Y-138852158D01*
X147092425Y-137779019D01*
X147178249Y-137907463D01*
X147317537Y-138046751D01*
X147445979Y-138132573D01*
X146369972Y-139208579D01*
X146612780Y-139384990D01*
X146612790Y-139384996D01*
X146888447Y-139536540D01*
X146888455Y-139536544D01*
X147180926Y-139652340D01*
X147485620Y-139730573D01*
X147485629Y-139730575D01*
X147797701Y-139769999D01*
X147797715Y-139770000D01*
X148112285Y-139770000D01*
X148112298Y-139769999D01*
X148424370Y-139730575D01*
X148424379Y-139730573D01*
X148729073Y-139652340D01*
X149021544Y-139536544D01*
X149021552Y-139536540D01*
X149297203Y-139385000D01*
X149297214Y-139384993D01*
X149540025Y-139208579D01*
X149540026Y-139208579D01*
X148464020Y-138132573D01*
X148592463Y-138046751D01*
X148731751Y-137907463D01*
X148817574Y-137779020D01*
X149890712Y-138852158D01*
X149981544Y-138742364D01*
X150150096Y-138476767D01*
X150150099Y-138476761D01*
X150284034Y-138192137D01*
X150284036Y-138192132D01*
X150381244Y-137892958D01*
X150383962Y-137878711D01*
X171149500Y-137878711D01*
X171149500Y-138121288D01*
X171181161Y-138361785D01*
X171243947Y-138596104D01*
X171304528Y-138742359D01*
X171336776Y-138820212D01*
X171458064Y-139030289D01*
X171458066Y-139030292D01*
X171458067Y-139030293D01*
X171605733Y-139222736D01*
X171605739Y-139222743D01*
X171777256Y-139394260D01*
X171777262Y-139394265D01*
X171969711Y-139541936D01*
X172179788Y-139663224D01*
X172403900Y-139756054D01*
X172638211Y-139818838D01*
X172818586Y-139842584D01*
X172878711Y-139850500D01*
X172878712Y-139850500D01*
X173121289Y-139850500D01*
X173169388Y-139844167D01*
X173361789Y-139818838D01*
X173596100Y-139756054D01*
X173820212Y-139663224D01*
X174030289Y-139541936D01*
X174222738Y-139394265D01*
X174394265Y-139222738D01*
X174541936Y-139030289D01*
X174663224Y-138820212D01*
X174756054Y-138596100D01*
X174818838Y-138361789D01*
X174850500Y-138121288D01*
X174850500Y-137878712D01*
X174818838Y-137638211D01*
X174756054Y-137403900D01*
X174663224Y-137179788D01*
X174541936Y-136969711D01*
X174394265Y-136777262D01*
X174394260Y-136777256D01*
X174222743Y-136605739D01*
X174222736Y-136605733D01*
X174030293Y-136458067D01*
X174030292Y-136458066D01*
X174030289Y-136458064D01*
X173820212Y-136336776D01*
X173820205Y-136336773D01*
X173596104Y-136243947D01*
X173361785Y-136181161D01*
X173121289Y-136149500D01*
X173121288Y-136149500D01*
X172878712Y-136149500D01*
X172878711Y-136149500D01*
X172638214Y-136181161D01*
X172403895Y-136243947D01*
X172179794Y-136336773D01*
X172179785Y-136336777D01*
X171969706Y-136458067D01*
X171777263Y-136605733D01*
X171777256Y-136605739D01*
X171605739Y-136777256D01*
X171605733Y-136777263D01*
X171458067Y-136969706D01*
X171336777Y-137179785D01*
X171336773Y-137179794D01*
X171243947Y-137403895D01*
X171181161Y-137638214D01*
X171149500Y-137878711D01*
X150383962Y-137878711D01*
X150440191Y-137583949D01*
X150440192Y-137583942D01*
X150459943Y-137270005D01*
X150459943Y-137269994D01*
X150440192Y-136956057D01*
X150440191Y-136956050D01*
X150381244Y-136647041D01*
X150284036Y-136347867D01*
X150284034Y-136347862D01*
X150150099Y-136063238D01*
X150150096Y-136063232D01*
X149981544Y-135797635D01*
X149890712Y-135687839D01*
X148817573Y-136760978D01*
X148731751Y-136632537D01*
X148592463Y-136493249D01*
X148464020Y-136407426D01*
X149540026Y-135331419D01*
X149297219Y-135155009D01*
X149297209Y-135155003D01*
X149021552Y-135003459D01*
X149021544Y-135003455D01*
X148729073Y-134887659D01*
X148424379Y-134809426D01*
X148424370Y-134809424D01*
X148112298Y-134770000D01*
X147797701Y-134770000D01*
X147485629Y-134809424D01*
X147485620Y-134809426D01*
X147180926Y-134887659D01*
X146888455Y-135003455D01*
X146888447Y-135003459D01*
X146612790Y-135155003D01*
X146612772Y-135155014D01*
X146369973Y-135331417D01*
X146369972Y-135331419D01*
X147445979Y-136407426D01*
X147317537Y-136493249D01*
X147178249Y-136632537D01*
X147092426Y-136760979D01*
X146019286Y-135687839D01*
X145928460Y-135797628D01*
X145928457Y-135797632D01*
X145759903Y-136063232D01*
X145759900Y-136063238D01*
X145625965Y-136347862D01*
X145625963Y-136347867D01*
X145528755Y-136647041D01*
X145469808Y-136956050D01*
X145469807Y-136956057D01*
X145450057Y-137269994D01*
X129700588Y-137269994D01*
X129663224Y-137179788D01*
X129541936Y-136969711D01*
X129394265Y-136777262D01*
X129394260Y-136777256D01*
X129222743Y-136605739D01*
X129222736Y-136605733D01*
X129030293Y-136458067D01*
X129030292Y-136458066D01*
X129030289Y-136458064D01*
X128820212Y-136336776D01*
X128820205Y-136336773D01*
X128596104Y-136243947D01*
X128361785Y-136181161D01*
X128121289Y-136149500D01*
X128121288Y-136149500D01*
X127878712Y-136149500D01*
X127878711Y-136149500D01*
X127638214Y-136181161D01*
X127403895Y-136243947D01*
X127179794Y-136336773D01*
X127179785Y-136336777D01*
X126969706Y-136458067D01*
X126777263Y-136605733D01*
X126777256Y-136605739D01*
X126605739Y-136777256D01*
X126605733Y-136777263D01*
X126458067Y-136969706D01*
X126336777Y-137179785D01*
X126336773Y-137179794D01*
X126243947Y-137403895D01*
X126181161Y-137638214D01*
X126149500Y-137878711D01*
X119500500Y-137878711D01*
X119500500Y-122419999D01*
X121144341Y-122419999D01*
X121144341Y-122420000D01*
X121164936Y-122655403D01*
X121164938Y-122655413D01*
X121226094Y-122883655D01*
X121226096Y-122883659D01*
X121226097Y-122883663D01*
X121293324Y-123027831D01*
X121325965Y-123097830D01*
X121325967Y-123097834D01*
X121461501Y-123291395D01*
X121461506Y-123291402D01*
X121628597Y-123458493D01*
X121628603Y-123458498D01*
X121814158Y-123588425D01*
X121857783Y-123643002D01*
X121864977Y-123712500D01*
X121833454Y-123774855D01*
X121814158Y-123791575D01*
X121628597Y-123921505D01*
X121461505Y-124088597D01*
X121325965Y-124282169D01*
X121325964Y-124282171D01*
X121226098Y-124496335D01*
X121226094Y-124496344D01*
X121164938Y-124724586D01*
X121164936Y-124724596D01*
X121144341Y-124959999D01*
X121144341Y-124960000D01*
X121164936Y-125195403D01*
X121164938Y-125195413D01*
X121226094Y-125423655D01*
X121226096Y-125423659D01*
X121226097Y-125423663D01*
X121325965Y-125637830D01*
X121325967Y-125637834D01*
X121461501Y-125831395D01*
X121461506Y-125831402D01*
X121628597Y-125998493D01*
X121628603Y-125998498D01*
X121814158Y-126128425D01*
X121857783Y-126183002D01*
X121864977Y-126252500D01*
X121833454Y-126314855D01*
X121814158Y-126331575D01*
X121628597Y-126461505D01*
X121461505Y-126628597D01*
X121325965Y-126822169D01*
X121325964Y-126822171D01*
X121226098Y-127036335D01*
X121226094Y-127036344D01*
X121164938Y-127264586D01*
X121164936Y-127264596D01*
X121144341Y-127499999D01*
X121144341Y-127500000D01*
X121164936Y-127735403D01*
X121164938Y-127735413D01*
X121226094Y-127963655D01*
X121226096Y-127963659D01*
X121226097Y-127963663D01*
X121244096Y-128002262D01*
X121325965Y-128177830D01*
X121325967Y-128177834D01*
X121461501Y-128371395D01*
X121461506Y-128371402D01*
X121628597Y-128538493D01*
X121628603Y-128538498D01*
X121814594Y-128668730D01*
X121858219Y-128723307D01*
X121865413Y-128792805D01*
X121833890Y-128855160D01*
X121814595Y-128871880D01*
X121628922Y-129001890D01*
X121628920Y-129001891D01*
X121461891Y-129168920D01*
X121461886Y-129168926D01*
X121326400Y-129362420D01*
X121326399Y-129362422D01*
X121226570Y-129576507D01*
X121226567Y-129576513D01*
X121169364Y-129789999D01*
X121169364Y-129790000D01*
X122066988Y-129790000D01*
X122034075Y-129847007D01*
X122000000Y-129974174D01*
X122000000Y-130105826D01*
X122034075Y-130232993D01*
X122066988Y-130290000D01*
X121169364Y-130290000D01*
X121226567Y-130503486D01*
X121226570Y-130503492D01*
X121326399Y-130717578D01*
X121461894Y-130911082D01*
X121628917Y-131078105D01*
X121822421Y-131213600D01*
X122036507Y-131313429D01*
X122036516Y-131313433D01*
X122250000Y-131370634D01*
X122250000Y-130473012D01*
X122307007Y-130505925D01*
X122434174Y-130540000D01*
X122565826Y-130540000D01*
X122692993Y-130505925D01*
X122750000Y-130473012D01*
X122750000Y-131370633D01*
X122963483Y-131313433D01*
X122963492Y-131313429D01*
X123177578Y-131213600D01*
X123371082Y-131078105D01*
X123538105Y-130911082D01*
X123673600Y-130717578D01*
X123773429Y-130503492D01*
X123773432Y-130503486D01*
X123830636Y-130290000D01*
X122933012Y-130290000D01*
X122965925Y-130232993D01*
X123000000Y-130105826D01*
X123000000Y-129974174D01*
X122965925Y-129847007D01*
X122933012Y-129790000D01*
X123830636Y-129790000D01*
X123830635Y-129789999D01*
X123773432Y-129576513D01*
X123773429Y-129576507D01*
X123673600Y-129362422D01*
X123673599Y-129362420D01*
X123538113Y-129168926D01*
X123538108Y-129168920D01*
X123371078Y-129001890D01*
X123185405Y-128871879D01*
X123141780Y-128817302D01*
X123134588Y-128747804D01*
X123166110Y-128685449D01*
X123185406Y-128668730D01*
X123371401Y-128538495D01*
X123538495Y-128371401D01*
X123674035Y-128177830D01*
X123773903Y-127963663D01*
X123835063Y-127735408D01*
X123855659Y-127500000D01*
X123835063Y-127264592D01*
X123773903Y-127036337D01*
X123674035Y-126822171D01*
X123538495Y-126628599D01*
X123538494Y-126628597D01*
X123371402Y-126461506D01*
X123371396Y-126461501D01*
X123185842Y-126331575D01*
X123142217Y-126276998D01*
X123135023Y-126207500D01*
X123166546Y-126145145D01*
X123185842Y-126128425D01*
X123208026Y-126112891D01*
X123371401Y-125998495D01*
X123538495Y-125831401D01*
X123674035Y-125637830D01*
X123773903Y-125423663D01*
X123835063Y-125195408D01*
X123855659Y-124960000D01*
X123835063Y-124724592D01*
X123774885Y-124500003D01*
X123773905Y-124496344D01*
X123773904Y-124496343D01*
X123773903Y-124496337D01*
X123674035Y-124282171D01*
X123645195Y-124240982D01*
X123538494Y-124088597D01*
X123371402Y-123921506D01*
X123371396Y-123921501D01*
X123185842Y-123791575D01*
X123142217Y-123736998D01*
X123135023Y-123667500D01*
X123166546Y-123605145D01*
X123185842Y-123588425D01*
X123277800Y-123524035D01*
X123371401Y-123458495D01*
X123538495Y-123291401D01*
X123674035Y-123097830D01*
X123773903Y-122883663D01*
X123835063Y-122655408D01*
X123855659Y-122420000D01*
X123835063Y-122184592D01*
X123773903Y-121956337D01*
X123674035Y-121742171D01*
X123665383Y-121729815D01*
X123538496Y-121548600D01*
X123505035Y-121515139D01*
X123416567Y-121426671D01*
X123383084Y-121365351D01*
X123388068Y-121295659D01*
X123429939Y-121239725D01*
X123460915Y-121222810D01*
X123592331Y-121173796D01*
X123707546Y-121087546D01*
X123793796Y-120972331D01*
X123844091Y-120837483D01*
X123850500Y-120777873D01*
X123850499Y-118982128D01*
X123844091Y-118922517D01*
X123816521Y-118848599D01*
X123793797Y-118787671D01*
X123793793Y-118787664D01*
X123707547Y-118672455D01*
X123707544Y-118672452D01*
X123592335Y-118586206D01*
X123592328Y-118586202D01*
X123457482Y-118535908D01*
X123457483Y-118535908D01*
X123397883Y-118529501D01*
X123397881Y-118529500D01*
X123397873Y-118529500D01*
X123397864Y-118529500D01*
X121602129Y-118529500D01*
X121602123Y-118529501D01*
X121542516Y-118535908D01*
X121407671Y-118586202D01*
X121407664Y-118586206D01*
X121292455Y-118672452D01*
X121292452Y-118672455D01*
X121206206Y-118787664D01*
X121206202Y-118787671D01*
X121155908Y-118922517D01*
X121149501Y-118982116D01*
X121149501Y-118982123D01*
X121149500Y-118982135D01*
X121149500Y-120777870D01*
X121149501Y-120777876D01*
X121155908Y-120837483D01*
X121206202Y-120972328D01*
X121206206Y-120972335D01*
X121292452Y-121087544D01*
X121292455Y-121087547D01*
X121407664Y-121173793D01*
X121407671Y-121173797D01*
X121539081Y-121222810D01*
X121595015Y-121264681D01*
X121619432Y-121330145D01*
X121604580Y-121398418D01*
X121583430Y-121426673D01*
X121461503Y-121548600D01*
X121325965Y-121742169D01*
X121325964Y-121742171D01*
X121226098Y-121956335D01*
X121226094Y-121956344D01*
X121164938Y-122184586D01*
X121164936Y-122184596D01*
X121144341Y-122419999D01*
X119500500Y-122419999D01*
X119500500Y-73393713D01*
X121024500Y-73393713D01*
X121024500Y-73606286D01*
X121048120Y-73755420D01*
X121057754Y-73816243D01*
X121117460Y-73999999D01*
X121123444Y-74018414D01*
X121219951Y-74207820D01*
X121344890Y-74379786D01*
X121495209Y-74530105D01*
X121495214Y-74530109D01*
X121659793Y-74649682D01*
X121702459Y-74705011D01*
X121708438Y-74774625D01*
X121675833Y-74836420D01*
X121659793Y-74850318D01*
X121495214Y-74969890D01*
X121495209Y-74969894D01*
X121344890Y-75120213D01*
X121219951Y-75292179D01*
X121123444Y-75481585D01*
X121057753Y-75683760D01*
X121024500Y-75893713D01*
X121024500Y-76106286D01*
X121055908Y-76304592D01*
X121057754Y-76316243D01*
X121112232Y-76483909D01*
X121123444Y-76518414D01*
X121219951Y-76707820D01*
X121344890Y-76879786D01*
X121495213Y-77030109D01*
X121667179Y-77155048D01*
X121667181Y-77155049D01*
X121667184Y-77155051D01*
X121856588Y-77251557D01*
X122058757Y-77317246D01*
X122268713Y-77350500D01*
X122268714Y-77350500D01*
X122731286Y-77350500D01*
X122731287Y-77350500D01*
X122941243Y-77317246D01*
X123143412Y-77251557D01*
X123332816Y-77155051D01*
X123417321Y-77093655D01*
X123504786Y-77030109D01*
X123504788Y-77030106D01*
X123504792Y-77030104D01*
X123655104Y-76879792D01*
X123655106Y-76879788D01*
X123655109Y-76879786D01*
X123780048Y-76707820D01*
X123780047Y-76707820D01*
X123780051Y-76707816D01*
X123876557Y-76518412D01*
X123942246Y-76316243D01*
X123975500Y-76106287D01*
X123975500Y-75893713D01*
X123942246Y-75683757D01*
X123876557Y-75481588D01*
X123780051Y-75292184D01*
X123780049Y-75292181D01*
X123780048Y-75292179D01*
X123655109Y-75120213D01*
X123504792Y-74969896D01*
X123504784Y-74969890D01*
X123428775Y-74914666D01*
X123386110Y-74859338D01*
X123380131Y-74789725D01*
X123412736Y-74727929D01*
X123473575Y-74693572D01*
X123502815Y-74692144D01*
X123502815Y-74690501D01*
X123676653Y-74690501D01*
X123676669Y-74690500D01*
X128700501Y-74690500D01*
X128767540Y-74710185D01*
X128813295Y-74762989D01*
X128824501Y-74814500D01*
X128824501Y-74987876D01*
X128830908Y-75047483D01*
X128881202Y-75182328D01*
X128881206Y-75182335D01*
X128967452Y-75297544D01*
X128967455Y-75297547D01*
X129082664Y-75383793D01*
X129082671Y-75383797D01*
X129214081Y-75432810D01*
X129270015Y-75474681D01*
X129294432Y-75540145D01*
X129279580Y-75608418D01*
X129258430Y-75636673D01*
X129136503Y-75758600D01*
X129001348Y-75951623D01*
X128946771Y-75995248D01*
X128899773Y-76004500D01*
X128421918Y-76004500D01*
X128354879Y-75984815D01*
X128353027Y-75983602D01*
X128347509Y-75979915D01*
X128306374Y-75952429D01*
X128296286Y-75945688D01*
X128195452Y-75903922D01*
X128192501Y-75902699D01*
X128182455Y-75898538D01*
X128182453Y-75898537D01*
X128182452Y-75898537D01*
X128122029Y-75886518D01*
X128061610Y-75874500D01*
X128061607Y-75874500D01*
X128061606Y-75874500D01*
X127061607Y-75874500D01*
X126938393Y-75874500D01*
X126938389Y-75874500D01*
X126877971Y-75886518D01*
X126817548Y-75898537D01*
X126817547Y-75898537D01*
X126817544Y-75898538D01*
X126817543Y-75898538D01*
X126805362Y-75903584D01*
X126804548Y-75903922D01*
X126743686Y-75929131D01*
X126703711Y-75945689D01*
X126693627Y-75952428D01*
X126693626Y-75952429D01*
X126601268Y-76014140D01*
X126557705Y-76057703D01*
X126514142Y-76101267D01*
X126514139Y-76101270D01*
X126101270Y-76514139D01*
X126101267Y-76514142D01*
X126075410Y-76539999D01*
X126014142Y-76601266D01*
X125988578Y-76639526D01*
X125988577Y-76639525D01*
X125945689Y-76703712D01*
X125945685Y-76703719D01*
X125915992Y-76775407D01*
X125898539Y-76817541D01*
X125898535Y-76817555D01*
X125874500Y-76938389D01*
X125874500Y-81689547D01*
X125854815Y-81756586D01*
X125838181Y-81777228D01*
X124186680Y-83428728D01*
X124125357Y-83462213D01*
X124055665Y-83457229D01*
X123999732Y-83415357D01*
X123975315Y-83349893D01*
X123974999Y-83341047D01*
X123974999Y-82850028D01*
X123974998Y-82850013D01*
X123964505Y-82747302D01*
X123909358Y-82580880D01*
X123909356Y-82580875D01*
X123817315Y-82431654D01*
X123693345Y-82307684D01*
X123544124Y-82215643D01*
X123544119Y-82215641D01*
X123377697Y-82160494D01*
X123377690Y-82160493D01*
X123274986Y-82150000D01*
X122750000Y-82150000D01*
X122750000Y-83095854D01*
X122683343Y-83057370D01*
X122562535Y-83025000D01*
X122437465Y-83025000D01*
X122316657Y-83057370D01*
X122250000Y-83095854D01*
X122250000Y-82150000D01*
X121725028Y-82150000D01*
X121725012Y-82150001D01*
X121622302Y-82160494D01*
X121455880Y-82215641D01*
X121455875Y-82215643D01*
X121306654Y-82307684D01*
X121182684Y-82431654D01*
X121090643Y-82580875D01*
X121090641Y-82580880D01*
X121035494Y-82747302D01*
X121035493Y-82747309D01*
X121025000Y-82850013D01*
X121025000Y-83250000D01*
X122095854Y-83250000D01*
X122057370Y-83316657D01*
X122025000Y-83437465D01*
X122025000Y-83562535D01*
X122057370Y-83683343D01*
X122095854Y-83750000D01*
X121025001Y-83750000D01*
X121025001Y-84149986D01*
X121035494Y-84252697D01*
X121090641Y-84419119D01*
X121090643Y-84419124D01*
X121182684Y-84568345D01*
X121306654Y-84692315D01*
X121461484Y-84787815D01*
X121508208Y-84839763D01*
X121519431Y-84908726D01*
X121491587Y-84972808D01*
X121484069Y-84981035D01*
X121344889Y-85120215D01*
X121219951Y-85292179D01*
X121123444Y-85481585D01*
X121057753Y-85683760D01*
X121024500Y-85893713D01*
X121024500Y-86106286D01*
X121051663Y-86277791D01*
X121057754Y-86316243D01*
X121065633Y-86340493D01*
X121123444Y-86518414D01*
X121219951Y-86707820D01*
X121344890Y-86879786D01*
X121495209Y-87030105D01*
X121495214Y-87030109D01*
X121659793Y-87149682D01*
X121702459Y-87205011D01*
X121708438Y-87274625D01*
X121675833Y-87336420D01*
X121659793Y-87350318D01*
X121495214Y-87469890D01*
X121495209Y-87469894D01*
X121344890Y-87620213D01*
X121219951Y-87792179D01*
X121123444Y-87981585D01*
X121057753Y-88183760D01*
X121026176Y-88383132D01*
X121024500Y-88393713D01*
X121024500Y-88606287D01*
X121028227Y-88629816D01*
X121056561Y-88808716D01*
X121057754Y-88816243D01*
X121123379Y-89018216D01*
X121123444Y-89018414D01*
X121219951Y-89207820D01*
X121344890Y-89379786D01*
X121495213Y-89530109D01*
X121667179Y-89655048D01*
X121667181Y-89655049D01*
X121667184Y-89655051D01*
X121856588Y-89751557D01*
X122058757Y-89817246D01*
X122268713Y-89850500D01*
X122268714Y-89850500D01*
X122731286Y-89850500D01*
X122731287Y-89850500D01*
X122941243Y-89817246D01*
X123143412Y-89751557D01*
X123332816Y-89655051D01*
X123354789Y-89639086D01*
X123504786Y-89530109D01*
X123504788Y-89530106D01*
X123504792Y-89530104D01*
X123655104Y-89379792D01*
X123655106Y-89379788D01*
X123655109Y-89379786D01*
X123780048Y-89207820D01*
X123780047Y-89207820D01*
X123780051Y-89207816D01*
X123876557Y-89018412D01*
X123942246Y-88816243D01*
X123975500Y-88606287D01*
X123975500Y-88393713D01*
X123942246Y-88183757D01*
X123876557Y-87981588D01*
X123780051Y-87792184D01*
X123780049Y-87792181D01*
X123780048Y-87792179D01*
X123655109Y-87620213D01*
X123504792Y-87469896D01*
X123501948Y-87467830D01*
X123340204Y-87350316D01*
X123297540Y-87294989D01*
X123291561Y-87225376D01*
X123324166Y-87163580D01*
X123340199Y-87149686D01*
X123504792Y-87030104D01*
X123655104Y-86879792D01*
X123655106Y-86879788D01*
X123655109Y-86879786D01*
X123780048Y-86707820D01*
X123780047Y-86707820D01*
X123780051Y-86707816D01*
X123876557Y-86518412D01*
X123942246Y-86316243D01*
X123975500Y-86106287D01*
X123975500Y-85893713D01*
X123942246Y-85683757D01*
X123906522Y-85573813D01*
X123904528Y-85503973D01*
X123936771Y-85447817D01*
X125662820Y-83721768D01*
X125724142Y-83688285D01*
X125793834Y-83693269D01*
X125849767Y-83735141D01*
X125874184Y-83800605D01*
X125874500Y-83809451D01*
X125874500Y-94189547D01*
X125854815Y-94256586D01*
X125838181Y-94277228D01*
X124186680Y-95928728D01*
X124125357Y-95962213D01*
X124055665Y-95957229D01*
X123999732Y-95915357D01*
X123975315Y-95849893D01*
X123974999Y-95841047D01*
X123974999Y-95350028D01*
X123974998Y-95350013D01*
X123964505Y-95247302D01*
X123909358Y-95080880D01*
X123909356Y-95080875D01*
X123817315Y-94931654D01*
X123693345Y-94807684D01*
X123544124Y-94715643D01*
X123544119Y-94715641D01*
X123377697Y-94660494D01*
X123377690Y-94660493D01*
X123274986Y-94650000D01*
X122750000Y-94650000D01*
X122750000Y-95595854D01*
X122683343Y-95557370D01*
X122562535Y-95525000D01*
X122437465Y-95525000D01*
X122316657Y-95557370D01*
X122250000Y-95595854D01*
X122250000Y-94650000D01*
X121725028Y-94650000D01*
X121725012Y-94650001D01*
X121622302Y-94660494D01*
X121455880Y-94715641D01*
X121455875Y-94715643D01*
X121306654Y-94807684D01*
X121182684Y-94931654D01*
X121090643Y-95080875D01*
X121090641Y-95080880D01*
X121035494Y-95247302D01*
X121035493Y-95247309D01*
X121025000Y-95350013D01*
X121025000Y-95750000D01*
X122095854Y-95750000D01*
X122057370Y-95816657D01*
X122025000Y-95937465D01*
X122025000Y-96062535D01*
X122057370Y-96183343D01*
X122095854Y-96250000D01*
X121025001Y-96250000D01*
X121025001Y-96649986D01*
X121035494Y-96752697D01*
X121090641Y-96919119D01*
X121090643Y-96919124D01*
X121182684Y-97068345D01*
X121306654Y-97192315D01*
X121461484Y-97287815D01*
X121508208Y-97339763D01*
X121519431Y-97408726D01*
X121491587Y-97472808D01*
X121484069Y-97481035D01*
X121344889Y-97620215D01*
X121219951Y-97792179D01*
X121123444Y-97981585D01*
X121123443Y-97981587D01*
X121123443Y-97981588D01*
X121111663Y-98017844D01*
X121057753Y-98183760D01*
X121024500Y-98393713D01*
X121024500Y-98606286D01*
X121057108Y-98812169D01*
X121057754Y-98816243D01*
X121096777Y-98936344D01*
X121123444Y-99018414D01*
X121219951Y-99207820D01*
X121344890Y-99379786D01*
X121495209Y-99530105D01*
X121495214Y-99530109D01*
X121659793Y-99649682D01*
X121702459Y-99705011D01*
X121708438Y-99774625D01*
X121675833Y-99836420D01*
X121659793Y-99850318D01*
X121495214Y-99969890D01*
X121495209Y-99969894D01*
X121344890Y-100120213D01*
X121219951Y-100292179D01*
X121123444Y-100481585D01*
X121057753Y-100683760D01*
X121034305Y-100831804D01*
X121024500Y-100893713D01*
X121024500Y-101106287D01*
X121057754Y-101316243D01*
X121109774Y-101476344D01*
X121123444Y-101518414D01*
X121219951Y-101707820D01*
X121344890Y-101879786D01*
X121495213Y-102030109D01*
X121667179Y-102155048D01*
X121667181Y-102155049D01*
X121667184Y-102155051D01*
X121856588Y-102251557D01*
X122058757Y-102317246D01*
X122268713Y-102350500D01*
X122268714Y-102350500D01*
X122731286Y-102350500D01*
X122731287Y-102350500D01*
X122941243Y-102317246D01*
X123143412Y-102251557D01*
X123332816Y-102155051D01*
X123354789Y-102139086D01*
X123504786Y-102030109D01*
X123504788Y-102030106D01*
X123504792Y-102030104D01*
X123655104Y-101879792D01*
X123655106Y-101879788D01*
X123655109Y-101879786D01*
X123780048Y-101707820D01*
X123780047Y-101707820D01*
X123780051Y-101707816D01*
X123876557Y-101518412D01*
X123942246Y-101316243D01*
X123975500Y-101106287D01*
X123975500Y-100893713D01*
X123942246Y-100683757D01*
X123876557Y-100481588D01*
X123780051Y-100292184D01*
X123780049Y-100292181D01*
X123780048Y-100292179D01*
X123655109Y-100120213D01*
X123504792Y-99969896D01*
X123435149Y-99919298D01*
X123340204Y-99850316D01*
X123297540Y-99794989D01*
X123291561Y-99725376D01*
X123324166Y-99663580D01*
X123340199Y-99649686D01*
X123504792Y-99530104D01*
X123655104Y-99379792D01*
X123655106Y-99379788D01*
X123655109Y-99379786D01*
X123780048Y-99207820D01*
X123780047Y-99207820D01*
X123780051Y-99207816D01*
X123876557Y-99018412D01*
X123942246Y-98816243D01*
X123975500Y-98606287D01*
X123975500Y-98393713D01*
X123942246Y-98183757D01*
X123906522Y-98073813D01*
X123904528Y-98003973D01*
X123936771Y-97947817D01*
X126687819Y-95196770D01*
X126749142Y-95163285D01*
X126818834Y-95168269D01*
X126874767Y-95210141D01*
X126899184Y-95275605D01*
X126899500Y-95284451D01*
X126899500Y-105699902D01*
X126879815Y-105766941D01*
X126863181Y-105787583D01*
X123937083Y-108713681D01*
X123875760Y-108747166D01*
X123849402Y-108750000D01*
X122904146Y-108750000D01*
X122942630Y-108683343D01*
X122975000Y-108562535D01*
X122975000Y-108437465D01*
X122942630Y-108316657D01*
X122904146Y-108250000D01*
X123974999Y-108250000D01*
X123974999Y-107850028D01*
X123974998Y-107850013D01*
X123964505Y-107747302D01*
X123909358Y-107580880D01*
X123909356Y-107580875D01*
X123817315Y-107431654D01*
X123693345Y-107307684D01*
X123544124Y-107215643D01*
X123544119Y-107215641D01*
X123377697Y-107160494D01*
X123377690Y-107160493D01*
X123274986Y-107150000D01*
X122750000Y-107150000D01*
X122750000Y-108095854D01*
X122683343Y-108057370D01*
X122562535Y-108025000D01*
X122437465Y-108025000D01*
X122316657Y-108057370D01*
X122250000Y-108095854D01*
X122250000Y-107150000D01*
X121725028Y-107150000D01*
X121725012Y-107150001D01*
X121622302Y-107160494D01*
X121455880Y-107215641D01*
X121455875Y-107215643D01*
X121306654Y-107307684D01*
X121182684Y-107431654D01*
X121090643Y-107580875D01*
X121090641Y-107580880D01*
X121035494Y-107747302D01*
X121035493Y-107747309D01*
X121025000Y-107850013D01*
X121025000Y-108250000D01*
X122095854Y-108250000D01*
X122057370Y-108316657D01*
X122025000Y-108437465D01*
X122025000Y-108562535D01*
X122057370Y-108683343D01*
X122095854Y-108750000D01*
X121025001Y-108750000D01*
X121025001Y-109149986D01*
X121035494Y-109252697D01*
X121090641Y-109419119D01*
X121090643Y-109419124D01*
X121182684Y-109568345D01*
X121306654Y-109692315D01*
X121461484Y-109787815D01*
X121508208Y-109839763D01*
X121519431Y-109908726D01*
X121491587Y-109972808D01*
X121484069Y-109981035D01*
X121344889Y-110120215D01*
X121219951Y-110292179D01*
X121123444Y-110481585D01*
X121057753Y-110683760D01*
X121030581Y-110855321D01*
X121024500Y-110893713D01*
X121024500Y-111106287D01*
X121057754Y-111316243D01*
X121121415Y-111512171D01*
X121123444Y-111518414D01*
X121219951Y-111707820D01*
X121344890Y-111879786D01*
X121495209Y-112030105D01*
X121495214Y-112030109D01*
X121659793Y-112149682D01*
X121702459Y-112205011D01*
X121708438Y-112274625D01*
X121675833Y-112336420D01*
X121659793Y-112350318D01*
X121495214Y-112469890D01*
X121495209Y-112469894D01*
X121344890Y-112620213D01*
X121219951Y-112792179D01*
X121123444Y-112981585D01*
X121057753Y-113183760D01*
X121024500Y-113393713D01*
X121024500Y-113606286D01*
X121056707Y-113809637D01*
X121057754Y-113816243D01*
X121122334Y-114015000D01*
X121123444Y-114018414D01*
X121219951Y-114207820D01*
X121344890Y-114379786D01*
X121495213Y-114530109D01*
X121667179Y-114655048D01*
X121667181Y-114655049D01*
X121667184Y-114655051D01*
X121856588Y-114751557D01*
X122058757Y-114817246D01*
X122268713Y-114850500D01*
X122268714Y-114850500D01*
X122736160Y-114850500D01*
X122736160Y-114852504D01*
X122796258Y-114865106D01*
X122825333Y-114886701D01*
X124213181Y-116274549D01*
X124246666Y-116335872D01*
X124249500Y-116362230D01*
X124249500Y-124200028D01*
X124242542Y-124240982D01*
X124214631Y-124320747D01*
X124194435Y-124499996D01*
X124194435Y-124500003D01*
X124214630Y-124679249D01*
X124214631Y-124679254D01*
X124274211Y-124849523D01*
X124343628Y-124959999D01*
X124370184Y-125002262D01*
X124497738Y-125129816D01*
X124650478Y-125225789D01*
X124820745Y-125285368D01*
X124820750Y-125285369D01*
X124999996Y-125305565D01*
X125000000Y-125305565D01*
X125000004Y-125305565D01*
X125179249Y-125285369D01*
X125179252Y-125285368D01*
X125179255Y-125285368D01*
X125349522Y-125225789D01*
X125502262Y-125129816D01*
X125629816Y-125002262D01*
X125725789Y-124849522D01*
X125785368Y-124679255D01*
X125805565Y-124500000D01*
X125805153Y-124496344D01*
X125785368Y-124320747D01*
X125785368Y-124320745D01*
X125757458Y-124240982D01*
X125750500Y-124200028D01*
X125750500Y-115926079D01*
X125721659Y-115781092D01*
X125721658Y-115781091D01*
X125721658Y-115781087D01*
X125721656Y-115781082D01*
X125665085Y-115644507D01*
X125665084Y-115644505D01*
X125592245Y-115535493D01*
X125582952Y-115521584D01*
X125582950Y-115521581D01*
X123978084Y-113916716D01*
X123944599Y-113855393D01*
X123943292Y-113809637D01*
X123962003Y-113691506D01*
X123975500Y-113606287D01*
X123975500Y-113393713D01*
X123942246Y-113183757D01*
X123876557Y-112981588D01*
X123780051Y-112792184D01*
X123780049Y-112792181D01*
X123780048Y-112792179D01*
X123655109Y-112620213D01*
X123504792Y-112469896D01*
X123443552Y-112425403D01*
X123340204Y-112350316D01*
X123297540Y-112294989D01*
X123291561Y-112225376D01*
X123324166Y-112163580D01*
X123340199Y-112149686D01*
X123504792Y-112030104D01*
X123655104Y-111879792D01*
X123655106Y-111879788D01*
X123655109Y-111879786D01*
X123780048Y-111707820D01*
X123780047Y-111707820D01*
X123780051Y-111707816D01*
X123876557Y-111518412D01*
X123942246Y-111316243D01*
X123975500Y-111106287D01*
X123975500Y-110893713D01*
X123942246Y-110683757D01*
X123897851Y-110547126D01*
X123895857Y-110477290D01*
X123928100Y-110421133D01*
X127858506Y-106490728D01*
X127858511Y-106490724D01*
X127868714Y-106480520D01*
X127868716Y-106480520D01*
X127980520Y-106368716D01*
X128045884Y-106255501D01*
X128059577Y-106231785D01*
X128100501Y-106079057D01*
X128100501Y-105920943D01*
X128100501Y-105913348D01*
X128100500Y-105913330D01*
X128100500Y-84974500D01*
X128120185Y-84907461D01*
X128172989Y-84861706D01*
X128224500Y-84850500D01*
X128885909Y-84850500D01*
X128952948Y-84870185D01*
X128998292Y-84922097D01*
X129000965Y-84927830D01*
X129121017Y-85099282D01*
X129136501Y-85121395D01*
X129136506Y-85121402D01*
X129303597Y-85288493D01*
X129303603Y-85288498D01*
X129489158Y-85418425D01*
X129532783Y-85473002D01*
X129539977Y-85542500D01*
X129508454Y-85604855D01*
X129489158Y-85621575D01*
X129303597Y-85751505D01*
X129136505Y-85918597D01*
X129000965Y-86112169D01*
X129000964Y-86112171D01*
X128901098Y-86326335D01*
X128901094Y-86326344D01*
X128839938Y-86554586D01*
X128839936Y-86554596D01*
X128819341Y-86789999D01*
X128819341Y-86790000D01*
X128839936Y-87025403D01*
X128839938Y-87025413D01*
X128901094Y-87253655D01*
X128901096Y-87253659D01*
X128901097Y-87253663D01*
X128955868Y-87371119D01*
X129000965Y-87467830D01*
X129000967Y-87467834D01*
X129073482Y-87571395D01*
X129115987Y-87632099D01*
X129136501Y-87661395D01*
X129136506Y-87661402D01*
X129303597Y-87828493D01*
X129303603Y-87828498D01*
X129489158Y-87958425D01*
X129532783Y-88013002D01*
X129539977Y-88082500D01*
X129508454Y-88144855D01*
X129489158Y-88161575D01*
X129303597Y-88291505D01*
X129136505Y-88458597D01*
X129000965Y-88652169D01*
X129000964Y-88652171D01*
X128901098Y-88866335D01*
X128901094Y-88866344D01*
X128839938Y-89094586D01*
X128839936Y-89094596D01*
X128819341Y-89329999D01*
X128819341Y-89330000D01*
X128839936Y-89565403D01*
X128839938Y-89565413D01*
X128901094Y-89793655D01*
X128901096Y-89793659D01*
X128901097Y-89793663D01*
X129000965Y-90007830D01*
X129000967Y-90007834D01*
X129136501Y-90201395D01*
X129136506Y-90201402D01*
X129303597Y-90368493D01*
X129303603Y-90368498D01*
X129489158Y-90498425D01*
X129532783Y-90553002D01*
X129539977Y-90622500D01*
X129508454Y-90684855D01*
X129489158Y-90701575D01*
X129303597Y-90831505D01*
X129136505Y-90998597D01*
X129000965Y-91192169D01*
X129000964Y-91192171D01*
X128901098Y-91406335D01*
X128901094Y-91406344D01*
X128839938Y-91634586D01*
X128839936Y-91634596D01*
X128819341Y-91869999D01*
X128819341Y-91870000D01*
X128839936Y-92105403D01*
X128839938Y-92105413D01*
X128901094Y-92333655D01*
X128901096Y-92333659D01*
X128901097Y-92333663D01*
X128952751Y-92444435D01*
X129000965Y-92547830D01*
X129000967Y-92547834D01*
X129022830Y-92579057D01*
X129129772Y-92731786D01*
X129136501Y-92741395D01*
X129136506Y-92741402D01*
X129303597Y-92908493D01*
X129303603Y-92908498D01*
X129489158Y-93038425D01*
X129532783Y-93093002D01*
X129539977Y-93162500D01*
X129508454Y-93224855D01*
X129489158Y-93241575D01*
X129303597Y-93371505D01*
X129136505Y-93538597D01*
X129000965Y-93732169D01*
X129000964Y-93732171D01*
X128901098Y-93946335D01*
X128901094Y-93946344D01*
X128839938Y-94174586D01*
X128839936Y-94174596D01*
X128819341Y-94409999D01*
X128819341Y-94410000D01*
X128839936Y-94645403D01*
X128839938Y-94645413D01*
X128901094Y-94873655D01*
X128901096Y-94873659D01*
X128901097Y-94873663D01*
X128958997Y-94997830D01*
X129000965Y-95087830D01*
X129000967Y-95087834D01*
X129136501Y-95281395D01*
X129136506Y-95281402D01*
X129303597Y-95448493D01*
X129303603Y-95448498D01*
X129489158Y-95578425D01*
X129532783Y-95633002D01*
X129539977Y-95702500D01*
X129508454Y-95764855D01*
X129489158Y-95781575D01*
X129303597Y-95911505D01*
X129136505Y-96078597D01*
X129000965Y-96272169D01*
X129000964Y-96272171D01*
X128901098Y-96486335D01*
X128901094Y-96486344D01*
X128839938Y-96714586D01*
X128839936Y-96714596D01*
X128819341Y-96949999D01*
X128819341Y-96950000D01*
X128839936Y-97185403D01*
X128839938Y-97185413D01*
X128901094Y-97413655D01*
X128901096Y-97413659D01*
X128901097Y-97413663D01*
X128950729Y-97520099D01*
X129000965Y-97627830D01*
X129000967Y-97627834D01*
X129136501Y-97821395D01*
X129136506Y-97821402D01*
X129303597Y-97988493D01*
X129303603Y-97988498D01*
X129489158Y-98118425D01*
X129532783Y-98173002D01*
X129539977Y-98242500D01*
X129508454Y-98304855D01*
X129489158Y-98321575D01*
X129303597Y-98451505D01*
X129136505Y-98618597D01*
X129000965Y-98812169D01*
X129000964Y-98812171D01*
X128901098Y-99026335D01*
X128901094Y-99026344D01*
X128839938Y-99254586D01*
X128839936Y-99254596D01*
X128819341Y-99489999D01*
X128819341Y-99490000D01*
X128839936Y-99725403D01*
X128839938Y-99725413D01*
X128901094Y-99953655D01*
X128901096Y-99953659D01*
X128901097Y-99953663D01*
X128978761Y-100120213D01*
X129000965Y-100167830D01*
X129000967Y-100167834D01*
X129136501Y-100361395D01*
X129136506Y-100361402D01*
X129303597Y-100528493D01*
X129303603Y-100528498D01*
X129489158Y-100658425D01*
X129532783Y-100713002D01*
X129539977Y-100782500D01*
X129508454Y-100844855D01*
X129489158Y-100861575D01*
X129303597Y-100991505D01*
X129136505Y-101158597D01*
X129000965Y-101352169D01*
X129000964Y-101352171D01*
X128901098Y-101566335D01*
X128901094Y-101566344D01*
X128839938Y-101794586D01*
X128839936Y-101794596D01*
X128819341Y-102029999D01*
X128819341Y-102030000D01*
X128839936Y-102265403D01*
X128839938Y-102265413D01*
X128901094Y-102493655D01*
X128901096Y-102493659D01*
X128901097Y-102493663D01*
X128958997Y-102617830D01*
X129000965Y-102707830D01*
X129000967Y-102707834D01*
X129136501Y-102901395D01*
X129136506Y-102901402D01*
X129303597Y-103068493D01*
X129303603Y-103068498D01*
X129489158Y-103198425D01*
X129532783Y-103253002D01*
X129539977Y-103322500D01*
X129508454Y-103384855D01*
X129489158Y-103401575D01*
X129303597Y-103531505D01*
X129136505Y-103698597D01*
X129000965Y-103892169D01*
X129000964Y-103892171D01*
X128952143Y-103996869D01*
X128901721Y-104105000D01*
X128901098Y-104106335D01*
X128901094Y-104106344D01*
X128839938Y-104334586D01*
X128839936Y-104334596D01*
X128819341Y-104569999D01*
X128819341Y-104570000D01*
X128839936Y-104805403D01*
X128839938Y-104805413D01*
X128901094Y-105033655D01*
X128901096Y-105033659D01*
X128901097Y-105033663D01*
X128902238Y-105036109D01*
X129000965Y-105247830D01*
X129000967Y-105247834D01*
X129136501Y-105441395D01*
X129136506Y-105441402D01*
X129303597Y-105608493D01*
X129303603Y-105608498D01*
X129489158Y-105738425D01*
X129532783Y-105793002D01*
X129539977Y-105862500D01*
X129508454Y-105924855D01*
X129489158Y-105941575D01*
X129303597Y-106071505D01*
X129136505Y-106238597D01*
X129000965Y-106432169D01*
X129000964Y-106432171D01*
X128907401Y-106632816D01*
X128901721Y-106645000D01*
X128901098Y-106646335D01*
X128901094Y-106646344D01*
X128839938Y-106874586D01*
X128839936Y-106874596D01*
X128819341Y-107109999D01*
X128819341Y-107110000D01*
X128839936Y-107345403D01*
X128839938Y-107345413D01*
X128901094Y-107573655D01*
X128901096Y-107573659D01*
X128901097Y-107573663D01*
X128982070Y-107747309D01*
X129000965Y-107787830D01*
X129000967Y-107787834D01*
X129136501Y-107981395D01*
X129136506Y-107981402D01*
X129303597Y-108148493D01*
X129303603Y-108148498D01*
X129489158Y-108278425D01*
X129532783Y-108333002D01*
X129539977Y-108402500D01*
X129508454Y-108464855D01*
X129489158Y-108481575D01*
X129303597Y-108611505D01*
X129136505Y-108778597D01*
X129000965Y-108972169D01*
X129000964Y-108972171D01*
X128901098Y-109186335D01*
X128901094Y-109186344D01*
X128839938Y-109414586D01*
X128839936Y-109414596D01*
X128819341Y-109649999D01*
X128819341Y-109650000D01*
X128839936Y-109885403D01*
X128839938Y-109885413D01*
X128901094Y-110113655D01*
X128901096Y-110113659D01*
X128901097Y-110113663D01*
X128948180Y-110214632D01*
X129000965Y-110327830D01*
X129000967Y-110327834D01*
X129136501Y-110521395D01*
X129136506Y-110521402D01*
X129303597Y-110688493D01*
X129303603Y-110688498D01*
X129489158Y-110818425D01*
X129532783Y-110873002D01*
X129539977Y-110942500D01*
X129508454Y-111004855D01*
X129489158Y-111021575D01*
X129303597Y-111151505D01*
X129136505Y-111318597D01*
X129000965Y-111512169D01*
X129000964Y-111512171D01*
X128901098Y-111726335D01*
X128901094Y-111726344D01*
X128839938Y-111954586D01*
X128839936Y-111954596D01*
X128819341Y-112189999D01*
X128819341Y-112190000D01*
X128839936Y-112425403D01*
X128839938Y-112425413D01*
X128901094Y-112653655D01*
X128901096Y-112653659D01*
X128901097Y-112653663D01*
X128958997Y-112777830D01*
X129000965Y-112867830D01*
X129000967Y-112867834D01*
X129136501Y-113061395D01*
X129136506Y-113061402D01*
X129303597Y-113228493D01*
X129303603Y-113228498D01*
X129489158Y-113358425D01*
X129532783Y-113413002D01*
X129539977Y-113482500D01*
X129508454Y-113544855D01*
X129489158Y-113561575D01*
X129303597Y-113691505D01*
X129136505Y-113858597D01*
X129000965Y-114052169D01*
X129000964Y-114052171D01*
X128901098Y-114266335D01*
X128901094Y-114266344D01*
X128839938Y-114494586D01*
X128839936Y-114494596D01*
X128819341Y-114729999D01*
X128819341Y-114730000D01*
X128839936Y-114965403D01*
X128839938Y-114965413D01*
X128901094Y-115193655D01*
X128901096Y-115193659D01*
X128901097Y-115193663D01*
X128914488Y-115222379D01*
X129000965Y-115407830D01*
X129000967Y-115407834D01*
X129136501Y-115601395D01*
X129136506Y-115601402D01*
X129303597Y-115768493D01*
X129303603Y-115768498D01*
X129489158Y-115898425D01*
X129532783Y-115953002D01*
X129539977Y-116022500D01*
X129508454Y-116084855D01*
X129489158Y-116101575D01*
X129303597Y-116231505D01*
X129136505Y-116398597D01*
X129000965Y-116592169D01*
X129000964Y-116592171D01*
X128901098Y-116806335D01*
X128901094Y-116806344D01*
X128839938Y-117034586D01*
X128839936Y-117034596D01*
X128819341Y-117269999D01*
X128819341Y-117270000D01*
X128839936Y-117505403D01*
X128839938Y-117505413D01*
X128901094Y-117733655D01*
X128901096Y-117733659D01*
X128901097Y-117733663D01*
X129000847Y-117947578D01*
X129000965Y-117947830D01*
X129000967Y-117947834D01*
X129136501Y-118141395D01*
X129136506Y-118141402D01*
X129303597Y-118308493D01*
X129303603Y-118308498D01*
X129489158Y-118438425D01*
X129532783Y-118493002D01*
X129539977Y-118562500D01*
X129508454Y-118624855D01*
X129489158Y-118641575D01*
X129303597Y-118771505D01*
X129136505Y-118938597D01*
X129000965Y-119132169D01*
X129000964Y-119132171D01*
X128901098Y-119346335D01*
X128901094Y-119346344D01*
X128839938Y-119574586D01*
X128839936Y-119574596D01*
X128819341Y-119809999D01*
X128819341Y-119810000D01*
X128839936Y-120045403D01*
X128839938Y-120045413D01*
X128901094Y-120273655D01*
X128901096Y-120273659D01*
X128901097Y-120273663D01*
X128973839Y-120429658D01*
X129000965Y-120487830D01*
X129000967Y-120487834D01*
X129136501Y-120681395D01*
X129136506Y-120681402D01*
X129303597Y-120848493D01*
X129303603Y-120848498D01*
X129489158Y-120978425D01*
X129532783Y-121033002D01*
X129539977Y-121102500D01*
X129508454Y-121164855D01*
X129489158Y-121181575D01*
X129303597Y-121311505D01*
X129136505Y-121478597D01*
X129000965Y-121672169D01*
X129000964Y-121672171D01*
X128901098Y-121886335D01*
X128901094Y-121886344D01*
X128839938Y-122114586D01*
X128839936Y-122114596D01*
X128819341Y-122349999D01*
X128819341Y-122350000D01*
X128839936Y-122585403D01*
X128839938Y-122585413D01*
X128901094Y-122813655D01*
X128901096Y-122813659D01*
X128901097Y-122813663D01*
X128964906Y-122950501D01*
X129000965Y-123027830D01*
X129000967Y-123027834D01*
X129049982Y-123097834D01*
X129136505Y-123221401D01*
X129303599Y-123388495D01*
X129368637Y-123434035D01*
X129497165Y-123524032D01*
X129497167Y-123524033D01*
X129497170Y-123524035D01*
X129711337Y-123623903D01*
X129939592Y-123685063D01*
X130127918Y-123701539D01*
X130174999Y-123705659D01*
X130175000Y-123705659D01*
X130175001Y-123705659D01*
X130214234Y-123702226D01*
X130410408Y-123685063D01*
X130638663Y-123623903D01*
X130852830Y-123524035D01*
X131046401Y-123388495D01*
X131213495Y-123221401D01*
X131349035Y-123027830D01*
X131448903Y-122813663D01*
X131510063Y-122585408D01*
X131530659Y-122350000D01*
X131510063Y-122114592D01*
X131448903Y-121886337D01*
X131349035Y-121672171D01*
X131349034Y-121672169D01*
X131213494Y-121478597D01*
X131046402Y-121311506D01*
X131046396Y-121311501D01*
X130860842Y-121181575D01*
X130817217Y-121126998D01*
X130810023Y-121057500D01*
X130841546Y-120995145D01*
X130860842Y-120978425D01*
X130911431Y-120943002D01*
X131046401Y-120848495D01*
X131213495Y-120681401D01*
X131349035Y-120487830D01*
X131448903Y-120273663D01*
X131510063Y-120045408D01*
X131530659Y-119810000D01*
X131510063Y-119574592D01*
X131448903Y-119346337D01*
X131349035Y-119132171D01*
X131349034Y-119132169D01*
X131213494Y-118938597D01*
X131046402Y-118771506D01*
X131046396Y-118771501D01*
X130860842Y-118641575D01*
X130817217Y-118586998D01*
X130810023Y-118517500D01*
X130841546Y-118455145D01*
X130860842Y-118438425D01*
X130933503Y-118387547D01*
X131046401Y-118308495D01*
X131213495Y-118141401D01*
X131349035Y-117947830D01*
X131448903Y-117733663D01*
X131510063Y-117505408D01*
X131530659Y-117270000D01*
X131510063Y-117034592D01*
X131448903Y-116806337D01*
X131349035Y-116592171D01*
X131213495Y-116398599D01*
X131213494Y-116398597D01*
X131046402Y-116231506D01*
X131046396Y-116231501D01*
X130860842Y-116101575D01*
X130817217Y-116046998D01*
X130810023Y-115977500D01*
X130841546Y-115915145D01*
X130860842Y-115898425D01*
X130887420Y-115879815D01*
X131046401Y-115768495D01*
X131213495Y-115601401D01*
X131349035Y-115407830D01*
X131448903Y-115193663D01*
X131510063Y-114965408D01*
X131530659Y-114730000D01*
X131510063Y-114494592D01*
X131448903Y-114266337D01*
X131349035Y-114052171D01*
X131325399Y-114018414D01*
X131213494Y-113858597D01*
X131046402Y-113691506D01*
X131046396Y-113691501D01*
X130860842Y-113561575D01*
X130817217Y-113506998D01*
X130810023Y-113437500D01*
X130841546Y-113375145D01*
X130860842Y-113358425D01*
X130989375Y-113268425D01*
X131046401Y-113228495D01*
X131213495Y-113061401D01*
X131349035Y-112867830D01*
X131448903Y-112653663D01*
X131510063Y-112425408D01*
X131530659Y-112190000D01*
X131528347Y-112163580D01*
X131522785Y-112099999D01*
X131510063Y-111954592D01*
X131448903Y-111726337D01*
X131349035Y-111512171D01*
X131326873Y-111480519D01*
X131213494Y-111318597D01*
X131046402Y-111151506D01*
X131046396Y-111151501D01*
X130860842Y-111021575D01*
X130817217Y-110966998D01*
X130810023Y-110897500D01*
X130841546Y-110835145D01*
X130860842Y-110818425D01*
X130965496Y-110745145D01*
X131046401Y-110688495D01*
X131213495Y-110521401D01*
X131349035Y-110327830D01*
X131448903Y-110113663D01*
X131510063Y-109885408D01*
X131530659Y-109650000D01*
X131510063Y-109414592D01*
X131448903Y-109186337D01*
X131349035Y-108972171D01*
X131328351Y-108942630D01*
X131213494Y-108778597D01*
X131046402Y-108611506D01*
X131046396Y-108611501D01*
X130860842Y-108481575D01*
X130817217Y-108426998D01*
X130810023Y-108357500D01*
X130841546Y-108295145D01*
X130860842Y-108278425D01*
X130989375Y-108188425D01*
X131046401Y-108148495D01*
X131213495Y-107981401D01*
X131349035Y-107787830D01*
X131448903Y-107573663D01*
X131510063Y-107345408D01*
X131530659Y-107110000D01*
X131510063Y-106874592D01*
X131448903Y-106646337D01*
X131349035Y-106432171D01*
X131349034Y-106432169D01*
X131213494Y-106238597D01*
X131046402Y-106071506D01*
X131046396Y-106071501D01*
X130860842Y-105941575D01*
X130817217Y-105886998D01*
X130810023Y-105817500D01*
X130841546Y-105755145D01*
X130860842Y-105738425D01*
X130933503Y-105687547D01*
X131046401Y-105608495D01*
X131213495Y-105441401D01*
X131349035Y-105247830D01*
X131448903Y-105033663D01*
X131510063Y-104805408D01*
X131530659Y-104570000D01*
X131510063Y-104334592D01*
X131448903Y-104106337D01*
X131349035Y-103892171D01*
X131326466Y-103859938D01*
X131213494Y-103698597D01*
X131046402Y-103531506D01*
X131046396Y-103531501D01*
X130860842Y-103401575D01*
X130817217Y-103346998D01*
X130810023Y-103277500D01*
X130841546Y-103215145D01*
X130860842Y-103198425D01*
X130950124Y-103135909D01*
X131046401Y-103068495D01*
X131213495Y-102901401D01*
X131349035Y-102707830D01*
X131448903Y-102493663D01*
X131510063Y-102265408D01*
X131530659Y-102030000D01*
X131510063Y-101794592D01*
X131448903Y-101566337D01*
X131349035Y-101352171D01*
X131345674Y-101347370D01*
X131213494Y-101158597D01*
X131046402Y-100991506D01*
X131046396Y-100991501D01*
X130860842Y-100861575D01*
X130817217Y-100806998D01*
X130810023Y-100737500D01*
X130841546Y-100675145D01*
X130860842Y-100658425D01*
X130981363Y-100574035D01*
X131046401Y-100528495D01*
X131213495Y-100361401D01*
X131349035Y-100167830D01*
X131448903Y-99953663D01*
X131510063Y-99725408D01*
X131530659Y-99490000D01*
X131510063Y-99254592D01*
X131448903Y-99026337D01*
X131349035Y-98812171D01*
X131339964Y-98799215D01*
X131213494Y-98618597D01*
X131046402Y-98451506D01*
X131046396Y-98451501D01*
X130860842Y-98321575D01*
X130817217Y-98266998D01*
X130810023Y-98197500D01*
X130841546Y-98135145D01*
X130860842Y-98118425D01*
X130911431Y-98083002D01*
X131046401Y-97988495D01*
X131213495Y-97821401D01*
X131349035Y-97627830D01*
X131448903Y-97413663D01*
X131510063Y-97185408D01*
X131530659Y-96950000D01*
X131510063Y-96714592D01*
X131463626Y-96541285D01*
X131448905Y-96486344D01*
X131448904Y-96486343D01*
X131448903Y-96486337D01*
X131349035Y-96272171D01*
X131325665Y-96238794D01*
X131213494Y-96078597D01*
X131046402Y-95911506D01*
X131046396Y-95911501D01*
X130860842Y-95781575D01*
X130817217Y-95726998D01*
X130810023Y-95657500D01*
X130841546Y-95595145D01*
X130860842Y-95578425D01*
X130883026Y-95562891D01*
X131046401Y-95448495D01*
X131213495Y-95281401D01*
X131349035Y-95087830D01*
X131448903Y-94873663D01*
X131510063Y-94645408D01*
X131530659Y-94410000D01*
X131510063Y-94174592D01*
X131448903Y-93946337D01*
X131349035Y-93732171D01*
X131332529Y-93708597D01*
X131213494Y-93538597D01*
X131046402Y-93371506D01*
X131046396Y-93371501D01*
X130860842Y-93241575D01*
X130817217Y-93186998D01*
X130810023Y-93117500D01*
X130841546Y-93055145D01*
X130860842Y-93038425D01*
X130883026Y-93022891D01*
X131046401Y-92908495D01*
X131213495Y-92741401D01*
X131349035Y-92547830D01*
X131448903Y-92333663D01*
X131510063Y-92105408D01*
X131530659Y-91870000D01*
X131510063Y-91634592D01*
X131448903Y-91406337D01*
X131349035Y-91192171D01*
X131213495Y-90998599D01*
X131213494Y-90998597D01*
X131046402Y-90831506D01*
X131046396Y-90831501D01*
X130860842Y-90701575D01*
X130817217Y-90646998D01*
X130810023Y-90577500D01*
X130841546Y-90515145D01*
X130860842Y-90498425D01*
X130981363Y-90414035D01*
X131046401Y-90368495D01*
X131213495Y-90201401D01*
X131349035Y-90007830D01*
X131448903Y-89793663D01*
X131510063Y-89565408D01*
X131530659Y-89330000D01*
X131510063Y-89094592D01*
X131452908Y-88881284D01*
X131448905Y-88866344D01*
X131448904Y-88866343D01*
X131448903Y-88866337D01*
X131349035Y-88652171D01*
X131343341Y-88644038D01*
X131213494Y-88458597D01*
X131046402Y-88291506D01*
X131046396Y-88291501D01*
X130860842Y-88161575D01*
X130817217Y-88106998D01*
X130810023Y-88037500D01*
X130841546Y-87975145D01*
X130860842Y-87958425D01*
X130911431Y-87923002D01*
X131046401Y-87828495D01*
X131213495Y-87661401D01*
X131349035Y-87467830D01*
X131448903Y-87253663D01*
X131510063Y-87025408D01*
X131530659Y-86790000D01*
X131510063Y-86554592D01*
X131448903Y-86326337D01*
X131349035Y-86112171D01*
X131344915Y-86106286D01*
X131213494Y-85918597D01*
X131046402Y-85751506D01*
X131046396Y-85751501D01*
X130860842Y-85621575D01*
X130817217Y-85566998D01*
X130810023Y-85497500D01*
X130841546Y-85435145D01*
X130860842Y-85418425D01*
X130989375Y-85328425D01*
X131046401Y-85288495D01*
X131213495Y-85121401D01*
X131349035Y-84927830D01*
X131448903Y-84713663D01*
X131510063Y-84485408D01*
X131530659Y-84250000D01*
X131510063Y-84014592D01*
X131452726Y-83800605D01*
X131448905Y-83786344D01*
X131448904Y-83786343D01*
X131448903Y-83786337D01*
X131349035Y-83572171D01*
X131349034Y-83572169D01*
X131213494Y-83378597D01*
X131046402Y-83211506D01*
X131046396Y-83211501D01*
X130860842Y-83081575D01*
X130817217Y-83026998D01*
X130810023Y-82957500D01*
X130841546Y-82895145D01*
X130860842Y-82878425D01*
X130911868Y-82842696D01*
X131046401Y-82748495D01*
X131213495Y-82581401D01*
X131349035Y-82387830D01*
X131448903Y-82173663D01*
X131510063Y-81945408D01*
X131530659Y-81710000D01*
X131510063Y-81474592D01*
X131448903Y-81246337D01*
X131349035Y-81032171D01*
X131348652Y-81031623D01*
X131213494Y-80838597D01*
X131046402Y-80671506D01*
X131046396Y-80671501D01*
X130860842Y-80541575D01*
X130817217Y-80486998D01*
X130810023Y-80417500D01*
X130841546Y-80355145D01*
X130860842Y-80338425D01*
X130933503Y-80287547D01*
X131046401Y-80208495D01*
X131213495Y-80041401D01*
X131349035Y-79847830D01*
X131448903Y-79633663D01*
X131510063Y-79405408D01*
X131530659Y-79170000D01*
X131510063Y-78934592D01*
X131448903Y-78706337D01*
X131349035Y-78492171D01*
X131341414Y-78481286D01*
X131213494Y-78298597D01*
X131046402Y-78131506D01*
X131046396Y-78131501D01*
X130860842Y-78001575D01*
X130817217Y-77946998D01*
X130810023Y-77877500D01*
X130841546Y-77815145D01*
X130860842Y-77798425D01*
X130950124Y-77735909D01*
X131046401Y-77668495D01*
X131213495Y-77501401D01*
X131349035Y-77307830D01*
X131448903Y-77093663D01*
X131510063Y-76865408D01*
X131530659Y-76630000D01*
X131510063Y-76394592D01*
X131448903Y-76166337D01*
X131349035Y-75952171D01*
X131348651Y-75951623D01*
X131213496Y-75758600D01*
X131202941Y-75748045D01*
X131091567Y-75636671D01*
X131058084Y-75575351D01*
X131063068Y-75505659D01*
X131104939Y-75449725D01*
X131135915Y-75432810D01*
X131267331Y-75383796D01*
X131382546Y-75297546D01*
X131468796Y-75182331D01*
X131519091Y-75047483D01*
X131525500Y-74987873D01*
X131525499Y-73192128D01*
X131519091Y-73132517D01*
X131469665Y-73000000D01*
X131468797Y-72997671D01*
X131468793Y-72997664D01*
X131382547Y-72882455D01*
X131382544Y-72882452D01*
X131267335Y-72796206D01*
X131267328Y-72796202D01*
X131132482Y-72745908D01*
X131132483Y-72745908D01*
X131072883Y-72739501D01*
X131072881Y-72739500D01*
X131072873Y-72739500D01*
X131072864Y-72739500D01*
X129277129Y-72739500D01*
X129277123Y-72739501D01*
X129217516Y-72745908D01*
X129082671Y-72796202D01*
X129082664Y-72796206D01*
X128967455Y-72882452D01*
X128967452Y-72882455D01*
X128881206Y-72997664D01*
X128881202Y-72997671D01*
X128830908Y-73132517D01*
X128824501Y-73192116D01*
X128824501Y-73192123D01*
X128824500Y-73192135D01*
X128824500Y-73365500D01*
X128804815Y-73432539D01*
X128752011Y-73478294D01*
X128700500Y-73489500D01*
X124096577Y-73489500D01*
X124029538Y-73469815D01*
X123983783Y-73417011D01*
X123974104Y-73384898D01*
X123948999Y-73226395D01*
X123942246Y-73183757D01*
X123876557Y-72981588D01*
X123780051Y-72792184D01*
X123780049Y-72792181D01*
X123780048Y-72792179D01*
X123655109Y-72620213D01*
X123515931Y-72481035D01*
X123482446Y-72419712D01*
X123487430Y-72350020D01*
X123529302Y-72294087D01*
X123538516Y-72287815D01*
X123693343Y-72192317D01*
X123817315Y-72068345D01*
X123909356Y-71919124D01*
X123909358Y-71919119D01*
X123964505Y-71752697D01*
X123964506Y-71752690D01*
X123974999Y-71649986D01*
X123975000Y-71649973D01*
X123975000Y-71250000D01*
X122904146Y-71250000D01*
X122942630Y-71183343D01*
X122975000Y-71062535D01*
X122975000Y-70937465D01*
X122942630Y-70816657D01*
X122904146Y-70750000D01*
X123974999Y-70750000D01*
X123974999Y-70350028D01*
X123974998Y-70350013D01*
X123964505Y-70247302D01*
X123909358Y-70080880D01*
X123909356Y-70080875D01*
X123817315Y-69931654D01*
X123693345Y-69807684D01*
X123544124Y-69715643D01*
X123544119Y-69715641D01*
X123377697Y-69660494D01*
X123377690Y-69660493D01*
X123274986Y-69650000D01*
X122750000Y-69650000D01*
X122750000Y-70595854D01*
X122683343Y-70557370D01*
X122562535Y-70525000D01*
X122437465Y-70525000D01*
X122316657Y-70557370D01*
X122250000Y-70595854D01*
X122250000Y-69650000D01*
X121725028Y-69650000D01*
X121725012Y-69650001D01*
X121622302Y-69660494D01*
X121455880Y-69715641D01*
X121455875Y-69715643D01*
X121306654Y-69807684D01*
X121182684Y-69931654D01*
X121090643Y-70080875D01*
X121090641Y-70080880D01*
X121035494Y-70247302D01*
X121035493Y-70247309D01*
X121025000Y-70350013D01*
X121025000Y-70750000D01*
X122095854Y-70750000D01*
X122057370Y-70816657D01*
X122025000Y-70937465D01*
X122025000Y-71062535D01*
X122057370Y-71183343D01*
X122095854Y-71250000D01*
X121025001Y-71250000D01*
X121025001Y-71649986D01*
X121035494Y-71752697D01*
X121090641Y-71919119D01*
X121090643Y-71919124D01*
X121182684Y-72068345D01*
X121306654Y-72192315D01*
X121461484Y-72287815D01*
X121508208Y-72339763D01*
X121519431Y-72408726D01*
X121491587Y-72472808D01*
X121484069Y-72481035D01*
X121344889Y-72620215D01*
X121219951Y-72792179D01*
X121123444Y-72981585D01*
X121057753Y-73183760D01*
X121024500Y-73393713D01*
X119500500Y-73393713D01*
X119500500Y-66499996D01*
X133694435Y-66499996D01*
X133694435Y-66500003D01*
X133714630Y-66679249D01*
X133714631Y-66679254D01*
X133774211Y-66849523D01*
X133827624Y-66934529D01*
X133870184Y-67002262D01*
X133997738Y-67129816D01*
X134150478Y-67225789D01*
X134320745Y-67285368D01*
X134407669Y-67295161D01*
X134472080Y-67322226D01*
X134481465Y-67330700D01*
X134613181Y-67462416D01*
X134646666Y-67523739D01*
X134649500Y-67550097D01*
X134649500Y-84643330D01*
X134649499Y-84643348D01*
X134649499Y-84809054D01*
X134649498Y-84809054D01*
X134690423Y-84961786D01*
X134695106Y-84969896D01*
X134698508Y-84975789D01*
X134701238Y-84980516D01*
X134701239Y-84980521D01*
X134701240Y-84980521D01*
X134769475Y-85098709D01*
X134769481Y-85098717D01*
X134888349Y-85217585D01*
X134888355Y-85217590D01*
X135887233Y-86216468D01*
X135920718Y-86277791D01*
X135919327Y-86336241D01*
X135884939Y-86464583D01*
X135884936Y-86464596D01*
X135864341Y-86699999D01*
X135864341Y-86700000D01*
X135884936Y-86935403D01*
X135884938Y-86935413D01*
X135946094Y-87163655D01*
X135946096Y-87163659D01*
X135946097Y-87163663D01*
X136015854Y-87313257D01*
X136045965Y-87377830D01*
X136045967Y-87377834D01*
X136154281Y-87532521D01*
X136176830Y-87564725D01*
X136181501Y-87571395D01*
X136181506Y-87571402D01*
X136348597Y-87738493D01*
X136348603Y-87738498D01*
X136534158Y-87868425D01*
X136577783Y-87923002D01*
X136584977Y-87992500D01*
X136553454Y-88054855D01*
X136534158Y-88071575D01*
X136348597Y-88201505D01*
X136181505Y-88368597D01*
X136045965Y-88562169D01*
X136045964Y-88562171D01*
X135969668Y-88725789D01*
X135949295Y-88769480D01*
X135946098Y-88776335D01*
X135946094Y-88776344D01*
X135884938Y-89004586D01*
X135884936Y-89004596D01*
X135864341Y-89239999D01*
X135864341Y-89240000D01*
X135884936Y-89475403D01*
X135884938Y-89475413D01*
X135946094Y-89703655D01*
X135946096Y-89703659D01*
X135946097Y-89703663D01*
X136024675Y-89872173D01*
X136045965Y-89917830D01*
X136045967Y-89917834D01*
X136181501Y-90111395D01*
X136181506Y-90111402D01*
X136303430Y-90233326D01*
X136336915Y-90294649D01*
X136331931Y-90364341D01*
X136290059Y-90420274D01*
X136259083Y-90437189D01*
X136127669Y-90486203D01*
X136127664Y-90486206D01*
X136012455Y-90572452D01*
X136012452Y-90572455D01*
X135926206Y-90687664D01*
X135926202Y-90687671D01*
X135875908Y-90822517D01*
X135869501Y-90882116D01*
X135869500Y-90882135D01*
X135869500Y-92677870D01*
X135869501Y-92677876D01*
X135875908Y-92737483D01*
X135926202Y-92872328D01*
X135926206Y-92872335D01*
X136012452Y-92987544D01*
X136012455Y-92987547D01*
X136127664Y-93073793D01*
X136127671Y-93073797D01*
X136259081Y-93122810D01*
X136315015Y-93164681D01*
X136339432Y-93230145D01*
X136324580Y-93298418D01*
X136303430Y-93326673D01*
X136181503Y-93448600D01*
X136045965Y-93642169D01*
X136045964Y-93642171D01*
X135946098Y-93856335D01*
X135946094Y-93856344D01*
X135884938Y-94084586D01*
X135884936Y-94084596D01*
X135864341Y-94319999D01*
X135864341Y-94320000D01*
X135884936Y-94555403D01*
X135884938Y-94555413D01*
X135946094Y-94783655D01*
X135946096Y-94783659D01*
X135946097Y-94783663D01*
X136015107Y-94931654D01*
X136045965Y-94997830D01*
X136045967Y-94997834D01*
X136181501Y-95191395D01*
X136181506Y-95191402D01*
X136348597Y-95358493D01*
X136348603Y-95358498D01*
X136534158Y-95488425D01*
X136577783Y-95543002D01*
X136584977Y-95612500D01*
X136553454Y-95674855D01*
X136534158Y-95691575D01*
X136348597Y-95821505D01*
X136181505Y-95988597D01*
X136045965Y-96182169D01*
X136045964Y-96182171D01*
X135946098Y-96396335D01*
X135946094Y-96396344D01*
X135884938Y-96624586D01*
X135884936Y-96624596D01*
X135864341Y-96859999D01*
X135864341Y-96860000D01*
X135884936Y-97095403D01*
X135884938Y-97095413D01*
X135946094Y-97323655D01*
X135946096Y-97323659D01*
X135946097Y-97323663D01*
X136014287Y-97469896D01*
X136045965Y-97537830D01*
X136045967Y-97537834D01*
X136181501Y-97731395D01*
X136181506Y-97731402D01*
X136348597Y-97898493D01*
X136348603Y-97898498D01*
X136534158Y-98028425D01*
X136577783Y-98083002D01*
X136584977Y-98152500D01*
X136553454Y-98214855D01*
X136534158Y-98231575D01*
X136348597Y-98361505D01*
X136181505Y-98528597D01*
X136045965Y-98722169D01*
X136045964Y-98722171D01*
X135946098Y-98936335D01*
X135946094Y-98936344D01*
X135884938Y-99164586D01*
X135884936Y-99164596D01*
X135864341Y-99399999D01*
X135864341Y-99400000D01*
X135884936Y-99635403D01*
X135884938Y-99635413D01*
X135946094Y-99863655D01*
X135946096Y-99863659D01*
X135946097Y-99863663D01*
X136020962Y-100024210D01*
X136045965Y-100077830D01*
X136045967Y-100077834D01*
X136181501Y-100271395D01*
X136181506Y-100271402D01*
X136348597Y-100438493D01*
X136348603Y-100438498D01*
X136534158Y-100568425D01*
X136577783Y-100623002D01*
X136584977Y-100692500D01*
X136553454Y-100754855D01*
X136534158Y-100771575D01*
X136348597Y-100901505D01*
X136181505Y-101068597D01*
X136045965Y-101262169D01*
X136045964Y-101262171D01*
X135946098Y-101476335D01*
X135946094Y-101476344D01*
X135884938Y-101704586D01*
X135884936Y-101704596D01*
X135864341Y-101939999D01*
X135864341Y-101940000D01*
X135884936Y-102175403D01*
X135884938Y-102175413D01*
X135946094Y-102403655D01*
X135946096Y-102403659D01*
X135946097Y-102403663D01*
X136045965Y-102617830D01*
X136045967Y-102617834D01*
X136118906Y-102722001D01*
X136181501Y-102811396D01*
X136181506Y-102811402D01*
X136303430Y-102933326D01*
X136336915Y-102994649D01*
X136331931Y-103064341D01*
X136290059Y-103120274D01*
X136259083Y-103137189D01*
X136127669Y-103186203D01*
X136127664Y-103186206D01*
X136012455Y-103272452D01*
X136012452Y-103272455D01*
X135926206Y-103387664D01*
X135926202Y-103387671D01*
X135875908Y-103522517D01*
X135869501Y-103582116D01*
X135869501Y-103582123D01*
X135869500Y-103582135D01*
X135869500Y-105377870D01*
X135869501Y-105377876D01*
X135875908Y-105437483D01*
X135926202Y-105572328D01*
X135926206Y-105572335D01*
X136012452Y-105687544D01*
X136012455Y-105687547D01*
X136127664Y-105773793D01*
X136127671Y-105773797D01*
X136259081Y-105822810D01*
X136315015Y-105864681D01*
X136339432Y-105930145D01*
X136324580Y-105998418D01*
X136303430Y-106026673D01*
X136181503Y-106148600D01*
X136045965Y-106342169D01*
X136045964Y-106342171D01*
X135946098Y-106556335D01*
X135946094Y-106556344D01*
X135884938Y-106784586D01*
X135884936Y-106784596D01*
X135864341Y-107019999D01*
X135864341Y-107020000D01*
X135884936Y-107255403D01*
X135884938Y-107255413D01*
X135946094Y-107483655D01*
X135946096Y-107483659D01*
X135946097Y-107483663D01*
X136019296Y-107640639D01*
X136045965Y-107697830D01*
X136045967Y-107697834D01*
X136181501Y-107891395D01*
X136181506Y-107891402D01*
X136348597Y-108058493D01*
X136348603Y-108058498D01*
X136534158Y-108188425D01*
X136577783Y-108243002D01*
X136584977Y-108312500D01*
X136553454Y-108374855D01*
X136534158Y-108391575D01*
X136348597Y-108521505D01*
X136181505Y-108688597D01*
X136045965Y-108882169D01*
X136045964Y-108882171D01*
X135946098Y-109096335D01*
X135946094Y-109096344D01*
X135884938Y-109324586D01*
X135884936Y-109324596D01*
X135864341Y-109559999D01*
X135864341Y-109560000D01*
X135884936Y-109795403D01*
X135884938Y-109795413D01*
X135946094Y-110023655D01*
X135946096Y-110023659D01*
X135946097Y-110023663D01*
X136025730Y-110194435D01*
X136045965Y-110237830D01*
X136045967Y-110237834D01*
X136145384Y-110379815D01*
X136180002Y-110429255D01*
X136181501Y-110431395D01*
X136181506Y-110431402D01*
X136348597Y-110598493D01*
X136348603Y-110598498D01*
X136534158Y-110728425D01*
X136577783Y-110783002D01*
X136584977Y-110852500D01*
X136553454Y-110914855D01*
X136534158Y-110931575D01*
X136348597Y-111061505D01*
X136181505Y-111228597D01*
X136045965Y-111422169D01*
X136045964Y-111422171D01*
X135981891Y-111559577D01*
X135950866Y-111626111D01*
X135946098Y-111636335D01*
X135946094Y-111636344D01*
X135884938Y-111864586D01*
X135884936Y-111864596D01*
X135864341Y-112099999D01*
X135864341Y-112100000D01*
X135884936Y-112335403D01*
X135884938Y-112335413D01*
X135946094Y-112563655D01*
X135946096Y-112563659D01*
X135946097Y-112563663D01*
X136045965Y-112777830D01*
X136045967Y-112777834D01*
X136181501Y-112971395D01*
X136181506Y-112971402D01*
X136348597Y-113138493D01*
X136348603Y-113138498D01*
X136534158Y-113268425D01*
X136577783Y-113323002D01*
X136584977Y-113392500D01*
X136553454Y-113454855D01*
X136534158Y-113471575D01*
X136348597Y-113601505D01*
X136181505Y-113768597D01*
X136045965Y-113962169D01*
X136045964Y-113962171D01*
X135946098Y-114176335D01*
X135946094Y-114176344D01*
X135884938Y-114404586D01*
X135884936Y-114404596D01*
X135864341Y-114639999D01*
X135864341Y-114640000D01*
X135884936Y-114875403D01*
X135884938Y-114875413D01*
X135946094Y-115103655D01*
X135946096Y-115103659D01*
X135946097Y-115103663D01*
X136045965Y-115317830D01*
X136045967Y-115317834D01*
X136154047Y-115472187D01*
X136181501Y-115511396D01*
X136181506Y-115511402D01*
X136303430Y-115633326D01*
X136336915Y-115694649D01*
X136331931Y-115764341D01*
X136290059Y-115820274D01*
X136259083Y-115837189D01*
X136127669Y-115886203D01*
X136127664Y-115886206D01*
X136012455Y-115972452D01*
X136012452Y-115972455D01*
X135926206Y-116087664D01*
X135926202Y-116087671D01*
X135875908Y-116222517D01*
X135869501Y-116282116D01*
X135869501Y-116282123D01*
X135869500Y-116282135D01*
X135869500Y-118077870D01*
X135869501Y-118077876D01*
X135875908Y-118137483D01*
X135926202Y-118272328D01*
X135926206Y-118272335D01*
X136012452Y-118387544D01*
X136012455Y-118387547D01*
X136127664Y-118473793D01*
X136127671Y-118473797D01*
X136259081Y-118522810D01*
X136315015Y-118564681D01*
X136339432Y-118630145D01*
X136324580Y-118698418D01*
X136303430Y-118726673D01*
X136181503Y-118848600D01*
X136045965Y-119042169D01*
X136045964Y-119042171D01*
X135946098Y-119256335D01*
X135946094Y-119256344D01*
X135884938Y-119484586D01*
X135884936Y-119484596D01*
X135864341Y-119719999D01*
X135864341Y-119720000D01*
X135884936Y-119955403D01*
X135884938Y-119955413D01*
X135946094Y-120183655D01*
X135946096Y-120183659D01*
X135946097Y-120183663D01*
X136045965Y-120397830D01*
X136045967Y-120397834D01*
X136181501Y-120591395D01*
X136181506Y-120591402D01*
X136348597Y-120758493D01*
X136348603Y-120758498D01*
X136534158Y-120888425D01*
X136577783Y-120943002D01*
X136584977Y-121012500D01*
X136553454Y-121074855D01*
X136534158Y-121091575D01*
X136348597Y-121221505D01*
X136181505Y-121388597D01*
X136045965Y-121582169D01*
X136045964Y-121582171D01*
X135946098Y-121796335D01*
X135946094Y-121796344D01*
X135884938Y-122024586D01*
X135884936Y-122024596D01*
X135864341Y-122259999D01*
X135864341Y-122260000D01*
X135884936Y-122495403D01*
X135884938Y-122495413D01*
X135946094Y-122723655D01*
X135946096Y-122723659D01*
X135946097Y-122723663D01*
X136041322Y-122927873D01*
X136045965Y-122937830D01*
X136045967Y-122937834D01*
X136137456Y-123068493D01*
X136181505Y-123131401D01*
X136348599Y-123298495D01*
X136384733Y-123323796D01*
X136542165Y-123434032D01*
X136542167Y-123434033D01*
X136542170Y-123434035D01*
X136547898Y-123436706D01*
X136600339Y-123482872D01*
X136619500Y-123549090D01*
X136619500Y-126981859D01*
X136619499Y-126981877D01*
X136619499Y-127147583D01*
X136619498Y-127147583D01*
X136660423Y-127300314D01*
X136672219Y-127320745D01*
X136739477Y-127437241D01*
X136739481Y-127437246D01*
X136858349Y-127556114D01*
X136858355Y-127556119D01*
X142166610Y-132864374D01*
X142166620Y-132864385D01*
X142170950Y-132868715D01*
X142170951Y-132868716D01*
X142282755Y-132980520D01*
X142369566Y-133030639D01*
X142369568Y-133030641D01*
X142407622Y-133052611D01*
X142419686Y-133059577D01*
X142572414Y-133100501D01*
X142572417Y-133100501D01*
X142738124Y-133100501D01*
X142738140Y-133100500D01*
X145420943Y-133100500D01*
X163670943Y-133100500D01*
X163917588Y-133100500D01*
X163984627Y-133120185D01*
X163994903Y-133127555D01*
X163997736Y-133129814D01*
X163997738Y-133129816D01*
X164150478Y-133225789D01*
X164320745Y-133285368D01*
X164320750Y-133285369D01*
X164499996Y-133305565D01*
X164500000Y-133305565D01*
X164500004Y-133305565D01*
X164679249Y-133285369D01*
X164679252Y-133285368D01*
X164679255Y-133285368D01*
X164849522Y-133225789D01*
X165002262Y-133129816D01*
X165129816Y-133002262D01*
X165225789Y-132849522D01*
X165285368Y-132679255D01*
X165305565Y-132500000D01*
X165285368Y-132320745D01*
X165225789Y-132150478D01*
X165129816Y-131997738D01*
X165002262Y-131870184D01*
X164991117Y-131863181D01*
X164849523Y-131774211D01*
X164679254Y-131714631D01*
X164679249Y-131714630D01*
X164500004Y-131694435D01*
X164499996Y-131694435D01*
X164320750Y-131714630D01*
X164320745Y-131714631D01*
X164150476Y-131774211D01*
X163997736Y-131870185D01*
X163994903Y-131872445D01*
X163992724Y-131873334D01*
X163991842Y-131873889D01*
X163991744Y-131873734D01*
X163930217Y-131898855D01*
X163917588Y-131899500D01*
X142951568Y-131899500D01*
X142884529Y-131879815D01*
X142863887Y-131863181D01*
X140150791Y-129150085D01*
X140117306Y-129088762D01*
X140122290Y-129019070D01*
X140133475Y-128996437D01*
X140221933Y-128855659D01*
X140225788Y-128849524D01*
X140252249Y-128773903D01*
X140285368Y-128679255D01*
X140286554Y-128668730D01*
X140305565Y-128500003D01*
X140305565Y-128499996D01*
X140285369Y-128320750D01*
X140285368Y-128320745D01*
X140225788Y-128150476D01*
X140192645Y-128097730D01*
X140129816Y-127997738D01*
X140129814Y-127997736D01*
X140129813Y-127997734D01*
X140127550Y-127994896D01*
X140126659Y-127992715D01*
X140126111Y-127991842D01*
X140126264Y-127991745D01*
X140101144Y-127930209D01*
X140100500Y-127917587D01*
X140100500Y-122089059D01*
X140100501Y-122089046D01*
X140100501Y-122029999D01*
X142214341Y-122029999D01*
X142214341Y-122030000D01*
X142234936Y-122265397D01*
X142234938Y-122265413D01*
X142296094Y-122493655D01*
X142296096Y-122493659D01*
X142296097Y-122493663D01*
X142380499Y-122674663D01*
X142395965Y-122707830D01*
X142395967Y-122707834D01*
X142504281Y-122862521D01*
X142531505Y-122901401D01*
X142698599Y-123068495D01*
X142788429Y-123131395D01*
X142892165Y-123204032D01*
X142892167Y-123204033D01*
X142892170Y-123204035D01*
X143106337Y-123303903D01*
X143334592Y-123365063D01*
X143511034Y-123380500D01*
X143569999Y-123385659D01*
X143570000Y-123385659D01*
X143570001Y-123385659D01*
X143628966Y-123380500D01*
X143805408Y-123365063D01*
X144033663Y-123303903D01*
X144247830Y-123204035D01*
X144441401Y-123068495D01*
X144563329Y-122946566D01*
X144624648Y-122913084D01*
X144694340Y-122918068D01*
X144750274Y-122959939D01*
X144767189Y-122990917D01*
X144816202Y-123122328D01*
X144816206Y-123122335D01*
X144902452Y-123237544D01*
X144902455Y-123237547D01*
X145017664Y-123323793D01*
X145017671Y-123323797D01*
X145152517Y-123374091D01*
X145152516Y-123374091D01*
X145159444Y-123374835D01*
X145212127Y-123380500D01*
X147007872Y-123380499D01*
X147067483Y-123374091D01*
X147202331Y-123323796D01*
X147317546Y-123237546D01*
X147403796Y-123122331D01*
X147452810Y-122990916D01*
X147494681Y-122934984D01*
X147560145Y-122910566D01*
X147628418Y-122925417D01*
X147656673Y-122946569D01*
X147778599Y-123068495D01*
X147868429Y-123131395D01*
X147972165Y-123204032D01*
X147972167Y-123204033D01*
X147972170Y-123204035D01*
X148186337Y-123303903D01*
X148414592Y-123365063D01*
X148591034Y-123380500D01*
X148649999Y-123385659D01*
X148650000Y-123385659D01*
X148650001Y-123385659D01*
X148708966Y-123380500D01*
X148885408Y-123365063D01*
X149113663Y-123303903D01*
X149327830Y-123204035D01*
X149521401Y-123068495D01*
X149688495Y-122901401D01*
X149824035Y-122707830D01*
X149923903Y-122493663D01*
X149985063Y-122265408D01*
X150005659Y-122030000D01*
X149985063Y-121794592D01*
X149923903Y-121566337D01*
X149824035Y-121352171D01*
X149808613Y-121330145D01*
X149688494Y-121158597D01*
X149521402Y-120991506D01*
X149521395Y-120991501D01*
X149519251Y-120990000D01*
X149444518Y-120937671D01*
X149327834Y-120855967D01*
X149327830Y-120855965D01*
X149311817Y-120848498D01*
X149113663Y-120756097D01*
X149113659Y-120756096D01*
X149113655Y-120756094D01*
X148885413Y-120694938D01*
X148885403Y-120694936D01*
X148650001Y-120674341D01*
X148649999Y-120674341D01*
X148414596Y-120694936D01*
X148414586Y-120694938D01*
X148186344Y-120756094D01*
X148186335Y-120756098D01*
X147972171Y-120855964D01*
X147972169Y-120855965D01*
X147778600Y-120991503D01*
X147656673Y-121113430D01*
X147595350Y-121146914D01*
X147525658Y-121141930D01*
X147469725Y-121100058D01*
X147452810Y-121069081D01*
X147403797Y-120937671D01*
X147403793Y-120937664D01*
X147317547Y-120822455D01*
X147317544Y-120822452D01*
X147202335Y-120736206D01*
X147202328Y-120736202D01*
X147067482Y-120685908D01*
X147067483Y-120685908D01*
X147007883Y-120679501D01*
X147007881Y-120679500D01*
X147007873Y-120679500D01*
X147007864Y-120679500D01*
X145212129Y-120679500D01*
X145212123Y-120679501D01*
X145152516Y-120685908D01*
X145017671Y-120736202D01*
X145017664Y-120736206D01*
X144902455Y-120822452D01*
X144902452Y-120822455D01*
X144816206Y-120937664D01*
X144816203Y-120937669D01*
X144767189Y-121069083D01*
X144725317Y-121125016D01*
X144659853Y-121149433D01*
X144591580Y-121134581D01*
X144563326Y-121113430D01*
X144441402Y-120991506D01*
X144441395Y-120991501D01*
X144439251Y-120990000D01*
X144364518Y-120937671D01*
X144247834Y-120855967D01*
X144247830Y-120855965D01*
X144231817Y-120848498D01*
X144033663Y-120756097D01*
X144033659Y-120756096D01*
X144033655Y-120756094D01*
X143805413Y-120694938D01*
X143805403Y-120694936D01*
X143570001Y-120674341D01*
X143569999Y-120674341D01*
X143334596Y-120694936D01*
X143334586Y-120694938D01*
X143106344Y-120756094D01*
X143106335Y-120756098D01*
X142892171Y-120855964D01*
X142892169Y-120855965D01*
X142698597Y-120991505D01*
X142531505Y-121158597D01*
X142395965Y-121352169D01*
X142395964Y-121352171D01*
X142296098Y-121566335D01*
X142296094Y-121566344D01*
X142234938Y-121794586D01*
X142234936Y-121794596D01*
X142214341Y-122029999D01*
X140100501Y-122029999D01*
X140100501Y-121920945D01*
X140100501Y-121920943D01*
X140059577Y-121768215D01*
X140020437Y-121700423D01*
X139980520Y-121631284D01*
X139868716Y-121519480D01*
X139868715Y-121519479D01*
X139864385Y-121515149D01*
X139864374Y-121515139D01*
X138552766Y-120203531D01*
X138519281Y-120142208D01*
X138520672Y-120083757D01*
X138530946Y-120045413D01*
X138555063Y-119955408D01*
X138575659Y-119720000D01*
X138555063Y-119484592D01*
X138493903Y-119256337D01*
X138394035Y-119042171D01*
X138351993Y-118982129D01*
X138258496Y-118848600D01*
X138197560Y-118787664D01*
X138136567Y-118726671D01*
X138103084Y-118665351D01*
X138108068Y-118595659D01*
X138149939Y-118539725D01*
X138180915Y-118522810D01*
X138312331Y-118473796D01*
X138427546Y-118387546D01*
X138513796Y-118272331D01*
X138564091Y-118137483D01*
X138570500Y-118077873D01*
X138570499Y-116282128D01*
X138564091Y-116222517D01*
X138519096Y-116101880D01*
X138513797Y-116087671D01*
X138513793Y-116087664D01*
X138427547Y-115972455D01*
X138427544Y-115972452D01*
X138312335Y-115886206D01*
X138312328Y-115886202D01*
X138180917Y-115837189D01*
X138124983Y-115795318D01*
X138100566Y-115729853D01*
X138115418Y-115661580D01*
X138136563Y-115633332D01*
X138258495Y-115511401D01*
X138394035Y-115317830D01*
X138493903Y-115103663D01*
X138555063Y-114875408D01*
X138575659Y-114640000D01*
X138555063Y-114404592D01*
X138493903Y-114176337D01*
X138394035Y-113962171D01*
X138362208Y-113916716D01*
X138258494Y-113768597D01*
X138091402Y-113601506D01*
X138091396Y-113601501D01*
X137905842Y-113471575D01*
X137862217Y-113416998D01*
X137855023Y-113347500D01*
X137886546Y-113285145D01*
X137905842Y-113268425D01*
X137928026Y-113252891D01*
X138091401Y-113138495D01*
X138258495Y-112971401D01*
X138394035Y-112777830D01*
X138493903Y-112563663D01*
X138555063Y-112335408D01*
X138575659Y-112100000D01*
X138555063Y-111864592D01*
X138493903Y-111636337D01*
X138394035Y-111422171D01*
X138356604Y-111368713D01*
X138258494Y-111228597D01*
X138091402Y-111061506D01*
X138091396Y-111061501D01*
X137905842Y-110931575D01*
X137862217Y-110876998D01*
X137855023Y-110807500D01*
X137886546Y-110745145D01*
X137905842Y-110728425D01*
X137930610Y-110711082D01*
X138091401Y-110598495D01*
X138258495Y-110431401D01*
X138394035Y-110237830D01*
X138493903Y-110023663D01*
X138555063Y-109795408D01*
X138575659Y-109560000D01*
X138555063Y-109324592D01*
X138493903Y-109096337D01*
X138394035Y-108882171D01*
X138392582Y-108880095D01*
X138258494Y-108688597D01*
X138091402Y-108521506D01*
X138091396Y-108521501D01*
X137905842Y-108391575D01*
X137862217Y-108336998D01*
X137855023Y-108267500D01*
X137886546Y-108205145D01*
X137905842Y-108188425D01*
X137928026Y-108172891D01*
X138091401Y-108058495D01*
X138258495Y-107891401D01*
X138394035Y-107697830D01*
X138493903Y-107483663D01*
X138555063Y-107255408D01*
X138575659Y-107020000D01*
X138555063Y-106784592D01*
X138493903Y-106556337D01*
X138394035Y-106342171D01*
X138368403Y-106305565D01*
X138258496Y-106148600D01*
X138239711Y-106129815D01*
X138136567Y-106026671D01*
X138103084Y-105965351D01*
X138108068Y-105895659D01*
X138149939Y-105839725D01*
X138180915Y-105822810D01*
X138312331Y-105773796D01*
X138427546Y-105687546D01*
X138513796Y-105572331D01*
X138564091Y-105437483D01*
X138570500Y-105377873D01*
X138570499Y-103582128D01*
X138564091Y-103522517D01*
X138555691Y-103499996D01*
X138513797Y-103387671D01*
X138513793Y-103387664D01*
X138427547Y-103272455D01*
X138427544Y-103272452D01*
X138312335Y-103186206D01*
X138312328Y-103186202D01*
X138180917Y-103137189D01*
X138124983Y-103095318D01*
X138100566Y-103029853D01*
X138115418Y-102961580D01*
X138136563Y-102933332D01*
X138258495Y-102811401D01*
X138394035Y-102617830D01*
X138493903Y-102403663D01*
X138555063Y-102175408D01*
X138575659Y-101940000D01*
X138555063Y-101704592D01*
X138493903Y-101476337D01*
X138394035Y-101262171D01*
X138329351Y-101169791D01*
X138258494Y-101068597D01*
X138091402Y-100901506D01*
X138091396Y-100901501D01*
X137905842Y-100771575D01*
X137862217Y-100716998D01*
X137855023Y-100647500D01*
X137886546Y-100585145D01*
X137905842Y-100568425D01*
X137934016Y-100548697D01*
X138091401Y-100438495D01*
X138258495Y-100271401D01*
X138394035Y-100077830D01*
X138493903Y-99863663D01*
X138555063Y-99635408D01*
X138575659Y-99400000D01*
X138573890Y-99379786D01*
X138564877Y-99276764D01*
X138555063Y-99164592D01*
X138493903Y-98936337D01*
X138394035Y-98722171D01*
X138321514Y-98618599D01*
X138258494Y-98528597D01*
X138091402Y-98361506D01*
X138091396Y-98361501D01*
X137905842Y-98231575D01*
X137862217Y-98176998D01*
X137855023Y-98107500D01*
X137886546Y-98045145D01*
X137905842Y-98028425D01*
X137954602Y-97994283D01*
X138091401Y-97898495D01*
X138258495Y-97731401D01*
X138394035Y-97537830D01*
X138493903Y-97323663D01*
X138555063Y-97095408D01*
X138575659Y-96860000D01*
X138555063Y-96624592D01*
X138493903Y-96396337D01*
X138394035Y-96182171D01*
X138380351Y-96162627D01*
X138258494Y-95988597D01*
X138091402Y-95821506D01*
X138091396Y-95821501D01*
X137905842Y-95691575D01*
X137862217Y-95636998D01*
X137855023Y-95567500D01*
X137886546Y-95505145D01*
X137905842Y-95488425D01*
X137958716Y-95451402D01*
X138091401Y-95358495D01*
X138258495Y-95191401D01*
X138394035Y-94997830D01*
X138493903Y-94783663D01*
X138555063Y-94555408D01*
X138575659Y-94320000D01*
X138555063Y-94084592D01*
X138506184Y-93902171D01*
X138493905Y-93856344D01*
X138493904Y-93856343D01*
X138493903Y-93856337D01*
X138394035Y-93642171D01*
X138394032Y-93642167D01*
X138258496Y-93448600D01*
X138198609Y-93388713D01*
X138136567Y-93326671D01*
X138103084Y-93265351D01*
X138108068Y-93195659D01*
X138149939Y-93139725D01*
X138180915Y-93122810D01*
X138312331Y-93073796D01*
X138427546Y-92987546D01*
X138513796Y-92872331D01*
X138564091Y-92737483D01*
X138570500Y-92677873D01*
X138570499Y-91354499D01*
X138590184Y-91287461D01*
X138642987Y-91241706D01*
X138694499Y-91230500D01*
X153525500Y-91230500D01*
X153592539Y-91250185D01*
X153638294Y-91302989D01*
X153649500Y-91354500D01*
X153649500Y-92677870D01*
X153649501Y-92677876D01*
X153655908Y-92737483D01*
X153706202Y-92872328D01*
X153706206Y-92872335D01*
X153792452Y-92987544D01*
X153792455Y-92987547D01*
X153907664Y-93073793D01*
X153907671Y-93073797D01*
X154039081Y-93122810D01*
X154095015Y-93164681D01*
X154119432Y-93230145D01*
X154104580Y-93298418D01*
X154083430Y-93326673D01*
X153961503Y-93448600D01*
X153825965Y-93642169D01*
X153825964Y-93642171D01*
X153726098Y-93856335D01*
X153726094Y-93856344D01*
X153664938Y-94084586D01*
X153664936Y-94084596D01*
X153644341Y-94319999D01*
X153644341Y-94320000D01*
X153664936Y-94555403D01*
X153664938Y-94555413D01*
X153726094Y-94783655D01*
X153726096Y-94783659D01*
X153726097Y-94783663D01*
X153795107Y-94931654D01*
X153825965Y-94997830D01*
X153825967Y-94997834D01*
X153961501Y-95191395D01*
X153961506Y-95191402D01*
X154128597Y-95358493D01*
X154128603Y-95358498D01*
X154314158Y-95488425D01*
X154357783Y-95543002D01*
X154364977Y-95612500D01*
X154333454Y-95674855D01*
X154314158Y-95691575D01*
X154128597Y-95821505D01*
X153961505Y-95988597D01*
X153825965Y-96182169D01*
X153825964Y-96182171D01*
X153726098Y-96396335D01*
X153726094Y-96396344D01*
X153664938Y-96624586D01*
X153664936Y-96624596D01*
X153644341Y-96859999D01*
X153644341Y-96860000D01*
X153664936Y-97095403D01*
X153664938Y-97095413D01*
X153726094Y-97323655D01*
X153726096Y-97323659D01*
X153726097Y-97323663D01*
X153794287Y-97469896D01*
X153825965Y-97537830D01*
X153825967Y-97537834D01*
X153961501Y-97731395D01*
X153961506Y-97731402D01*
X154128597Y-97898493D01*
X154128603Y-97898498D01*
X154314158Y-98028425D01*
X154357783Y-98083002D01*
X154364977Y-98152500D01*
X154333454Y-98214855D01*
X154314158Y-98231575D01*
X154128597Y-98361505D01*
X153961505Y-98528597D01*
X153825965Y-98722169D01*
X153825964Y-98722171D01*
X153726098Y-98936335D01*
X153726094Y-98936344D01*
X153664938Y-99164586D01*
X153664936Y-99164596D01*
X153644341Y-99399999D01*
X153644341Y-99400000D01*
X153664936Y-99635403D01*
X153664938Y-99635413D01*
X153726094Y-99863655D01*
X153726096Y-99863659D01*
X153726097Y-99863663D01*
X153800962Y-100024210D01*
X153825965Y-100077830D01*
X153825967Y-100077834D01*
X153961501Y-100271395D01*
X153961506Y-100271402D01*
X154128597Y-100438493D01*
X154128603Y-100438498D01*
X154314158Y-100568425D01*
X154357783Y-100623002D01*
X154364977Y-100692500D01*
X154333454Y-100754855D01*
X154314158Y-100771575D01*
X154128597Y-100901505D01*
X153961505Y-101068597D01*
X153825965Y-101262169D01*
X153825964Y-101262171D01*
X153726098Y-101476335D01*
X153726094Y-101476344D01*
X153664938Y-101704586D01*
X153664936Y-101704596D01*
X153644341Y-101939999D01*
X153644341Y-101940000D01*
X153664936Y-102175403D01*
X153664938Y-102175413D01*
X153726094Y-102403655D01*
X153726096Y-102403659D01*
X153726097Y-102403663D01*
X153825965Y-102617830D01*
X153825967Y-102617834D01*
X153898906Y-102722001D01*
X153961501Y-102811396D01*
X153961506Y-102811402D01*
X154083430Y-102933326D01*
X154116915Y-102994649D01*
X154111931Y-103064341D01*
X154070059Y-103120274D01*
X154039083Y-103137189D01*
X153907669Y-103186203D01*
X153907664Y-103186206D01*
X153792455Y-103272452D01*
X153792452Y-103272455D01*
X153706206Y-103387664D01*
X153706202Y-103387671D01*
X153655908Y-103522517D01*
X153649501Y-103582116D01*
X153649501Y-103582123D01*
X153649500Y-103582135D01*
X153649500Y-105377870D01*
X153649501Y-105377876D01*
X153655908Y-105437483D01*
X153706202Y-105572328D01*
X153706206Y-105572335D01*
X153792452Y-105687544D01*
X153792455Y-105687547D01*
X153907664Y-105773793D01*
X153907671Y-105773797D01*
X154039081Y-105822810D01*
X154095015Y-105864681D01*
X154119432Y-105930145D01*
X154104580Y-105998418D01*
X154083430Y-106026673D01*
X153961503Y-106148600D01*
X153825965Y-106342169D01*
X153825964Y-106342171D01*
X153726098Y-106556335D01*
X153726094Y-106556344D01*
X153664938Y-106784586D01*
X153664936Y-106784596D01*
X153644341Y-107019999D01*
X153644341Y-107020000D01*
X153664936Y-107255403D01*
X153664938Y-107255413D01*
X153726094Y-107483655D01*
X153726096Y-107483659D01*
X153726097Y-107483663D01*
X153799296Y-107640639D01*
X153825965Y-107697830D01*
X153825967Y-107697834D01*
X153961501Y-107891395D01*
X153961506Y-107891402D01*
X154128597Y-108058493D01*
X154128603Y-108058498D01*
X154314158Y-108188425D01*
X154357783Y-108243002D01*
X154364977Y-108312500D01*
X154333454Y-108374855D01*
X154314158Y-108391575D01*
X154128597Y-108521505D01*
X153961505Y-108688597D01*
X153825965Y-108882169D01*
X153825964Y-108882171D01*
X153726098Y-109096335D01*
X153726094Y-109096344D01*
X153664938Y-109324586D01*
X153664936Y-109324596D01*
X153644341Y-109559999D01*
X153644341Y-109560000D01*
X153664936Y-109795403D01*
X153664938Y-109795413D01*
X153699327Y-109923756D01*
X153697664Y-109993606D01*
X153667233Y-110043530D01*
X151881286Y-111829478D01*
X151769482Y-111941281D01*
X151769480Y-111941283D01*
X151758075Y-111961037D01*
X151749726Y-111975500D01*
X151690423Y-112078215D01*
X151649499Y-112230943D01*
X151649499Y-112230945D01*
X151649499Y-112399046D01*
X151649500Y-112399059D01*
X151649500Y-126917587D01*
X151629815Y-126984626D01*
X151622450Y-126994896D01*
X151620186Y-126997734D01*
X151524211Y-127150476D01*
X151464631Y-127320745D01*
X151464630Y-127320750D01*
X151444435Y-127499996D01*
X151444435Y-127500003D01*
X151464630Y-127679249D01*
X151464631Y-127679254D01*
X151524211Y-127849523D01*
X151595931Y-127963664D01*
X151620184Y-128002262D01*
X151747738Y-128129816D01*
X151900478Y-128225789D01*
X152070745Y-128285368D01*
X152070750Y-128285369D01*
X152249996Y-128305565D01*
X152250000Y-128305565D01*
X152250004Y-128305565D01*
X152429249Y-128285369D01*
X152429252Y-128285368D01*
X152429255Y-128285368D01*
X152599522Y-128225789D01*
X152752262Y-128129816D01*
X152879816Y-128002262D01*
X152975789Y-127849522D01*
X153035368Y-127679255D01*
X153035369Y-127679249D01*
X153055565Y-127500003D01*
X153055565Y-127499996D01*
X153035369Y-127320750D01*
X153035368Y-127320745D01*
X152975788Y-127150476D01*
X152942645Y-127097730D01*
X152879816Y-126997738D01*
X152879814Y-126997736D01*
X152879813Y-126997734D01*
X152877550Y-126994896D01*
X152876659Y-126992715D01*
X152876111Y-126991842D01*
X152876264Y-126991745D01*
X152851144Y-126930209D01*
X152850500Y-126917587D01*
X152850500Y-112610096D01*
X152870185Y-112543057D01*
X152886815Y-112522419D01*
X153435568Y-111973665D01*
X153496891Y-111940181D01*
X153566583Y-111945165D01*
X153622516Y-111987037D01*
X153646933Y-112052501D01*
X153646777Y-112072154D01*
X153644341Y-112099997D01*
X153644341Y-112100000D01*
X153664936Y-112335403D01*
X153664938Y-112335413D01*
X153726094Y-112563655D01*
X153726096Y-112563659D01*
X153726097Y-112563663D01*
X153825965Y-112777830D01*
X153825967Y-112777834D01*
X153961501Y-112971395D01*
X153961506Y-112971402D01*
X154128597Y-113138493D01*
X154128603Y-113138498D01*
X154314158Y-113268425D01*
X154357783Y-113323002D01*
X154364977Y-113392500D01*
X154333454Y-113454855D01*
X154314158Y-113471575D01*
X154128597Y-113601505D01*
X153961505Y-113768597D01*
X153825965Y-113962169D01*
X153825964Y-113962171D01*
X153726098Y-114176335D01*
X153726094Y-114176344D01*
X153664938Y-114404586D01*
X153664936Y-114404596D01*
X153644341Y-114639999D01*
X153644341Y-114640000D01*
X153664936Y-114875403D01*
X153664938Y-114875413D01*
X153726094Y-115103655D01*
X153726096Y-115103659D01*
X153726097Y-115103663D01*
X153825965Y-115317830D01*
X153825967Y-115317834D01*
X153934047Y-115472187D01*
X153961501Y-115511396D01*
X153961506Y-115511402D01*
X154083818Y-115633714D01*
X154117303Y-115695037D01*
X154112319Y-115764729D01*
X154070447Y-115820662D01*
X154039471Y-115837577D01*
X153907912Y-115886646D01*
X153907906Y-115886649D01*
X153792812Y-115972809D01*
X153792809Y-115972812D01*
X153706649Y-116087906D01*
X153706645Y-116087913D01*
X153656403Y-116222620D01*
X153656401Y-116222627D01*
X153650000Y-116282155D01*
X153650000Y-116930000D01*
X154555440Y-116930000D01*
X154524755Y-116983147D01*
X154490000Y-117112857D01*
X154490000Y-117247143D01*
X154524755Y-117376853D01*
X154555440Y-117430000D01*
X153650000Y-117430000D01*
X153650000Y-118077844D01*
X153656401Y-118137372D01*
X153656403Y-118137379D01*
X153706645Y-118272086D01*
X153706649Y-118272093D01*
X153792809Y-118387187D01*
X153792812Y-118387190D01*
X153907906Y-118473350D01*
X153907913Y-118473354D01*
X154039470Y-118522421D01*
X154095403Y-118564292D01*
X154119821Y-118629756D01*
X154104970Y-118698029D01*
X154083819Y-118726284D01*
X153961503Y-118848600D01*
X153825965Y-119042169D01*
X153825964Y-119042171D01*
X153726098Y-119256335D01*
X153726094Y-119256344D01*
X153664938Y-119484586D01*
X153664936Y-119484596D01*
X153644341Y-119719999D01*
X153644341Y-119720000D01*
X153664936Y-119955403D01*
X153664938Y-119955413D01*
X153726094Y-120183655D01*
X153726096Y-120183659D01*
X153726097Y-120183663D01*
X153825965Y-120397830D01*
X153825967Y-120397834D01*
X153961501Y-120591395D01*
X153961506Y-120591402D01*
X154128597Y-120758493D01*
X154128603Y-120758498D01*
X154314158Y-120888425D01*
X154357783Y-120943002D01*
X154364977Y-121012500D01*
X154333454Y-121074855D01*
X154314158Y-121091575D01*
X154128597Y-121221505D01*
X153961505Y-121388597D01*
X153825965Y-121582169D01*
X153825964Y-121582171D01*
X153726098Y-121796335D01*
X153726094Y-121796344D01*
X153664938Y-122024586D01*
X153664936Y-122024596D01*
X153644341Y-122259999D01*
X153644341Y-122260000D01*
X153664936Y-122495403D01*
X153664938Y-122495413D01*
X153726094Y-122723655D01*
X153726096Y-122723659D01*
X153726097Y-122723663D01*
X153821322Y-122927873D01*
X153825965Y-122937830D01*
X153825967Y-122937834D01*
X153917456Y-123068493D01*
X153961505Y-123131401D01*
X154128599Y-123298495D01*
X154164733Y-123323796D01*
X154322165Y-123434032D01*
X154322167Y-123434033D01*
X154322170Y-123434035D01*
X154536337Y-123533903D01*
X154764592Y-123595063D01*
X154952918Y-123611539D01*
X154999999Y-123615659D01*
X155000000Y-123615659D01*
X155000001Y-123615659D01*
X155039234Y-123612226D01*
X155235408Y-123595063D01*
X155463663Y-123533903D01*
X155677830Y-123434035D01*
X155871401Y-123298495D01*
X156038495Y-123131401D01*
X156174035Y-122937830D01*
X156273903Y-122723663D01*
X156335063Y-122495408D01*
X156355659Y-122260000D01*
X156335063Y-122024592D01*
X156273903Y-121796337D01*
X156174035Y-121582171D01*
X156150529Y-121548600D01*
X156038494Y-121388597D01*
X155871402Y-121221506D01*
X155871396Y-121221501D01*
X155685842Y-121091575D01*
X155642217Y-121036998D01*
X155635023Y-120967500D01*
X155666546Y-120905145D01*
X155685842Y-120888425D01*
X155732197Y-120855967D01*
X155871401Y-120758495D01*
X156038495Y-120591401D01*
X156174035Y-120397830D01*
X156273903Y-120183663D01*
X156335063Y-119955408D01*
X156355659Y-119720000D01*
X156335063Y-119484592D01*
X156273903Y-119256337D01*
X156174035Y-119042171D01*
X156131993Y-118982129D01*
X156038496Y-118848600D01*
X155977560Y-118787664D01*
X155916179Y-118726283D01*
X155882696Y-118664963D01*
X155887680Y-118595271D01*
X155929551Y-118539337D01*
X155960529Y-118522422D01*
X156092086Y-118473354D01*
X156092093Y-118473350D01*
X156207187Y-118387190D01*
X156207190Y-118387187D01*
X156293350Y-118272093D01*
X156293354Y-118272086D01*
X156343596Y-118137379D01*
X156343598Y-118137372D01*
X156349999Y-118077844D01*
X156350000Y-118077827D01*
X156350000Y-117430000D01*
X155444560Y-117430000D01*
X155475245Y-117376853D01*
X155510000Y-117247143D01*
X155510000Y-117112857D01*
X155475245Y-116983147D01*
X155444560Y-116930000D01*
X156350000Y-116930000D01*
X156350000Y-116282172D01*
X156349999Y-116282155D01*
X156343598Y-116222627D01*
X156343596Y-116222620D01*
X156293354Y-116087913D01*
X156293350Y-116087906D01*
X156207190Y-115972812D01*
X156207187Y-115972809D01*
X156092093Y-115886649D01*
X156092088Y-115886646D01*
X155960528Y-115837577D01*
X155904595Y-115795705D01*
X155880178Y-115730241D01*
X155895030Y-115661968D01*
X155916175Y-115633720D01*
X156038495Y-115511401D01*
X156174035Y-115317830D01*
X156273903Y-115103663D01*
X156335063Y-114875408D01*
X156355659Y-114640000D01*
X156335063Y-114404592D01*
X156273903Y-114176337D01*
X156174035Y-113962171D01*
X156142208Y-113916716D01*
X156038494Y-113768597D01*
X155871402Y-113601506D01*
X155871396Y-113601501D01*
X155685842Y-113471575D01*
X155642217Y-113416998D01*
X155635023Y-113347500D01*
X155666546Y-113285145D01*
X155685842Y-113268425D01*
X155708026Y-113252891D01*
X155871401Y-113138495D01*
X156038495Y-112971401D01*
X156174035Y-112777830D01*
X156273903Y-112563663D01*
X156335063Y-112335408D01*
X156355659Y-112100000D01*
X156335063Y-111864592D01*
X156273903Y-111636337D01*
X156174035Y-111422171D01*
X156136604Y-111368713D01*
X156038494Y-111228597D01*
X155871402Y-111061506D01*
X155871396Y-111061501D01*
X155685842Y-110931575D01*
X155642217Y-110876998D01*
X155635023Y-110807500D01*
X155666546Y-110745145D01*
X155685842Y-110728425D01*
X155710610Y-110711082D01*
X155871401Y-110598495D01*
X156038495Y-110431401D01*
X156174035Y-110237830D01*
X156273903Y-110023663D01*
X156335063Y-109795408D01*
X156355659Y-109560000D01*
X156335063Y-109324592D01*
X156273903Y-109096337D01*
X156174035Y-108882171D01*
X156172582Y-108880095D01*
X156038494Y-108688597D01*
X155871402Y-108521506D01*
X155871396Y-108521501D01*
X155685842Y-108391575D01*
X155642217Y-108336998D01*
X155635023Y-108267500D01*
X155666546Y-108205145D01*
X155685842Y-108188425D01*
X155708026Y-108172891D01*
X155871401Y-108058495D01*
X156038495Y-107891401D01*
X156174035Y-107697830D01*
X156273903Y-107483663D01*
X156335063Y-107255408D01*
X156355659Y-107020000D01*
X156335063Y-106784592D01*
X156273903Y-106556337D01*
X156174035Y-106342171D01*
X156148403Y-106305565D01*
X156038496Y-106148600D01*
X156019711Y-106129815D01*
X155916567Y-106026671D01*
X155883084Y-105965351D01*
X155888068Y-105895659D01*
X155929939Y-105839725D01*
X155960915Y-105822810D01*
X156092331Y-105773796D01*
X156207546Y-105687546D01*
X156293796Y-105572331D01*
X156344091Y-105437483D01*
X156350500Y-105377873D01*
X156350499Y-103582128D01*
X156344091Y-103522517D01*
X156335691Y-103499996D01*
X156293797Y-103387671D01*
X156293793Y-103387664D01*
X156207547Y-103272455D01*
X156207544Y-103272452D01*
X156092335Y-103186206D01*
X156092328Y-103186202D01*
X155960917Y-103137189D01*
X155904983Y-103095318D01*
X155880566Y-103029853D01*
X155895418Y-102961580D01*
X155916563Y-102933332D01*
X156038495Y-102811401D01*
X156174035Y-102617830D01*
X156273903Y-102403663D01*
X156335063Y-102175408D01*
X156355659Y-101940000D01*
X156335063Y-101704592D01*
X156273903Y-101476337D01*
X156174035Y-101262171D01*
X156109351Y-101169791D01*
X156038494Y-101068597D01*
X155871402Y-100901506D01*
X155871396Y-100901501D01*
X155685842Y-100771575D01*
X155642217Y-100716998D01*
X155635023Y-100647500D01*
X155666546Y-100585145D01*
X155685842Y-100568425D01*
X155714016Y-100548697D01*
X155871401Y-100438495D01*
X156038495Y-100271401D01*
X156174035Y-100077830D01*
X156273903Y-99863663D01*
X156335063Y-99635408D01*
X156355659Y-99400000D01*
X156353890Y-99379786D01*
X156344877Y-99276764D01*
X156335063Y-99164592D01*
X156273903Y-98936337D01*
X156174035Y-98722171D01*
X156101514Y-98618599D01*
X156038494Y-98528597D01*
X155871402Y-98361506D01*
X155871396Y-98361501D01*
X155685842Y-98231575D01*
X155642217Y-98176998D01*
X155635023Y-98107500D01*
X155666546Y-98045145D01*
X155685842Y-98028425D01*
X155734602Y-97994283D01*
X155871401Y-97898495D01*
X156038495Y-97731401D01*
X156174035Y-97537830D01*
X156273903Y-97323663D01*
X156335063Y-97095408D01*
X156355659Y-96860000D01*
X156335063Y-96624592D01*
X156273903Y-96396337D01*
X156174035Y-96182171D01*
X156160351Y-96162627D01*
X156038494Y-95988597D01*
X155871402Y-95821506D01*
X155871396Y-95821501D01*
X155685842Y-95691575D01*
X155642217Y-95636998D01*
X155635023Y-95567500D01*
X155666546Y-95505145D01*
X155685842Y-95488425D01*
X155738716Y-95451402D01*
X155871401Y-95358495D01*
X156038495Y-95191401D01*
X156174035Y-94997830D01*
X156273903Y-94783663D01*
X156335063Y-94555408D01*
X156355659Y-94320000D01*
X156335063Y-94084592D01*
X156286184Y-93902171D01*
X156273905Y-93856344D01*
X156273904Y-93856343D01*
X156273903Y-93856337D01*
X156174035Y-93642171D01*
X156174032Y-93642167D01*
X156038496Y-93448600D01*
X155978609Y-93388713D01*
X155916567Y-93326671D01*
X155883084Y-93265351D01*
X155888068Y-93195659D01*
X155929939Y-93139725D01*
X155960915Y-93122810D01*
X156092331Y-93073796D01*
X156207546Y-92987546D01*
X156293796Y-92872331D01*
X156344091Y-92737483D01*
X156350500Y-92677873D01*
X156350499Y-91354499D01*
X156370184Y-91287461D01*
X156422987Y-91241706D01*
X156474499Y-91230500D01*
X161613450Y-91230500D01*
X161680489Y-91250185D01*
X161726244Y-91302989D01*
X161736188Y-91372147D01*
X161727558Y-91401114D01*
X161727947Y-91401256D01*
X161726094Y-91406344D01*
X161664938Y-91634586D01*
X161664936Y-91634596D01*
X161644341Y-91869999D01*
X161644341Y-91870000D01*
X161664936Y-92105403D01*
X161664938Y-92105413D01*
X161726094Y-92333655D01*
X161726096Y-92333659D01*
X161726097Y-92333663D01*
X161777751Y-92444435D01*
X161825965Y-92547830D01*
X161825967Y-92547834D01*
X161847830Y-92579057D01*
X161954772Y-92731786D01*
X161961501Y-92741395D01*
X161961506Y-92741402D01*
X162128597Y-92908493D01*
X162128603Y-92908498D01*
X162314158Y-93038425D01*
X162357783Y-93093002D01*
X162364977Y-93162500D01*
X162333454Y-93224855D01*
X162314158Y-93241575D01*
X162128597Y-93371505D01*
X161961505Y-93538597D01*
X161825965Y-93732169D01*
X161825964Y-93732171D01*
X161726098Y-93946335D01*
X161726094Y-93946344D01*
X161664938Y-94174586D01*
X161664936Y-94174596D01*
X161644341Y-94409999D01*
X161644341Y-94410000D01*
X161664936Y-94645403D01*
X161664938Y-94645413D01*
X161726094Y-94873655D01*
X161726096Y-94873659D01*
X161726097Y-94873663D01*
X161783997Y-94997830D01*
X161825965Y-95087830D01*
X161825967Y-95087834D01*
X161961501Y-95281395D01*
X161961506Y-95281402D01*
X162128597Y-95448493D01*
X162128603Y-95448498D01*
X162314158Y-95578425D01*
X162357783Y-95633002D01*
X162364977Y-95702500D01*
X162333454Y-95764855D01*
X162314158Y-95781575D01*
X162128597Y-95911505D01*
X161961505Y-96078597D01*
X161825965Y-96272169D01*
X161825964Y-96272171D01*
X161726098Y-96486335D01*
X161726094Y-96486344D01*
X161664938Y-96714586D01*
X161664936Y-96714596D01*
X161644341Y-96949999D01*
X161644341Y-96950000D01*
X161664936Y-97185403D01*
X161664938Y-97185413D01*
X161726094Y-97413655D01*
X161726096Y-97413659D01*
X161726097Y-97413663D01*
X161775729Y-97520099D01*
X161825965Y-97627830D01*
X161825967Y-97627834D01*
X161961501Y-97821395D01*
X161961506Y-97821402D01*
X162128597Y-97988493D01*
X162128603Y-97988498D01*
X162314158Y-98118425D01*
X162357783Y-98173002D01*
X162364977Y-98242500D01*
X162333454Y-98304855D01*
X162314158Y-98321575D01*
X162128597Y-98451505D01*
X161961505Y-98618597D01*
X161825965Y-98812169D01*
X161825964Y-98812171D01*
X161726098Y-99026335D01*
X161726094Y-99026344D01*
X161664938Y-99254586D01*
X161664936Y-99254596D01*
X161644341Y-99489999D01*
X161644341Y-99490000D01*
X161664936Y-99725403D01*
X161664938Y-99725413D01*
X161726094Y-99953655D01*
X161726096Y-99953659D01*
X161726097Y-99953663D01*
X161803761Y-100120213D01*
X161825965Y-100167830D01*
X161825967Y-100167834D01*
X161961501Y-100361395D01*
X161961506Y-100361402D01*
X162128597Y-100528493D01*
X162128603Y-100528498D01*
X162314158Y-100658425D01*
X162357783Y-100713002D01*
X162364977Y-100782500D01*
X162333454Y-100844855D01*
X162314158Y-100861575D01*
X162128597Y-100991505D01*
X161961505Y-101158597D01*
X161825965Y-101352169D01*
X161825964Y-101352171D01*
X161726098Y-101566335D01*
X161726094Y-101566344D01*
X161664938Y-101794586D01*
X161664936Y-101794596D01*
X161644341Y-102029999D01*
X161644341Y-102030000D01*
X161664936Y-102265403D01*
X161664938Y-102265413D01*
X161726094Y-102493655D01*
X161726096Y-102493659D01*
X161726097Y-102493663D01*
X161783997Y-102617830D01*
X161825965Y-102707830D01*
X161825967Y-102707834D01*
X161961501Y-102901395D01*
X161961506Y-102901402D01*
X162128597Y-103068493D01*
X162128603Y-103068498D01*
X162314158Y-103198425D01*
X162357783Y-103253002D01*
X162364977Y-103322500D01*
X162333454Y-103384855D01*
X162314158Y-103401575D01*
X162128597Y-103531505D01*
X161961505Y-103698597D01*
X161825965Y-103892169D01*
X161825964Y-103892171D01*
X161777143Y-103996869D01*
X161726721Y-104105000D01*
X161726098Y-104106335D01*
X161726094Y-104106344D01*
X161664938Y-104334586D01*
X161664936Y-104334596D01*
X161644341Y-104569999D01*
X161644341Y-104570000D01*
X161664936Y-104805403D01*
X161664938Y-104805413D01*
X161726094Y-105033655D01*
X161726096Y-105033659D01*
X161726097Y-105033663D01*
X161727238Y-105036109D01*
X161825965Y-105247830D01*
X161825967Y-105247834D01*
X161961501Y-105441395D01*
X161961506Y-105441402D01*
X162128597Y-105608493D01*
X162128603Y-105608498D01*
X162314158Y-105738425D01*
X162357783Y-105793002D01*
X162364977Y-105862500D01*
X162333454Y-105924855D01*
X162314158Y-105941575D01*
X162128597Y-106071505D01*
X161961505Y-106238597D01*
X161825965Y-106432169D01*
X161825964Y-106432171D01*
X161732401Y-106632816D01*
X161726721Y-106645000D01*
X161726098Y-106646335D01*
X161726094Y-106646344D01*
X161664938Y-106874586D01*
X161664936Y-106874596D01*
X161644341Y-107109999D01*
X161644341Y-107110000D01*
X161664936Y-107345403D01*
X161664938Y-107345413D01*
X161726094Y-107573655D01*
X161726096Y-107573659D01*
X161726097Y-107573663D01*
X161807070Y-107747309D01*
X161825965Y-107787830D01*
X161825967Y-107787834D01*
X161961501Y-107981395D01*
X161961506Y-107981402D01*
X162128597Y-108148493D01*
X162128603Y-108148498D01*
X162314158Y-108278425D01*
X162357783Y-108333002D01*
X162364977Y-108402500D01*
X162333454Y-108464855D01*
X162314158Y-108481575D01*
X162128597Y-108611505D01*
X161961505Y-108778597D01*
X161825965Y-108972169D01*
X161825964Y-108972171D01*
X161726098Y-109186335D01*
X161726094Y-109186344D01*
X161664938Y-109414586D01*
X161664936Y-109414596D01*
X161644341Y-109649999D01*
X161644341Y-109650000D01*
X161664936Y-109885403D01*
X161664938Y-109885413D01*
X161726094Y-110113655D01*
X161726096Y-110113659D01*
X161726097Y-110113663D01*
X161773180Y-110214632D01*
X161825965Y-110327830D01*
X161825967Y-110327834D01*
X161961501Y-110521395D01*
X161961506Y-110521402D01*
X162128597Y-110688493D01*
X162128603Y-110688498D01*
X162314158Y-110818425D01*
X162357783Y-110873002D01*
X162364977Y-110942500D01*
X162333454Y-111004855D01*
X162314158Y-111021575D01*
X162128597Y-111151505D01*
X161961505Y-111318597D01*
X161825965Y-111512169D01*
X161825964Y-111512171D01*
X161726098Y-111726335D01*
X161726094Y-111726344D01*
X161664938Y-111954586D01*
X161664936Y-111954596D01*
X161644341Y-112189999D01*
X161644341Y-112190000D01*
X161664936Y-112425403D01*
X161664938Y-112425413D01*
X161726094Y-112653655D01*
X161726096Y-112653659D01*
X161726097Y-112653663D01*
X161783997Y-112777830D01*
X161825965Y-112867830D01*
X161825967Y-112867834D01*
X161961501Y-113061395D01*
X161961506Y-113061402D01*
X162128597Y-113228493D01*
X162128603Y-113228498D01*
X162314158Y-113358425D01*
X162357783Y-113413002D01*
X162364977Y-113482500D01*
X162333454Y-113544855D01*
X162314158Y-113561575D01*
X162128597Y-113691505D01*
X161961505Y-113858597D01*
X161825965Y-114052169D01*
X161825964Y-114052171D01*
X161726098Y-114266335D01*
X161726094Y-114266344D01*
X161664938Y-114494586D01*
X161664936Y-114494596D01*
X161644341Y-114729999D01*
X161644341Y-114730000D01*
X161664936Y-114965403D01*
X161664938Y-114965413D01*
X161726094Y-115193655D01*
X161726096Y-115193659D01*
X161726097Y-115193663D01*
X161739488Y-115222379D01*
X161825965Y-115407830D01*
X161825967Y-115407834D01*
X161898486Y-115511401D01*
X161961505Y-115601401D01*
X162128599Y-115768495D01*
X162297340Y-115886649D01*
X162314594Y-115898730D01*
X162358219Y-115953307D01*
X162365413Y-116022805D01*
X162333890Y-116085160D01*
X162314595Y-116101880D01*
X162128922Y-116231890D01*
X162128920Y-116231891D01*
X161961891Y-116398920D01*
X161961886Y-116398926D01*
X161826400Y-116592420D01*
X161826399Y-116592422D01*
X161726570Y-116806507D01*
X161726567Y-116806513D01*
X161669364Y-117019999D01*
X161669364Y-117020000D01*
X162566988Y-117020000D01*
X162534075Y-117077007D01*
X162500000Y-117204174D01*
X162500000Y-117335826D01*
X162534075Y-117462993D01*
X162566988Y-117520000D01*
X161669364Y-117520000D01*
X161726567Y-117733486D01*
X161726570Y-117733492D01*
X161826399Y-117947578D01*
X161961894Y-118141082D01*
X162128917Y-118308105D01*
X162314595Y-118438119D01*
X162358219Y-118492696D01*
X162365412Y-118562195D01*
X162333890Y-118624549D01*
X162314595Y-118641269D01*
X162128594Y-118771508D01*
X161961505Y-118938597D01*
X161825965Y-119132169D01*
X161825964Y-119132171D01*
X161726098Y-119346335D01*
X161726094Y-119346344D01*
X161664938Y-119574586D01*
X161664936Y-119574596D01*
X161644341Y-119809999D01*
X161644341Y-119810000D01*
X161664936Y-120045403D01*
X161664938Y-120045413D01*
X161726094Y-120273655D01*
X161726096Y-120273659D01*
X161726097Y-120273663D01*
X161798839Y-120429658D01*
X161825965Y-120487830D01*
X161825967Y-120487834D01*
X161961501Y-120681395D01*
X161961506Y-120681402D01*
X162128597Y-120848493D01*
X162128603Y-120848498D01*
X162314158Y-120978425D01*
X162357783Y-121033002D01*
X162364977Y-121102500D01*
X162333454Y-121164855D01*
X162314158Y-121181575D01*
X162128597Y-121311505D01*
X161961505Y-121478597D01*
X161825965Y-121672169D01*
X161825964Y-121672171D01*
X161726098Y-121886335D01*
X161726094Y-121886344D01*
X161664938Y-122114586D01*
X161664936Y-122114596D01*
X161644341Y-122349999D01*
X161644341Y-122350000D01*
X161664936Y-122585403D01*
X161664938Y-122585413D01*
X161726094Y-122813655D01*
X161726096Y-122813659D01*
X161726097Y-122813663D01*
X161789906Y-122950501D01*
X161825965Y-123027830D01*
X161825967Y-123027834D01*
X161874982Y-123097834D01*
X161961505Y-123221401D01*
X162128599Y-123388495D01*
X162193637Y-123434035D01*
X162322165Y-123524032D01*
X162322167Y-123524033D01*
X162322170Y-123524035D01*
X162536337Y-123623903D01*
X162764592Y-123685063D01*
X162952918Y-123701539D01*
X162999999Y-123705659D01*
X163000000Y-123705659D01*
X163000001Y-123705659D01*
X163039234Y-123702226D01*
X163235408Y-123685063D01*
X163463663Y-123623903D01*
X163677830Y-123524035D01*
X163871401Y-123388495D01*
X164038495Y-123221401D01*
X164174035Y-123027830D01*
X164176707Y-123022097D01*
X164222878Y-122969658D01*
X164289091Y-122950500D01*
X166987671Y-122950500D01*
X166987687Y-122950501D01*
X166995283Y-122950501D01*
X167153394Y-122950501D01*
X167153397Y-122950501D01*
X167306125Y-122909577D01*
X167356244Y-122880639D01*
X167443056Y-122830520D01*
X167554860Y-122718716D01*
X167554860Y-122718714D01*
X167565068Y-122708507D01*
X167565069Y-122708504D01*
X176521756Y-113751819D01*
X176583079Y-113718334D01*
X176609437Y-113715500D01*
X177526000Y-113715500D01*
X177593039Y-113735185D01*
X177638794Y-113787989D01*
X177650000Y-113839500D01*
X177650000Y-114015000D01*
X178566988Y-114015000D01*
X178534075Y-114072007D01*
X178500000Y-114199174D01*
X178500000Y-114330826D01*
X178534075Y-114457993D01*
X178566988Y-114515000D01*
X177650000Y-114515000D01*
X177650000Y-115162844D01*
X177656401Y-115222372D01*
X177656403Y-115222379D01*
X177706645Y-115357086D01*
X177706649Y-115357093D01*
X177792809Y-115472187D01*
X177792812Y-115472190D01*
X177907906Y-115558350D01*
X177907913Y-115558354D01*
X178042620Y-115608596D01*
X178042627Y-115608598D01*
X178102155Y-115614999D01*
X178102172Y-115615000D01*
X178750000Y-115615000D01*
X178750000Y-114698012D01*
X178807007Y-114730925D01*
X178934174Y-114765000D01*
X179065826Y-114765000D01*
X179192993Y-114730925D01*
X179250000Y-114698012D01*
X179250000Y-115615000D01*
X179897828Y-115615000D01*
X179897844Y-115614999D01*
X179957372Y-115608598D01*
X179957379Y-115608596D01*
X180092086Y-115558354D01*
X180092093Y-115558350D01*
X180207187Y-115472190D01*
X180207190Y-115472187D01*
X180293350Y-115357093D01*
X180293354Y-115357086D01*
X180343596Y-115222379D01*
X180343598Y-115222372D01*
X180349999Y-115162844D01*
X180350000Y-115162827D01*
X180350000Y-114515000D01*
X179433012Y-114515000D01*
X179465925Y-114457993D01*
X179500000Y-114330826D01*
X179500000Y-114199174D01*
X179465925Y-114072007D01*
X179433012Y-114015000D01*
X180350000Y-114015000D01*
X180350000Y-113367172D01*
X180349999Y-113367155D01*
X180343598Y-113307627D01*
X180343596Y-113307620D01*
X180293354Y-113172913D01*
X180293352Y-113172911D01*
X180244000Y-113106984D01*
X180219583Y-113041520D01*
X180234434Y-112973247D01*
X180255580Y-112944999D01*
X180908506Y-112292074D01*
X180908511Y-112292070D01*
X180918714Y-112281866D01*
X180918716Y-112281866D01*
X181030520Y-112170062D01*
X181083547Y-112078215D01*
X181109577Y-112033131D01*
X181150500Y-111880404D01*
X181150500Y-111722289D01*
X181150500Y-105744059D01*
X181150501Y-105744046D01*
X181150501Y-105575945D01*
X181150501Y-105575943D01*
X181109577Y-105423215D01*
X181065654Y-105347139D01*
X181065654Y-105347137D01*
X181030524Y-105286290D01*
X181030521Y-105286286D01*
X181030520Y-105286284D01*
X180918716Y-105174480D01*
X180918715Y-105174479D01*
X180914385Y-105170149D01*
X180914374Y-105170139D01*
X180332766Y-104588531D01*
X180299281Y-104527208D01*
X180300672Y-104468757D01*
X180301863Y-104464309D01*
X180335063Y-104340408D01*
X180355659Y-104105000D01*
X180335063Y-103869592D01*
X180273903Y-103641337D01*
X180174035Y-103427171D01*
X180152185Y-103395965D01*
X180038494Y-103233597D01*
X179871402Y-103066506D01*
X179871395Y-103066501D01*
X179677832Y-102930966D01*
X179646752Y-102916473D01*
X179594313Y-102870300D01*
X179575162Y-102803106D01*
X179595378Y-102736225D01*
X179611472Y-102716415D01*
X180858506Y-101469382D01*
X180858511Y-101469378D01*
X180868714Y-101459174D01*
X180868716Y-101459174D01*
X180980520Y-101347370D01*
X181047983Y-101230520D01*
X181059577Y-101210439D01*
X181100500Y-101057711D01*
X181100500Y-100899597D01*
X181100500Y-89170943D01*
X181059577Y-89018216D01*
X181007252Y-88927585D01*
X180980524Y-88881290D01*
X180980518Y-88881282D01*
X180868717Y-88769481D01*
X180868709Y-88769475D01*
X180731790Y-88690426D01*
X180731786Y-88690424D01*
X180731784Y-88690423D01*
X180579057Y-88649500D01*
X180579056Y-88649500D01*
X180110759Y-88649500D01*
X180043720Y-88629815D01*
X180023078Y-88613182D01*
X179972065Y-88562169D01*
X179871401Y-88461505D01*
X179871397Y-88461502D01*
X179871396Y-88461501D01*
X179685842Y-88331575D01*
X179642217Y-88276998D01*
X179635023Y-88207500D01*
X179666546Y-88145145D01*
X179685842Y-88128425D01*
X179716443Y-88106998D01*
X179871401Y-87998495D01*
X180038495Y-87831401D01*
X180174035Y-87637830D01*
X180273903Y-87423663D01*
X180335063Y-87195408D01*
X180355659Y-86960000D01*
X180351837Y-86916321D01*
X180351539Y-86912918D01*
X180335063Y-86724592D01*
X180300672Y-86596243D01*
X180302335Y-86526394D01*
X180332766Y-86476469D01*
X180449736Y-86359499D01*
X180630520Y-86178716D01*
X180709577Y-86041784D01*
X180750501Y-85889057D01*
X180750501Y-85730942D01*
X180750501Y-85723347D01*
X180750500Y-85723329D01*
X180750500Y-71967714D01*
X180750501Y-71967701D01*
X180750501Y-71799598D01*
X180717696Y-71677171D01*
X180709577Y-71646870D01*
X180709573Y-71646863D01*
X180630524Y-71509944D01*
X180630518Y-71509936D01*
X180370582Y-71250000D01*
X180010418Y-70889837D01*
X179976934Y-70828515D01*
X179981918Y-70758824D01*
X180010416Y-70714478D01*
X180038495Y-70686401D01*
X180174035Y-70492830D01*
X180273903Y-70278663D01*
X180335063Y-70050408D01*
X180355659Y-69815000D01*
X180353066Y-69785368D01*
X180335063Y-69579596D01*
X180335063Y-69579592D01*
X180273903Y-69351337D01*
X180174035Y-69137171D01*
X180077990Y-69000003D01*
X180038494Y-68943597D01*
X179871402Y-68776506D01*
X179871395Y-68776501D01*
X179677834Y-68640967D01*
X179677830Y-68640965D01*
X179662630Y-68633877D01*
X179463663Y-68541097D01*
X179463659Y-68541096D01*
X179463655Y-68541094D01*
X179235413Y-68479938D01*
X179235403Y-68479936D01*
X179000001Y-68459341D01*
X178999999Y-68459341D01*
X178764596Y-68479936D01*
X178764586Y-68479938D01*
X178536344Y-68541094D01*
X178536335Y-68541098D01*
X178322171Y-68640964D01*
X178322169Y-68640965D01*
X178128597Y-68776505D01*
X177961505Y-68943597D01*
X177825965Y-69137169D01*
X177825964Y-69137171D01*
X177726098Y-69351335D01*
X177726094Y-69351344D01*
X177664938Y-69579586D01*
X177664936Y-69579596D01*
X177644341Y-69814999D01*
X177644341Y-69815000D01*
X177664936Y-70050403D01*
X177664938Y-70050413D01*
X177726094Y-70278655D01*
X177726096Y-70278659D01*
X177726097Y-70278663D01*
X177759375Y-70350028D01*
X177825965Y-70492830D01*
X177825967Y-70492834D01*
X177961501Y-70686395D01*
X177961506Y-70686402D01*
X178128597Y-70853493D01*
X178128603Y-70853498D01*
X178314158Y-70983425D01*
X178357783Y-71038002D01*
X178364977Y-71107500D01*
X178333454Y-71169855D01*
X178314158Y-71186575D01*
X178128597Y-71316505D01*
X177961505Y-71483597D01*
X177825965Y-71677169D01*
X177825964Y-71677171D01*
X177726098Y-71891335D01*
X177726094Y-71891344D01*
X177664938Y-72119586D01*
X177664936Y-72119596D01*
X177644341Y-72354999D01*
X177644341Y-72355000D01*
X177664936Y-72590403D01*
X177664938Y-72590413D01*
X177726094Y-72818655D01*
X177726096Y-72818659D01*
X177726097Y-72818663D01*
X177809567Y-72997664D01*
X177825965Y-73032830D01*
X177825967Y-73032834D01*
X177961501Y-73226395D01*
X177961506Y-73226402D01*
X178128597Y-73393493D01*
X178128603Y-73393498D01*
X178314158Y-73523425D01*
X178357783Y-73578002D01*
X178364977Y-73647500D01*
X178333454Y-73709855D01*
X178314158Y-73726575D01*
X178128597Y-73856505D01*
X177961505Y-74023597D01*
X177825965Y-74217169D01*
X177825964Y-74217171D01*
X177726098Y-74431335D01*
X177726094Y-74431344D01*
X177664938Y-74659586D01*
X177664936Y-74659596D01*
X177644341Y-74894999D01*
X177644341Y-74895000D01*
X177664936Y-75130403D01*
X177664938Y-75130413D01*
X177699327Y-75258756D01*
X177697664Y-75328606D01*
X177667233Y-75378530D01*
X175031286Y-78014478D01*
X174919481Y-78126282D01*
X174919479Y-78126285D01*
X174916465Y-78131506D01*
X174872331Y-78207949D01*
X174840423Y-78263215D01*
X174799499Y-78415943D01*
X174799499Y-78415945D01*
X174799499Y-78584046D01*
X174799500Y-78584059D01*
X174799500Y-88353330D01*
X174799499Y-88353348D01*
X174799499Y-88519054D01*
X174799498Y-88519054D01*
X174799499Y-88519057D01*
X174840423Y-88671785D01*
X174851185Y-88690426D01*
X174852219Y-88692216D01*
X174852220Y-88692218D01*
X174919477Y-88808712D01*
X174919481Y-88808717D01*
X175038349Y-88927585D01*
X175038355Y-88927590D01*
X177667233Y-91556468D01*
X177700718Y-91617791D01*
X177699327Y-91676241D01*
X177664939Y-91804583D01*
X177664936Y-91804596D01*
X177644341Y-92039999D01*
X177644341Y-92040000D01*
X177664936Y-92275403D01*
X177664938Y-92275413D01*
X177726094Y-92503655D01*
X177726096Y-92503659D01*
X177726097Y-92503663D01*
X177807331Y-92677870D01*
X177825965Y-92717830D01*
X177825967Y-92717834D01*
X177961501Y-92911395D01*
X177961506Y-92911402D01*
X178128597Y-93078493D01*
X178128603Y-93078498D01*
X178314158Y-93208425D01*
X178357783Y-93263002D01*
X178364977Y-93332500D01*
X178333454Y-93394855D01*
X178314158Y-93411575D01*
X178128597Y-93541505D01*
X177961505Y-93708597D01*
X177825965Y-93902169D01*
X177825964Y-93902171D01*
X177726098Y-94116335D01*
X177726094Y-94116344D01*
X177664938Y-94344586D01*
X177664936Y-94344596D01*
X177644341Y-94579999D01*
X177644341Y-94580000D01*
X177664936Y-94815403D01*
X177664938Y-94815413D01*
X177726094Y-95043655D01*
X177726096Y-95043659D01*
X177726097Y-95043663D01*
X177781878Y-95163285D01*
X177825965Y-95257830D01*
X177825967Y-95257834D01*
X177961501Y-95451395D01*
X177961506Y-95451402D01*
X178083818Y-95573714D01*
X178117303Y-95635037D01*
X178112319Y-95704729D01*
X178070447Y-95760662D01*
X178039471Y-95777577D01*
X177907912Y-95826646D01*
X177907906Y-95826649D01*
X177792812Y-95912809D01*
X177792809Y-95912812D01*
X177706649Y-96027906D01*
X177706645Y-96027913D01*
X177656403Y-96162620D01*
X177656401Y-96162627D01*
X177650000Y-96222155D01*
X177650000Y-96870000D01*
X178566988Y-96870000D01*
X178534075Y-96927007D01*
X178500000Y-97054174D01*
X178500000Y-97185826D01*
X178534075Y-97312993D01*
X178566988Y-97370000D01*
X177650000Y-97370000D01*
X177650000Y-98017844D01*
X177656401Y-98077372D01*
X177656403Y-98077379D01*
X177706645Y-98212086D01*
X177706649Y-98212093D01*
X177792809Y-98327187D01*
X177792812Y-98327190D01*
X177907906Y-98413350D01*
X177907913Y-98413354D01*
X178042620Y-98463596D01*
X178042627Y-98463598D01*
X178102155Y-98469999D01*
X178102172Y-98470000D01*
X178750000Y-98470000D01*
X178750000Y-97553012D01*
X178807007Y-97585925D01*
X178934174Y-97620000D01*
X179065826Y-97620000D01*
X179192993Y-97585925D01*
X179250000Y-97553012D01*
X179250000Y-98470000D01*
X179775500Y-98470000D01*
X179842539Y-98489685D01*
X179888294Y-98542489D01*
X179899500Y-98594000D01*
X179899500Y-100678556D01*
X179879815Y-100745595D01*
X179863181Y-100766237D01*
X179446256Y-101183162D01*
X179384933Y-101216647D01*
X179315241Y-101211663D01*
X179259308Y-101169791D01*
X179234891Y-101104327D01*
X179241534Y-101054526D01*
X179285366Y-100929262D01*
X179285369Y-100929249D01*
X179305565Y-100750003D01*
X179305565Y-100749996D01*
X179285369Y-100570750D01*
X179285368Y-100570745D01*
X179270583Y-100528493D01*
X179225789Y-100400478D01*
X179222948Y-100395957D01*
X179144684Y-100271401D01*
X179129816Y-100247738D01*
X179002262Y-100120184D01*
X178849521Y-100024210D01*
X178694293Y-99969894D01*
X178679255Y-99964632D01*
X178679254Y-99964631D01*
X178679249Y-99964630D01*
X178592331Y-99954837D01*
X178527917Y-99927770D01*
X178518534Y-99919298D01*
X176330700Y-97731465D01*
X176297215Y-97670142D01*
X176295163Y-97657686D01*
X176285368Y-97570745D01*
X176225789Y-97400478D01*
X176129816Y-97247738D01*
X176002262Y-97120184D01*
X176001969Y-97120000D01*
X175849523Y-97024211D01*
X175679254Y-96964631D01*
X175679249Y-96964630D01*
X175500004Y-96944435D01*
X175499996Y-96944435D01*
X175320750Y-96964630D01*
X175320745Y-96964631D01*
X175150476Y-97024211D01*
X174997737Y-97120184D01*
X174870184Y-97247737D01*
X174774211Y-97400476D01*
X174714631Y-97570745D01*
X174714630Y-97570750D01*
X174694435Y-97749996D01*
X174694435Y-97750003D01*
X174714630Y-97929249D01*
X174714631Y-97929254D01*
X174774211Y-98099523D01*
X174863576Y-98241745D01*
X174870184Y-98252262D01*
X174997738Y-98379816D01*
X175150478Y-98475789D01*
X175320745Y-98535368D01*
X175407669Y-98545161D01*
X175472080Y-98572226D01*
X175481465Y-98580700D01*
X177669298Y-100768534D01*
X177702783Y-100829857D01*
X177704837Y-100842331D01*
X177714630Y-100929249D01*
X177714631Y-100929254D01*
X177714632Y-100929255D01*
X177722538Y-100951849D01*
X177774210Y-101099521D01*
X177843905Y-101210439D01*
X177870184Y-101252262D01*
X177997738Y-101379816D01*
X178088080Y-101436582D01*
X178140287Y-101469386D01*
X178150478Y-101475789D01*
X178195475Y-101491534D01*
X178320745Y-101535368D01*
X178320750Y-101535369D01*
X178499996Y-101555565D01*
X178500000Y-101555565D01*
X178500004Y-101555565D01*
X178679249Y-101535369D01*
X178679252Y-101535368D01*
X178679255Y-101535368D01*
X178679256Y-101535367D01*
X178679259Y-101535367D01*
X178736095Y-101515478D01*
X178804525Y-101491533D01*
X178874303Y-101487971D01*
X178934931Y-101522700D01*
X178967158Y-101584693D01*
X178960754Y-101654269D01*
X178933161Y-101696256D01*
X176881286Y-103748132D01*
X176769481Y-103859936D01*
X176769479Y-103859939D01*
X176727751Y-103932216D01*
X176727750Y-103932217D01*
X176690423Y-103996869D01*
X176649499Y-104149597D01*
X176649499Y-104149599D01*
X176649499Y-104317700D01*
X176649500Y-104317713D01*
X176649500Y-104699902D01*
X176629815Y-104766941D01*
X176613181Y-104787583D01*
X174927584Y-106473181D01*
X174866261Y-106506666D01*
X174839903Y-106509500D01*
X173268536Y-106509500D01*
X173201497Y-106489815D01*
X173155742Y-106437011D01*
X173145798Y-106367853D01*
X173174823Y-106304297D01*
X173227581Y-106268458D01*
X173264601Y-106255504D01*
X173349522Y-106225789D01*
X173502262Y-106129816D01*
X173629816Y-106002262D01*
X173725789Y-105849522D01*
X173785368Y-105679255D01*
X173785369Y-105679249D01*
X173805565Y-105500003D01*
X173805565Y-105499996D01*
X173785369Y-105320750D01*
X173785368Y-105320745D01*
X173754241Y-105231790D01*
X173725789Y-105150478D01*
X173721401Y-105143495D01*
X173670456Y-105062416D01*
X173629816Y-104997738D01*
X173629814Y-104997736D01*
X173629813Y-104997734D01*
X173627550Y-104994896D01*
X173626659Y-104992715D01*
X173626111Y-104991842D01*
X173626264Y-104991745D01*
X173601144Y-104930209D01*
X173600500Y-104917587D01*
X173600500Y-103170945D01*
X173600500Y-103170943D01*
X173572239Y-103065470D01*
X173559577Y-103018215D01*
X173550366Y-103002262D01*
X173526380Y-102960717D01*
X173526380Y-102960716D01*
X173480522Y-102881287D01*
X173480521Y-102881286D01*
X173480520Y-102881284D01*
X173368716Y-102769480D01*
X173368715Y-102769479D01*
X173364385Y-102765149D01*
X173364374Y-102765139D01*
X173080700Y-102481465D01*
X173047215Y-102420142D01*
X173045163Y-102407686D01*
X173035368Y-102320745D01*
X172975789Y-102150478D01*
X172879816Y-101997738D01*
X172752262Y-101870184D01*
X172631965Y-101794596D01*
X172599523Y-101774211D01*
X172429254Y-101714631D01*
X172429249Y-101714630D01*
X172250004Y-101694435D01*
X172249996Y-101694435D01*
X172070750Y-101714630D01*
X172070745Y-101714631D01*
X171900476Y-101774211D01*
X171747737Y-101870184D01*
X171620184Y-101997737D01*
X171524211Y-102150476D01*
X171464631Y-102320745D01*
X171464630Y-102320750D01*
X171444435Y-102499996D01*
X171444435Y-102500003D01*
X171464630Y-102679249D01*
X171464631Y-102679254D01*
X171524211Y-102849523D01*
X171594622Y-102961580D01*
X171620184Y-103002262D01*
X171747738Y-103129816D01*
X171900478Y-103225789D01*
X172070745Y-103285368D01*
X172157669Y-103295161D01*
X172222080Y-103322226D01*
X172231465Y-103330700D01*
X172363181Y-103462416D01*
X172396666Y-103523739D01*
X172399500Y-103550097D01*
X172399500Y-104917587D01*
X172379815Y-104984626D01*
X172372450Y-104994896D01*
X172370186Y-104997734D01*
X172274211Y-105150476D01*
X172214631Y-105320745D01*
X172214630Y-105320750D01*
X172194435Y-105499996D01*
X172194435Y-105500003D01*
X172214630Y-105679249D01*
X172214631Y-105679254D01*
X172274211Y-105849523D01*
X172348135Y-105967171D01*
X172370184Y-106002262D01*
X172497738Y-106129816D01*
X172650478Y-106225789D01*
X172687087Y-106238599D01*
X172772419Y-106268458D01*
X172829195Y-106309180D01*
X172854942Y-106374133D01*
X172841486Y-106442694D01*
X172793099Y-106493097D01*
X172731464Y-106509500D01*
X164289091Y-106509500D01*
X164222052Y-106489815D01*
X164176711Y-106437909D01*
X164174037Y-106432175D01*
X164174034Y-106432170D01*
X164174033Y-106432169D01*
X164071243Y-106285368D01*
X164038494Y-106238597D01*
X163871402Y-106071506D01*
X163871396Y-106071501D01*
X163685842Y-105941575D01*
X163642217Y-105886998D01*
X163635023Y-105817500D01*
X163666546Y-105755145D01*
X163685842Y-105738425D01*
X163758503Y-105687547D01*
X163871401Y-105608495D01*
X164038495Y-105441401D01*
X164174035Y-105247830D01*
X164273903Y-105033663D01*
X164335063Y-104805408D01*
X164355659Y-104570000D01*
X164335063Y-104334592D01*
X164273903Y-104106337D01*
X164174035Y-103892171D01*
X164151466Y-103859938D01*
X164038494Y-103698597D01*
X163871402Y-103531506D01*
X163871396Y-103531501D01*
X163685842Y-103401575D01*
X163642217Y-103346998D01*
X163635023Y-103277500D01*
X163666546Y-103215145D01*
X163685842Y-103198425D01*
X163775124Y-103135909D01*
X163871401Y-103068495D01*
X164038495Y-102901401D01*
X164174035Y-102707830D01*
X164273903Y-102493663D01*
X164335063Y-102265408D01*
X164355659Y-102030000D01*
X164335063Y-101794592D01*
X164273903Y-101566337D01*
X164174035Y-101352171D01*
X164170674Y-101347370D01*
X164038494Y-101158597D01*
X163871402Y-100991506D01*
X163871396Y-100991501D01*
X163685842Y-100861575D01*
X163642217Y-100806998D01*
X163635023Y-100737500D01*
X163666546Y-100675145D01*
X163685842Y-100658425D01*
X163806363Y-100574035D01*
X163871401Y-100528495D01*
X164038495Y-100361401D01*
X164174035Y-100167830D01*
X164273903Y-99953663D01*
X164335063Y-99725408D01*
X164355659Y-99490000D01*
X164353222Y-99462154D01*
X164366987Y-99393657D01*
X164415601Y-99343473D01*
X164483629Y-99327538D01*
X164549473Y-99350911D01*
X164564431Y-99363666D01*
X164888181Y-99687416D01*
X164921666Y-99748739D01*
X164924500Y-99775097D01*
X164924500Y-103188330D01*
X164924499Y-103188348D01*
X164924499Y-103354058D01*
X164944036Y-103426974D01*
X164947482Y-103472943D01*
X164944435Y-103499998D01*
X164944435Y-103500003D01*
X164964630Y-103679249D01*
X164964631Y-103679254D01*
X165024211Y-103849523D01*
X165076172Y-103932218D01*
X165120184Y-104002262D01*
X165247738Y-104129816D01*
X165400478Y-104225789D01*
X165570745Y-104285368D01*
X165570750Y-104285369D01*
X165749996Y-104305565D01*
X165750000Y-104305565D01*
X165750004Y-104305565D01*
X165929249Y-104285369D01*
X165929252Y-104285368D01*
X165929255Y-104285368D01*
X166099522Y-104225789D01*
X166252262Y-104129816D01*
X166379816Y-104002262D01*
X166475789Y-103849522D01*
X166535368Y-103679255D01*
X166539640Y-103641344D01*
X166555565Y-103500003D01*
X166555565Y-103499996D01*
X166535369Y-103320750D01*
X166535368Y-103320745D01*
X166518470Y-103272454D01*
X166475789Y-103150478D01*
X166379816Y-102997738D01*
X166252262Y-102870184D01*
X166252259Y-102870182D01*
X166183527Y-102826994D01*
X166137236Y-102774659D01*
X166125500Y-102722001D01*
X166125500Y-100724500D01*
X166145185Y-100657461D01*
X166197989Y-100611706D01*
X166249500Y-100600500D01*
X170533125Y-100600500D01*
X170600164Y-100620185D01*
X170620806Y-100636819D01*
X170660238Y-100676251D01*
X170737026Y-100724500D01*
X170803449Y-100766237D01*
X170812978Y-100772224D01*
X170977684Y-100829857D01*
X170983245Y-100831803D01*
X170983250Y-100831804D01*
X171162496Y-100852000D01*
X171162500Y-100852000D01*
X171162504Y-100852000D01*
X171341749Y-100831804D01*
X171341752Y-100831803D01*
X171341755Y-100831803D01*
X171512022Y-100772224D01*
X171664762Y-100676251D01*
X171792316Y-100548697D01*
X171888289Y-100395957D01*
X171947868Y-100225690D01*
X171954387Y-100167834D01*
X171968065Y-100046438D01*
X171968065Y-100046431D01*
X171947869Y-99867185D01*
X171947868Y-99867180D01*
X171915647Y-99775097D01*
X171888289Y-99696913D01*
X171867344Y-99663580D01*
X171792315Y-99544172D01*
X171664762Y-99416619D01*
X171512023Y-99320646D01*
X171341754Y-99261066D01*
X171341749Y-99261065D01*
X171162504Y-99240870D01*
X171162496Y-99240870D01*
X171112739Y-99246476D01*
X171043917Y-99234421D01*
X170992538Y-99187072D01*
X170974914Y-99119462D01*
X170981815Y-99082301D01*
X171035367Y-98929258D01*
X171035367Y-98929257D01*
X171035368Y-98929255D01*
X171045161Y-98842329D01*
X171072226Y-98777918D01*
X171080690Y-98768543D01*
X171958506Y-97890728D01*
X171958511Y-97890724D01*
X171968714Y-97880520D01*
X171968716Y-97880520D01*
X172080520Y-97768716D01*
X172114364Y-97710097D01*
X172136969Y-97670944D01*
X172136970Y-97670942D01*
X172159574Y-97631790D01*
X172159573Y-97631790D01*
X172159577Y-97631785D01*
X172200500Y-97479058D01*
X172200500Y-97320943D01*
X172200500Y-78939059D01*
X172200501Y-78939046D01*
X172200501Y-78770945D01*
X172200501Y-78770943D01*
X172159577Y-78618215D01*
X172109926Y-78532218D01*
X172080520Y-78481284D01*
X171968716Y-78369480D01*
X171968715Y-78369479D01*
X171964385Y-78365149D01*
X171964374Y-78365139D01*
X171330700Y-77731465D01*
X171297215Y-77670142D01*
X171295163Y-77657686D01*
X171285368Y-77570745D01*
X171225789Y-77400478D01*
X171129816Y-77247738D01*
X171002262Y-77120184D01*
X170960054Y-77093663D01*
X170849523Y-77024211D01*
X170679254Y-76964631D01*
X170679249Y-76964630D01*
X170500004Y-76944435D01*
X170499996Y-76944435D01*
X170320750Y-76964630D01*
X170320745Y-76964631D01*
X170150476Y-77024211D01*
X169997737Y-77120184D01*
X169962181Y-77155741D01*
X169900858Y-77189226D01*
X169831166Y-77184242D01*
X169775233Y-77142370D01*
X169750816Y-77076906D01*
X169750500Y-77068060D01*
X169750500Y-61926079D01*
X169721659Y-61781092D01*
X169721658Y-61781091D01*
X169721658Y-61781087D01*
X169720044Y-61777191D01*
X169665087Y-61644511D01*
X169665080Y-61644498D01*
X169582952Y-61521585D01*
X169582951Y-61521584D01*
X169478416Y-61417049D01*
X167931575Y-59870208D01*
X162978421Y-54917052D01*
X162978414Y-54917046D01*
X162921041Y-54878711D01*
X171149500Y-54878711D01*
X171149500Y-55121288D01*
X171181161Y-55361785D01*
X171243947Y-55596104D01*
X171316471Y-55771191D01*
X171336776Y-55820212D01*
X171458064Y-56030289D01*
X171458066Y-56030292D01*
X171458067Y-56030293D01*
X171605733Y-56222736D01*
X171605739Y-56222743D01*
X171777256Y-56394260D01*
X171777262Y-56394265D01*
X171969711Y-56541936D01*
X172179788Y-56663224D01*
X172403900Y-56756054D01*
X172638211Y-56818838D01*
X172818586Y-56842584D01*
X172878711Y-56850500D01*
X172878712Y-56850500D01*
X173121289Y-56850500D01*
X173176373Y-56843248D01*
X173361789Y-56818838D01*
X173596100Y-56756054D01*
X173820212Y-56663224D01*
X174030289Y-56541936D01*
X174222738Y-56394265D01*
X174394265Y-56222738D01*
X174541936Y-56030289D01*
X174663224Y-55820212D01*
X174756054Y-55596100D01*
X174818838Y-55361789D01*
X174850500Y-55121288D01*
X174850500Y-54878712D01*
X174818838Y-54638211D01*
X174756054Y-54403900D01*
X174663224Y-54179788D01*
X174541936Y-53969711D01*
X174394265Y-53777262D01*
X174394260Y-53777256D01*
X174222743Y-53605739D01*
X174222736Y-53605733D01*
X174030293Y-53458067D01*
X174030292Y-53458066D01*
X174030289Y-53458064D01*
X173820212Y-53336776D01*
X173820205Y-53336773D01*
X173596104Y-53243947D01*
X173361785Y-53181161D01*
X173121289Y-53149500D01*
X173121288Y-53149500D01*
X172878712Y-53149500D01*
X172878711Y-53149500D01*
X172638214Y-53181161D01*
X172403895Y-53243947D01*
X172179794Y-53336773D01*
X172179785Y-53336777D01*
X171969706Y-53458067D01*
X171777263Y-53605733D01*
X171777256Y-53605739D01*
X171605739Y-53777256D01*
X171605733Y-53777263D01*
X171458067Y-53969706D01*
X171336777Y-54179785D01*
X171336773Y-54179794D01*
X171243947Y-54403895D01*
X171181161Y-54638214D01*
X171149500Y-54878711D01*
X162921041Y-54878711D01*
X162904729Y-54867812D01*
X162904729Y-54867813D01*
X162855491Y-54834913D01*
X162718917Y-54778343D01*
X162718907Y-54778340D01*
X162573920Y-54749500D01*
X162573918Y-54749500D01*
X141426082Y-54749500D01*
X141426076Y-54749500D01*
X141397242Y-54755234D01*
X141397243Y-54755235D01*
X141281093Y-54778339D01*
X141281083Y-54778342D01*
X141201081Y-54811479D01*
X141201082Y-54811480D01*
X141201080Y-54811481D01*
X141144505Y-54834916D01*
X141078961Y-54878711D01*
X141078960Y-54878712D01*
X141021585Y-54917047D01*
X141021582Y-54917050D01*
X140191937Y-55746693D01*
X140155873Y-55769370D01*
X140156750Y-55771191D01*
X140150475Y-55774212D01*
X139997737Y-55870184D01*
X139870184Y-55997737D01*
X139774211Y-56150476D01*
X139714631Y-56320745D01*
X139714630Y-56320750D01*
X139694435Y-56499996D01*
X139694435Y-56500003D01*
X139714630Y-56679249D01*
X139714631Y-56679254D01*
X139774211Y-56849523D01*
X139870184Y-57002262D01*
X139997738Y-57129816D01*
X140150478Y-57225789D01*
X140320745Y-57285368D01*
X140320750Y-57285369D01*
X140499996Y-57305565D01*
X140500000Y-57305565D01*
X140500004Y-57305565D01*
X140679249Y-57285369D01*
X140679252Y-57285368D01*
X140679255Y-57285368D01*
X140849522Y-57225789D01*
X141002262Y-57129816D01*
X141129816Y-57002262D01*
X141225789Y-56849522D01*
X141225792Y-56849510D01*
X141228810Y-56843248D01*
X141230650Y-56844134D01*
X141253305Y-56808061D01*
X141774548Y-56286819D01*
X141835871Y-56253334D01*
X141862229Y-56250500D01*
X162137770Y-56250500D01*
X162204809Y-56270185D01*
X162225451Y-56286819D01*
X168213181Y-62274548D01*
X168246666Y-62335871D01*
X168249500Y-62362229D01*
X168249500Y-72525500D01*
X168229815Y-72592539D01*
X168177011Y-72638294D01*
X168125500Y-72649500D01*
X166602129Y-72649500D01*
X166602123Y-72649501D01*
X166542516Y-72655908D01*
X166407671Y-72706202D01*
X166407665Y-72706206D01*
X166335531Y-72760205D01*
X166270067Y-72784622D01*
X166201794Y-72769770D01*
X166173540Y-72748619D01*
X157564209Y-64139289D01*
X157564206Y-64139285D01*
X157564206Y-64139286D01*
X157557139Y-64132219D01*
X157557139Y-64132218D01*
X157417782Y-63992861D01*
X157417781Y-63992860D01*
X157417780Y-63992859D01*
X157253920Y-63883371D01*
X157253911Y-63883366D01*
X157167751Y-63847678D01*
X157125165Y-63830038D01*
X157071836Y-63807949D01*
X157071832Y-63807948D01*
X157071828Y-63807946D01*
X156975188Y-63788724D01*
X156878544Y-63769500D01*
X156878541Y-63769500D01*
X150326405Y-63769500D01*
X150259366Y-63749815D01*
X150214207Y-63698297D01*
X150150539Y-63562996D01*
X150150535Y-63562990D01*
X149981948Y-63297338D01*
X149981945Y-63297334D01*
X149781393Y-63054909D01*
X149781391Y-63054907D01*
X149552031Y-62839523D01*
X149552021Y-62839515D01*
X149297495Y-62654591D01*
X149297488Y-62654586D01*
X149297484Y-62654584D01*
X149021766Y-62503006D01*
X149021763Y-62503004D01*
X149021758Y-62503002D01*
X149021757Y-62503001D01*
X148729228Y-62387181D01*
X148729225Y-62387180D01*
X148424476Y-62308934D01*
X148424463Y-62308932D01*
X148112329Y-62269500D01*
X148112318Y-62269500D01*
X147797682Y-62269500D01*
X147797670Y-62269500D01*
X147485536Y-62308932D01*
X147485523Y-62308934D01*
X147180774Y-62387180D01*
X147180771Y-62387181D01*
X146888242Y-62503001D01*
X146888241Y-62503002D01*
X146612516Y-62654584D01*
X146612504Y-62654591D01*
X146357978Y-62839515D01*
X146357968Y-62839523D01*
X146128608Y-63054907D01*
X146128606Y-63054909D01*
X145928054Y-63297334D01*
X145928051Y-63297338D01*
X145759464Y-63562990D01*
X145759461Y-63562996D01*
X145625499Y-63847678D01*
X145625497Y-63847683D01*
X145528270Y-64146916D01*
X145469311Y-64455988D01*
X145469310Y-64455995D01*
X145449556Y-64769994D01*
X145449556Y-64770005D01*
X145469310Y-65084004D01*
X145469311Y-65084011D01*
X145528270Y-65393083D01*
X145625497Y-65692316D01*
X145625499Y-65692321D01*
X145759461Y-65977003D01*
X145759464Y-65977009D01*
X145928051Y-66242661D01*
X145928054Y-66242665D01*
X146128606Y-66485090D01*
X146128608Y-66485092D01*
X146128610Y-66485094D01*
X146335364Y-66679249D01*
X146357968Y-66700476D01*
X146357978Y-66700484D01*
X146612504Y-66885408D01*
X146612509Y-66885410D01*
X146612516Y-66885416D01*
X146888234Y-67036994D01*
X146888239Y-67036996D01*
X146888241Y-67036997D01*
X146888242Y-67036998D01*
X147180771Y-67152818D01*
X147180774Y-67152819D01*
X147464974Y-67225789D01*
X147485527Y-67231066D01*
X147551010Y-67239338D01*
X147797670Y-67270499D01*
X147797679Y-67270499D01*
X147797682Y-67270500D01*
X147797684Y-67270500D01*
X148112316Y-67270500D01*
X148112318Y-67270500D01*
X148112321Y-67270499D01*
X148112329Y-67270499D01*
X148298593Y-67246968D01*
X148424473Y-67231066D01*
X148729225Y-67152819D01*
X148729228Y-67152818D01*
X149021757Y-67036998D01*
X149021758Y-67036997D01*
X149021756Y-67036997D01*
X149021766Y-67036994D01*
X149297484Y-66885416D01*
X149552030Y-66700478D01*
X149781390Y-66485094D01*
X149981947Y-66242663D01*
X149987435Y-66234016D01*
X150039976Y-66187959D01*
X150109076Y-66177619D01*
X150172797Y-66206279D01*
X150210908Y-66264840D01*
X150215353Y-66314339D01*
X150194435Y-66499996D01*
X150194435Y-66500003D01*
X150214630Y-66679249D01*
X150214631Y-66679254D01*
X150274211Y-66849523D01*
X150327624Y-66934529D01*
X150370184Y-67002262D01*
X150497738Y-67129816D01*
X150650478Y-67225789D01*
X150820745Y-67285368D01*
X150907669Y-67295161D01*
X150972080Y-67322226D01*
X150981465Y-67330700D01*
X152226123Y-68575358D01*
X152259608Y-68636681D01*
X152255484Y-68703993D01*
X152214632Y-68820742D01*
X152214630Y-68820750D01*
X152194435Y-68999996D01*
X152194435Y-69000003D01*
X152214630Y-69179249D01*
X152214631Y-69179254D01*
X152274211Y-69349523D01*
X152370184Y-69502262D01*
X152497738Y-69629816D01*
X152546560Y-69660493D01*
X152634330Y-69715643D01*
X152650478Y-69725789D01*
X152820745Y-69785368D01*
X152820750Y-69785369D01*
X152999996Y-69805565D01*
X153000000Y-69805565D01*
X153000004Y-69805565D01*
X153179249Y-69785369D01*
X153179252Y-69785368D01*
X153179255Y-69785368D01*
X153349522Y-69725789D01*
X153502262Y-69629816D01*
X153629816Y-69502262D01*
X153725789Y-69349522D01*
X153785368Y-69179255D01*
X153805565Y-69000000D01*
X153799210Y-68943599D01*
X153785369Y-68820750D01*
X153785368Y-68820745D01*
X153725788Y-68650476D01*
X153629813Y-68497734D01*
X153627550Y-68494896D01*
X153626659Y-68492715D01*
X153626111Y-68491842D01*
X153626264Y-68491745D01*
X153601144Y-68430209D01*
X153600779Y-68423069D01*
X153600500Y-68420950D01*
X153600500Y-68420943D01*
X153559577Y-68268215D01*
X153516980Y-68194435D01*
X153480520Y-68131284D01*
X153368716Y-68019480D01*
X153368715Y-68019479D01*
X153364385Y-68015149D01*
X153364374Y-68015139D01*
X151830700Y-66481465D01*
X151797215Y-66420142D01*
X151795163Y-66407686D01*
X151785368Y-66320745D01*
X151725789Y-66150478D01*
X151629816Y-65997738D01*
X151614259Y-65982181D01*
X151580774Y-65920858D01*
X151585758Y-65851166D01*
X151627630Y-65795233D01*
X151693094Y-65770816D01*
X151701940Y-65770500D01*
X156314218Y-65770500D01*
X156381257Y-65790185D01*
X156401899Y-65806819D01*
X163122898Y-72527819D01*
X163156383Y-72589142D01*
X163151399Y-72658834D01*
X163109527Y-72714767D01*
X163044063Y-72739184D01*
X163035217Y-72739500D01*
X162102129Y-72739500D01*
X162102123Y-72739501D01*
X162042516Y-72745908D01*
X161907671Y-72796202D01*
X161907664Y-72796206D01*
X161792455Y-72882452D01*
X161792452Y-72882455D01*
X161706206Y-72997664D01*
X161706202Y-72997671D01*
X161655908Y-73132517D01*
X161649501Y-73192116D01*
X161649501Y-73192123D01*
X161649500Y-73192135D01*
X161649500Y-74987870D01*
X161649501Y-74987876D01*
X161655908Y-75047483D01*
X161706202Y-75182328D01*
X161706206Y-75182335D01*
X161792452Y-75297544D01*
X161792455Y-75297547D01*
X161907664Y-75383793D01*
X161907671Y-75383797D01*
X162039081Y-75432810D01*
X162095015Y-75474681D01*
X162119432Y-75540145D01*
X162104580Y-75608418D01*
X162083430Y-75636673D01*
X161961503Y-75758600D01*
X161825965Y-75952169D01*
X161825964Y-75952171D01*
X161756440Y-76101267D01*
X161726721Y-76165000D01*
X161726098Y-76166335D01*
X161726094Y-76166344D01*
X161664938Y-76394586D01*
X161664936Y-76394596D01*
X161644341Y-76629999D01*
X161644341Y-76630000D01*
X161664936Y-76865403D01*
X161664938Y-76865413D01*
X161726094Y-77093655D01*
X161726096Y-77093659D01*
X161726097Y-77093663D01*
X161810742Y-77275185D01*
X161825965Y-77307830D01*
X161825967Y-77307834D01*
X161898486Y-77411401D01*
X161961501Y-77501396D01*
X161961506Y-77501402D01*
X161989580Y-77529476D01*
X162023065Y-77590799D01*
X162018081Y-77660491D01*
X161989580Y-77704838D01*
X161369481Y-78324936D01*
X161369479Y-78324939D01*
X161355286Y-78349523D01*
X161330265Y-78392861D01*
X161290423Y-78461869D01*
X161249499Y-78614597D01*
X161249499Y-78614599D01*
X161249499Y-78782700D01*
X161249500Y-78782713D01*
X161249500Y-84639676D01*
X161249499Y-84639694D01*
X161249499Y-84805400D01*
X161249498Y-84805400D01*
X161290423Y-84958131D01*
X161319358Y-85008246D01*
X161319359Y-85008250D01*
X161319360Y-85008250D01*
X161369479Y-85095060D01*
X161369481Y-85095063D01*
X161488349Y-85213931D01*
X161488355Y-85213936D01*
X161989579Y-85715160D01*
X162023064Y-85776483D01*
X162018080Y-85846175D01*
X161989582Y-85890519D01*
X161961506Y-85918596D01*
X161825965Y-86112169D01*
X161825964Y-86112171D01*
X161726098Y-86326335D01*
X161726094Y-86326344D01*
X161664938Y-86554586D01*
X161664936Y-86554596D01*
X161644341Y-86789999D01*
X161644341Y-86790000D01*
X161664936Y-87025403D01*
X161664938Y-87025413D01*
X161723349Y-87243407D01*
X161721686Y-87313257D01*
X161682523Y-87371119D01*
X161618295Y-87398623D01*
X161603574Y-87399500D01*
X156358571Y-87399500D01*
X156291532Y-87379815D01*
X156245777Y-87327011D01*
X156235833Y-87257853D01*
X156246189Y-87223095D01*
X156273903Y-87163663D01*
X156335063Y-86935408D01*
X156355659Y-86700000D01*
X156335063Y-86464592D01*
X156273903Y-86236337D01*
X156174035Y-86022171D01*
X156103549Y-85921505D01*
X156038494Y-85828597D01*
X155871402Y-85661506D01*
X155871396Y-85661501D01*
X155685842Y-85531575D01*
X155642217Y-85476998D01*
X155635023Y-85407500D01*
X155666546Y-85345145D01*
X155685842Y-85328425D01*
X155737599Y-85292184D01*
X155871401Y-85198495D01*
X156038495Y-85031401D01*
X156174035Y-84837830D01*
X156273903Y-84623663D01*
X156335063Y-84395408D01*
X156355659Y-84160000D01*
X156335063Y-83924592D01*
X156273903Y-83696337D01*
X156174035Y-83482171D01*
X156173925Y-83482013D01*
X156038494Y-83288597D01*
X155871402Y-83121506D01*
X155871396Y-83121501D01*
X155685842Y-82991575D01*
X155642217Y-82936998D01*
X155635023Y-82867500D01*
X155666546Y-82805145D01*
X155685842Y-82788425D01*
X155708026Y-82772891D01*
X155871401Y-82658495D01*
X156038495Y-82491401D01*
X156174035Y-82297830D01*
X156273903Y-82083663D01*
X156335063Y-81855408D01*
X156355659Y-81620000D01*
X156335063Y-81384592D01*
X156273903Y-81156337D01*
X156174035Y-80942171D01*
X156157435Y-80918464D01*
X156038496Y-80748600D01*
X156038495Y-80748599D01*
X155916567Y-80626671D01*
X155883084Y-80565351D01*
X155888068Y-80495659D01*
X155929939Y-80439725D01*
X155960915Y-80422810D01*
X156092331Y-80373796D01*
X156207546Y-80287546D01*
X156293796Y-80172331D01*
X156344091Y-80037483D01*
X156350500Y-79977873D01*
X156350499Y-78182128D01*
X156344091Y-78122517D01*
X156340479Y-78112834D01*
X156293797Y-77987671D01*
X156293793Y-77987664D01*
X156207547Y-77872455D01*
X156207544Y-77872452D01*
X156092335Y-77786206D01*
X156092328Y-77786202D01*
X155960917Y-77737189D01*
X155904983Y-77695318D01*
X155880566Y-77629853D01*
X155895418Y-77561580D01*
X155916563Y-77533332D01*
X156038495Y-77411401D01*
X156174035Y-77217830D01*
X156273903Y-77003663D01*
X156335063Y-76775408D01*
X156355659Y-76540000D01*
X156335063Y-76304592D01*
X156273903Y-76076337D01*
X156174035Y-75862171D01*
X156157436Y-75838464D01*
X156038494Y-75668597D01*
X155871402Y-75501506D01*
X155871396Y-75501501D01*
X155685842Y-75371575D01*
X155642217Y-75316998D01*
X155635023Y-75247500D01*
X155666546Y-75185145D01*
X155685842Y-75168425D01*
X155708026Y-75152891D01*
X155871401Y-75038495D01*
X156038495Y-74871401D01*
X156174035Y-74677830D01*
X156273903Y-74463663D01*
X156335063Y-74235408D01*
X156355659Y-74000000D01*
X156335063Y-73764592D01*
X156273903Y-73536337D01*
X156174035Y-73322171D01*
X156157436Y-73298464D01*
X156038494Y-73128597D01*
X155871402Y-72961506D01*
X155871395Y-72961501D01*
X155860018Y-72953535D01*
X155832521Y-72934281D01*
X155677834Y-72825967D01*
X155677830Y-72825965D01*
X155662154Y-72818655D01*
X155463663Y-72726097D01*
X155463659Y-72726096D01*
X155463655Y-72726094D01*
X155235413Y-72664938D01*
X155235403Y-72664936D01*
X155000001Y-72644341D01*
X154999999Y-72644341D01*
X154764596Y-72664936D01*
X154764586Y-72664938D01*
X154536344Y-72726094D01*
X154536335Y-72726098D01*
X154322171Y-72825964D01*
X154322169Y-72825965D01*
X154128597Y-72961505D01*
X153961505Y-73128597D01*
X153825965Y-73322169D01*
X153825964Y-73322171D01*
X153726098Y-73536335D01*
X153726094Y-73536344D01*
X153664938Y-73764586D01*
X153664936Y-73764596D01*
X153644341Y-73999999D01*
X153644341Y-74000000D01*
X153664936Y-74235403D01*
X153664938Y-74235413D01*
X153726094Y-74463655D01*
X153726096Y-74463659D01*
X153726097Y-74463663D01*
X153817462Y-74659596D01*
X153825965Y-74677830D01*
X153825967Y-74677834D01*
X153921662Y-74814500D01*
X153961501Y-74871396D01*
X153961506Y-74871402D01*
X154128597Y-75038493D01*
X154128603Y-75038498D01*
X154314158Y-75168425D01*
X154357783Y-75223002D01*
X154364977Y-75292500D01*
X154333454Y-75354855D01*
X154314158Y-75371575D01*
X154128597Y-75501505D01*
X153961505Y-75668597D01*
X153825965Y-75862169D01*
X153825964Y-75862171D01*
X153726098Y-76076335D01*
X153726094Y-76076344D01*
X153664938Y-76304586D01*
X153664936Y-76304596D01*
X153644341Y-76539999D01*
X153644341Y-76540000D01*
X153664936Y-76775403D01*
X153664937Y-76775407D01*
X153726094Y-77003655D01*
X153726096Y-77003659D01*
X153726097Y-77003663D01*
X153821948Y-77209216D01*
X153825965Y-77217830D01*
X153825967Y-77217834D01*
X153918862Y-77350500D01*
X153961501Y-77411396D01*
X153961506Y-77411402D01*
X154083430Y-77533326D01*
X154116915Y-77594649D01*
X154111931Y-77664341D01*
X154070059Y-77720274D01*
X154039083Y-77737189D01*
X153907669Y-77786203D01*
X153907664Y-77786206D01*
X153792455Y-77872452D01*
X153792452Y-77872455D01*
X153706206Y-77987664D01*
X153706202Y-77987671D01*
X153655908Y-78122517D01*
X153649809Y-78179249D01*
X153649501Y-78182123D01*
X153649500Y-78182135D01*
X153649500Y-79977870D01*
X153649501Y-79977876D01*
X153655908Y-80037483D01*
X153706202Y-80172328D01*
X153706206Y-80172335D01*
X153792452Y-80287544D01*
X153792455Y-80287547D01*
X153907664Y-80373793D01*
X153907671Y-80373797D01*
X154039081Y-80422810D01*
X154095015Y-80464681D01*
X154119432Y-80530145D01*
X154104580Y-80598418D01*
X154083430Y-80626673D01*
X153961503Y-80748600D01*
X153825965Y-80942169D01*
X153825964Y-80942171D01*
X153726098Y-81156335D01*
X153726094Y-81156344D01*
X153664938Y-81384586D01*
X153664936Y-81384596D01*
X153644341Y-81619999D01*
X153644341Y-81620000D01*
X153664936Y-81855403D01*
X153664938Y-81855413D01*
X153726094Y-82083655D01*
X153726096Y-82083659D01*
X153726097Y-82083663D01*
X153816634Y-82277819D01*
X153825965Y-82297830D01*
X153825967Y-82297834D01*
X153919670Y-82431654D01*
X153961501Y-82491396D01*
X153961506Y-82491402D01*
X154128597Y-82658493D01*
X154128603Y-82658498D01*
X154314158Y-82788425D01*
X154357783Y-82843002D01*
X154364977Y-82912500D01*
X154333454Y-82974855D01*
X154314158Y-82991575D01*
X154128597Y-83121505D01*
X153961505Y-83288597D01*
X153825965Y-83482169D01*
X153825964Y-83482171D01*
X153726098Y-83696335D01*
X153726094Y-83696344D01*
X153664938Y-83924586D01*
X153664936Y-83924596D01*
X153644341Y-84159999D01*
X153644341Y-84160000D01*
X153664936Y-84395403D01*
X153664938Y-84395413D01*
X153726094Y-84623655D01*
X153726096Y-84623659D01*
X153726097Y-84623663D01*
X153812548Y-84809057D01*
X153825965Y-84837830D01*
X153825967Y-84837834D01*
X153900737Y-84944616D01*
X153961424Y-85031286D01*
X153961501Y-85031395D01*
X153961506Y-85031402D01*
X154128597Y-85198493D01*
X154128603Y-85198498D01*
X154314158Y-85328425D01*
X154357783Y-85383002D01*
X154364977Y-85452500D01*
X154333454Y-85514855D01*
X154314158Y-85531575D01*
X154128597Y-85661505D01*
X153961505Y-85828597D01*
X153825965Y-86022169D01*
X153825964Y-86022171D01*
X153726098Y-86236335D01*
X153726094Y-86236344D01*
X153664938Y-86464586D01*
X153664936Y-86464596D01*
X153644341Y-86699999D01*
X153644341Y-86700000D01*
X153664936Y-86935403D01*
X153664938Y-86935413D01*
X153726094Y-87163655D01*
X153726097Y-87163663D01*
X153749864Y-87214632D01*
X153753811Y-87223095D01*
X153764303Y-87292172D01*
X153735783Y-87355956D01*
X153677307Y-87394196D01*
X153641429Y-87399500D01*
X152082412Y-87399500D01*
X152015373Y-87379815D01*
X152005097Y-87372445D01*
X152002263Y-87370185D01*
X152002262Y-87370184D01*
X151920539Y-87318834D01*
X151849523Y-87274211D01*
X151679254Y-87214631D01*
X151679249Y-87214630D01*
X151500004Y-87194435D01*
X151499996Y-87194435D01*
X151320750Y-87214630D01*
X151320745Y-87214631D01*
X151150476Y-87274211D01*
X150997737Y-87370184D01*
X150870184Y-87497737D01*
X150774211Y-87650476D01*
X150714631Y-87820745D01*
X150714630Y-87820750D01*
X150694435Y-87999996D01*
X150694435Y-88000003D01*
X150714630Y-88179249D01*
X150714631Y-88179254D01*
X150774211Y-88349523D01*
X150865582Y-88494938D01*
X150870184Y-88502262D01*
X150997738Y-88629816D01*
X151088080Y-88686582D01*
X151132721Y-88714632D01*
X151150478Y-88725789D01*
X151280415Y-88771256D01*
X151327318Y-88787668D01*
X151326373Y-88790367D01*
X151376132Y-88818192D01*
X151408998Y-88879848D01*
X151403313Y-88949486D01*
X151375259Y-88992663D01*
X151370183Y-88997738D01*
X151274211Y-89150476D01*
X151214631Y-89320745D01*
X151214630Y-89320750D01*
X151194435Y-89499996D01*
X151194435Y-89500003D01*
X151214630Y-89679249D01*
X151214631Y-89679254D01*
X151261972Y-89814545D01*
X151265533Y-89884324D01*
X151230804Y-89944952D01*
X151168811Y-89977179D01*
X151144930Y-89979500D01*
X138895453Y-89979500D01*
X138828414Y-89959815D01*
X138807772Y-89943181D01*
X138702444Y-89837853D01*
X138560236Y-89695646D01*
X138526752Y-89634324D01*
X138528143Y-89575872D01*
X138555063Y-89475408D01*
X138575659Y-89240000D01*
X138555063Y-89004592D01*
X138506184Y-88822171D01*
X138493905Y-88776344D01*
X138493904Y-88776343D01*
X138493903Y-88776337D01*
X138394035Y-88562171D01*
X138363847Y-88519057D01*
X138258494Y-88368597D01*
X138091402Y-88201506D01*
X138091396Y-88201501D01*
X137905842Y-88071575D01*
X137862217Y-88016998D01*
X137855023Y-87947500D01*
X137886546Y-87885145D01*
X137905842Y-87868425D01*
X137958716Y-87831402D01*
X138091401Y-87738495D01*
X138258495Y-87571401D01*
X138394035Y-87377830D01*
X138493903Y-87163663D01*
X138555063Y-86935408D01*
X138575659Y-86700000D01*
X138555063Y-86464592D01*
X138493903Y-86236337D01*
X138394035Y-86022171D01*
X138323549Y-85921505D01*
X138258494Y-85828597D01*
X138091402Y-85661506D01*
X138091396Y-85661501D01*
X137905842Y-85531575D01*
X137862217Y-85476998D01*
X137855023Y-85407500D01*
X137886546Y-85345145D01*
X137905842Y-85328425D01*
X137957599Y-85292184D01*
X138091401Y-85198495D01*
X138258495Y-85031401D01*
X138394035Y-84837830D01*
X138493903Y-84623663D01*
X138555063Y-84395408D01*
X138575659Y-84160000D01*
X138555063Y-83924592D01*
X138493903Y-83696337D01*
X138394035Y-83482171D01*
X138393925Y-83482013D01*
X138258494Y-83288597D01*
X138091402Y-83121506D01*
X138091396Y-83121501D01*
X137905842Y-82991575D01*
X137862217Y-82936998D01*
X137855023Y-82867500D01*
X137886546Y-82805145D01*
X137905842Y-82788425D01*
X137928026Y-82772891D01*
X138091401Y-82658495D01*
X138258495Y-82491401D01*
X138394035Y-82297830D01*
X138493903Y-82083663D01*
X138555063Y-81855408D01*
X138575659Y-81620000D01*
X138555063Y-81384592D01*
X138493903Y-81156337D01*
X138394035Y-80942171D01*
X138377435Y-80918464D01*
X138258496Y-80748600D01*
X138258495Y-80748599D01*
X138136567Y-80626671D01*
X138103084Y-80565351D01*
X138108068Y-80495659D01*
X138149939Y-80439725D01*
X138180915Y-80422810D01*
X138312331Y-80373796D01*
X138427546Y-80287546D01*
X138513796Y-80172331D01*
X138564091Y-80037483D01*
X138570500Y-79977873D01*
X138570499Y-78182128D01*
X138564091Y-78122517D01*
X138560479Y-78112834D01*
X138513797Y-77987671D01*
X138513793Y-77987664D01*
X138427547Y-77872455D01*
X138427544Y-77872452D01*
X138312335Y-77786206D01*
X138312328Y-77786202D01*
X138180917Y-77737189D01*
X138124983Y-77695318D01*
X138100566Y-77629853D01*
X138115418Y-77561580D01*
X138136563Y-77533332D01*
X138258495Y-77411401D01*
X138394035Y-77217830D01*
X138493903Y-77003663D01*
X138555063Y-76775408D01*
X138575659Y-76540000D01*
X138555063Y-76304592D01*
X138493903Y-76076337D01*
X138394035Y-75862171D01*
X138377436Y-75838464D01*
X138258494Y-75668597D01*
X138091402Y-75501506D01*
X138091396Y-75501501D01*
X137905842Y-75371575D01*
X137862217Y-75316998D01*
X137855023Y-75247500D01*
X137886546Y-75185145D01*
X137905842Y-75168425D01*
X137928026Y-75152891D01*
X138091401Y-75038495D01*
X138258495Y-74871401D01*
X138394035Y-74677830D01*
X138493903Y-74463663D01*
X138555063Y-74235408D01*
X138575659Y-74000000D01*
X138555063Y-73764592D01*
X138493903Y-73536337D01*
X138394035Y-73322171D01*
X138377436Y-73298464D01*
X138258494Y-73128597D01*
X138129896Y-73000000D01*
X141500000Y-73000000D01*
X141500000Y-78500000D01*
X150500000Y-78500000D01*
X150500000Y-73000000D01*
X149705901Y-73000000D01*
X149638862Y-72980315D01*
X149629740Y-72973854D01*
X149603633Y-72953535D01*
X149603628Y-72953531D01*
X149399504Y-72843064D01*
X149399495Y-72843061D01*
X149179984Y-72767702D01*
X149008282Y-72739050D01*
X148951049Y-72729500D01*
X148718951Y-72729500D01*
X148673164Y-72737140D01*
X148490015Y-72767702D01*
X148270504Y-72843061D01*
X148270495Y-72843064D01*
X148066371Y-72953531D01*
X148066366Y-72953535D01*
X148040260Y-72973854D01*
X147975266Y-72999496D01*
X147964099Y-73000000D01*
X144255901Y-73000000D01*
X144188862Y-72980315D01*
X144179740Y-72973854D01*
X144153633Y-72953535D01*
X144153628Y-72953531D01*
X143949504Y-72843064D01*
X143949495Y-72843061D01*
X143729984Y-72767702D01*
X143558282Y-72739050D01*
X143501049Y-72729500D01*
X143268951Y-72729500D01*
X143223164Y-72737140D01*
X143040015Y-72767702D01*
X142820504Y-72843061D01*
X142820495Y-72843064D01*
X142616371Y-72953531D01*
X142616366Y-72953535D01*
X142590260Y-72973854D01*
X142525266Y-72999496D01*
X142514099Y-73000000D01*
X141500000Y-73000000D01*
X138129896Y-73000000D01*
X138091402Y-72961506D01*
X138091395Y-72961501D01*
X138080018Y-72953535D01*
X138052521Y-72934281D01*
X137897834Y-72825967D01*
X137897830Y-72825965D01*
X137882154Y-72818655D01*
X137683663Y-72726097D01*
X137683659Y-72726096D01*
X137683655Y-72726094D01*
X137455413Y-72664938D01*
X137455403Y-72664936D01*
X137220001Y-72644341D01*
X137219999Y-72644341D01*
X136984596Y-72664936D01*
X136984586Y-72664938D01*
X136756344Y-72726094D01*
X136756335Y-72726098D01*
X136542171Y-72825964D01*
X136542169Y-72825965D01*
X136348597Y-72961505D01*
X136181505Y-73128597D01*
X136076075Y-73279168D01*
X136021498Y-73322793D01*
X135952000Y-73329986D01*
X135889645Y-73298464D01*
X135854231Y-73238234D01*
X135850500Y-73208045D01*
X135850500Y-67170945D01*
X135850500Y-67170943D01*
X135809577Y-67018216D01*
X135809577Y-67018215D01*
X135761261Y-66934530D01*
X135730520Y-66881284D01*
X135618716Y-66769480D01*
X135618715Y-66769479D01*
X135614385Y-66765149D01*
X135614374Y-66765139D01*
X135330700Y-66481465D01*
X135297215Y-66420142D01*
X135295163Y-66407686D01*
X135285368Y-66320745D01*
X135283126Y-66314339D01*
X135247722Y-66213158D01*
X135244160Y-66143379D01*
X135278888Y-66082752D01*
X135340882Y-66050524D01*
X135410457Y-66056929D01*
X135452444Y-66084522D01*
X135497738Y-66129816D01*
X135573816Y-66177619D01*
X135643903Y-66221658D01*
X135650478Y-66225789D01*
X135820745Y-66285368D01*
X135820750Y-66285369D01*
X135999996Y-66305565D01*
X136000000Y-66305565D01*
X136000004Y-66305565D01*
X136179249Y-66285369D01*
X136179252Y-66285368D01*
X136179255Y-66285368D01*
X136259017Y-66257457D01*
X136299972Y-66250500D01*
X137573920Y-66250500D01*
X137671462Y-66231096D01*
X137718913Y-66221658D01*
X137855495Y-66165084D01*
X137978416Y-66082951D01*
X138082951Y-65978416D01*
X138165084Y-65855495D01*
X138221658Y-65718913D01*
X138250500Y-65573918D01*
X138250500Y-62374500D01*
X138270185Y-62307461D01*
X138322989Y-62261706D01*
X138374500Y-62250500D01*
X145953920Y-62250500D01*
X146051462Y-62231096D01*
X146098913Y-62221658D01*
X146235495Y-62165084D01*
X146284729Y-62132186D01*
X146358416Y-62082952D01*
X148068499Y-60372867D01*
X148129820Y-60339384D01*
X148166984Y-60337022D01*
X148315319Y-60350000D01*
X148379999Y-60355659D01*
X148380000Y-60355659D01*
X148380001Y-60355659D01*
X148444681Y-60350000D01*
X148615408Y-60335063D01*
X148843663Y-60273903D01*
X149057830Y-60174035D01*
X149251401Y-60038495D01*
X149418495Y-59871401D01*
X149548425Y-59685842D01*
X149603002Y-59642217D01*
X149672500Y-59635023D01*
X149734855Y-59666546D01*
X149751575Y-59685842D01*
X149881500Y-59871395D01*
X149881505Y-59871401D01*
X150048599Y-60038495D01*
X150125135Y-60092086D01*
X150242165Y-60174032D01*
X150242167Y-60174033D01*
X150242170Y-60174035D01*
X150456337Y-60273903D01*
X150684592Y-60335063D01*
X150855319Y-60350000D01*
X150919999Y-60355659D01*
X150920000Y-60355659D01*
X150920001Y-60355659D01*
X150984681Y-60350000D01*
X151155408Y-60335063D01*
X151383663Y-60273903D01*
X151597830Y-60174035D01*
X151791401Y-60038495D01*
X151958495Y-59871401D01*
X152088425Y-59685842D01*
X152143002Y-59642217D01*
X152212500Y-59635023D01*
X152274855Y-59666546D01*
X152291575Y-59685842D01*
X152421500Y-59871395D01*
X152421505Y-59871401D01*
X152588599Y-60038495D01*
X152665135Y-60092086D01*
X152782165Y-60174032D01*
X152782167Y-60174033D01*
X152782170Y-60174035D01*
X152996337Y-60273903D01*
X153224592Y-60335063D01*
X153395319Y-60350000D01*
X153459999Y-60355659D01*
X153460000Y-60355659D01*
X153460001Y-60355659D01*
X153524681Y-60350000D01*
X153695408Y-60335063D01*
X153923663Y-60273903D01*
X154137830Y-60174035D01*
X154331401Y-60038495D01*
X154498495Y-59871401D01*
X154628425Y-59685842D01*
X154683002Y-59642217D01*
X154752500Y-59635023D01*
X154814855Y-59666546D01*
X154831575Y-59685842D01*
X154961500Y-59871395D01*
X154961505Y-59871401D01*
X155128599Y-60038495D01*
X155205135Y-60092086D01*
X155322165Y-60174032D01*
X155322167Y-60174033D01*
X155322170Y-60174035D01*
X155536337Y-60273903D01*
X155764592Y-60335063D01*
X155935319Y-60350000D01*
X155999999Y-60355659D01*
X156000000Y-60355659D01*
X156000001Y-60355659D01*
X156064681Y-60350000D01*
X156235408Y-60335063D01*
X156463663Y-60273903D01*
X156677830Y-60174035D01*
X156871401Y-60038495D01*
X157038495Y-59871401D01*
X157168425Y-59685842D01*
X157223002Y-59642217D01*
X157292500Y-59635023D01*
X157354855Y-59666546D01*
X157371575Y-59685842D01*
X157501500Y-59871395D01*
X157501505Y-59871401D01*
X157668599Y-60038495D01*
X157745135Y-60092086D01*
X157862165Y-60174032D01*
X157862167Y-60174033D01*
X157862170Y-60174035D01*
X158076337Y-60273903D01*
X158304592Y-60335063D01*
X158475319Y-60350000D01*
X158539999Y-60355659D01*
X158540000Y-60355659D01*
X158540001Y-60355659D01*
X158604681Y-60350000D01*
X158775408Y-60335063D01*
X159003663Y-60273903D01*
X159217830Y-60174035D01*
X159411401Y-60038495D01*
X159578495Y-59871401D01*
X159708425Y-59685842D01*
X159763002Y-59642217D01*
X159832500Y-59635023D01*
X159894855Y-59666546D01*
X159911575Y-59685842D01*
X160041500Y-59871395D01*
X160041505Y-59871401D01*
X160208599Y-60038495D01*
X160285135Y-60092086D01*
X160402165Y-60174032D01*
X160402167Y-60174033D01*
X160402170Y-60174035D01*
X160616337Y-60273903D01*
X160844592Y-60335063D01*
X161015319Y-60350000D01*
X161079999Y-60355659D01*
X161080000Y-60355659D01*
X161080001Y-60355659D01*
X161144681Y-60350000D01*
X161315408Y-60335063D01*
X161543663Y-60273903D01*
X161757830Y-60174035D01*
X161951401Y-60038495D01*
X162118495Y-59871401D01*
X162254035Y-59677830D01*
X162353903Y-59463663D01*
X162415063Y-59235408D01*
X162435659Y-59000000D01*
X162415063Y-58764592D01*
X162353903Y-58536337D01*
X162254035Y-58322171D01*
X162248425Y-58314158D01*
X162118494Y-58128597D01*
X161951402Y-57961506D01*
X161951395Y-57961501D01*
X161757834Y-57825967D01*
X161757830Y-57825965D01*
X161686727Y-57792809D01*
X161543663Y-57726097D01*
X161543659Y-57726096D01*
X161543655Y-57726094D01*
X161315413Y-57664938D01*
X161315403Y-57664936D01*
X161080001Y-57644341D01*
X161079999Y-57644341D01*
X160844596Y-57664936D01*
X160844586Y-57664938D01*
X160616344Y-57726094D01*
X160616335Y-57726098D01*
X160402171Y-57825964D01*
X160402169Y-57825965D01*
X160208597Y-57961505D01*
X160041505Y-58128597D01*
X159911575Y-58314158D01*
X159856998Y-58357783D01*
X159787500Y-58364977D01*
X159725145Y-58333454D01*
X159708425Y-58314158D01*
X159578494Y-58128597D01*
X159411402Y-57961506D01*
X159411395Y-57961501D01*
X159217834Y-57825967D01*
X159217830Y-57825965D01*
X159146727Y-57792809D01*
X159003663Y-57726097D01*
X159003659Y-57726096D01*
X159003655Y-57726094D01*
X158775413Y-57664938D01*
X158775403Y-57664936D01*
X158540001Y-57644341D01*
X158539999Y-57644341D01*
X158304596Y-57664936D01*
X158304586Y-57664938D01*
X158076344Y-57726094D01*
X158076335Y-57726098D01*
X157862171Y-57825964D01*
X157862169Y-57825965D01*
X157668597Y-57961505D01*
X157501505Y-58128597D01*
X157371575Y-58314158D01*
X157316998Y-58357783D01*
X157247500Y-58364977D01*
X157185145Y-58333454D01*
X157168425Y-58314158D01*
X157038494Y-58128597D01*
X156871402Y-57961506D01*
X156871395Y-57961501D01*
X156677834Y-57825967D01*
X156677830Y-57825965D01*
X156606727Y-57792809D01*
X156463663Y-57726097D01*
X156463659Y-57726096D01*
X156463655Y-57726094D01*
X156235413Y-57664938D01*
X156235403Y-57664936D01*
X156000001Y-57644341D01*
X155999999Y-57644341D01*
X155764596Y-57664936D01*
X155764586Y-57664938D01*
X155536344Y-57726094D01*
X155536335Y-57726098D01*
X155322171Y-57825964D01*
X155322169Y-57825965D01*
X155128597Y-57961505D01*
X154961505Y-58128597D01*
X154831575Y-58314158D01*
X154776998Y-58357783D01*
X154707500Y-58364977D01*
X154645145Y-58333454D01*
X154628425Y-58314158D01*
X154498494Y-58128597D01*
X154331402Y-57961506D01*
X154331395Y-57961501D01*
X154137834Y-57825967D01*
X154137830Y-57825965D01*
X154066727Y-57792809D01*
X153923663Y-57726097D01*
X153923659Y-57726096D01*
X153923655Y-57726094D01*
X153695413Y-57664938D01*
X153695403Y-57664936D01*
X153460001Y-57644341D01*
X153459999Y-57644341D01*
X153224596Y-57664936D01*
X153224586Y-57664938D01*
X152996344Y-57726094D01*
X152996335Y-57726098D01*
X152782171Y-57825964D01*
X152782169Y-57825965D01*
X152588597Y-57961505D01*
X152421505Y-58128597D01*
X152291575Y-58314158D01*
X152236998Y-58357783D01*
X152167500Y-58364977D01*
X152105145Y-58333454D01*
X152088425Y-58314158D01*
X151958494Y-58128597D01*
X151791402Y-57961506D01*
X151791395Y-57961501D01*
X151597834Y-57825967D01*
X151597830Y-57825965D01*
X151526727Y-57792809D01*
X151383663Y-57726097D01*
X151383659Y-57726096D01*
X151383655Y-57726094D01*
X151155413Y-57664938D01*
X151155403Y-57664936D01*
X150920001Y-57644341D01*
X150919999Y-57644341D01*
X150684596Y-57664936D01*
X150684586Y-57664938D01*
X150456344Y-57726094D01*
X150456335Y-57726098D01*
X150242171Y-57825964D01*
X150242169Y-57825965D01*
X150048597Y-57961505D01*
X149881505Y-58128597D01*
X149751575Y-58314158D01*
X149696998Y-58357783D01*
X149627500Y-58364977D01*
X149565145Y-58333454D01*
X149548425Y-58314158D01*
X149418494Y-58128597D01*
X149251402Y-57961506D01*
X149251395Y-57961501D01*
X149057834Y-57825967D01*
X149057830Y-57825965D01*
X148986727Y-57792809D01*
X148843663Y-57726097D01*
X148843659Y-57726096D01*
X148843655Y-57726094D01*
X148615413Y-57664938D01*
X148615403Y-57664936D01*
X148380001Y-57644341D01*
X148379999Y-57644341D01*
X148144596Y-57664936D01*
X148144586Y-57664938D01*
X147916344Y-57726094D01*
X147916335Y-57726098D01*
X147702171Y-57825964D01*
X147702169Y-57825965D01*
X147508600Y-57961503D01*
X147386284Y-58083819D01*
X147324961Y-58117303D01*
X147255269Y-58112319D01*
X147199336Y-58070447D01*
X147182421Y-58039470D01*
X147133354Y-57907913D01*
X147133350Y-57907906D01*
X147047190Y-57792812D01*
X147047187Y-57792809D01*
X146932093Y-57706649D01*
X146932086Y-57706645D01*
X146797379Y-57656403D01*
X146797372Y-57656401D01*
X146737844Y-57650000D01*
X146090000Y-57650000D01*
X146090000Y-58566988D01*
X146032993Y-58534075D01*
X145905826Y-58500000D01*
X145774174Y-58500000D01*
X145647007Y-58534075D01*
X145590000Y-58566988D01*
X145590000Y-57650000D01*
X144942155Y-57650000D01*
X144882627Y-57656401D01*
X144882620Y-57656403D01*
X144747913Y-57706645D01*
X144747906Y-57706649D01*
X144632812Y-57792809D01*
X144632809Y-57792812D01*
X144546649Y-57907906D01*
X144546645Y-57907913D01*
X144496403Y-58042620D01*
X144496401Y-58042627D01*
X144490000Y-58102155D01*
X144490000Y-58750000D01*
X145406988Y-58750000D01*
X145374075Y-58807007D01*
X145340000Y-58934174D01*
X145340000Y-59065826D01*
X145374075Y-59192993D01*
X145406988Y-59250000D01*
X144490000Y-59250000D01*
X144490000Y-59897844D01*
X144496401Y-59957372D01*
X144496403Y-59957379D01*
X144546645Y-60092086D01*
X144546649Y-60092093D01*
X144632809Y-60207187D01*
X144632812Y-60207190D01*
X144747906Y-60293350D01*
X144747913Y-60293354D01*
X144882620Y-60343596D01*
X144882627Y-60343598D01*
X144942155Y-60349999D01*
X144942172Y-60350000D01*
X145669270Y-60350000D01*
X145736309Y-60369685D01*
X145782064Y-60422489D01*
X145792008Y-60491647D01*
X145762983Y-60555203D01*
X145756951Y-60561681D01*
X145605451Y-60713181D01*
X145544128Y-60746666D01*
X145517770Y-60749500D01*
X137426080Y-60749500D01*
X137281092Y-60778340D01*
X137281082Y-60778343D01*
X137144511Y-60834912D01*
X137144498Y-60834919D01*
X137021584Y-60917048D01*
X137021580Y-60917051D01*
X136917051Y-61021580D01*
X136917048Y-61021584D01*
X136834919Y-61144498D01*
X136834912Y-61144511D01*
X136778343Y-61281082D01*
X136778340Y-61281092D01*
X136749500Y-61426079D01*
X136749500Y-64625500D01*
X136729815Y-64692539D01*
X136677011Y-64738294D01*
X136625500Y-64749500D01*
X136299972Y-64749500D01*
X136259017Y-64742542D01*
X136179254Y-64714631D01*
X136179249Y-64714630D01*
X136000004Y-64694435D01*
X135999996Y-64694435D01*
X135820750Y-64714630D01*
X135820745Y-64714631D01*
X135650476Y-64774211D01*
X135497737Y-64870184D01*
X135370184Y-64997737D01*
X135274211Y-65150476D01*
X135214631Y-65320745D01*
X135214630Y-65320750D01*
X135194435Y-65499996D01*
X135194435Y-65500003D01*
X135214630Y-65679249D01*
X135214632Y-65679257D01*
X135252277Y-65786841D01*
X135255838Y-65856620D01*
X135221109Y-65917247D01*
X135159115Y-65949474D01*
X135089540Y-65943068D01*
X135047554Y-65915476D01*
X135002262Y-65870184D01*
X134849523Y-65774211D01*
X134679254Y-65714631D01*
X134679249Y-65714630D01*
X134500004Y-65694435D01*
X134499996Y-65694435D01*
X134320750Y-65714630D01*
X134320745Y-65714631D01*
X134150476Y-65774211D01*
X133997737Y-65870184D01*
X133870184Y-65997737D01*
X133774211Y-66150476D01*
X133714631Y-66320745D01*
X133714630Y-66320750D01*
X133694435Y-66499996D01*
X119500500Y-66499996D01*
X119500500Y-60643713D01*
X120449500Y-60643713D01*
X120449500Y-60856286D01*
X120482753Y-61066239D01*
X120548444Y-61268414D01*
X120644951Y-61457820D01*
X120769890Y-61629786D01*
X120909068Y-61768964D01*
X120942553Y-61830287D01*
X120937569Y-61899979D01*
X120895697Y-61955912D01*
X120886484Y-61962183D01*
X120731659Y-62057680D01*
X120731655Y-62057683D01*
X120607684Y-62181654D01*
X120515643Y-62330875D01*
X120515641Y-62330880D01*
X120460494Y-62497302D01*
X120460493Y-62497309D01*
X120450000Y-62600013D01*
X120450000Y-63000000D01*
X121516988Y-63000000D01*
X121484075Y-63057007D01*
X121450000Y-63184174D01*
X121450000Y-63315826D01*
X121484075Y-63442993D01*
X121516988Y-63500000D01*
X120450001Y-63500000D01*
X120450001Y-63899986D01*
X120460494Y-64002697D01*
X120515641Y-64169119D01*
X120515643Y-64169124D01*
X120607684Y-64318345D01*
X120731654Y-64442315D01*
X120880875Y-64534356D01*
X120880880Y-64534358D01*
X121047302Y-64589505D01*
X121047309Y-64589506D01*
X121150019Y-64599999D01*
X121699999Y-64599999D01*
X121700000Y-64599998D01*
X121700000Y-63683012D01*
X121757007Y-63715925D01*
X121884174Y-63750000D01*
X122015826Y-63750000D01*
X122142993Y-63715925D01*
X122200000Y-63683012D01*
X122200000Y-64599999D01*
X122749972Y-64599999D01*
X122749986Y-64599998D01*
X122852697Y-64589505D01*
X123019119Y-64534358D01*
X123019124Y-64534356D01*
X123168345Y-64442315D01*
X123292315Y-64318345D01*
X123384356Y-64169124D01*
X123384358Y-64169119D01*
X123439505Y-64002697D01*
X123439506Y-64002690D01*
X123449999Y-63899986D01*
X123450000Y-63899973D01*
X123450000Y-63500000D01*
X122383012Y-63500000D01*
X122415925Y-63442993D01*
X122450000Y-63315826D01*
X122450000Y-63184174D01*
X122415925Y-63057007D01*
X122383012Y-63000000D01*
X123449999Y-63000000D01*
X123449999Y-62600028D01*
X123449998Y-62600013D01*
X123439505Y-62497302D01*
X123384358Y-62330880D01*
X123384356Y-62330875D01*
X123292315Y-62181654D01*
X123168345Y-62057684D01*
X123013515Y-61962184D01*
X122966791Y-61910236D01*
X122955568Y-61841273D01*
X122983412Y-61777191D01*
X122990909Y-61768986D01*
X123130104Y-61629792D01*
X123255051Y-61457816D01*
X123351557Y-61268412D01*
X123417246Y-61066243D01*
X123450500Y-60856287D01*
X123450500Y-60643713D01*
X123417246Y-60433757D01*
X123351557Y-60231588D01*
X123255051Y-60042184D01*
X123255049Y-60042181D01*
X123255048Y-60042179D01*
X123130109Y-59870213D01*
X122979786Y-59719890D01*
X122807820Y-59594951D01*
X122618414Y-59498444D01*
X122618413Y-59498443D01*
X122618412Y-59498443D01*
X122416243Y-59432754D01*
X122416241Y-59432753D01*
X122416240Y-59432753D01*
X122254957Y-59407208D01*
X122206287Y-59399500D01*
X121693713Y-59399500D01*
X121645042Y-59407208D01*
X121483760Y-59432753D01*
X121281585Y-59498444D01*
X121092179Y-59594951D01*
X120920213Y-59719890D01*
X120769890Y-59870213D01*
X120644951Y-60042179D01*
X120548444Y-60231585D01*
X120482753Y-60433760D01*
X120449500Y-60643713D01*
X119500500Y-60643713D01*
X119500500Y-54878711D01*
X126149500Y-54878711D01*
X126149500Y-55121288D01*
X126181161Y-55361785D01*
X126243947Y-55596104D01*
X126316471Y-55771191D01*
X126336776Y-55820212D01*
X126458064Y-56030289D01*
X126458066Y-56030292D01*
X126458067Y-56030293D01*
X126605733Y-56222736D01*
X126605739Y-56222743D01*
X126777256Y-56394260D01*
X126777262Y-56394265D01*
X126969711Y-56541936D01*
X127179788Y-56663224D01*
X127403900Y-56756054D01*
X127638211Y-56818838D01*
X127818586Y-56842584D01*
X127878711Y-56850500D01*
X127878712Y-56850500D01*
X128121289Y-56850500D01*
X128176373Y-56843248D01*
X128361789Y-56818838D01*
X128596100Y-56756054D01*
X128820212Y-56663224D01*
X129030289Y-56541936D01*
X129222738Y-56394265D01*
X129394265Y-56222738D01*
X129541936Y-56030289D01*
X129663224Y-55820212D01*
X129756054Y-55596100D01*
X129818838Y-55361789D01*
X129850500Y-55121288D01*
X129850500Y-54878712D01*
X129818838Y-54638211D01*
X129756054Y-54403900D01*
X129663224Y-54179788D01*
X129541936Y-53969711D01*
X129394265Y-53777262D01*
X129394260Y-53777256D01*
X129222743Y-53605739D01*
X129222736Y-53605733D01*
X129030293Y-53458067D01*
X129030292Y-53458066D01*
X129030289Y-53458064D01*
X128820212Y-53336776D01*
X128820205Y-53336773D01*
X128596104Y-53243947D01*
X128361785Y-53181161D01*
X128121289Y-53149500D01*
X128121288Y-53149500D01*
X127878712Y-53149500D01*
X127878711Y-53149500D01*
X127638214Y-53181161D01*
X127403895Y-53243947D01*
X127179794Y-53336773D01*
X127179785Y-53336777D01*
X126969706Y-53458067D01*
X126777263Y-53605733D01*
X126777256Y-53605739D01*
X126605739Y-53777256D01*
X126605733Y-53777263D01*
X126458067Y-53969706D01*
X126336777Y-54179785D01*
X126336773Y-54179794D01*
X126243947Y-54403895D01*
X126181161Y-54638214D01*
X126149500Y-54878711D01*
X119500500Y-54878711D01*
X119500500Y-51624500D01*
X119520185Y-51557461D01*
X119572989Y-51511706D01*
X119624500Y-51500500D01*
X181375500Y-51500500D01*
X181442539Y-51520185D01*
G37*
G04 #@! TD.AperFunction*
M02*
